<svg width="37" height="9" viewBox="0 0 37 9" fill="none" xmlns="http://www.w3.org/2000/svg">
<mask id="mask0_41_10" style="mask-type:luminance" maskUnits="userSpaceOnUse" x="0" y="0" width="37" height="9">
<path d="M0.7229 0.8396H36.7428V8.06996H0.7229V0.8396Z" fill="white"/>
</mask>
<g mask="url(#mask0_41_10)">
<path d="M36.4259 4.47698C36.4259 6.25955 34.9867 7.70933 33.2181 7.70933H4.24693C2.47829 7.70933 1.03911 6.25955 1.03911 4.47698V4.45709C1.03911 2.67453 2.47829 1.22474 4.24693 1.22474H33.2181C34.9867 1.22474 36.4259 2.67453 36.4259 4.45709V4.47698ZM33.2181 0.905884H4.24693C2.30129 0.905884 0.7229 2.49621 0.7229 4.45709V4.47698C0.7229 6.43853 2.30129 8.02819 4.24693 8.02819H33.2181C35.1637 8.02819 36.7428 6.43853 36.7428 4.47698V4.45709C36.7428 2.49621 35.1637 0.905884 33.2181 0.905884Z" fill="#6244BD"/>
</g>
<path d="M4.24695 7.39051C2.65199 7.39051 1.35468 6.08391 1.35468 4.47702V4.45713C1.35468 2.85024 2.65199 1.54364 4.24695 1.54364H33.2181C34.8137 1.54364 36.1111 2.85024 36.1111 4.45713V4.47702C36.1111 6.08391 34.8137 7.39051 33.2181 7.39051H4.24695Z" fill="#6244BD"/>
<path d="M6.24229 4.45843L4.58766 2.79254C4.42724 2.95495 4.42724 3.21747 4.58766 3.37922L5.66158 4.46042L4.58766 5.54163C4.42724 5.70272 4.42724 5.96523 4.58766 6.12831L6.24229 4.46042H6.24096L6.24229 4.45843Z" fill="white"/>
<path d="M5.25456 4.45843L3.59993 2.79254C3.43951 2.95495 3.43951 3.21747 3.59993 3.37922L4.67385 4.46042L3.59993 5.54163C3.43951 5.70272 3.43951 5.96523 3.59993 6.12831L5.25456 4.46042V4.45843Z" fill="white"/>
<path d="M7.60522 5.69678H33.3546V5.96062H7.60522V5.69678Z" fill="white"/>
<path d="M9.08448 5.43332H9.59691L8.89953 3.38361H8.30225L7.60553 5.43332H8.11796L8.22071 5.11115H8.98173L9.08448 5.43332ZM8.36125 4.6723L8.60122 3.91924L8.84119 4.6723H8.36125Z" fill="white"/>
<path d="M10.7496 5.47445C11.1248 5.47445 11.453 5.29016 11.6286 4.9998L11.2243 4.7658C11.1361 4.92357 10.9578 5.0177 10.7496 5.0177C10.387 5.0177 10.1523 4.77442 10.1523 4.40849C10.1523 4.04256 10.387 3.79927 10.7496 3.79927C10.9578 3.79927 11.1334 3.89341 11.2243 4.05118L11.6286 3.81717C11.4497 3.52682 11.1215 3.34253 10.7496 3.34253C10.1318 3.34253 9.68433 3.80524 9.68433 4.40849C9.68433 5.01174 10.1318 5.47445 10.7496 5.47445Z" fill="white"/>
<path d="M12.3453 4.98255V4.61927H13.0772V4.17446H12.3453V3.83438H13.1508V3.38361H11.8766V5.43332H13.1653V4.98255H12.3453Z" fill="white"/>
<path d="M14.1455 5.47445C14.5909 5.47445 14.9071 5.23978 14.9071 4.84468C14.9071 4.41114 14.5585 4.30309 14.2482 4.20962C13.9287 4.11283 13.879 4.04853 13.879 3.9544C13.879 3.87286 13.9526 3.79927 14.0991 3.79927C14.286 3.79927 14.3828 3.89009 14.453 4.0366L14.8481 3.80524C14.699 3.50362 14.4358 3.34253 14.0991 3.34253C13.7444 3.34253 13.411 3.57123 13.411 3.96633C13.411 4.35877 13.7093 4.50527 14.0135 4.59013C14.3211 4.67498 14.4385 4.7247 14.4385 4.85065C14.4385 4.92954 14.3828 5.0177 14.16 5.0177C13.9287 5.0177 13.8027 4.90302 13.7298 4.73331L13.3254 4.96798C13.4401 5.26961 13.7152 5.47445 14.1455 5.47445Z" fill="white"/>
<path d="M15.8579 5.47445C16.3034 5.47445 16.6196 5.23978 16.6196 4.84468C16.6196 4.41114 16.2709 4.30309 15.9607 4.20962C15.6412 4.11283 15.5914 4.04853 15.5914 3.9544C15.5914 3.87286 15.665 3.79927 15.8115 3.79927C15.9985 3.79927 16.0952 3.89009 16.1655 4.0366L16.5606 3.80524C16.4115 3.50362 16.1483 3.34253 15.8115 3.34253C15.4569 3.34253 15.1234 3.57123 15.1234 3.96633C15.1234 4.35877 15.4217 4.50527 15.726 4.59013C16.0336 4.67498 16.1509 4.7247 16.1509 4.85065C16.1509 4.92954 16.0952 5.0177 15.8725 5.0177C15.6412 5.0177 15.5152 4.90302 15.4423 4.73331L15.0379 4.96798C15.1526 5.26961 15.4277 5.47445 15.8579 5.47445Z" fill="white"/>
<path d="M17.3218 4.98255V4.61927H18.0537V4.17446H17.3218V3.83438H18.1273V3.38361H16.8531V5.43332H18.1418V4.98255H17.3218Z" fill="white"/>
<path d="M20.4398 5.43332H20.9522L20.2548 3.38361H19.6575L18.9608 5.43332H19.4732L19.576 5.11115H20.337L20.4398 5.43332ZM19.7165 4.6723L19.9565 3.91924L20.1965 4.6723H19.7165Z" fill="white"/>
<path d="M22.8368 5.47445C23.212 5.47445 23.5401 5.29016 23.7158 4.9998L23.3114 4.7658C23.2233 4.92357 23.0449 5.0177 22.8368 5.0177C22.4742 5.0177 22.2395 4.77442 22.2395 4.40849C22.2395 4.04256 22.4742 3.79927 22.8368 3.79927C23.0449 3.79927 23.2206 3.89341 23.3114 4.05118L23.7158 3.81717C23.5368 3.52682 23.2087 3.34253 22.8368 3.34253C22.2189 3.34253 21.7715 3.80524 21.7715 4.40849C21.7715 5.01174 22.2189 5.47445 22.8368 5.47445Z" fill="white"/>
<path d="M24.9416 5.47445C25.5302 5.47445 26.0075 5.01174 26.0075 4.40849C26.0075 3.80524 25.5302 3.34253 24.9416 3.34253C24.3536 3.34253 23.8763 3.80524 23.8763 4.40849C23.8763 5.01174 24.3536 5.47445 24.9416 5.47445ZM24.9416 5.0177C24.6081 5.0177 24.3443 4.77442 24.3443 4.40849C24.3443 4.04256 24.6081 3.79927 24.9416 3.79927C25.2757 3.79927 25.5395 4.04256 25.5395 4.40849C25.5395 4.77442 25.2757 5.0177 24.9416 5.0177Z" fill="white"/>
<path d="M26.7392 4.98255V3.38361H26.2706V5.43332H27.4711V4.98255H26.7392Z" fill="white"/>
<path d="M28.452 5.47443C28.9028 5.47443 29.2422 5.21059 29.2422 4.77174V3.38361H28.7742V4.73064C28.7742 4.88576 28.7006 5.01768 28.452 5.01768C28.2027 5.01768 28.1298 4.88576 28.1298 4.73064V3.38361H27.6611V4.77174C27.6611 5.21059 28.0005 5.47443 28.452 5.47443Z" fill="white"/>
<path d="M30.7206 3.38361V4.49597L29.9298 3.38361H29.5784V5.43332H30.0471V4.3203L30.8373 5.43332H31.1893V3.38361H30.7206Z" fill="white"/>
<path d="M32.8431 5.43332H33.3555L32.6581 3.38361H32.0609L31.3641 5.43332H31.8766L31.9793 5.11115H32.7403L32.8431 5.43332ZM32.1199 4.6723L32.3598 3.91924L32.5998 4.6723H32.1199Z" fill="white"/>
</svg>
