<svg width="28" height="7" viewBox="0 0 28 7" fill="none" xmlns="http://www.w3.org/2000/svg">
<mask id="mask0_37_7" style="mask-type:luminance" maskUnits="userSpaceOnUse" x="0" y="0" width="28" height="7">
<path d="M0.0288086 0.871399H27.2665V6.34439H0.0288086V0.871399Z" fill="white"/>
</mask>
<g mask="url(#mask0_37_7)">
<path d="M27.0272 3.61585C27.0272 4.96023 25.9387 6.05403 24.6016 6.05403H2.69437C1.35728 6.05403 0.268782 4.96023 0.268782 3.61585V3.6006C0.268782 2.25622 1.35728 1.16242 2.69437 1.16242H24.6016C25.9387 1.16242 27.0272 2.25622 27.0272 3.6006V3.61585ZM24.6016 0.921783H2.69437C1.22271 0.921783 0.0288086 2.12099 0.0288086 3.6006V3.61585C0.0288086 5.09547 1.22271 6.29467 2.69437 6.29467H24.6016C26.0732 6.29467 27.2665 5.09547 27.2665 3.61585V3.6006C27.2665 2.12099 26.0732 0.921783 24.6016 0.921783Z" fill="#6244BD"/>
</g>
<path d="M2.69438 5.8134C1.48788 5.8134 0.506775 4.82766 0.506775 3.61586V3.60061C0.506775 2.38815 1.48788 1.40306 2.69438 1.40306H24.6016C25.8081 1.40306 26.7892 2.38815 26.7892 3.60061V3.61586C26.7892 4.82766 25.8081 5.8134 24.6016 5.8134H2.69438Z" fill="#6244BD"/>
<path d="M4.20315 3.60193L2.95158 2.34439C2.83027 2.46769 2.83027 2.66524 2.95158 2.78721L3.76365 3.60259L2.95158 4.41864C2.83027 4.54061 2.83027 4.73816 2.95158 4.8608L4.20315 3.60259H4.20183L4.20315 3.60193Z" fill="white"/>
<path d="M3.45609 3.60193L2.20518 2.34439C2.08387 2.46769 2.08387 2.66524 2.20518 2.78721L3.01658 3.60259L2.20518 4.41864C2.08387 4.54061 2.08387 4.73816 2.20518 4.8608L3.45609 3.60259V3.60193Z" fill="white"/>
<path d="M5.85251 4.17117H6.17601L5.7365 2.87717H5.3593L4.91913 4.17117H5.24263L5.30759 3.96765H5.7882L5.85251 4.17117ZM5.39642 3.69056L5.54757 3.21525L5.69937 3.69056H5.39642Z" fill="white"/>
<path d="M7.56793 3.44991H6.91894V3.70911H7.26498C7.21858 3.83307 7.10589 3.90864 6.93353 3.90864C6.68229 3.90864 6.52716 3.74756 6.52716 3.52747C6.52716 3.30009 6.68958 3.13967 6.90767 3.13967C7.05418 3.13967 7.17019 3.20596 7.22388 3.29081L7.47579 3.14696C7.36641 2.97328 7.15759 2.8513 6.90966 2.8513C6.52915 2.8513 6.23151 3.15094 6.23151 3.52615C6.23151 3.89738 6.52319 4.19701 6.93021 4.19701C7.29283 4.19701 7.56793 3.95637 7.56793 3.56128V3.44991Z" fill="white"/>
<path d="M8.02984 3.88678V3.65741H8.49189V3.37634H8.02984V3.16156H8.53829V2.87717H7.73352V4.17117H8.54691V3.88678H8.02984Z" fill="white"/>
<path d="M9.43426 2.87717V3.57985L8.93509 2.87717H8.71301V4.17117H9.00933V3.46848L9.5085 4.17117H9.72992V2.87717H9.43426Z" fill="white"/>
<path d="M10.469 2.87717H9.95123V4.17117H10.469C10.8263 4.17117 11.0974 3.89009 11.0974 3.52417C11.0974 3.15824 10.8263 2.87717 10.469 2.87717ZM10.469 3.88678H10.2476V3.16156H10.469C10.6725 3.16156 10.813 3.30209 10.813 3.52417C10.813 3.74624 10.6725 3.88678 10.469 3.88678Z" fill="white"/>
<path d="M12.086 4.17117H12.4095L11.97 2.87717H11.5928L11.1526 4.17117H11.4761L11.5411 3.96765H12.0217L12.086 4.17117ZM11.6299 3.69056L11.7811 3.21525L11.9329 3.69056H11.6299Z" fill="white"/>
<path d="M13.2009 4.17117H13.5184L13.2433 3.69586C13.3858 3.6236 13.482 3.47975 13.482 3.32065C13.482 3.07471 13.2838 2.87717 13.0378 2.87717H12.5201V4.17117H12.8164V3.74624H12.9569L13.2009 4.17117ZM12.8164 3.15426H13.0378C13.1194 3.15426 13.1856 3.22652 13.1856 3.32065C13.1856 3.41479 13.1194 3.48704 13.0378 3.48704H12.8164V3.15426Z" fill="white"/>
<path d="M14.7365 4.19701C14.9732 4.19701 15.18 4.08034 15.2914 3.89738L15.0361 3.74955C14.9805 3.84965 14.8678 3.90864 14.7365 3.90864C14.5071 3.90864 14.3593 3.75485 14.3593 3.52416C14.3593 3.2928 14.5071 3.13967 14.7365 3.13967C14.8678 3.13967 14.9785 3.19867 15.0361 3.29877L15.2914 3.15094C15.178 2.96731 14.9712 2.8513 14.7365 2.8513C14.3461 2.8513 14.0637 3.14298 14.0637 3.52416C14.0637 3.90467 14.3461 4.19701 14.7365 4.19701Z" fill="white"/>
<path d="M16.0652 4.19701C16.4365 4.19701 16.7381 3.90467 16.7381 3.52416C16.7381 3.14298 16.4365 2.8513 16.0652 2.8513C15.6934 2.8513 15.3924 3.14298 15.3924 3.52416C15.3924 3.90467 15.6934 4.19701 16.0652 4.19701ZM16.0652 3.90864C15.8544 3.90864 15.6881 3.75485 15.6881 3.52416C15.6881 3.2928 15.8544 3.13967 16.0652 3.13967C16.2761 3.13967 16.4424 3.2928 16.4424 3.52416C16.4424 3.75485 16.2761 3.90864 16.0652 3.90864Z" fill="white"/>
<path d="M17.625 2.87717V3.57985L17.1258 2.87717H16.9037V4.17117H17.2001V3.46848L17.6992 4.17117H17.9207V2.87717H17.625Z" fill="white"/>
<path d="M18.5954 4.19701C18.8764 4.19701 19.076 4.04918 19.076 3.79926C19.076 3.52615 18.8559 3.4572 18.6597 3.3982C18.4581 3.33722 18.427 3.29678 18.427 3.23778C18.427 3.18541 18.4734 3.13967 18.5655 3.13967C18.6835 3.13967 18.7452 3.19668 18.7889 3.28949L19.0389 3.14298C18.9447 2.95273 18.7783 2.8513 18.5655 2.8513C18.3421 2.8513 18.1313 2.99515 18.1313 3.24507C18.1313 3.49234 18.3196 3.58514 18.5118 3.63884C18.7061 3.69254 18.7803 3.72369 18.7803 3.80324C18.7803 3.85296 18.7452 3.90864 18.6047 3.90864C18.4581 3.90864 18.3786 3.83639 18.3329 3.729L18.0776 3.87749C18.1492 4.06774 18.3236 4.19701 18.5954 4.19701Z" fill="white"/>
<path d="M19.7129 4.19702C19.998 4.19702 20.2121 4.03063 20.2121 3.75353V2.87717H19.9164V3.72768C19.9164 3.82513 19.87 3.90866 19.7129 3.90866C19.5558 3.90866 19.5101 3.82513 19.5101 3.72768V2.87717H19.2137V3.75353C19.2137 4.03063 19.4285 4.19702 19.7129 4.19702Z" fill="white"/>
<path d="M20.7206 3.88678V2.87717H20.4243V4.17117H21.1827V3.88678H20.7206Z" fill="white"/>
<path d="M22.1805 2.87717H21.2192V3.16156H21.552V4.17117H21.8477V3.16156H22.1805V2.87717Z" fill="white"/>
<path d="M23.132 4.17117H23.4555L23.016 2.87717H22.6388L22.1986 4.17117H22.5221L22.5871 3.96765H23.0677L23.132 4.17117ZM22.6759 3.69056L22.827 3.21525L22.9789 3.69056H22.6759Z" fill="white"/>
</svg>
