<svg width="43" height="9" viewBox="0 0 43 9" fill="none" xmlns="http://www.w3.org/2000/svg">
<mask id="mask0_42_15" style="mask-type:luminance" maskUnits="userSpaceOnUse" x="0" y="0" width="43" height="9">
<path d="M0.775269 0.592041H42.3954V8.86516H0.775269V0.592041Z" fill="white"/>
</mask>
<g mask="url(#mask0_42_15)">
<path d="M42.0295 4.73986C42.0295 6.77234 40.3663 8.42564 38.3232 8.42564H4.84819C2.80444 8.42564 1.1412 6.77234 1.1412 4.73986V4.71732C1.1412 2.68418 2.80444 1.03154 4.84819 1.03154H38.3232C40.3663 1.03154 42.0295 2.68418 42.0295 4.71732V4.73986ZM38.3232 0.667603H4.84819C2.5996 0.667603 0.775269 2.48066 0.775269 4.71732V4.73986C0.775269 6.97586 2.5996 8.78892 4.84819 8.78892H38.3232C40.5711 8.78892 42.3954 6.97586 42.3954 4.73986V4.71732C42.3954 2.48066 40.5711 0.667603 38.3232 0.667603Z" fill="#4AB8DF"/>
</g>
<path d="M4.84818 8.06166C3.00463 8.06166 1.50513 6.5721 1.50513 4.73982V4.71728C1.50513 2.885 3.00463 1.39478 4.84818 1.39478H38.3232C40.1667 1.39478 41.6656 2.885 41.6656 4.71728V4.73982C41.6656 6.5721 40.1667 8.06166 38.3232 8.06166H4.84818Z" fill="#4AB8DF"/>
<path d="M7.15315 4.71863L5.24131 2.81873C5.05636 3.00434 5.05636 3.30331 5.24131 3.4876L6.48162 4.72062L5.24131 5.95297C5.05636 6.13725 5.05636 6.43623 5.24131 6.6225L7.15315 4.72062H7.15182L7.15315 4.71863Z" fill="white"/>
<path d="M6.01229 4.71863L4.10045 2.81873C3.91484 3.00434 3.91484 3.30331 4.10045 3.4876L5.34076 4.72062L4.10045 5.95297C3.91484 6.13725 3.91484 6.43623 4.10045 6.6225L6.01229 4.72062V4.71863Z" fill="white"/>
<path d="M9.6812 5.63736H10.1757L9.50288 3.65857H8.92615L8.2533 5.63736H8.74783L8.84726 5.32645H9.58243L9.6812 5.63736ZM8.9825 4.90219L9.21452 4.17564L9.44653 4.90219H8.9825Z" fill="white"/>
<path d="M12.3036 4.53492H11.3112V4.93067H11.8402C11.7693 5.12027 11.5969 5.23561 11.3344 5.23561C10.9499 5.23561 10.7119 4.98967 10.7119 4.65358C10.7119 4.30555 10.9612 4.05961 11.2946 4.05961C11.518 4.05961 11.6964 4.1617 11.7779 4.29163L12.1624 4.07088C11.996 3.80505 11.6765 3.61877 11.2973 3.61877C10.7152 3.61877 10.2598 4.07685 10.2598 4.65093C10.2598 5.21904 10.7066 5.67711 11.3284 5.67711C11.8826 5.67711 12.3036 5.3092 12.3036 4.70462V4.53492Z" fill="white"/>
<path d="M13.0097 5.20182V4.85114H13.717V4.42158H13.0097V4.09344H13.7873V3.65857H12.5576V5.63736H13.8012V5.20182H13.0097Z" fill="white"/>
<path d="M15.1578 3.65857V4.73248L14.3948 3.65857H14.0554V5.63736H14.5075V4.56278L15.2712 5.63736H15.6106V3.65857H15.1578Z" fill="white"/>
<path d="M16.7404 3.65857H15.9489V5.63736H16.7404C17.286 5.63736 17.7016 5.20779 17.7016 4.64763C17.7016 4.08814 17.286 3.65857 16.7404 3.65857ZM16.7404 5.20182H16.401V4.09344H16.7404C17.0513 4.09344 17.2661 4.30822 17.2661 4.64763C17.2661 4.98704 17.0513 5.20182 16.7404 5.20182Z" fill="white"/>
<path d="M19.2137 5.63736H19.7082L19.0354 3.65857H18.4586L17.7858 5.63736H18.2803L18.3797 5.32645H19.1149L19.2137 5.63736ZM18.515 4.90219L18.747 4.17564L18.979 4.90219H18.515Z" fill="white"/>
<path d="M20.9173 5.63736H21.4039L20.9823 4.91081C21.2004 4.80076 21.3475 4.58001 21.3475 4.33673C21.3475 3.96086 21.0446 3.65857 20.6687 3.65857H19.8772V5.63736H20.3293V4.98704H20.5441L20.9173 5.63736ZM20.3293 4.08217H20.6687C20.7933 4.08217 20.8948 4.19287 20.8948 4.33673C20.8948 4.48124 20.7933 4.59128 20.6687 4.59128H20.3293V4.08217Z" fill="white"/>
<path d="M23.2659 5.67711C23.6278 5.67711 23.9447 5.49879 24.1144 5.21904L23.724 4.99299C23.6391 5.14546 23.4668 5.23561 23.2659 5.23561C22.9159 5.23561 22.6892 5.00094 22.6892 4.64761C22.6892 4.29428 22.9159 4.05961 23.2659 4.05961C23.4668 4.05961 23.6365 4.15043 23.724 4.3029L24.1144 4.07685C23.9421 3.7971 23.6252 3.61877 23.2659 3.61877C22.6693 3.61877 22.2371 4.06558 22.2371 4.64761C22.2371 5.23031 22.6693 5.67711 23.2659 5.67711Z" fill="white"/>
<path d="M25.2979 5.67711C25.8667 5.67711 26.3274 5.23031 26.3274 4.64761C26.3274 4.06558 25.8667 3.61877 25.2979 3.61877C24.7298 3.61877 24.269 4.06558 24.269 4.64761C24.269 5.23031 24.7298 5.67711 25.2979 5.67711ZM25.2979 5.23561C24.9757 5.23561 24.7211 5.00094 24.7211 4.64761C24.7211 4.29428 24.9757 4.05961 25.2979 4.05961C25.6207 4.05961 25.8746 4.29428 25.8746 4.64761C25.8746 5.00094 25.6207 5.23561 25.2979 5.23561Z" fill="white"/>
<path d="M27.6832 3.65857V4.73248L26.9202 3.65857H26.5808V5.63736H27.0329V4.56278L27.7966 5.63736H28.136V3.65857H27.6832Z" fill="white"/>
<path d="M29.167 5.67711C29.5966 5.67711 29.9022 5.45106 29.9022 5.06922C29.9022 4.65093 29.5654 4.54619 29.2658 4.45537C28.9575 4.36256 28.9098 4.30025 28.9098 4.20943C28.9098 4.13054 28.9801 4.05961 29.1219 4.05961C29.3029 4.05961 29.3957 4.14711 29.464 4.28898L29.8452 4.06558C29.7013 3.7739 29.4468 3.61877 29.1219 3.61877C28.7799 3.61877 28.457 3.83952 28.457 4.2207C28.457 4.59988 28.7454 4.74108 29.0397 4.82328C29.3367 4.90482 29.4494 4.95321 29.4494 5.07453C29.4494 5.15076 29.3957 5.23561 29.1809 5.23561C28.9575 5.23561 28.8362 5.12557 28.7653 4.96183L28.3755 5.18788C28.4855 5.4789 28.7514 5.67711 29.167 5.67711Z" fill="white"/>
<path d="M30.8768 5.67713C31.3123 5.67713 31.6405 5.42257 31.6405 4.99831V3.65857H31.1877V4.95854C31.1877 5.10835 31.1174 5.23563 30.8768 5.23563C30.6368 5.23563 30.5659 5.10835 30.5659 4.95854V3.65857H30.1138V4.99831C30.1138 5.42257 30.4412 5.67713 30.8768 5.67713Z" fill="white"/>
<path d="M32.4167 5.20182V3.65857H31.9646V5.63736H33.124V5.20182H32.4167Z" fill="white"/>
<path d="M34.6496 3.65857H33.1799V4.09344H33.6884V5.63736H34.1412V4.09344H34.6496V3.65857Z" fill="white"/>
<path d="M36.1054 5.63736H36.5999L35.9271 3.65857H35.3503L34.6775 5.63736H35.172L35.2715 5.32645H36.0066L36.1054 5.63736ZM35.4067 4.90219L35.6387 4.17564L35.8707 4.90219H35.4067Z" fill="white"/>
</svg>
