<svg width="42" height="10" viewBox="0 0 42 10" fill="none" xmlns="http://www.w3.org/2000/svg">
<mask id="mask0_34_5" style="mask-type:luminance" maskUnits="userSpaceOnUse" x="0" y="0" width="42" height="10">
<path d="M0.117676 0.950287H41.6821V9.23335H0.117676V0.950287Z" fill="white"/>
</mask>
<g mask="url(#mask0_34_5)">
<path d="M41.3162 5.11071C41.3162 7.14982 39.6556 8.80776 37.6145 8.80776H4.18529C2.14419 8.80776 0.482939 7.14982 0.482939 5.11071V5.08817C0.482939 3.04906 2.14419 1.39112 4.18529 1.39112H37.6145C39.6556 1.39112 41.3162 3.04906 41.3162 5.08817V5.11071ZM37.6145 1.02652H4.18529C1.93935 1.02652 0.117676 2.84488 0.117676 5.08817V5.11071C0.117676 7.354 1.93935 9.17236 4.18529 9.17236H37.6145C39.8605 9.17236 41.6821 7.354 41.6821 5.11071V5.08817C41.6821 2.84488 39.8605 1.02652 37.6145 1.02652Z" fill="#15324F"/>
</g>
<path d="M4.18528 8.44315C2.34371 8.44315 0.846863 6.94895 0.846863 5.1107V5.08816C0.846863 3.24991 2.34371 1.75571 4.18528 1.75571H37.6145C39.4561 1.75571 40.9529 3.24991 40.9529 5.08816V5.1107C40.9529 6.94895 39.4561 8.44315 37.6145 8.44315H4.18528Z" fill="#15324F"/>
<path d="M6.48758 5.08949L4.57774 3.18362C4.39279 3.3699 4.39279 3.66954 4.57774 3.85449L5.81672 5.09148L4.57774 6.32781C4.39279 6.51276 4.39279 6.81239 4.57774 6.99867L6.48758 5.09148H6.4856L6.48758 5.08949Z" fill="white"/>
<path d="M5.34739 5.08949L3.43821 3.18362C3.25326 3.3699 3.25326 3.66954 3.43821 3.85449L4.67719 5.09148L3.43821 6.32781C3.25326 6.51276 3.25326 6.81239 3.43821 6.99867L5.34739 5.09148V5.08949Z" fill="white"/>
<path d="M9.02373 5.99618H9.51826L8.84541 4.0174H8.26868L7.59583 5.99618H8.09036L8.18979 5.68528H8.92496L9.02373 5.99618ZM8.32503 5.26101L8.55704 4.53447L8.78906 5.26101H8.32503Z" fill="white"/>
<path d="M11.6461 4.89377H10.6537V5.28953H11.1827C11.1118 5.47912 10.9394 5.59447 10.6769 5.59447C10.2924 5.59447 10.0545 5.34853 10.0545 5.01243C10.0545 4.66441 10.3037 4.41847 10.6372 4.41847C10.8606 4.41847 11.0389 4.52055 11.1204 4.65048L11.5049 4.42974C11.3385 4.16391 11.019 3.97763 10.6398 3.97763C10.0578 3.97763 9.60236 4.4357 9.60236 5.00978C9.60236 5.5779 10.0492 6.03597 10.671 6.03597C11.2252 6.03597 11.6461 5.66805 11.6461 5.06348V4.89377Z" fill="white"/>
<path d="M12.3522 5.56065V5.20997H13.0595V4.7804H12.3522V4.45226H13.1298V4.0174H11.9001V5.99618H13.1437V5.56065H12.3522Z" fill="white"/>
<path d="M14.5004 4.0174V5.09131L13.7374 4.0174H13.3979V5.99618H13.8501V4.9216L14.6137 5.99618H14.9531V4.0174H14.5004Z" fill="white"/>
<path d="M16.083 4.0174H15.2914V5.99618H16.083C16.6285 5.99618 17.0442 5.56662 17.0442 5.00646C17.0442 4.44696 16.6285 4.0174 16.083 4.0174ZM16.083 5.56065H15.7435V4.45226H16.083C16.3939 4.45226 16.6086 4.66705 16.6086 5.00646C16.6086 5.34587 16.3939 5.56065 16.083 5.56065Z" fill="white"/>
<path d="M18.5562 5.99618H19.0507L18.3779 4.0174H17.8011L17.1283 5.99618H17.6228L17.7223 5.68528H18.4574L18.5562 5.99618ZM17.8575 5.26101L18.0895 4.53447L18.3215 5.26101H17.8575Z" fill="white"/>
<path d="M20.2599 5.99618H20.7465L20.3249 5.26963C20.543 5.15959 20.6901 4.93884 20.6901 4.69555C20.6901 4.31968 20.3872 4.0174 20.0113 4.0174H19.2198V5.99618H19.6719V5.34587H19.8867L20.2599 5.99618ZM19.6719 4.44099H20.0113C20.1359 4.44099 20.2374 4.5517 20.2374 4.69555C20.2374 4.84007 20.1359 4.95011 20.0113 4.95011H19.6719V4.44099Z" fill="white"/>
<path d="M22.6084 6.03597C22.9703 6.03597 23.2872 5.85764 23.4569 5.5779L23.0664 5.35184C22.9816 5.50431 22.8092 5.59447 22.6084 5.59447C22.2583 5.59447 22.0316 5.3598 22.0316 5.00647C22.0316 4.65314 22.2583 4.41847 22.6084 4.41847C22.8092 4.41847 22.9789 4.50928 23.0664 4.66175L23.4569 4.4357C23.2845 4.15595 22.9677 3.97763 22.6084 3.97763C22.0117 3.97763 21.5795 4.42443 21.5795 5.00647C21.5795 5.58917 22.0117 6.03597 22.6084 6.03597Z" fill="white"/>
<path d="M24.6403 6.03597C25.2091 6.03597 25.6698 5.58917 25.6698 5.00647C25.6698 4.42443 25.2091 3.97763 24.6403 3.97763C24.0722 3.97763 23.6115 4.42443 23.6115 5.00647C23.6115 5.58917 24.0722 6.03597 24.6403 6.03597ZM24.6403 5.59447C24.3181 5.59447 24.0636 5.3598 24.0636 5.00647C24.0636 4.65314 24.3181 4.41847 24.6403 4.41847C24.9631 4.41847 25.217 4.65314 25.217 5.00647C25.217 5.3598 24.9631 5.59447 24.6403 5.59447Z" fill="white"/>
<path d="M27.0258 4.0174V5.09131L26.2627 4.0174H25.9233V5.99618H26.3754V4.9216L27.1391 5.99618H27.4785V4.0174H27.0258Z" fill="white"/>
<path d="M28.5096 6.03597C28.9392 6.03597 29.2448 5.80991 29.2448 5.42808C29.2448 5.00978 28.908 4.90504 28.6084 4.81422C28.3001 4.72142 28.2524 4.6591 28.2524 4.56828C28.2524 4.4894 28.3227 4.41847 28.4645 4.41847C28.6455 4.41847 28.7383 4.50597 28.8066 4.64783L29.1878 4.42443C29.0439 4.13275 28.7893 3.97763 28.4645 3.97763C28.1225 3.97763 27.7996 4.19838 27.7996 4.57955C27.7996 4.95874 28.088 5.09994 28.3823 5.18214C28.6793 5.26368 28.792 5.31207 28.792 5.43338C28.792 5.50962 28.7383 5.59447 28.5235 5.59447C28.3001 5.59447 28.1788 5.48443 28.1079 5.32069L27.7181 5.54674C27.8281 5.83776 28.0939 6.03597 28.5096 6.03597Z" fill="white"/>
<path d="M30.2192 6.03596C30.6548 6.03596 30.9829 5.7814 30.9829 5.35714V4.0174H30.5302V5.31736C30.5302 5.46718 30.4599 5.59446 30.2192 5.59446C29.9793 5.59446 29.9083 5.46718 29.9083 5.31736V4.0174H29.4562V5.35714C29.4562 5.7814 29.7837 6.03596 30.2192 6.03596Z" fill="white"/>
<path d="M31.7592 5.56065V4.0174H31.3071V5.99618H32.4665V5.56065H31.7592Z" fill="white"/>
<path d="M33.9921 4.0174H32.5225V4.45226H33.0309V5.99618H33.4837V4.45226H33.9921V4.0174Z" fill="white"/>
<path d="M35.4479 5.99618H35.9425L35.2696 4.0174H34.6929L34.02 5.99618H34.5146L34.614 5.68528H35.3492L35.4479 5.99618ZM34.7492 5.26101L34.9812 4.53447L35.2133 5.26101H34.7492Z" fill="white"/>
</svg>
