<svg width="75" height="71" viewBox="0 0 75 71" fill="none" xmlns="http://www.w3.org/2000/svg">
<mask id="mask0_42_13" style="mask-type:luminance" maskUnits="userSpaceOnUse" x="0" y="62" width="43" height="9">
<path d="M0.775269 62.592H42.3954V70.8652H0.775269V62.592Z" fill="white"/>
</mask>
<g mask="url(#mask0_42_13)">
<path d="M42.0295 66.7399C42.0295 68.7723 40.3663 70.4256 38.3232 70.4256H4.84819C2.80444 70.4256 1.14119 68.7723 1.14119 66.7399V66.7173C1.14119 64.6842 2.80444 63.0315 4.84819 63.0315H38.3232C40.3663 63.0315 42.0295 64.6842 42.0295 66.7173V66.7399ZM38.3232 62.6676H4.84819C2.5996 62.6676 0.775269 64.4807 0.775269 66.7173V66.7399C0.775269 68.9759 2.5996 70.7889 4.84819 70.7889H38.3232C40.5711 70.7889 42.3954 68.9759 42.3954 66.7399V66.7173C42.3954 64.4807 40.5711 62.6676 38.3232 62.6676Z" fill="#4AB8DF"/>
</g>
<path d="M4.84818 70.0617C3.00463 70.0617 1.50513 68.5721 1.50513 66.7398V66.7173C1.50513 64.885 3.00463 63.3948 4.84818 63.3948H38.3232C40.1667 63.3948 41.6656 64.885 41.6656 66.7173V66.7398C41.6656 68.5721 40.1667 70.0617 38.3232 70.0617H4.84818Z" fill="#4AB8DF"/>
<path d="M7.15315 66.7186L5.24131 64.8187C5.05636 65.0043 5.05636 65.3033 5.24131 65.4876L6.48162 66.7206L5.24131 67.953C5.05636 68.1373 5.05636 68.4362 5.24131 68.6225L7.15315 66.7206H7.15182L7.15315 66.7186Z" fill="white"/>
<path d="M6.01229 66.7186L4.10045 64.8187C3.91484 65.0043 3.91484 65.3033 4.10045 65.4876L5.34076 66.7206L4.10045 67.953C3.91484 68.1373 3.91484 68.4362 4.10045 68.6225L6.01229 66.7206V66.7186Z" fill="white"/>
<path d="M9.6812 67.6374H10.1757L9.50288 65.6586H8.92615L8.2533 67.6374H8.74783L8.84726 67.3265H9.58243L9.6812 67.6374ZM8.9825 66.9022L9.21452 66.1756L9.44653 66.9022H8.9825Z" fill="white"/>
<path d="M12.3036 66.5349H11.3112V66.9307H11.8402C11.7693 67.1203 11.5969 67.2356 11.3344 67.2356C10.9499 67.2356 10.7119 66.9897 10.7119 66.6536C10.7119 66.3055 10.9612 66.0596 11.2946 66.0596C11.518 66.0596 11.6964 66.1617 11.7779 66.2916L12.1624 66.0709C11.996 65.8051 11.6765 65.6188 11.2973 65.6188C10.7152 65.6188 10.2598 66.0768 10.2598 66.6509C10.2598 67.219 10.7066 67.6771 11.3284 67.6771C11.8826 67.6771 12.3036 67.3092 12.3036 66.7046V66.5349Z" fill="white"/>
<path d="M13.0097 67.2018V66.8511H13.717V66.4216H13.0097V66.0934H13.7873V65.6586H12.5576V67.6374H13.8012V67.2018H13.0097Z" fill="white"/>
<path d="M15.1578 65.6586V66.7325L14.3948 65.6586H14.0554V67.6374H14.5075V66.5628L15.2712 67.6374H15.6106V65.6586H15.1578Z" fill="white"/>
<path d="M16.7404 65.6586H15.9489V67.6374H16.7404C17.286 67.6374 17.7016 67.2078 17.7016 66.6476C17.7016 66.0881 17.286 65.6586 16.7404 65.6586ZM16.7404 67.2018H16.401V66.0934H16.7404C17.0513 66.0934 17.2661 66.3082 17.2661 66.6476C17.2661 66.987 17.0513 67.2018 16.7404 67.2018Z" fill="white"/>
<path d="M19.2137 67.6374H19.7082L19.0354 65.6586H18.4586L17.7858 67.6374H18.2803L18.3797 67.3265H19.1149L19.2137 67.6374ZM18.515 66.9022L18.747 66.1756L18.979 66.9022H18.515Z" fill="white"/>
<path d="M20.9173 67.6374H21.4039L20.9823 66.9108C21.2004 66.8008 21.3475 66.58 21.3475 66.3367C21.3475 65.9609 21.0446 65.6586 20.6687 65.6586H19.8772V67.6374H20.3293V66.987H20.5441L20.9173 67.6374ZM20.3293 66.0822H20.6687C20.7933 66.0822 20.8948 66.1929 20.8948 66.3367C20.8948 66.4812 20.7933 66.5913 20.6687 66.5913H20.3293V66.0822Z" fill="white"/>
<path d="M23.2659 67.6771C23.6278 67.6771 23.9447 67.4988 24.1144 67.219L23.724 66.993C23.6391 67.1455 23.4668 67.2356 23.2659 67.2356C22.9159 67.2356 22.6892 67.0009 22.6892 66.6476C22.6892 66.2943 22.9159 66.0596 23.2659 66.0596C23.4668 66.0596 23.6365 66.1504 23.724 66.3029L24.1144 66.0768C23.9421 65.7971 23.6252 65.6188 23.2659 65.6188C22.6693 65.6188 22.2371 66.0656 22.2371 66.6476C22.2371 67.2303 22.6693 67.6771 23.2659 67.6771Z" fill="white"/>
<path d="M25.2979 67.6771C25.8667 67.6771 26.3274 67.2303 26.3274 66.6476C26.3274 66.0656 25.8667 65.6188 25.2979 65.6188C24.7298 65.6188 24.269 66.0656 24.269 66.6476C24.269 67.2303 24.7298 67.6771 25.2979 67.6771ZM25.2979 67.2356C24.9757 67.2356 24.7211 67.0009 24.7211 66.6476C24.7211 66.2943 24.9757 66.0596 25.2979 66.0596C25.6207 66.0596 25.8746 66.2943 25.8746 66.6476C25.8746 67.0009 25.6207 67.2356 25.2979 67.2356Z" fill="white"/>
<path d="M27.6832 65.6586V66.7325L26.9202 65.6586H26.5808V67.6374H27.0329V66.5628L27.7966 67.6374H28.136V65.6586H27.6832Z" fill="white"/>
<path d="M29.167 67.6771C29.5966 67.6771 29.9022 67.4511 29.9022 67.0692C29.9022 66.6509 29.5654 66.5462 29.2658 66.4554C28.9575 66.3626 28.9098 66.3002 28.9098 66.2094C28.9098 66.1305 28.9801 66.0596 29.1219 66.0596C29.3029 66.0596 29.3957 66.1471 29.464 66.289L29.8452 66.0656C29.7013 65.7739 29.4468 65.6188 29.1219 65.6188C28.7799 65.6188 28.457 65.8395 28.457 66.2207C28.457 66.5999 28.7454 66.7411 29.0397 66.8233C29.3367 66.9048 29.4494 66.9532 29.4494 67.0745C29.4494 67.1508 29.3957 67.2356 29.1809 67.2356C28.9575 67.2356 28.8362 67.1256 28.7653 66.9618L28.3755 67.1879C28.4855 67.4789 28.7514 67.6771 29.167 67.6771Z" fill="white"/>
<path d="M30.8768 67.6771C31.3123 67.6771 31.6405 67.4226 31.6405 66.9983V65.6586H31.1877V66.9585C31.1877 67.1084 31.1174 67.2356 30.8768 67.2356C30.6368 67.2356 30.5659 67.1084 30.5659 66.9585V65.6586H30.1138V66.9983C30.1138 67.4226 30.4412 67.6771 30.8768 67.6771Z" fill="white"/>
<path d="M32.4167 67.2018V65.6586H31.9646V67.6374H33.124V67.2018H32.4167Z" fill="white"/>
<path d="M34.6496 65.6586H33.1799V66.0934H33.6884V67.6374H34.1412V66.0934H34.6496V65.6586Z" fill="white"/>
<path d="M36.1054 67.6374H36.5999L35.9271 65.6586H35.3503L34.6775 67.6374H35.172L35.2715 67.3265H36.0066L36.1054 67.6374ZM35.4067 66.9022L35.6387 66.1756L35.8707 66.9022H35.4067Z" fill="white"/>
<path d="M3.51067 10.956V12.95L2.13977 10.956H1.9873V13.2749H2.16298V11.2808L3.53056 13.2749H3.68634V10.956H3.51067Z" fill="#15324F"/>
<path d="M5.422 11.6189V12.4933C5.422 12.9401 5.16678 13.1522 4.84196 13.1522C4.53039 13.1522 4.35538 12.9533 4.35538 12.6491V11.6189H4.18634V12.6491C4.18634 13.0495 4.43493 13.3113 4.8287 13.3113C5.08392 13.3113 5.29605 13.2052 5.422 12.96V13.2748H5.58773V11.6189H5.422Z" fill="#15324F"/>
<path d="M6.94518 11.7807V11.6189H6.45131V11.1549L6.28294 11.2046V11.6189H5.91833V11.7807H6.28294V12.8573C6.28294 13.2351 6.51098 13.3412 6.94518 13.2749V13.1257C6.6071 13.1556 6.45131 13.1489 6.45131 12.8573V11.7807H6.94518Z" fill="#15324F"/>
<path d="M7.50832 11.9431V11.6189H7.34259V13.2749H7.50832V12.3541C7.50832 11.9298 7.77613 11.7541 8.06119 11.7541V11.5957C7.8358 11.5957 7.62101 11.6812 7.50832 11.9431Z" fill="#15324F"/>
<path d="M9.00499 11.3869L9.27015 10.9659H9.46903L9.1674 11.3869H9.00499ZM9.15414 13.3113C9.63476 13.3113 10.0219 12.9368 10.0219 12.4469C10.0219 11.9563 9.63476 11.5824 9.15414 11.5824C8.67088 11.5824 8.28308 11.9563 8.28308 12.4469C8.28308 12.9368 8.67088 13.3113 9.15414 13.3113ZM9.15414 13.1522C8.75971 13.1522 8.45212 12.8407 8.45212 12.4469C8.45212 12.0525 8.75971 11.7409 9.15414 11.7409C9.54858 11.7409 9.85285 12.0525 9.85285 12.4469C9.85285 12.8407 9.54858 13.1522 9.15414 13.1522Z" fill="#15324F"/>
<path d="M10.4193 13.2749H10.585V10.8566H10.4193V13.2749Z" fill="#15324F"/>
<path d="M11.8533 13.3113C12.3339 13.3113 12.7211 12.9368 12.7211 12.4469C12.7211 11.9563 12.3339 11.5825 11.8533 11.5825C11.37 11.5825 10.9822 11.9563 10.9822 12.4469C10.9822 12.9368 11.37 13.3113 11.8533 13.3113ZM11.8533 13.1522C11.4589 13.1522 11.1513 12.8407 11.1513 12.4469C11.1513 12.0525 11.4589 11.7409 11.8533 11.7409C12.2477 11.7409 12.552 12.0525 12.552 12.4469C12.552 12.8407 12.2477 13.1522 11.8533 13.1522Z" fill="#15324F"/>
<path d="M14.5888 11.6189V12.0027C14.4536 11.7475 14.1984 11.5825 13.8768 11.5825C13.4035 11.5825 13.019 11.9563 13.019 12.4469C13.019 12.9368 13.4035 13.3113 13.8768 13.3113C14.1984 13.3113 14.4536 13.1456 14.5888 12.8904V13.1953C14.5888 13.5732 14.3442 13.8151 13.9299 13.8151C13.5653 13.8151 13.3803 13.6693 13.2942 13.4936L13.1483 13.5765C13.2676 13.8185 13.5421 13.9736 13.9299 13.9736C14.3873 13.9736 14.7545 13.6925 14.7545 13.1953V11.6189H14.5888ZM13.8868 13.1522C13.4924 13.1522 13.1848 12.8407 13.1848 12.4469C13.1848 12.0525 13.4924 11.7409 13.8868 11.7409C14.2812 11.7409 14.5888 12.0525 14.5888 12.4469C14.5888 12.8407 14.2812 13.1522 13.8868 13.1522Z" fill="#15324F"/>
<path d="M16.023 13.3113C16.5036 13.3113 16.8907 12.9368 16.8907 12.4469C16.8907 11.9563 16.5036 11.5825 16.023 11.5825C15.5397 11.5825 15.1519 11.9563 15.1519 12.4469C15.1519 12.9368 15.5397 13.3113 16.023 13.3113ZM16.023 13.1522C15.6285 13.1522 15.321 12.8407 15.321 12.4469C15.321 12.0525 15.6285 11.7409 16.023 11.7409C16.4174 11.7409 16.7217 12.0525 16.7217 12.4469C16.7217 12.8407 16.4174 13.1522 16.023 13.1522Z" fill="#15324F"/>
<path d="M19.6693 13.2749H19.8715L19.2954 12.301C19.5897 12.2215 19.8052 11.9563 19.8052 11.6414C19.8052 11.2642 19.4976 10.956 19.1197 10.956H18.2056V13.2749H18.3812V12.3242H19.1131L19.6693 13.2749ZM18.3812 11.1217H19.1197C19.4015 11.1217 19.6295 11.3537 19.6295 11.6414C19.6295 11.9265 19.4015 12.1585 19.1197 12.1585H18.3812V11.1217Z" fill="#15324F"/>
<path d="M21.6597 11.6189V11.9928C21.5212 11.7442 21.266 11.5825 20.9478 11.5825C20.4778 11.5825 20.09 11.9563 20.09 12.4469C20.09 12.9368 20.4778 13.3113 20.9478 13.3113C21.266 13.3113 21.5212 13.1489 21.6597 12.9003V13.2749H21.8288V11.6189H21.6597ZM20.961 13.1522C20.5666 13.1522 20.259 12.8407 20.259 12.4469C20.259 12.0525 20.5666 11.7409 20.961 11.7409C21.3555 11.7409 21.6597 12.0525 21.6597 12.4469C21.6597 12.8407 21.3555 13.1522 20.961 13.1522Z" fill="#15324F"/>
<path d="M23.1204 11.0786V10.9195C22.6862 10.8864 22.4581 11.1217 22.4581 11.5294V11.6189H22.1731V11.7807H22.4581V13.2749H22.6272V11.7807H23.1204V11.6189H22.6272V11.5294C22.6272 11.2079 22.7823 11.0521 23.1204 11.0786Z" fill="#15324F"/>
<path d="M24.8325 11.6189V11.9928C24.694 11.7442 24.4388 11.5825 24.1206 11.5825C23.6506 11.5825 23.2628 11.9563 23.2628 12.4469C23.2628 12.9368 23.6506 13.3113 24.1206 13.3113C24.4388 13.3113 24.694 13.1489 24.8325 12.9003V13.2749H25.0016V11.6189H24.8325ZM24.1338 13.1522C23.7394 13.1522 23.4318 12.8407 23.4318 12.4469C23.4318 12.0525 23.7394 11.7409 24.1338 11.7409C24.5283 11.7409 24.8325 12.0525 24.8325 12.4469C24.8325 12.8407 24.5283 13.1522 24.1338 13.1522Z" fill="#15324F"/>
<path d="M26.2567 11.5825C25.7503 11.5825 25.3989 11.9597 25.3989 12.4469C25.3989 12.9467 25.7602 13.3113 26.27 13.3113C26.5981 13.3113 26.8567 13.1622 26.9919 12.9368L26.8467 12.8506C26.7506 13.0263 26.5451 13.1522 26.2733 13.1522C25.8954 13.1522 25.6111 12.907 25.5713 12.5331H27.0714C27.0714 12.5066 27.0748 12.48 27.0748 12.4535C27.0748 11.9994 26.7605 11.5825 26.2567 11.5825ZM26.2567 11.7409C26.5816 11.7409 26.8666 11.9663 26.9031 12.3707H25.5713C25.6044 12.0027 25.8789 11.7409 26.2567 11.7409Z" fill="#15324F"/>
<path d="M27.4623 13.2749H27.6281V10.8566H27.4623V13.2749Z" fill="#15324F"/>
<path d="M30.1286 13.3113C30.5621 13.3113 30.94 13.0859 31.1289 12.7445L30.9731 12.6557C30.8206 12.9467 30.4958 13.1423 30.1286 13.1423C29.5187 13.1423 29.0984 12.6855 29.0984 12.1154C29.0984 11.546 29.5187 11.0886 30.1286 11.0886C30.4925 11.0886 30.814 11.2808 30.9665 11.5659L31.1223 11.4764C30.93 11.1383 30.5555 10.9196 30.1286 10.9196C29.4226 10.9196 28.9227 11.4532 28.9227 12.1154C28.9227 12.7777 29.4226 13.3113 30.1286 13.3113Z" fill="#15324F"/>
<path d="M32.2678 13.3113C32.7484 13.3113 33.1355 12.9368 33.1355 12.4469C33.1355 11.9563 32.7484 11.5825 32.2678 11.5825C31.7845 11.5825 31.3967 11.9563 31.3967 12.4469C31.3967 12.9368 31.7845 13.3113 32.2678 13.3113ZM32.2678 13.1522C31.8734 13.1522 31.5658 12.8407 31.5658 12.4469C31.5658 12.0525 31.8734 11.7409 32.2678 11.7409C32.6622 11.7409 32.9665 12.0525 32.9665 12.4469C32.9665 12.8407 32.6622 13.1522 32.2678 13.1522Z" fill="#15324F"/>
<path d="M34.278 11.5825C33.7716 11.5825 33.4202 11.9597 33.4202 12.4469C33.4202 12.9467 33.7815 13.3113 34.2913 13.3113C34.6194 13.3113 34.878 13.1622 35.0132 12.9368L34.868 12.8506C34.7719 13.0263 34.5664 13.1522 34.2946 13.1522C33.9167 13.1522 33.6324 12.907 33.5926 12.5331H35.0927C35.0927 12.5066 35.0961 12.48 35.0961 12.4535C35.0961 11.9994 34.7818 11.5825 34.278 11.5825ZM34.278 11.7409C34.6029 11.7409 34.8879 11.9663 34.9244 12.3707H33.5926C33.6257 12.0027 33.9002 11.7409 34.278 11.7409Z" fill="#15324F"/>
<path d="M35.4836 13.2749H35.6494V10.8566H35.4836V13.2749Z" fill="#15324F"/>
<path d="M36.9177 11.5824C36.6625 11.5824 36.451 11.6878 36.325 11.9331V10.956H36.1593V13.2749H36.325V12.4005C36.325 11.953 36.5796 11.7409 36.9044 11.7409C37.216 11.7409 37.3917 11.9398 37.3917 12.2447V13.2749H37.56V12.2447C37.56 11.8436 37.3121 11.5824 36.9177 11.5824Z" fill="#15324F"/>
<path d="M38.7856 13.3113C39.2662 13.3113 39.6533 12.9368 39.6533 12.4469C39.6533 11.9563 39.2662 11.5825 38.7856 11.5825C38.3023 11.5825 37.9145 11.9563 37.9145 12.4469C37.9145 12.9368 38.3023 13.3113 38.7856 13.3113ZM38.7856 13.1522C38.3911 13.1522 38.0835 12.8407 38.0835 12.4469C38.0835 12.0525 38.3911 11.7409 38.7856 11.7409C39.18 11.7409 39.4843 12.0525 39.4843 12.4469C39.4843 12.8407 39.18 13.1522 38.7856 13.1522Z" fill="#15324F"/>
<path d="M3.06057 17.9269C3.49411 17.9269 3.87197 17.7015 4.0609 17.3601L3.90512 17.2713C3.75265 17.5623 3.42782 17.7579 3.06057 17.7579C2.45069 17.7579 2.03041 17.3011 2.03041 16.731C2.03041 16.1616 2.45069 15.7042 3.06057 15.7042C3.42451 15.7042 3.74602 15.8964 3.89849 16.1815L4.05427 16.092C3.86203 15.7539 3.48748 15.5352 3.06057 15.5352C2.35457 15.5352 1.85474 16.0688 1.85474 16.731C1.85474 17.3933 2.35457 17.9269 3.06057 17.9269Z" fill="#15324F"/>
<path d="M5.93819 17.8905H6.14038L5.56431 16.9166C5.85864 16.8371 6.07409 16.5719 6.07409 16.257C6.07409 15.8798 5.7665 15.5716 5.38864 15.5716H4.47449V17.8905H4.65016V16.9398H5.38201L5.93819 17.8905ZM4.65016 15.7373H5.38864C5.67038 15.7373 5.89842 15.9693 5.89842 16.257C5.89842 16.5421 5.67038 16.7741 5.38864 16.7741H4.65016V15.7373Z" fill="#15324F"/>
<path d="M8.60149 15.5716H8.37941L7.55143 16.9432L6.72346 15.5716H6.5047V17.8905H6.68037V15.8301L7.53818 17.2547H7.56801L8.42581 15.8301V17.8905H8.60149V15.5716Z" fill="#15324F"/>
<path d="M10.8498 15.5716H10.0616V17.8905H10.2373V17.0061H10.8498C11.2675 17.0061 11.5718 16.6979 11.5718 16.2902C11.5718 15.8798 11.2675 15.5716 10.8498 15.5716ZM10.8498 16.8404H10.2373V15.7373H10.8498C11.168 15.7373 11.3967 15.9693 11.3967 16.2902C11.3967 16.6084 11.168 16.8404 10.8498 16.8404Z" fill="#15324F"/>
<path d="M12.1814 17.7247V16.8039H13.2414V16.6382H12.1814V15.7373H13.3243V15.5716H12.0057V17.8905H13.3408V17.7247H12.1814Z" fill="#15324F"/>
<path d="M14.5094 17.8905H15.9671V17.7214H14.7613L15.4799 16.983C15.7152 16.7443 15.9141 16.4891 15.9141 16.2014C15.9141 15.7705 15.5793 15.5352 15.2247 15.5352C14.9231 15.5352 14.6619 15.681 14.5227 15.966L14.6718 16.0555C14.7812 15.8235 14.9728 15.7042 15.2247 15.7042C15.5064 15.7042 15.7351 15.8832 15.7351 16.2014C15.7351 16.4294 15.5628 16.6482 15.3606 16.857L14.5094 17.7314V17.8905Z" fill="#15324F"/>
<path d="M17.0761 16.5355L17.633 15.7373V15.5716H16.2979V15.7373H17.4308L16.8441 16.5686L16.9204 16.6846H16.9701C17.3148 16.6846 17.5667 16.8868 17.5667 17.2216C17.5667 17.5557 17.3148 17.7579 16.9767 17.7579C16.685 17.7579 16.4702 17.6319 16.3841 17.3999L16.2382 17.4861C16.3509 17.7711 16.6393 17.9269 16.9767 17.9269C17.3877 17.9269 17.7424 17.6684 17.7424 17.2216C17.7424 16.8139 17.4441 16.5719 17.0761 16.5355Z" fill="#15324F"/>
<path d="M19.5633 16.2968C19.5633 15.8467 19.2358 15.5352 18.785 15.5352C18.3349 15.5352 18.0068 15.8467 18.0068 16.2968C18.0068 16.7509 18.3349 17.0625 18.785 17.0625C18.8745 17.0625 18.9607 17.0492 19.0403 17.026L18.4469 17.8905H18.6458L19.4214 16.7609C19.5109 16.6349 19.5633 16.4791 19.5633 16.2968ZM18.1858 16.2968C18.1858 15.9528 18.4178 15.7042 18.785 15.7042C19.1529 15.7042 19.3883 15.9528 19.3883 16.2968C19.3883 16.6449 19.1529 16.8935 18.785 16.8935C18.4178 16.8935 18.1858 16.6449 18.1858 16.2968Z" fill="#15324F"/>
<path d="M21.4909 17.2382H21.1933V16.5089H21.0176V17.2382H19.9642L20.8419 15.5716H20.6497L19.7687 17.2382V17.4032H21.0176V17.8905H21.1933V17.4032H21.4909V17.2382Z" fill="#15324F"/>
<path d="M22.5374 16.5355L23.0943 15.7373V15.5716H21.7592V15.7373H22.8921L22.3054 16.5686L22.3817 16.6846H22.4314C22.7761 16.6846 23.028 16.8868 23.028 17.2216C23.028 17.5557 22.7761 17.7579 22.438 17.7579C22.1463 17.7579 21.9315 17.6319 21.8454 17.3999L21.6995 17.4861C21.8122 17.7711 22.1006 17.9269 22.438 17.9269C22.849 17.9269 23.2037 17.6684 23.2037 17.2216C23.2037 16.8139 22.9054 16.5719 22.5374 16.5355Z" fill="#15324F"/>
<path d="M3.05725 19.8558H2.0072V23.1683H3.05725V19.8558ZM2.80203 20.0778V20.1872H2.58327V20.3099H2.80203V20.4192H2.25182V20.3099H2.47058V20.1872H2.25513V20.0778H2.80203ZM2.58327 20.5054V20.7374H2.80203V20.8501H2.25182V20.5054H2.58327ZM2.47058 20.6181H2.3612V20.7374H2.47058V20.6181ZM2.80203 20.939V21.0483H2.58327V21.2804H2.25182V21.171H2.47058V21.0483H2.25182V20.939H2.80203ZM2.80203 21.1378V21.4693H2.25182V21.3566H2.69265V21.1378H2.80203ZM2.80203 21.5422V21.9168H2.25182V21.5422H2.3612V21.8074H2.69265V21.6516H2.58327V21.7278H2.47058V21.5422H2.80203ZM2.80203 22.115V22.4895H2.25182V22.115H2.80203ZM2.69265 22.2244H2.3612V22.3801H2.69265V22.2244ZM2.80203 22.5658V22.6751H2.69597L2.46395 22.8309H2.80203V22.9403H2.25182V22.8309L2.48383 22.6751H2.25182V22.5658H2.80203Z" fill="#15324F"/>
<path d="M4.49438 22.5061H4.66011V20.0878H4.49438V22.5061Z" fill="#15324F"/>
<path d="M6.26307 22.3403V21.4195H7.32307V21.2538H6.26307V20.3529H7.40593V20.1872H6.0874V22.5061H7.4225V22.3403H6.26307Z" fill="#15324F"/>
<path d="M7.9322 21.2837C7.9322 21.0848 8.11384 20.9721 8.32928 20.9721C8.51158 20.9721 8.68394 21.0516 8.75355 21.224L8.89276 21.1445C8.80326 20.9423 8.59776 20.8137 8.32928 20.8137C7.99186 20.8137 7.76647 21.0218 7.76647 21.2837C7.76647 21.8803 8.77012 21.6217 8.77012 22.0719C8.77012 22.2807 8.57456 22.3834 8.34254 22.3834C8.09461 22.3834 7.91563 22.2707 7.85597 22.0918L7.71344 22.1746C7.79299 22.3867 8.01175 22.5425 8.34254 22.5425C8.6972 22.5425 8.93585 22.3437 8.93585 22.0719C8.93585 21.466 7.9322 21.7278 7.9322 21.2837Z" fill="#15324F"/>
<path d="M10.2141 20.8137C9.89255 20.8137 9.63733 20.9787 9.50209 21.2339V20.8501H9.33636V23.1683H9.50209V22.1216C9.63733 22.3768 9.89255 22.5425 10.2141 22.5425C10.688 22.5425 11.0719 22.168 11.0719 21.6781C11.0719 21.1875 10.688 20.8137 10.2141 20.8137ZM10.2041 22.3834C9.80968 22.3834 9.50209 22.0719 9.50209 21.6781C9.50209 21.2837 9.80968 20.9721 10.2041 20.9721C10.5985 20.9721 10.9061 21.2837 10.9061 21.6781C10.9061 22.0719 10.5985 22.3834 10.2041 22.3834Z" fill="#15324F"/>
<path d="M12.2176 20.8137C11.7111 20.8137 11.3598 21.1909 11.3598 21.6781C11.3598 22.1779 11.7211 22.5425 12.2309 22.5425C12.559 22.5425 12.8175 22.3934 12.9528 22.168L12.8076 22.0818C12.7115 22.2575 12.506 22.3834 12.2342 22.3834C11.8563 22.3834 11.5719 22.1382 11.5322 21.7643H13.0323C13.0323 21.7378 13.0356 21.7112 13.0356 21.6847C13.0356 21.2306 12.7214 20.8137 12.2176 20.8137ZM12.2176 20.9721C12.5424 20.9721 12.8275 21.1975 12.8639 21.6019H11.5322C11.5653 21.2339 11.8397 20.9721 12.2176 20.9721Z" fill="#15324F"/>
<path d="M14.1816 22.5425C14.5064 22.5425 14.7849 22.3768 14.9168 22.1216L14.7782 22.0387C14.6688 22.2442 14.4501 22.3834 14.1816 22.3834C13.7806 22.3834 13.4796 22.0719 13.4796 21.6781C13.4796 21.2837 13.7806 20.9721 14.1816 20.9721C14.4468 20.9721 14.6722 21.108 14.7683 21.3168L14.9035 21.2373C14.7849 20.9787 14.5064 20.8137 14.1816 20.8137C13.6818 20.8137 13.3105 21.1875 13.3105 21.6781C13.3105 22.168 13.6818 22.5425 14.1816 22.5425Z" fill="#15324F"/>
<path d="M15.364 20.449C15.4369 20.449 15.4966 20.3894 15.4966 20.3165C15.4966 20.2469 15.4369 20.1872 15.364 20.1872C15.2911 20.1872 15.2314 20.2469 15.2314 20.3165C15.2314 20.3894 15.2911 20.449 15.364 20.449ZM15.2812 22.5061H15.4469V20.8501H15.2812V22.5061Z" fill="#15324F"/>
<path d="M17.4138 20.8501V21.224C17.2753 20.9754 17.0201 20.8137 16.7019 20.8137C16.2319 20.8137 15.8441 21.1875 15.8441 21.6781C15.8441 22.168 16.2319 22.5425 16.7019 22.5425C17.0201 22.5425 17.2753 22.3801 17.4138 22.1315V22.5061H17.5829V20.8501H17.4138ZM16.7151 22.3834C16.3207 22.3834 16.0131 22.0719 16.0131 21.6781C16.0131 21.2837 16.3207 20.9721 16.7151 20.9721C17.1096 20.9721 17.4138 21.2837 17.4138 21.6781C17.4138 22.0719 17.1096 22.3834 16.7151 22.3834Z" fill="#15324F"/>
<path d="M18.093 22.5061H18.2587V20.0878H18.093V22.5061Z" fill="#15324F"/>
<path d="M18.8515 20.449C18.9244 20.449 18.984 20.3894 18.984 20.3165C18.984 20.2469 18.9244 20.1872 18.8515 20.1872C18.7785 20.1872 18.7189 20.2469 18.7189 20.3165C18.7189 20.3894 18.7785 20.449 18.8515 20.449ZM18.7686 22.5061H18.9343V20.8501H18.7686V22.5061Z" fill="#15324F"/>
<path d="M19.5569 21.2837C19.5569 21.0848 19.7385 20.9721 19.954 20.9721C20.1363 20.9721 20.3086 21.0516 20.3782 21.224L20.5175 21.1445C20.428 20.9423 20.2225 20.8137 19.954 20.8137C19.6166 20.8137 19.3912 21.0218 19.3912 21.2837C19.3912 21.8803 20.3948 21.6217 20.3948 22.0719C20.3948 22.2807 20.1993 22.3834 19.9672 22.3834C19.7193 22.3834 19.5403 22.2707 19.4807 22.0918L19.3381 22.1746C19.4177 22.3867 19.6364 22.5425 19.9672 22.5425C20.3219 22.5425 20.5605 22.3437 20.5605 22.0719C20.5605 21.466 19.5569 21.7278 19.5569 21.2837Z" fill="#15324F"/>
<path d="M21.809 21.0118V20.8501H21.3151V20.386L21.1467 20.4358V20.8501H20.7821V21.0118H21.1467V22.0884C21.1467 22.4663 21.3747 22.5723 21.809 22.506V22.3569C21.4709 22.3867 21.3151 22.3801 21.3151 22.0884V21.0118H21.809Z" fill="#15324F"/>
<path d="M23.6634 20.8501V21.224C23.5249 20.9754 23.2696 20.8137 22.9514 20.8137C22.4814 20.8137 22.0936 21.1875 22.0936 21.6781C22.0936 22.168 22.4814 22.5425 22.9514 22.5425C23.2696 22.5425 23.5249 22.3801 23.6634 22.1315V22.5061H23.8324V20.8501H23.6634ZM22.9647 22.3834C22.5703 22.3834 22.2627 22.0719 22.2627 21.6781C22.2627 21.2837 22.5703 20.9721 22.9647 20.9721C23.3591 20.9721 23.6634 21.2837 23.6634 21.6781C23.6634 22.0719 23.3591 22.3834 22.9647 22.3834Z" fill="#15324F"/>
<path d="M25.9719 20.8137C25.4654 20.8137 25.1141 21.1909 25.1141 21.6781C25.1141 22.1779 25.4754 22.5425 25.9851 22.5425C26.3133 22.5425 26.5718 22.3934 26.707 22.168L26.5619 22.0818C26.4657 22.2575 26.2602 22.3834 25.9885 22.3834C25.6106 22.3834 25.3262 22.1382 25.2864 21.7643H26.7866C26.7866 21.7378 26.7899 21.7112 26.7899 21.6847C26.7899 21.2306 26.4757 20.8137 25.9719 20.8137ZM25.9719 20.9721C26.2967 20.9721 26.5818 21.1975 26.6182 21.6019H25.2864C25.3196 21.2339 25.594 20.9721 25.9719 20.9721Z" fill="#15324F"/>
<path d="M28.9461 20.8137C28.7241 20.8137 28.5126 20.9191 28.3933 21.1511C28.3071 20.9323 28.1182 20.8137 27.8762 20.8137C27.6641 20.8137 27.4659 20.9058 27.3432 21.1345V20.8501H27.1775V22.5061H27.3432V21.582C27.3432 21.1577 27.5845 20.9721 27.8563 20.9721C28.1115 20.9721 28.2806 21.1411 28.2806 21.456V22.5061H28.4463V21.582C28.4463 21.1577 28.6644 20.9721 28.9428 20.9721C29.2014 20.9721 29.3837 21.1411 29.3837 21.456V22.5061H29.5494V21.456C29.5494 21.0417 29.2975 20.8137 28.9461 20.8137Z" fill="#15324F"/>
<path d="M31.6451 20.8137C31.1386 20.8137 30.7873 21.1909 30.7873 21.6781C30.7873 22.1779 31.1486 22.5425 31.6584 22.5425C31.9865 22.5425 32.245 22.3934 32.3803 22.168L32.2351 22.0818C32.139 22.2575 31.9335 22.3834 31.6617 22.3834C31.2838 22.3834 30.9994 22.1382 30.9596 21.7643H32.4598C32.4598 21.7378 32.4631 21.7112 32.4631 21.6847C32.4631 21.2306 32.1489 20.8137 31.6451 20.8137ZM31.6451 20.9721C31.9699 20.9721 32.255 21.1975 32.2914 21.6019H30.9596C30.9928 21.2339 31.2672 20.9721 31.6451 20.9721Z" fill="#15324F"/>
<path d="M34.6194 20.8137C34.3973 20.8137 34.1858 20.9191 34.0665 21.1511C33.9803 20.9323 33.7914 20.8137 33.5494 20.8137C33.3373 20.8137 33.1391 20.9058 33.0164 21.1345V20.8501H32.8507V22.5061H33.0164V21.582C33.0164 21.1577 33.2577 20.9721 33.5295 20.9721C33.7847 20.9721 33.9538 21.1411 33.9538 21.456V22.5061H34.1195V21.582C34.1195 21.1577 34.3376 20.9721 34.616 20.9721C34.8746 20.9721 35.0569 21.1411 35.0569 21.456V22.5061H35.2226V21.456C35.2226 21.0417 34.9707 20.8137 34.6194 20.8137Z" fill="#15324F"/>
<path d="M37.1461 20.8501V21.224C37.0076 20.9754 36.7524 20.8137 36.4342 20.8137C35.9642 20.8137 35.5764 21.1875 35.5764 21.6781C35.5764 22.168 35.9642 22.5425 36.4342 22.5425C36.7524 22.5425 37.0076 22.3801 37.1461 22.1315V22.5061H37.3152V20.8501H37.1461ZM36.4474 22.3834C36.053 22.3834 35.7454 22.0719 35.7454 21.6781C35.7454 21.2837 36.053 20.9721 36.4474 20.9721C36.8419 20.9721 37.1461 21.2837 37.1461 21.6781C37.1461 22.0719 36.8419 22.3834 36.4474 22.3834Z" fill="#15324F"/>
<path d="M39.2955 20.8501V21.2339C39.1603 20.9787 38.9051 20.8137 38.5836 20.8137C38.1103 20.8137 37.7258 21.1875 37.7258 21.6781C37.7258 22.168 38.1103 22.5425 38.5836 22.5425C38.9051 22.5425 39.1603 22.3768 39.2955 22.1216V22.4265C39.2955 22.8044 39.0509 23.0463 38.6366 23.0463C38.272 23.0463 38.0871 22.9005 38.0009 22.7248L37.855 22.8077C37.9744 23.0497 38.2488 23.2048 38.6366 23.2048C39.094 23.2048 39.4613 22.9237 39.4613 22.4265V20.8501H39.2955ZM38.5935 22.3834C38.1991 22.3834 37.8915 22.0719 37.8915 21.6781C37.8915 21.2837 38.1991 20.9721 38.5935 20.9721C38.988 20.9721 39.2955 21.2837 39.2955 21.6781C39.2955 22.0719 38.988 22.3834 38.5935 22.3834Z" fill="#15324F"/>
<path d="M40.137 21.1743V20.8501H39.9713V22.5061H40.137V21.5853C40.137 21.161 40.4049 20.9853 40.6899 20.9853V20.8269C40.4645 20.8269 40.2497 20.9124 40.137 21.1743Z" fill="#15324F"/>
<path d="M41.7696 20.8137C41.2631 20.8137 40.9118 21.1909 40.9118 21.6781C40.9118 22.1779 41.2731 22.5425 41.7829 22.5425C42.111 22.5425 42.3695 22.3934 42.5048 22.168L42.3596 22.0818C42.2635 22.2575 42.058 22.3834 41.7862 22.3834C41.4083 22.3834 41.1239 22.1382 41.0842 21.7643H42.5843C42.5843 21.7378 42.5876 21.7112 42.5876 21.6847C42.5876 21.2306 42.2734 20.8137 41.7696 20.8137ZM41.7696 20.9721C42.0944 20.9721 42.3795 21.1975 42.4159 21.6019H41.0842C41.1173 21.2339 41.3918 20.9721 41.7696 20.9721Z" fill="#15324F"/>
<path d="M43.7335 22.5425C44.0583 22.5425 44.3367 22.3768 44.4687 22.1216L44.3301 22.0387C44.2207 22.2442 44.002 22.3834 43.7335 22.3834C43.3324 22.3834 43.0315 22.0719 43.0315 21.6781C43.0315 21.2837 43.3324 20.9721 43.7335 20.9721C43.9987 20.9721 44.224 21.108 44.3202 21.3168L44.4554 21.2373C44.3367 20.9787 44.0583 20.8137 43.7335 20.8137C43.2337 20.8137 42.8624 21.1875 42.8624 21.6781C42.8624 22.168 43.2337 22.5425 43.7335 22.5425Z" fill="#15324F"/>
<path d="M44.916 20.449C44.9889 20.449 45.0486 20.3894 45.0486 20.3165C45.0486 20.2469 44.9889 20.1872 44.916 20.1872C44.8431 20.1872 44.7834 20.2469 44.7834 20.3165C44.7834 20.3894 44.8431 20.449 44.916 20.449ZM44.8332 22.5061H44.9989V20.8501H44.8332V22.5061Z" fill="#15324F"/>
<path d="M47.2774 20.8137C47.0554 20.8137 46.8439 20.9191 46.7246 21.1511C46.6384 20.9323 46.4495 20.8137 46.2075 20.8137C45.9954 20.8137 45.7972 20.9058 45.6745 21.1345V20.8501H45.5088V22.5061H45.6745V21.582C45.6745 21.1577 45.9158 20.9721 46.1876 20.9721C46.4428 20.9721 46.6119 21.1411 46.6119 21.456V22.5061H46.7776V21.582C46.7776 21.1577 46.9957 20.9721 47.2741 20.9721C47.5327 20.9721 47.715 21.1411 47.715 21.456V22.5061H47.8807V21.456C47.8807 21.0417 47.6288 20.8137 47.2774 20.8137Z" fill="#15324F"/>
<path d="M49.0922 20.8137C48.5857 20.8137 48.2344 21.1909 48.2344 21.6781C48.2344 22.1779 48.5957 22.5425 49.1054 22.5425C49.4336 22.5425 49.6921 22.3934 49.8273 22.168L49.6822 22.0818C49.586 22.2575 49.3805 22.3834 49.1088 22.3834C48.7309 22.3834 48.4465 22.1382 48.4067 21.7643H49.9069C49.9069 21.7378 49.9102 21.7112 49.9102 21.6847C49.9102 21.2306 49.596 20.8137 49.0922 20.8137ZM49.0922 20.9721C49.417 20.9721 49.7021 21.1975 49.7385 21.6019H48.4067C48.4399 21.2339 48.7143 20.9721 49.0922 20.9721Z" fill="#15324F"/>
<path d="M51.0561 20.8137C50.8009 20.8137 50.5894 20.9191 50.4635 21.1643V20.8501H50.2977V22.5061H50.4635V21.6317C50.4635 21.1842 50.718 20.9721 51.0428 20.9721C51.3544 20.9721 51.5301 21.171 51.5301 21.4759V22.5061H51.6985V21.4759C51.6985 21.0748 51.4505 20.8137 51.0561 20.8137Z" fill="#15324F"/>
<path d="M53.0135 21.0118V20.8501H52.5197V20.386L52.3513 20.4358V20.8501H51.9867V21.0118H52.3513V22.0884C52.3513 22.4663 52.5793 22.5723 53.0135 22.506V22.3569C52.6755 22.3867 52.5197 22.3801 52.5197 22.0884V21.0118H53.0135Z" fill="#15324F"/>
<path d="M54.1693 22.5425C54.6499 22.5425 55.037 22.168 55.037 21.6781C55.037 21.1875 54.6499 20.8137 54.1693 20.8137C53.686 20.8137 53.2982 21.1875 53.2982 21.6781C53.2982 22.168 53.686 22.5425 54.1693 22.5425ZM54.1693 22.3834C53.7749 22.3834 53.4673 22.0719 53.4673 21.6781C53.4673 21.2837 53.7749 20.9721 54.1693 20.9721C54.5637 20.9721 54.868 21.2837 54.868 21.6781C54.868 22.0719 54.5637 22.3834 54.1693 22.3834Z" fill="#15324F"/>
<path d="M57.0639 20.8137C56.5574 20.8137 56.2061 21.1909 56.2061 21.6781C56.2061 22.1779 56.5673 22.5425 57.0771 22.5425C57.4053 22.5425 57.6638 22.3934 57.799 22.168L57.6539 22.0818C57.5577 22.2575 57.3522 22.3834 57.0804 22.3834C56.7026 22.3834 56.4182 22.1382 56.3784 21.7643H57.8786C57.8786 21.7378 57.8819 21.7112 57.8819 21.6847C57.8819 21.2306 57.5677 20.8137 57.0639 20.8137ZM57.0639 20.9721C57.3887 20.9721 57.6737 21.1975 57.7102 21.6019H56.3784C56.4116 21.2339 56.686 20.9721 57.0639 20.9721Z" fill="#15324F"/>
<path d="M59.9121 20.8136C59.6568 20.8136 59.4454 20.919 59.3194 21.1643V20.1872H59.1537V22.5061H59.3194V21.6317C59.3194 21.1842 59.574 20.9721 59.8988 20.9721C60.2104 20.9721 60.386 21.171 60.386 21.4759V22.5061H60.5544V21.4759C60.5544 21.0748 60.3065 20.8136 59.9121 20.8136Z" fill="#15324F"/>
<path d="M61.1044 20.449C61.1774 20.449 61.237 20.3894 61.237 20.3165C61.237 20.2469 61.1774 20.1872 61.1044 20.1872C61.0315 20.1872 60.9719 20.2469 60.9719 20.3165C60.9719 20.3894 61.0315 20.449 61.1044 20.449ZM61.0216 22.5061H61.1873V20.8501H61.0216V22.5061Z" fill="#15324F"/>
<path d="M62.575 20.8137C62.2534 20.8137 61.9982 20.9787 61.863 21.2339V20.8501H61.6973V23.1683H61.863V22.1216C61.9982 22.3768 62.2534 22.5425 62.575 22.5425C63.0489 22.5425 63.4328 22.168 63.4328 21.6781C63.4328 21.1875 63.0489 20.8137 62.575 20.8137ZM62.565 22.3834C62.1706 22.3834 61.863 22.0719 61.863 21.6781C61.863 21.2837 62.1706 20.9721 62.565 20.9721C62.9594 20.9721 63.267 21.2837 63.267 21.6781C63.267 22.0719 62.9594 22.3834 62.565 22.3834Z" fill="#15324F"/>
<path d="M64.5785 20.8137C64.072 20.8137 63.7207 21.1909 63.7207 21.6781C63.7207 22.1779 64.082 22.5425 64.5918 22.5425C64.9199 22.5425 65.1784 22.3934 65.3137 22.168L65.1685 22.0818C65.0724 22.2575 64.8669 22.3834 64.5951 22.3834C64.2172 22.3834 63.9328 22.1382 63.8931 21.7643H65.3932C65.3932 21.7378 65.3965 21.7112 65.3965 21.6847C65.3965 21.2306 65.0823 20.8137 64.5785 20.8137ZM64.5785 20.9721C64.9033 20.9721 65.1884 21.1975 65.2248 21.6019H63.8931C63.9262 21.2339 64.2007 20.9721 64.5785 20.9721Z" fill="#15324F"/>
<path d="M65.9498 21.1743V20.8501H65.7841V22.5061H65.9498V21.5853C65.9498 21.161 66.2177 20.9853 66.5027 20.9853V20.8269C66.2773 20.8269 66.0625 20.9124 65.9498 21.1743Z" fill="#15324F"/>
<path d="M67.6852 21.0118V20.8501H67.1913V20.386L67.0229 20.4358V20.8501H66.6583V21.0118H67.0229V22.0884C67.0229 22.4663 67.251 22.5723 67.6852 22.506V22.3569C67.3471 22.3867 67.1913 22.3801 67.1913 22.0884V21.0118H67.6852Z" fill="#15324F"/>
<path d="M68.2482 21.1743V20.8501H68.0825V22.5061H68.2482V21.5853C68.2482 21.161 68.5161 20.9853 68.8011 20.9853V20.8269C68.5757 20.8269 68.3609 20.9124 68.2482 21.1743Z" fill="#15324F"/>
<path d="M69.8941 22.5425C70.3747 22.5425 70.7619 22.168 70.7619 21.6781C70.7619 21.1875 70.3747 20.8137 69.8941 20.8137C69.4109 20.8137 69.0231 21.1875 69.0231 21.6781C69.0231 22.168 69.4109 22.5425 69.8941 22.5425ZM69.8941 22.3834C69.4997 22.3834 69.1921 22.0719 69.1921 21.6781C69.1921 21.2837 69.4997 20.9721 69.8941 20.9721C70.2886 20.9721 70.5928 21.2837 70.5928 21.6781C70.5928 22.0719 70.2886 22.3834 69.8941 22.3834Z" fill="#15324F"/>
<path d="M71.9409 20.3099V20.1508C71.5067 20.1177 71.2786 20.353 71.2786 20.7607V20.8502H70.9936V21.0119H71.2786V22.5061H71.4477V21.0119H71.9409V20.8502H71.4477V20.7607C71.4477 20.4392 71.6028 20.2834 71.9409 20.3099Z" fill="#15324F"/>
<path d="M72.2788 20.449C72.3517 20.449 72.4114 20.3894 72.4114 20.3165C72.4114 20.2469 72.3517 20.1872 72.2788 20.1872C72.2059 20.1872 72.1462 20.2469 72.1462 20.3165C72.1462 20.3894 72.2059 20.449 72.2788 20.449ZM72.196 22.5061H72.3617V20.8501H72.196V22.5061Z" fill="#15324F"/>
<path d="M74.3286 20.8501V21.224C74.1901 20.9754 73.9349 20.8137 73.6167 20.8137C73.1467 20.8137 72.7589 21.1875 72.7589 21.6781C72.7589 22.168 73.1467 22.5425 73.6167 22.5425C73.9349 22.5425 74.1901 22.3801 74.3286 22.1315V22.5061H74.4977V20.8501H74.3286ZM73.6299 22.3834C73.2355 22.3834 72.9279 22.0719 72.9279 21.6781C72.9279 21.2837 73.2355 20.9721 73.6299 20.9721C74.0243 20.9721 74.3286 21.2837 74.3286 21.6781C74.3286 22.0719 74.0243 22.3834 73.6299 22.3834Z" fill="#15324F"/>
<path d="M3.05725 24.4713H2.0072V27.7838H3.05725V24.4713ZM2.80203 24.6933V24.8027H2.58327V24.9253H2.80203V25.0347H2.25182V24.9253H2.47058V24.8027H2.25513V24.6933H2.80203ZM2.58327 25.1209V25.3529H2.80203V25.4656H2.25182V25.1209H2.58327ZM2.47058 25.2336H2.3612V25.3529H2.47058V25.2336ZM2.80203 25.5544V25.6638H2.58327V25.8958H2.25182V25.7865H2.47058V25.6638H2.25182V25.5544H2.80203ZM2.80203 25.7533V26.0848H2.25182V25.9721H2.69265V25.7533H2.80203ZM2.80203 26.1577V26.5322H2.25182V26.1577H2.3612V26.4229H2.69265V26.2671H2.58327V26.3433H2.47058V26.1577H2.80203ZM2.80203 26.7305V27.105H2.25182V26.7305H2.80203ZM2.69265 26.8398H2.3612V26.9956H2.69265V26.8398ZM2.80203 27.1812V27.2906H2.69597L2.46395 27.4464H2.80203V27.5558H2.25182V27.4464L2.48383 27.2906H2.25182V27.1812H2.80203Z" fill="#15324F"/>
<path d="M4.49438 27.1216H4.66011V24.7033H4.49438V27.1216Z" fill="#15324F"/>
<path d="M6.95847 24.8027H6.0874V27.1216H6.95847C7.59751 27.1216 8.05161 26.6012 8.05161 25.9622C8.05161 25.3231 7.59751 24.8027 6.95847 24.8027ZM6.95847 26.9559H6.26307V24.9685H6.95847C7.5047 24.9685 7.87925 25.4126 7.87925 25.9622C7.87925 26.5124 7.5047 26.9559 6.95847 26.9559Z" fill="#15324F"/>
<path d="M8.54487 25.0646C8.61779 25.0646 8.67746 25.0049 8.67746 24.932C8.67746 24.8624 8.61779 24.8027 8.54487 24.8027C8.47195 24.8027 8.41229 24.8624 8.41229 24.932C8.41229 25.0049 8.47195 25.0646 8.54487 25.0646ZM8.46201 27.1216H8.62774V25.4656H8.46201V27.1216Z" fill="#15324F"/>
<path d="M9.30336 25.7898V25.4656H9.13763V27.1216H9.30336V26.2008C9.30336 25.7766 9.57118 25.6009 9.85623 25.6009V25.4424C9.63084 25.4424 9.41606 25.528 9.30336 25.7898Z" fill="#15324F"/>
<path d="M10.2902 27.1547C10.3731 27.1547 10.4394 27.0884 10.4394 27.0055C10.4394 26.9227 10.3731 26.8564 10.2902 26.8564C10.204 26.8564 10.1411 26.9227 10.1411 27.0055C10.1411 27.0884 10.204 27.1547 10.2902 27.1547Z" fill="#15324F"/>
<path d="M13.9104 24.8027H13.6884L12.8604 26.1743L12.0324 24.8027H11.8137V27.1216H11.9893V25.0613L12.8471 26.4859H12.877L13.7348 25.0613V27.1216H13.9104V24.8027Z" fill="#15324F"/>
<path d="M15.5033 24.8127H15.3044L15.0392 25.2336H15.2016L15.5033 24.8127ZM15.1983 25.4292C14.6919 25.4292 14.3405 25.8064 14.3405 26.2936C14.3405 26.7935 14.7018 27.1581 15.2116 27.1581C15.5397 27.1581 15.7983 27.0089 15.9335 26.7835L15.7883 26.6973C15.6922 26.873 15.4867 26.999 15.2149 26.999C14.837 26.999 14.5526 26.7537 14.5129 26.3798H16.013C16.013 26.3533 16.0164 26.3268 16.0164 26.3003C16.0164 25.8462 15.7021 25.4292 15.1983 25.4292ZM15.1983 25.5876C15.5231 25.5876 15.8082 25.813 15.8447 26.2174H14.5129C14.546 25.8495 14.8205 25.5876 15.1983 25.5876Z" fill="#15324F"/>
<path d="M17.8643 24.8027V25.8495C17.7291 25.5942 17.4739 25.4292 17.1524 25.4292C16.679 25.4292 16.2946 25.8031 16.2946 26.2936C16.2946 26.7835 16.679 27.1581 17.1524 27.1581C17.4739 27.1581 17.7291 26.9923 17.8643 26.7371V27.1216H18.0301V24.8027H17.8643ZM17.1623 26.999C16.7679 26.999 16.4603 26.6874 16.4603 26.2936C16.4603 25.8992 16.7679 25.5876 17.1623 25.5876C17.5567 25.5876 17.8643 25.8992 17.8643 26.2936C17.8643 26.6874 17.5567 26.999 17.1623 26.999Z" fill="#15324F"/>
<path d="M18.6229 25.0646C18.6959 25.0646 18.7555 25.0049 18.7555 24.932C18.7555 24.8624 18.6959 24.8027 18.6229 24.8027C18.55 24.8027 18.4904 24.8624 18.4904 24.932C18.4904 25.0049 18.55 25.0646 18.6229 25.0646ZM18.5401 27.1216H18.7058V25.4656H18.5401V27.1216Z" fill="#15324F"/>
<path d="M19.9741 27.158C20.2989 27.158 20.5773 26.9923 20.7093 26.7371L20.5707 26.6542C20.4613 26.8597 20.2426 26.9989 19.9741 26.9989C19.573 26.9989 19.2721 26.6873 19.2721 26.2936C19.2721 25.8991 19.573 25.5876 19.9741 25.5876C20.2393 25.5876 20.4646 25.7235 20.5608 25.9323L20.696 25.8527C20.5773 25.5942 20.2989 25.4291 19.9741 25.4291C19.4743 25.4291 19.103 25.803 19.103 26.2936C19.103 26.7835 19.4743 27.158 19.9741 27.158Z" fill="#15324F"/>
<path d="M21.8321 27.158C22.3127 27.158 22.6998 26.7835 22.6998 26.2936C22.6998 25.803 22.3127 25.4291 21.8321 25.4291C21.3488 25.4291 20.961 25.803 20.961 26.2936C20.961 26.7835 21.3488 27.158 21.8321 27.158ZM21.8321 26.9989C21.4376 26.9989 21.13 26.6873 21.13 26.2936C21.13 25.8991 21.4376 25.5876 21.8321 25.5876C22.2265 25.5876 22.5308 25.8991 22.5308 26.2936C22.5308 26.6873 22.2265 26.9989 21.8321 26.9989Z" fill="#15324F"/>
<path d="M25.0861 25.0944C24.3967 25.0944 23.8803 25.6307 23.8803 26.2936C23.8803 26.989 24.4232 27.4928 25.1458 27.4928C25.3805 27.4928 25.5661 27.4597 25.7219 27.4033L25.7119 27.3172C25.5528 27.3801 25.3679 27.41 25.1458 27.41C24.4663 27.41 23.9665 26.9393 23.9665 26.2936C23.9665 25.6572 24.4663 25.1773 25.0861 25.1773C25.6887 25.1773 26.1561 25.6307 26.1561 26.2273C26.1561 26.6443 25.997 26.8266 25.8047 26.8266C25.6423 26.8266 25.586 26.6874 25.586 26.5256V25.7865H25.4269V25.9622C25.3414 25.8395 25.2022 25.7633 25.0364 25.7633C24.7282 25.7633 24.4995 25.9953 24.4995 26.2936C24.4995 26.5913 24.7282 26.8233 25.0364 26.8233C25.2088 26.8233 25.348 26.7404 25.4335 26.6145C25.4633 26.81 25.5959 26.9194 25.7815 26.9194C26.0036 26.9194 26.2456 26.7338 26.2456 26.2273C26.2456 25.6804 25.8246 25.0944 25.0861 25.0944ZM25.0431 26.6708C24.8309 26.6708 24.6586 26.519 24.6586 26.2936C24.6586 26.0682 24.8309 25.9158 25.0431 25.9158C25.2552 25.9158 25.4269 26.0682 25.4269 26.2936C25.4269 26.519 25.2552 26.6708 25.0431 26.6708Z" fill="#15324F"/>
<path d="M26.7353 25.0646C26.8082 25.0646 26.8679 25.0049 26.8679 24.932C26.8679 24.8624 26.8082 24.8027 26.7353 24.8027C26.6624 24.8027 26.6027 24.8624 26.6027 24.932C26.6027 25.0049 26.6624 25.0646 26.7353 25.0646ZM26.6524 27.1216H26.8182V25.4656H26.6524V27.1216Z" fill="#15324F"/>
<path d="M28.0864 25.4291C27.8312 25.4291 27.6197 25.5345 27.4937 25.7798V25.4656H27.328V27.1215H27.4937V26.2472C27.4937 25.7997 27.7483 25.5876 28.0731 25.5876C28.3847 25.5876 28.5604 25.7864 28.5604 26.0914V27.1215H28.7287V26.0914C28.7287 25.6903 28.4808 25.4291 28.0864 25.4291Z" fill="#15324F"/>
<path d="M29.3087 25.8991C29.3087 25.7003 29.4903 25.5876 29.7057 25.5876C29.888 25.5876 30.0604 25.6671 30.13 25.8395L30.2692 25.7599C30.1797 25.5577 29.9742 25.4291 29.7057 25.4291C29.3683 25.4291 29.1429 25.6373 29.1429 25.8991C29.1429 26.4958 30.1466 26.2372 30.1466 26.6873C30.1466 26.8962 29.951 26.9989 29.719 26.9989C29.4711 26.9989 29.2921 26.8862 29.2324 26.7072L29.0899 26.7901C29.1695 27.0022 29.3882 27.158 29.719 27.158C30.0737 27.158 30.3123 26.9591 30.3123 26.6873C30.3123 26.0814 29.3087 26.3433 29.3087 25.8991Z" fill="#15324F"/>
<path d="M31.5607 25.6274V25.4656H31.0668V25.0016L30.8984 25.0513V25.4656H30.5338V25.6274H30.8984V26.7039C30.8984 27.0818 31.1265 27.1879 31.5607 27.1216V26.9724C31.2226 27.0023 31.0668 26.9956 31.0668 26.7039V25.6274H31.5607Z" fill="#15324F"/>
<path d="M32.0409 25.0646C32.1138 25.0646 32.1735 25.0049 32.1735 24.932C32.1735 24.8624 32.1138 24.8027 32.0409 24.8027C31.968 24.8027 31.9083 24.8624 31.9083 24.932C31.9083 25.0049 31.968 25.0646 32.0409 25.0646ZM31.958 27.1216H32.1238V25.4656H31.958V27.1216Z" fill="#15324F"/>
<path d="M33.4816 25.6274V25.4656H32.9877V25.0016L32.8193 25.0513V25.4656H32.4547V25.6274H32.8193V26.7039C32.8193 27.0818 33.0474 27.1879 33.4816 27.1216V26.9724C33.1435 27.0023 32.9877 26.9956 32.9877 26.7039V25.6274H33.4816Z" fill="#15324F"/>
<path d="M35.0715 25.4656V26.34C35.0715 26.7868 34.8163 26.9989 34.4915 26.9989C34.1799 26.9989 34.0049 26.8001 34.0049 26.4958V25.4656H33.8359V26.4958C33.8359 26.8962 34.0845 27.158 34.4782 27.158C34.7335 27.158 34.9456 27.052 35.0715 26.8067V27.1216H35.2373V25.4656H35.0715Z" fill="#15324F"/>
<path d="M36.5948 25.6274V25.4656H36.1009V25.0016L35.9325 25.0513V25.4656H35.5679V25.6274H35.9325V26.7039C35.9325 27.0818 36.1606 27.1879 36.5948 27.1216V26.9724C36.2567 27.0023 36.1009 26.9956 36.1009 26.7039V25.6274H36.5948Z" fill="#15324F"/>
<path d="M37.7505 27.158C38.2311 27.158 38.6183 26.7835 38.6183 26.2936C38.6183 25.803 38.2311 25.4291 37.7505 25.4291C37.2673 25.4291 36.8795 25.803 36.8795 26.2936C36.8795 26.7835 37.2673 27.158 37.7505 27.158ZM37.7505 26.9989C37.3561 26.9989 37.0485 26.6873 37.0485 26.2936C37.0485 25.8991 37.3561 25.5876 37.7505 25.5876C38.145 25.5876 38.4492 25.8991 38.4492 26.2936C38.4492 26.6873 38.145 26.9989 37.7505 26.9989Z" fill="#15324F"/>
<path d="M39.7741 27.158C40.0989 27.158 40.3773 26.9923 40.5092 26.7371L40.3707 26.6542C40.2613 26.8597 40.0426 26.9989 39.7741 26.9989C39.373 26.9989 39.0721 26.6873 39.0721 26.2936C39.0721 25.8991 39.373 25.5876 39.7741 25.5876C40.0392 25.5876 40.2646 25.7235 40.3608 25.9323L40.496 25.8527C40.3773 25.5942 40.0989 25.4291 39.7741 25.4291C39.2742 25.4291 38.903 25.803 38.903 26.2936C38.903 26.7835 39.2742 27.158 39.7741 27.158Z" fill="#15324F"/>
<path d="M41.6321 27.158C42.1127 27.158 42.4998 26.7835 42.4998 26.2936C42.4998 25.803 42.1127 25.4291 41.6321 25.4291C41.1488 25.4291 40.761 25.803 40.761 26.2936C40.761 26.7835 41.1488 27.158 41.6321 27.158ZM41.6321 26.9989C41.2376 26.9989 40.93 26.6873 40.93 26.2936C40.93 25.8991 41.2376 25.5876 41.6321 25.5876C42.0265 25.5876 42.3308 25.8991 42.3308 26.2936C42.3308 26.6873 42.0265 26.9989 41.6321 26.9989Z" fill="#15324F"/>
<path d="M43.6424 25.4291C43.1359 25.4291 42.7845 25.8063 42.7845 26.2936C42.7845 26.7934 43.1458 27.158 43.6556 27.158C43.9838 27.158 44.2423 27.0089 44.3775 26.7835L44.2323 26.6973C44.1362 26.873 43.9307 26.9989 43.6589 26.9989C43.2811 26.9989 42.9967 26.7536 42.9569 26.3798H44.4571C44.4571 26.3532 44.4604 26.3267 44.4604 26.3002C44.4604 25.8461 44.1462 25.4291 43.6424 25.4291ZM43.6424 25.5876C43.9672 25.5876 44.2522 25.813 44.2887 26.2173H42.9569C42.99 25.8494 43.2645 25.5876 43.6424 25.5876Z" fill="#15324F"/>
<path d="M44.848 27.1216H45.0137V24.7033H44.848V27.1216Z" fill="#15324F"/>
<path d="M46.2819 25.4292C46.0267 25.4292 45.8152 25.5346 45.6893 25.7799V24.8027H45.5236V27.1216H45.6893V26.2472C45.6893 25.7998 45.9438 25.5876 46.2687 25.5876C46.5802 25.5876 46.7559 25.7865 46.7559 26.0914V27.1216H46.9243V26.0914C46.9243 25.6904 46.6764 25.4292 46.2819 25.4292Z" fill="#15324F"/>
<path d="M48.1499 27.158C48.6305 27.158 49.0176 26.7835 49.0176 26.2936C49.0176 25.803 48.6305 25.4291 48.1499 25.4291C47.6666 25.4291 47.2788 25.803 47.2788 26.2936C47.2788 26.7835 47.6666 27.158 48.1499 27.158ZM48.1499 26.9989C47.7554 26.9989 47.4479 26.6873 47.4479 26.2936C47.4479 25.8991 47.7554 25.5876 48.1499 25.5876C48.5443 25.5876 48.8486 25.8991 48.8486 26.2936C48.8486 26.6873 48.5443 26.9989 48.1499 26.9989Z" fill="#15324F"/>
<path d="M50.2927 25.4291C49.9712 25.4291 49.716 25.5942 49.5808 25.8494V25.4656H49.415V27.7838H49.5808V26.7371C49.716 26.9923 49.9712 27.158 50.2927 27.158C50.7667 27.158 51.1505 26.7835 51.1505 26.2936C51.1505 25.803 50.7667 25.4291 50.2927 25.4291ZM50.2828 26.9989C49.8884 26.9989 49.5808 26.6873 49.5808 26.2936C49.5808 25.8991 49.8884 25.5876 50.2828 25.5876C50.6772 25.5876 50.9848 25.8991 50.9848 26.2936C50.9848 26.6873 50.6772 26.9989 50.2828 26.9989Z" fill="#15324F"/>
<path d="M52.2963 25.4291C51.7899 25.4291 51.4385 25.8063 51.4385 26.2936C51.4385 26.7934 51.7998 27.158 52.3096 27.158C52.6377 27.158 52.8963 27.0089 53.0315 26.7835L52.8863 26.6973C52.7902 26.873 52.5847 26.9989 52.3129 26.9989C51.9351 26.9989 51.6507 26.7536 51.6109 26.3798H53.1111C53.1111 26.3532 53.1144 26.3267 53.1144 26.3002C53.1144 25.8461 52.8002 25.4291 52.2963 25.4291ZM52.2963 25.5876C52.6212 25.5876 52.9062 25.813 52.9427 26.2173H51.6109C51.644 25.8494 51.9185 25.5876 52.2963 25.5876Z" fill="#15324F"/>
<path d="M3.31646 30.5917L4.20475 30.5466V30.5996L3.20509 31.0424C2.63034 30.9244 2.20939 30.8648 1.94291 30.8648C1.93561 30.8648 1.92832 30.8648 1.92169 30.8648C1.97605 30.7627 2.00389 30.6513 2.00389 30.5307C2.00389 30.4087 1.97605 30.2967 1.92169 30.1939C1.92832 30.1939 1.93561 30.1939 1.94291 30.1939C2.20939 30.1939 2.63034 30.1343 3.20509 30.0136L4.20475 30.4591V30.5121L3.31646 30.467C3.30916 30.4478 3.29657 30.4299 3.27933 30.414C3.26475 30.4001 3.24818 30.3888 3.22895 30.3795C3.21105 30.3709 3.1905 30.3663 3.16796 30.3663C3.14476 30.3663 3.12421 30.3709 3.10698 30.3795C3.08709 30.3888 3.06985 30.4001 3.05394 30.414C3.03803 30.4299 3.02544 30.4478 3.01682 30.467C3.00953 30.4869 3.00621 30.5068 3.00621 30.528C3.00621 30.5512 3.00953 30.5724 3.01682 30.5917C3.02544 30.6096 3.03803 30.6261 3.05394 30.642C3.06985 30.658 3.08709 30.6706 3.10698 30.6792C3.12421 30.6865 3.14476 30.6898 3.16796 30.6898C3.1905 30.6898 3.21105 30.6865 3.22895 30.6792C3.24818 30.6706 3.26475 30.658 3.27933 30.642C3.29657 30.6261 3.30916 30.6096 3.31646 30.5917Z" fill="#15324F"/>
<path d="M5.6134 31.7371H5.77913V29.3188H5.6134V31.7371Z" fill="#15324F"/>
<path d="M8.27975 31.7736C8.71329 31.7736 9.09115 31.5482 9.28008 31.2068L9.12429 31.118C8.97183 31.409 8.647 31.6046 8.27975 31.6046C7.66987 31.6046 7.24958 31.1478 7.24958 30.5777C7.24958 30.0083 7.66987 29.5509 8.27975 29.5509C8.64369 29.5509 8.9652 29.7431 9.11767 30.0282L9.27345 29.9387C9.08121 29.6006 8.70666 29.3818 8.27975 29.3818C7.57375 29.3818 7.07391 29.9155 7.07391 30.5777C7.07391 31.24 7.57375 31.7736 8.27975 31.7736Z" fill="#15324F"/>
<path d="M10.4189 31.7736C10.8995 31.7736 11.2867 31.3991 11.2867 30.9092C11.2867 30.4186 10.8995 30.0447 10.4189 30.0447C9.93565 30.0447 9.54785 30.4186 9.54785 30.9092C9.54785 31.3991 9.93565 31.7736 10.4189 31.7736ZM10.4189 31.6145C10.0245 31.6145 9.71689 31.3029 9.71689 30.9092C9.71689 30.5147 10.0245 30.2032 10.4189 30.2032C10.8133 30.2032 11.1176 30.5147 11.1176 30.9092C11.1176 31.3029 10.8133 31.6145 10.4189 31.6145Z" fill="#15324F"/>
<path d="M11.6841 31.7371H11.8498V29.3188H11.6841V31.7371Z" fill="#15324F"/>
<path d="M13.5523 30.0812V30.9556C13.5523 31.4024 13.2971 31.6145 12.9723 31.6145C12.6607 31.6145 12.4857 31.4157 12.4857 31.1114V30.0812H12.3167V31.1114C12.3167 31.5118 12.5652 31.7736 12.959 31.7736C13.2142 31.7736 13.4264 31.6676 13.5523 31.4223V31.7372H13.718V30.0812H13.5523Z" fill="#15324F"/>
<path d="M14.986 30.0447C14.7307 30.0447 14.5193 30.1501 14.3933 30.3954V30.0812H14.2276V31.7371H14.3933V30.8628C14.3933 30.4153 14.6479 30.2032 14.9727 30.2032C15.2843 30.2032 15.46 30.402 15.46 30.707V31.7371H15.6283V30.707C15.6283 30.3059 15.3804 30.0447 14.986 30.0447Z" fill="#15324F"/>
<path d="M16.1784 29.6802C16.2513 29.6802 16.3109 29.6205 16.3109 29.5476C16.3109 29.478 16.2513 29.4183 16.1784 29.4183C16.1054 29.4183 16.0458 29.478 16.0458 29.5476C16.0458 29.6205 16.1054 29.6802 16.1784 29.6802ZM16.0955 31.7372H16.2612V30.0812H16.0955V31.7372Z" fill="#15324F"/>
<path d="M16.8839 30.5147C16.8839 30.3159 17.0655 30.2032 17.2809 30.2032C17.4632 30.2032 17.6356 30.2827 17.7052 30.4551L17.8444 30.3755C17.7549 30.1733 17.5494 30.0447 17.2809 30.0447C16.9435 30.0447 16.7181 30.2529 16.7181 30.5147C16.7181 31.1114 17.7218 30.8528 17.7218 31.3029C17.7218 31.5118 17.5262 31.6145 17.2942 31.6145C17.0463 31.6145 16.8673 31.5018 16.8076 31.3228L16.6651 31.4057C16.7446 31.6178 16.9634 31.7736 17.2942 31.7736C17.6489 31.7736 17.8875 31.5747 17.8875 31.3029C17.8875 30.697 16.8839 30.9589 16.8839 30.5147Z" fill="#15324F"/>
<path d="M19.1359 30.243V30.0812H18.642V29.6172L18.4736 29.6669V30.0812H18.109V30.243H18.4736V31.3195C18.4736 31.6974 18.7017 31.8035 19.1359 31.7372V31.588C18.7978 31.6179 18.642 31.6112 18.642 31.3195V30.243H19.1359Z" fill="#15324F"/>
<path d="M20.9903 30.0812V30.4551C20.8518 30.2065 20.5965 30.0447 20.2783 30.0447C19.8083 30.0447 19.4205 30.4186 19.4205 30.9092C19.4205 31.3991 19.8083 31.7736 20.2783 31.7736C20.5965 31.7736 20.8518 31.6112 20.9903 31.3626V31.7371H21.1593V30.0812H20.9903ZM20.2916 31.6145C19.8972 31.6145 19.5896 31.3029 19.5896 30.9092C19.5896 30.5147 19.8972 30.2032 20.2916 30.2032C20.686 30.2032 20.9903 30.5147 20.9903 30.9092C20.9903 31.3029 20.686 31.6145 20.2916 31.6145Z" fill="#15324F"/>
<path d="M23.6586 29.71C22.9692 29.71 22.4528 30.2463 22.4528 30.9092C22.4528 31.6046 22.9957 32.1084 23.7183 32.1084C23.9529 32.1084 24.1385 32.0753 24.2943 32.0189L24.2844 31.9328C24.1253 31.9957 23.9403 32.0256 23.7183 32.0256C23.0388 32.0256 22.5389 31.5549 22.5389 30.9092C22.5389 30.2728 23.0388 29.7929 23.6586 29.7929C24.2612 29.7929 24.7285 30.2463 24.7285 30.8429C24.7285 31.2599 24.5694 31.4422 24.3772 31.4422C24.2148 31.4422 24.1584 31.303 24.1584 31.1412V30.4021H23.9993V30.5778C23.9138 30.4551 23.7746 30.3789 23.6089 30.3789C23.3006 30.3789 23.0719 30.6109 23.0719 30.9092C23.0719 31.2069 23.3006 31.4389 23.6089 31.4389C23.7812 31.4389 23.9204 31.356 24.006 31.2301C24.0358 31.4256 24.1684 31.535 24.354 31.535C24.5761 31.535 24.818 31.3494 24.818 30.8429C24.818 30.296 24.3971 29.71 23.6586 29.71ZM23.6155 31.2864C23.4034 31.2864 23.231 31.1346 23.231 30.9092C23.231 30.6838 23.4034 30.5314 23.6155 30.5314C23.8276 30.5314 23.9993 30.6838 23.9993 30.9092C23.9993 31.1346 23.8276 31.2864 23.6155 31.2864Z" fill="#15324F"/>
<path d="M26.0064 29.541V29.3819C25.5722 29.3487 25.3442 29.5841 25.3442 29.9918V30.0812H25.0591V30.243H25.3442V31.7372H25.5132V30.243H26.0064V30.0812H25.5132V29.9918C25.5132 29.6702 25.6684 29.5145 26.0064 29.541Z" fill="#15324F"/>
<path d="M27.0199 31.7736C27.5005 31.7736 27.8876 31.3991 27.8876 30.9092C27.8876 30.4186 27.5005 30.0447 27.0199 30.0447C26.5366 30.0447 26.1488 30.4186 26.1488 30.9092C26.1488 31.3991 26.5366 31.7736 27.0199 31.7736ZM27.0199 31.6145C26.6254 31.6145 26.3178 31.3029 26.3178 30.9092C26.3178 30.5147 26.6254 30.2032 27.0199 30.2032C27.4143 30.2032 27.7186 30.5147 27.7186 30.9092C27.7186 31.3029 27.4143 31.6145 27.0199 31.6145Z" fill="#15324F"/>
<path d="M28.285 31.7371H28.4508V29.3188H28.285V31.7371Z" fill="#15324F"/>
<path d="M29.7191 30.0448C29.4638 30.0448 29.2524 30.1502 29.1264 30.3955V29.4183H28.9607V31.7372H29.1264V30.8628C29.1264 30.4154 29.381 30.2032 29.7058 30.2032C30.0174 30.2032 30.193 30.4021 30.193 30.707V31.7372H30.3614V30.707C30.3614 30.306 30.1135 30.0448 29.7191 30.0448Z" fill="#15324F"/>
<path d="M32.2857 30.0812V30.4551C32.1471 30.2065 31.8919 30.0447 31.5737 30.0447C31.1037 30.0447 30.7159 30.4186 30.7159 30.9092C30.7159 31.3991 31.1037 31.7736 31.5737 31.7736C31.8919 31.7736 32.1471 31.6112 32.2857 31.3626V31.7371H32.4547V30.0812H32.2857ZM31.5869 31.6145C31.1925 31.6145 30.8849 31.3029 30.8849 30.9092C30.8849 30.5147 31.1925 30.2032 31.5869 30.2032C31.9814 30.2032 32.2857 30.5147 32.2857 30.9092C32.2857 31.3029 31.9814 31.6145 31.5869 31.6145Z" fill="#15324F"/>
<path d="M33.8424 30.0447C33.5209 30.0447 33.2657 30.2098 33.1304 30.465V30.0812H32.9647V32.3994H33.1304V31.3527C33.2657 31.6079 33.5209 31.7736 33.8424 31.7736C34.3164 31.7736 34.7002 31.3991 34.7002 30.9092C34.7002 30.4186 34.3164 30.0447 33.8424 30.0447ZM33.8325 31.6145C33.438 31.6145 33.1304 31.3029 33.1304 30.9092C33.1304 30.5147 33.438 30.2032 33.8325 30.2032C34.2269 30.2032 34.5345 30.5147 34.5345 30.9092C34.5345 31.3029 34.2269 31.6145 33.8325 31.6145Z" fill="#15324F"/>
<path d="M35.846 30.0447C35.3396 30.0447 34.9882 30.4219 34.9882 30.9092C34.9882 31.409 35.3495 31.7736 35.8593 31.7736C36.1874 31.7736 36.446 31.6245 36.5812 31.3991L36.436 31.3129C36.3399 31.4886 36.1344 31.6145 35.8626 31.6145C35.4847 31.6145 35.2004 31.3692 35.1606 30.9954H36.6607C36.6607 30.9688 36.6641 30.9423 36.6641 30.9158C36.6641 30.4617 36.3498 30.0447 35.846 30.0447ZM35.846 30.2032C36.1709 30.2032 36.4559 30.4286 36.4924 30.8329H35.1606C35.1937 30.465 35.4682 30.2032 35.846 30.2032Z" fill="#15324F"/>
<path d="M3.45101 40.9683H3.6532L3.07713 39.9945C3.37146 39.9149 3.58691 39.6497 3.58691 39.3349C3.58691 38.9577 3.27932 38.6494 2.90146 38.6494H1.9873V40.9683H2.16298V40.0177H2.89483L3.45101 40.9683ZM2.16298 38.8151H2.90146C3.18319 38.8151 3.41124 39.0472 3.41124 39.3349C3.41124 39.6199 3.18319 39.8519 2.90146 39.8519H2.16298V38.8151Z" fill="#15324F"/>
<path d="M4.06715 38.9113C4.14007 38.9113 4.19973 38.8516 4.19973 38.7787C4.19973 38.7091 4.14007 38.6494 4.06715 38.6494C3.99423 38.6494 3.93457 38.7091 3.93457 38.7787C3.93457 38.8516 3.99423 38.9113 4.06715 38.9113ZM3.98429 40.9683H4.15002V39.3123H3.98429V40.9683Z" fill="#15324F"/>
<path d="M5.41831 41.0047C5.89892 41.0047 6.28605 40.6302 6.28605 40.1403C6.28605 39.6498 5.89892 39.2759 5.41831 39.2759C4.93504 39.2759 4.54724 39.6498 4.54724 40.1403C4.54724 40.6302 4.93504 41.0047 5.41831 41.0047ZM5.41831 40.8457C5.02387 40.8457 4.71628 40.5341 4.71628 40.1403C4.71628 39.7459 5.02387 39.4343 5.41831 39.4343C5.81274 39.4343 6.11701 39.7459 6.11701 40.1403C6.11701 40.5341 5.81274 40.8457 5.41831 40.8457Z" fill="#15324F"/>
<path d="M8.45218 39.2759C8.2301 39.2759 8.01863 39.3813 7.89931 39.6133C7.81313 39.3945 7.6242 39.2759 7.38224 39.2759C7.17011 39.2759 6.9719 39.368 6.84926 39.5967V39.3123H6.68353V40.9683H6.84926V40.0442C6.84926 39.6199 7.09056 39.4343 7.36235 39.4343C7.61757 39.4343 7.78662 39.6034 7.78662 39.9182V40.9683H7.95234V40.0442C7.95234 39.6199 8.17044 39.4343 8.44886 39.4343C8.7074 39.4343 8.8897 39.6034 8.8897 39.9182V40.9683H9.05543V39.9182C9.05543 39.5039 8.80352 39.2759 8.45218 39.2759Z" fill="#15324F"/>
<path d="M10.9788 39.3123V39.6862C10.8403 39.4376 10.5851 39.2759 10.2669 39.2759C9.79686 39.2759 9.40906 39.6498 9.40906 40.1403C9.40906 40.6302 9.79686 41.0047 10.2669 41.0047C10.5851 41.0047 10.8403 40.8423 10.9788 40.5937V40.9683H11.1479V39.3123H10.9788ZM10.2801 40.8457C9.88569 40.8457 9.5781 40.5341 9.5781 40.1403C9.5781 39.7459 9.88569 39.4343 10.2801 39.4343C10.6746 39.4343 10.9788 39.7459 10.9788 40.1403C10.9788 40.5341 10.6746 40.8457 10.2801 40.8457Z" fill="#15324F"/>
<path d="M11.8237 39.6365V39.3123H11.658V40.9683H11.8237V40.0475C11.8237 39.6232 12.0915 39.4476 12.3766 39.4476V39.2891C12.1512 39.2891 11.9364 39.3746 11.8237 39.6365Z" fill="#15324F"/>
<path d="M15.0525 38.6494H13.4164V38.8151H14.145V40.9683H14.324V38.8151H15.0525V38.6494Z" fill="#15324F"/>
<path d="M15.5496 39.6365V39.3123H15.3839V40.9683H15.5496V40.0475C15.5496 39.6232 15.8174 39.4476 16.1024 39.4476V39.2891C15.8771 39.2891 15.6623 39.3746 15.5496 39.6365Z" fill="#15324F"/>
<path d="M17.8941 39.3123V39.6862C17.7555 39.4376 17.5003 39.2759 17.1821 39.2759C16.7121 39.2759 16.3243 39.6498 16.3243 40.1403C16.3243 40.6302 16.7121 41.0047 17.1821 41.0047C17.5003 41.0047 17.7555 40.8423 17.8941 40.5937V40.9683H18.0631V39.3123H17.8941ZM17.1953 40.8457C16.8009 40.8457 16.4933 40.5341 16.4933 40.1403C16.4933 39.7459 16.8009 39.4343 17.1953 39.4343C17.5898 39.4343 17.8941 39.7459 17.8941 40.1403C17.8941 40.5341 17.5898 40.8457 17.1953 40.8457Z" fill="#15324F"/>
<path d="M20.0336 38.6494V39.6961C19.8983 39.4409 19.6431 39.2759 19.3216 39.2759C18.8483 39.2759 18.4638 39.6497 18.4638 40.1403C18.4638 40.6302 18.8483 41.0047 19.3216 41.0047C19.6431 41.0047 19.8983 40.839 20.0336 40.5838V40.9683H20.1993V38.6494H20.0336ZM19.3316 40.8456C18.9371 40.8456 18.6295 40.5341 18.6295 40.1403C18.6295 39.7459 18.9371 39.4343 19.3316 39.4343C19.726 39.4343 20.0336 39.7459 20.0336 40.1403C20.0336 40.5341 19.726 40.8456 19.3316 40.8456Z" fill="#15324F"/>
<path d="M21.4545 39.2759C20.948 39.2759 20.5967 39.6531 20.5967 40.1403C20.5967 40.6401 20.958 41.0047 21.4677 41.0047C21.7959 41.0047 22.0544 40.8556 22.1897 40.6302L22.0445 40.544C21.9484 40.7197 21.7429 40.8457 21.4711 40.8457C21.0932 40.8457 20.8088 40.6004 20.769 40.2265H22.2692C22.2692 40.2 22.2725 40.1735 22.2725 40.1469C22.2725 39.6928 21.9583 39.2759 21.4545 39.2759ZM21.4545 39.4343C21.7793 39.4343 22.0644 39.6597 22.1008 40.0641H20.769C20.8022 39.6962 21.0766 39.4343 21.4545 39.4343Z" fill="#15324F"/>
<path d="M24.6507 41.0048C25.0843 41.0048 25.4621 40.7794 25.6511 40.438L25.4953 40.3491C25.3428 40.6402 25.018 40.8357 24.6507 40.8357C24.0408 40.8357 23.6206 40.379 23.6206 39.8089C23.6206 39.2394 24.0408 38.782 24.6507 38.782C25.0147 38.782 25.3362 38.9743 25.4886 39.2593L25.6444 39.1698C25.4522 38.8317 25.0776 38.613 24.6507 38.613C23.9447 38.613 23.4449 39.1466 23.4449 39.8089C23.4449 40.4711 23.9447 41.0048 24.6507 41.0048Z" fill="#15324F"/>
<path d="M26.7766 39.2759C26.2702 39.2759 25.9188 39.6531 25.9188 40.1403C25.9188 40.6401 26.2801 41.0047 26.7899 41.0047C27.118 41.0047 27.3766 40.8556 27.5118 40.6302L27.3666 40.544C27.2705 40.7197 27.065 40.8457 26.7932 40.8457C26.4153 40.8457 26.131 40.6004 26.0912 40.2265H27.5913C27.5913 40.2 27.5947 40.1735 27.5947 40.1469C27.5947 39.6928 27.2804 39.2759 26.7766 39.2759ZM26.7766 39.4343C27.1015 39.4343 27.3865 39.6597 27.423 40.0641H26.0912C26.1243 39.6962 26.3988 39.4343 26.7766 39.4343Z" fill="#15324F"/>
<path d="M28.7406 39.2759C28.4854 39.2759 28.2739 39.3813 28.148 39.6266V39.3123H27.9822V40.9683H28.148V40.0939C28.148 39.6464 28.4025 39.4343 28.7273 39.4343C29.0389 39.4343 29.2146 39.6332 29.2146 39.9381V40.9683H29.383V39.9381C29.383 39.5371 29.135 39.2759 28.7406 39.2759Z" fill="#15324F"/>
<path d="M30.698 39.4741V39.3123H30.2041V38.8483L30.0357 38.898V39.3123H29.6711V39.4741H30.0357V40.5506C30.0357 40.9285 30.2638 41.0345 30.698 40.9683V40.8191C30.3599 40.8489 30.2041 40.8423 30.2041 40.5506V39.4741H30.698Z" fill="#15324F"/>
<path d="M31.8405 39.2759C31.3341 39.2759 30.9827 39.6531 30.9827 40.1403C30.9827 40.6401 31.344 41.0047 31.8538 41.0047C32.1819 41.0047 32.4405 40.8556 32.5757 40.6302L32.4305 40.544C32.3344 40.7197 32.1289 40.8457 31.8571 40.8457C31.4792 40.8457 31.1949 40.6004 31.1551 40.2265H32.6552C32.6552 40.2 32.6586 40.1735 32.6586 40.1469C32.6586 39.6928 32.3443 39.2759 31.8405 39.2759ZM31.8405 39.4343C32.1654 39.4343 32.4504 39.6597 32.4869 40.0641H31.1551C31.1882 39.6962 31.4627 39.4343 31.8405 39.4343Z" fill="#15324F"/>
<path d="M33.2119 39.6365V39.3123H33.0461V40.9683H33.2119V40.0475C33.2119 39.6232 33.4797 39.4476 33.7647 39.4476V39.2891C33.5393 39.2891 33.3246 39.3746 33.2119 39.6365Z" fill="#15324F"/>
<path d="M34.381 40.7429H34.1755L34.0496 41.4323H34.202L34.381 40.7429Z" fill="#15324F"/>
<path d="M35.6094 40.9683H37.0672V40.7993H35.8613L36.5799 40.0608C36.8153 39.8221 37.0141 39.5669 37.0141 39.2792C37.0141 38.8483 36.6794 38.613 36.3247 38.613C36.0231 38.613 35.7619 38.7588 35.6227 39.0439L35.7718 39.1334C35.8812 38.9013 36.0728 38.782 36.3247 38.782C36.6065 38.782 36.8352 38.961 36.8352 39.2792C36.8352 39.5072 36.6628 39.726 36.4606 39.9348L35.6094 40.8092V40.9683Z" fill="#15324F"/>
<path d="M38.0933 39.5934H37.6564L37.7095 38.8151H38.7794V38.6494H37.5537L37.4741 39.7624H38.0933C38.438 39.7624 38.6899 39.9646 38.6899 40.2994C38.6899 40.6335 38.438 40.8357 38.0933 40.8357C37.8083 40.8357 37.5868 40.6998 37.5106 40.4512L37.3615 40.5374C37.4675 40.8423 37.7618 41.0047 38.0933 41.0047C38.5109 41.0047 38.8649 40.7462 38.8649 40.2994C38.8649 39.8519 38.5109 39.5934 38.0933 39.5934Z" fill="#15324F"/>
<path d="M39.6662 38.6494L39.0603 38.8582L39.1034 39.0107L39.6397 38.8417V40.9683H39.8154V38.6494H39.6662Z" fill="#15324F"/>
<path d="M40.6405 40.7429H40.435L40.309 41.4323H40.4615L40.6405 40.7429Z" fill="#15324F"/>
<path d="M43.4387 38.6494H41.8026V38.8151H42.5312V40.9683H42.7101V38.8151H43.4387V38.6494Z" fill="#15324F"/>
<path d="M44.5284 41.0047C45.009 41.0047 45.3962 40.6302 45.3962 40.1403C45.3962 39.6498 45.009 39.2759 44.5284 39.2759C44.0452 39.2759 43.6573 39.6498 43.6573 40.1403C43.6573 40.6302 44.0452 41.0047 44.5284 41.0047ZM44.5284 40.8457C44.134 40.8457 43.8264 40.5341 43.8264 40.1403C43.8264 39.7459 44.134 39.4343 44.5284 39.4343C44.9228 39.4343 45.2271 39.7459 45.2271 40.1403C45.2271 40.5341 44.9228 40.8457 44.5284 40.8457Z" fill="#15324F"/>
<path d="M45.9594 39.6365V39.3123H45.7936V40.9683H45.9594V40.0475C45.9594 39.6232 46.2272 39.4476 46.5122 39.4476V39.2891C46.2868 39.2891 46.0721 39.3746 45.9594 39.6365Z" fill="#15324F"/>
<path d="M47.0125 39.6365V39.3123H46.8467V40.9683H47.0125V40.0475C47.0125 39.6232 47.2803 39.4476 47.5653 39.4476V39.2891C47.3399 39.2891 47.1252 39.3746 47.0125 39.6365Z" fill="#15324F"/>
<path d="M48.645 39.2759C48.1386 39.2759 47.7872 39.6531 47.7872 40.1403C47.7872 40.6401 48.1485 41.0047 48.6583 41.0047C48.9864 41.0047 49.245 40.8556 49.3802 40.6302L49.235 40.544C49.1389 40.7197 48.9334 40.8457 48.6616 40.8457C48.2838 40.8457 47.9994 40.6004 47.9596 40.2265H49.4598C49.4598 40.2 49.4631 40.1735 49.4631 40.1469C49.4631 39.6928 49.1488 39.2759 48.645 39.2759ZM48.645 39.4343C48.9699 39.4343 49.2549 39.6597 49.2914 40.0641H47.9596C47.9927 39.6962 48.2672 39.4343 48.645 39.4343Z" fill="#15324F"/>
<path d="M52.3279 40.9683H52.5135L51.6159 38.6494H51.4303L50.5294 40.9683H50.715L50.9404 40.3789H52.1032L52.3279 40.9683ZM51.0067 40.2132L51.5231 38.8649L52.0402 40.2132H51.0067Z" fill="#15324F"/>
<path d="M53.0998 40.7429H52.8943L52.7684 41.4323H52.9208L53.0998 40.7429Z" fill="#15324F"/>
<path d="M55.1828 41.0048C55.6435 41.0048 55.9444 40.7529 55.9444 40.369C55.9444 39.968 55.5871 39.8387 55.1761 39.7028C54.8447 39.5934 54.61 39.5072 54.61 39.2295C54.61 38.9709 54.8115 38.782 55.133 38.782C55.4645 38.782 55.6435 38.9743 55.7297 39.1831L55.8782 39.1002C55.7661 38.8317 55.5142 38.613 55.133 38.613C54.7386 38.613 54.431 38.8549 54.431 39.2361C54.431 39.6398 54.7784 39.7492 55.1662 39.8752C55.5208 39.9879 55.7661 40.0939 55.7661 40.3723C55.7661 40.6368 55.5706 40.8357 55.1828 40.8357C54.8016 40.8357 54.5669 40.6468 54.4874 40.369L54.3349 40.4579C54.441 40.786 54.7486 41.0048 55.1828 41.0048Z" fill="#15324F"/>
<path d="M56.2292 40.9683H57.687V40.7993H56.4812L57.1997 40.0608C57.4351 39.8221 57.634 39.5669 57.634 39.2792C57.634 38.8483 57.2992 38.613 56.9445 38.613C56.6429 38.613 56.3817 38.7588 56.2425 39.0439L56.3917 39.1334C56.501 38.9013 56.6926 38.782 56.9445 38.782C57.2263 38.782 57.455 38.961 57.455 39.2792C57.455 39.5072 57.2826 39.726 57.0804 39.9348L56.2292 40.8092V40.9683Z" fill="#15324F"/>
<path d="M59.0976 39.7691C59.2965 39.6697 59.4357 39.484 59.4357 39.2394C59.4357 38.8284 59.1075 38.613 58.7429 38.613C58.379 38.613 58.0508 38.8284 58.0508 39.2394C58.0508 39.484 58.1901 39.6697 58.3883 39.7691C58.1403 39.8685 57.9746 40.0773 57.9746 40.3491C57.9746 40.7694 58.3094 41.0048 58.7429 41.0048C59.1771 41.0048 59.5112 40.7694 59.5112 40.3491C59.5112 40.0773 59.3462 39.8685 59.0976 39.7691ZM58.2265 39.2394C58.2265 38.9411 58.4512 38.782 58.7429 38.782C59.0346 38.782 59.26 38.9411 59.26 39.2394C59.26 39.5238 59.0346 39.6929 58.7429 39.6929C58.4512 39.6929 58.2265 39.5238 58.2265 39.2394ZM58.7429 40.8357C58.3816 40.8357 58.1536 40.6567 58.1536 40.3491C58.1536 40.0442 58.3816 39.8652 58.7429 39.8652C59.1042 39.8652 59.3329 40.0442 59.3329 40.3491C59.3329 40.6567 59.1042 40.8357 58.7429 40.8357Z" fill="#15324F"/>
<path d="M60.3159 38.6494L59.71 38.8582L59.7531 39.0107L60.2893 38.8417V40.9683H60.465V38.6494H60.3159Z" fill="#15324F"/>
<path d="M61.7966 41.0048C62.3534 41.0048 62.6643 40.5241 62.6643 39.8089C62.6643 39.0936 62.3534 38.613 61.7966 38.613C61.2404 38.613 60.9288 39.0936 60.9288 39.8089C60.9288 40.5241 61.2404 41.0048 61.7966 41.0048ZM61.7966 40.8357C61.3657 40.8357 61.1078 40.4579 61.1078 39.8089C61.1078 39.1599 61.3657 38.782 61.7966 38.782C62.2275 38.782 62.4853 39.1599 62.4853 39.8089C62.4853 40.4579 62.2275 40.8357 61.7966 40.8357Z" fill="#15324F"/>
<path d="M63.3766 40.7429H63.1711L63.0452 41.4323H63.1976L63.3766 40.7429Z" fill="#15324F"/>
<path d="M2.7755 43.265H1.9873V45.5838H2.16298V44.6995H2.7755C3.19314 44.6995 3.49741 44.3912 3.49741 43.9835C3.49741 43.5732 3.19314 43.265 2.7755 43.265ZM2.7755 44.5338H2.16298V43.4307H2.7755C3.0937 43.4307 3.32241 43.6627 3.32241 43.9835C3.32241 44.3017 3.0937 44.5338 2.7755 44.5338Z" fill="#15324F"/>
<path d="M3.98109 43.5268C4.05401 43.5268 4.11367 43.4671 4.11367 43.3942C4.11367 43.3246 4.05401 43.265 3.98109 43.265C3.90817 43.265 3.84851 43.3246 3.84851 43.3942C3.84851 43.4671 3.90817 43.5268 3.98109 43.5268ZM3.89823 45.5838H4.06396V43.9279H3.89823V45.5838Z" fill="#15324F"/>
<path d="M5.33222 43.8914C5.077 43.8914 4.86553 43.9968 4.73958 44.242V43.9278H4.57385V45.5838H4.73958V44.7094C4.73958 44.2619 4.99414 44.0498 5.31896 44.0498C5.63053 44.0498 5.8062 44.2487 5.8062 44.5536V45.5838H5.97458V44.5536C5.97458 44.1525 5.72665 43.8914 5.33222 43.8914Z" fill="#15324F"/>
<path d="M7.89881 43.9278V44.3017C7.76026 44.0531 7.50504 43.8914 7.18685 43.8914C6.71684 43.8914 6.32904 44.2652 6.32904 44.7558C6.32904 45.2457 6.71684 45.6202 7.18685 45.6202C7.50504 45.6202 7.76026 45.4578 7.89881 45.2092V45.5838H8.06785V43.9278H7.89881ZM7.2001 45.4611C6.80567 45.4611 6.49808 45.1496 6.49808 44.7558C6.49808 44.3614 6.80567 44.0498 7.2001 44.0498C7.59454 44.0498 7.89881 44.3614 7.89881 44.7558C7.89881 45.1496 7.59454 45.4611 7.2001 45.4611Z" fill="#15324F"/>
<path d="M8.85965 45.3584H8.65415L8.5282 46.0478H8.68067L8.85965 45.3584Z" fill="#15324F"/>
<path d="M11.6976 45.5838H11.8998L11.3237 44.61C11.618 44.5304 11.8335 44.2653 11.8335 43.9504C11.8335 43.5732 11.5259 43.265 11.148 43.265H10.2339V45.5838H10.4096V44.6332H11.1414L11.6976 45.5838ZM10.4096 43.4307H11.148C11.4298 43.4307 11.6578 43.6627 11.6578 43.9504C11.6578 44.2355 11.4298 44.4675 11.148 44.4675H10.4096V43.4307Z" fill="#15324F"/>
<path d="M12.976 43.8914C12.4696 43.8914 12.1182 44.2686 12.1182 44.7558C12.1182 45.2556 12.4795 45.6202 12.9893 45.6202C13.3174 45.6202 13.576 45.4711 13.7112 45.2457L13.566 45.1595C13.4699 45.3352 13.2644 45.4611 12.9926 45.4611C12.6147 45.4611 12.3304 45.2159 12.2906 44.842H13.7907C13.7907 44.8155 13.7941 44.7889 13.7941 44.7624C13.7941 44.3083 13.4798 43.8914 12.976 43.8914ZM12.976 44.0498C13.3009 44.0498 13.5859 44.2752 13.6224 44.6796H12.2906C12.3237 44.3116 12.5982 44.0498 12.976 44.0498Z" fill="#15324F"/>
<path d="M14.94 45.6202C15.2649 45.6202 15.5433 45.4545 15.6752 45.1993L15.5367 45.1164C15.4273 45.3219 15.2085 45.4611 14.94 45.4611C14.539 45.4611 14.238 45.1496 14.238 44.7558C14.238 44.3614 14.539 44.0498 14.94 44.0498C15.2052 44.0498 15.4306 44.1857 15.5267 44.3945L15.6619 44.315C15.5433 44.0564 15.2649 43.8914 14.94 43.8914C14.4402 43.8914 14.069 44.2652 14.069 44.7558C14.069 45.2457 14.4402 45.6202 14.94 45.6202Z" fill="#15324F"/>
<path d="M16.1225 43.5268C16.1954 43.5268 16.255 43.4671 16.255 43.3942C16.255 43.3246 16.1954 43.265 16.1225 43.265C16.0495 43.265 15.9899 43.3246 15.9899 43.3942C15.9899 43.4671 16.0495 43.5268 16.1225 43.5268ZM16.0396 45.5838H16.2053V43.9279H16.0396V45.5838Z" fill="#15324F"/>
<path d="M17.4967 43.3876V43.2285C17.0625 43.1953 16.8345 43.4307 16.8345 43.8384V43.9279H16.5494V44.0896H16.8345V45.5838H17.0035V44.0896H17.4967V43.9279H17.0035V43.8384C17.0035 43.5169 17.1587 43.3611 17.4967 43.3876Z" fill="#15324F"/>
<path d="M18.4969 43.8914C17.9904 43.8914 17.6391 44.2686 17.6391 44.7558C17.6391 45.2556 18.0004 45.6202 18.5102 45.6202C18.8383 45.6202 19.0968 45.4711 19.2321 45.2457L19.0869 45.1595C18.9908 45.3352 18.7853 45.4611 18.5135 45.4611C18.1356 45.4611 17.8512 45.2159 17.8115 44.842H19.3116C19.3116 44.8155 19.3149 44.7889 19.3149 44.7624C19.3149 44.3083 19.0007 43.8914 18.4969 43.8914ZM18.4969 44.0498C18.8217 44.0498 19.1068 44.2752 19.1432 44.6796H17.8115C17.8446 44.3116 18.119 44.0498 18.4969 44.0498Z" fill="#15324F"/>
<path d="M19.7357 44.6398H20.9282V44.4807H19.7357V44.6398Z" fill="#15324F"/>
<path d="M22.2892 43.265H21.501V45.5838H21.6766V44.6995H22.2892C22.7068 44.6995 23.0111 44.3912 23.0111 43.9835C23.0111 43.5732 22.7068 43.265 22.2892 43.265ZM22.2892 44.5338H21.6766V43.4307H22.2892C22.6074 43.4307 22.8361 43.6627 22.8361 43.9835C22.8361 44.3017 22.6074 44.5338 22.2892 44.5338Z" fill="#15324F"/>
<path d="M23.6207 45.4181V44.4973H24.6807V44.3316H23.6207V43.4307H24.7635V43.265H23.445V45.5838H24.7801V45.4181H23.6207Z" fill="#15324F"/>
<path d="M2.78879 48.3114V48.5235C2.78879 48.7549 2.63963 48.9272 2.39435 49.1659C2.16631 49.388 2.09008 49.6624 2.09008 49.9541C2.09008 50.0602 2.12985 50.1099 2.24255 50.1099H4.46794C4.58063 50.1099 4.62041 50.0602 4.62041 49.9541C4.62041 49.6624 4.54417 49.388 4.31613 49.1659C4.07085 48.9272 3.9217 48.7549 3.9217 48.5235V48.3114H4.27636L4.14046 48.6621C4.11726 48.7151 4.11726 48.7715 4.18355 48.7847L4.78613 48.8875C4.8458 48.8941 4.87894 48.861 4.87894 48.7947C4.87894 48.6488 4.85905 48.3313 4.69996 48.2087C4.4222 47.9932 4.0576 47.8772 3.35491 47.8772C2.65289 47.8772 2.28829 47.9932 2.01053 48.2087C1.85143 48.3313 1.83154 48.6488 1.83154 48.7947C1.83154 48.861 1.86469 48.8941 1.92435 48.8875L2.52694 48.7847C2.59323 48.7715 2.59323 48.7151 2.57002 48.6621L2.43413 48.3114H2.78879ZM3.63665 48.3114V48.6289H3.07384V48.3114H3.63665ZM2.79873 49.3714C2.79873 49.0631 3.04732 48.8146 3.35491 48.8146C3.66316 48.8146 3.91176 49.0631 3.91176 49.3714C3.91176 49.679 3.66316 49.9276 3.35491 49.9276C3.04732 49.9276 2.79873 49.679 2.79873 49.3714Z" fill="#15324F"/>
<path d="M7.16057 49.0002C7.35944 48.9007 7.49865 48.7151 7.49865 48.4705C7.49865 48.0595 7.17051 47.8441 6.80591 47.8441C6.44197 47.8441 6.11383 48.0595 6.11383 48.4705C6.11383 48.7151 6.25304 48.9007 6.45125 49.0002C6.20333 49.0996 6.0376 49.3084 6.0376 49.5802C6.0376 50.0005 6.37237 50.2358 6.80591 50.2358C7.24012 50.2358 7.57422 50.0005 7.57422 49.5802C7.57422 49.3084 7.40916 49.0996 7.16057 49.0002ZM6.2895 48.4705C6.2895 48.1722 6.51423 48.0131 6.80591 48.0131C7.09759 48.0131 7.32298 48.1722 7.32298 48.4705C7.32298 48.7549 7.09759 48.9239 6.80591 48.9239C6.51423 48.9239 6.2895 48.7549 6.2895 48.4705ZM6.80591 50.0668C6.44462 50.0668 6.21658 49.8878 6.21658 49.5802C6.21658 49.2753 6.44462 49.0963 6.80591 49.0963C7.1672 49.0963 7.3959 49.2753 7.3959 49.5802C7.3959 49.8878 7.1672 50.0668 6.80591 50.0668Z" fill="#15324F"/>
<path d="M8.37885 47.8806L7.77295 48.0894L7.81604 48.2418L8.35233 48.0728V50.1994H8.528V47.8806H8.37885Z" fill="#15324F"/>
<path d="M10.6643 48.8444L11.2211 48.0463V47.8806H9.88602V48.0463H11.0189L10.4323 48.8776L10.5085 48.9936H10.5582C10.9029 48.9936 11.1548 49.1958 11.1548 49.5305C11.1548 49.8646 10.9029 50.0668 10.5648 50.0668C10.2732 50.0668 10.0584 49.9409 9.9722 49.7089L9.82635 49.795C9.93905 50.0801 10.2274 50.2359 10.5648 50.2359C10.9758 50.2359 11.3305 49.9773 11.3305 49.5305C11.3305 49.1228 11.0322 48.8809 10.6643 48.8444Z" fill="#15324F"/>
<path d="M12.4494 48.8444L13.0063 48.0463V47.8806H11.6712V48.0463H12.8041L12.2174 48.8776L12.2936 48.9936H12.3434C12.6881 48.9936 12.94 49.1958 12.94 49.5305C12.94 49.8646 12.6881 50.0668 12.35 50.0668C12.0583 50.0668 11.8435 49.9409 11.7574 49.7089L11.6115 49.795C11.7242 50.0801 12.0126 50.2359 12.35 50.2359C12.761 50.2359 13.1157 49.9773 13.1157 49.5305C13.1157 49.1228 12.8173 48.8809 12.4494 48.8444Z" fill="#15324F"/>
<path d="M13.9329 47.8806L13.327 48.0894L13.3701 48.2418L13.9064 48.0728V50.1994H14.0821V47.8806H13.9329Z" fill="#15324F"/>
<path d="M16.1853 49.5471H15.8876V48.8179H15.7119V49.5471H14.6586L15.5363 47.8806H15.344L14.463 49.5471V49.7122H15.7119V50.1994H15.8876V49.7122H16.1853V49.5471Z" fill="#15324F"/>
<path d="M16.5563 49.2554H17.7488V49.0963H16.5563V49.2554Z" fill="#15324F"/>
<path d="M19.0766 50.2358C19.6334 50.2358 19.9443 49.7552 19.9443 49.0399C19.9443 48.3247 19.6334 47.8441 19.0766 47.8441C18.5204 47.8441 18.2088 48.3247 18.2088 49.0399C18.2088 49.7552 18.5204 50.2358 19.0766 50.2358ZM19.0766 50.0668C18.6457 50.0668 18.3878 49.6889 18.3878 49.0399C18.3878 48.391 18.6457 48.0131 19.0766 48.0131C19.5074 48.0131 19.7653 48.391 19.7653 49.0399C19.7653 49.6889 19.5074 50.0668 19.0766 50.0668Z" fill="#15324F"/>
<path d="M21.0073 48.7085C20.9178 48.7085 20.8349 48.7218 20.7554 48.745L21.3487 47.8806H21.1498L20.3715 49.0102C20.282 49.1361 20.229 49.2919 20.229 49.4742C20.229 49.9243 20.5571 50.2359 21.0073 50.2359C21.458 50.2359 21.7855 49.9243 21.7855 49.4742C21.7855 49.0201 21.458 48.7085 21.0073 48.7085ZM21.0073 50.0668C20.64 50.0668 20.408 49.8182 20.408 49.4742C20.408 49.1262 20.64 48.8776 21.0073 48.8776C21.3752 48.8776 21.6105 49.1262 21.6105 49.4742C21.6105 49.8182 21.3752 50.0668 21.0073 50.0668Z" fill="#15324F"/>
<path d="M22.0406 50.1994H23.4984V50.0303H22.2926L23.0112 49.2919C23.2465 49.0532 23.4454 48.798 23.4454 48.5103C23.4454 48.0794 23.1106 47.8441 22.7559 47.8441C22.4543 47.8441 22.1931 47.9899 22.0539 48.2749L22.2031 48.3644C22.3124 48.1324 22.504 48.0131 22.7559 48.0131C23.0377 48.0131 23.2664 48.1921 23.2664 48.5103C23.2664 48.7383 23.094 48.9571 22.8918 49.1659L22.0406 50.0403V50.1994Z" fill="#15324F"/>
<path d="M25.3094 48.6057C25.3094 48.1556 24.9819 47.8441 24.5311 47.8441C24.081 47.8441 23.7529 48.1556 23.7529 48.6057C23.7529 49.0598 24.081 49.3714 24.5311 49.3714C24.6206 49.3714 24.7068 49.3581 24.7863 49.3349L24.193 50.1994H24.3919L25.1675 49.0698C25.257 48.9438 25.3094 48.788 25.3094 48.6057ZM23.9319 48.6057C23.9319 48.2617 24.1639 48.0131 24.5311 48.0131C24.899 48.0131 25.1344 48.2617 25.1344 48.6057C25.1344 48.9538 24.899 49.2024 24.5311 49.2024C24.1639 49.2024 23.9319 48.9538 23.9319 48.6057Z" fill="#15324F"/>
<path d="M3.05725 52.1646H2.0072V55.4772H3.05725V52.1646ZM2.80203 52.3867V52.4961H2.58327V52.6187H2.80203V52.7281H2.25182V52.6187H2.47058V52.4961H2.25513V52.3867H2.80203ZM2.58327 52.8143V53.0463H2.80203V53.159H2.25182V52.8143H2.58327ZM2.47058 52.927H2.3612V53.0463H2.47058V52.927ZM2.80203 53.2478V53.3572H2.58327V53.5892H2.25182V53.4798H2.47058V53.3572H2.25182V53.2478H2.80203ZM2.80203 53.4467V53.7781H2.25182V53.6654H2.69265V53.4467H2.80203ZM2.80203 53.8511V54.2256H2.25182V53.8511H2.3612V54.1162H2.69265V53.9604H2.58327V54.0367H2.47058V53.8511H2.80203ZM2.80203 54.4238V54.7984H2.25182V54.4238H2.80203ZM2.69265 54.5332H2.3612V54.689H2.69265V54.5332ZM2.80203 54.8746V54.984H2.69597L2.46395 55.1398H2.80203V55.2491H2.25182V55.1398L2.48383 54.984H2.25182V54.8746H2.80203Z" fill="#15324F"/>
<path d="M5.50462 53.6157C5.7035 53.5163 5.84271 53.3307 5.84271 53.086C5.84271 52.675 5.51457 52.4596 5.14997 52.4596C4.78603 52.4596 4.45789 52.675 4.45789 53.086C4.45789 53.3307 4.5971 53.5163 4.79531 53.6157C4.54738 53.7151 4.38165 53.924 4.38165 54.1958C4.38165 54.616 4.71642 54.8514 5.14997 54.8514C5.58417 54.8514 5.91828 54.616 5.91828 54.1958C5.91828 53.924 5.75321 53.7151 5.50462 53.6157ZM4.63356 53.086C4.63356 52.7877 4.85829 52.6286 5.14997 52.6286C5.44165 52.6286 5.66704 52.7877 5.66704 53.086C5.66704 53.3704 5.44165 53.5395 5.14997 53.5395C4.85829 53.5395 4.63356 53.3704 4.63356 53.086ZM5.14997 54.6823C4.78868 54.6823 4.56064 54.5033 4.56064 54.1958C4.56064 53.8908 4.78868 53.7118 5.14997 53.7118C5.51125 53.7118 5.73996 53.8908 5.73996 54.1958C5.73996 54.5033 5.51125 54.6823 5.14997 54.6823Z" fill="#15324F"/>
<path d="M6.7229 52.496L6.117 52.7048L6.16009 52.8573L6.69639 52.6883V54.8149H6.87206V52.496H6.7229Z" fill="#15324F"/>
<path d="M9.71038 53.2213C9.71038 52.7712 9.38291 52.4596 8.93213 52.4596C8.48201 52.4596 8.15387 52.7712 8.15387 53.2213C8.15387 53.6754 8.48201 53.9869 8.93213 53.9869C9.02162 53.9869 9.1078 53.9737 9.18735 53.9505L8.59404 54.8149H8.79292L9.56852 53.6853C9.65801 53.5594 9.71038 53.4036 9.71038 53.2213ZM8.33286 53.2213C8.33286 52.8772 8.56487 52.6286 8.93213 52.6286C9.30004 52.6286 9.53537 52.8772 9.53537 53.2213C9.53537 53.5693 9.30004 53.8179 8.93213 53.8179C8.56487 53.8179 8.33286 53.5693 8.33286 53.2213Z" fill="#15324F"/>
<path d="M11.4889 53.2213C11.4889 52.7712 11.1614 52.4596 10.7106 52.4596C10.2605 52.4596 9.93237 52.7712 9.93237 53.2213C9.93237 53.6754 10.2605 53.9869 10.7106 53.9869C10.8001 53.9869 10.8863 53.9737 10.9659 53.9505L10.3725 54.8149H10.5714L11.347 53.6853C11.4365 53.5594 11.4889 53.4036 11.4889 53.2213ZM10.1114 53.2213C10.1114 52.8772 10.3434 52.6286 10.7106 52.6286C11.0785 52.6286 11.3139 52.8772 11.3139 53.2213C11.3139 53.5693 11.0785 53.8179 10.7106 53.8179C10.3434 53.8179 10.1114 53.5693 10.1114 53.2213Z" fill="#15324F"/>
<path d="M13.2674 53.2213C13.2674 52.7712 12.9399 52.4596 12.4891 52.4596C12.039 52.4596 11.7109 52.7712 11.7109 53.2213C11.7109 53.6754 12.039 53.9869 12.4891 53.9869C12.5786 53.9869 12.6648 53.9737 12.7444 53.9505L12.151 54.8149H12.3499L13.1255 53.6853C13.215 53.5594 13.2674 53.4036 13.2674 53.2213ZM11.8899 53.2213C11.8899 52.8772 12.1219 52.6286 12.4891 52.6286C12.857 52.6286 13.0924 52.8772 13.0924 53.2213C13.0924 53.5693 12.857 53.8179 12.4891 53.8179C12.1219 53.8179 11.8899 53.5693 11.8899 53.2213Z" fill="#15324F"/>
<path d="M13.5225 54.8149H14.9802V54.6459H13.7744L14.493 53.9074C14.7283 53.6687 14.9272 53.4135 14.9272 53.1258C14.9272 52.6949 14.5924 52.4596 14.2377 52.4596C13.9361 52.4596 13.6749 52.6054 13.5357 52.8905L13.6849 52.98C13.7943 52.748 13.9858 52.6286 14.2377 52.6286C14.5195 52.6286 14.7482 52.8076 14.7482 53.1258C14.7482 53.3539 14.5758 53.5726 14.3736 53.7814L13.5225 54.6558V54.8149Z" fill="#15324F"/>
<path d="M16.7912 53.2213C16.7912 52.7712 16.4637 52.4596 16.0129 52.4596C15.5628 52.4596 15.2347 52.7712 15.2347 53.2213C15.2347 53.6754 15.5628 53.9869 16.0129 53.9869C16.1024 53.9869 16.1886 53.9737 16.2682 53.9505L15.6749 54.8149H15.8737L16.6493 53.6853C16.7388 53.5594 16.7912 53.4036 16.7912 53.2213ZM15.4137 53.2213C15.4137 52.8772 15.6457 52.6286 16.0129 52.6286C16.3809 52.6286 16.6162 52.8772 16.6162 53.2213C16.6162 53.5693 16.3809 53.8179 16.0129 53.8179C15.6457 53.8179 15.4137 53.5693 15.4137 53.2213Z" fill="#15324F"/>
<path d="M16.98 52.496V52.6618H18.2024L17.3015 54.8149H17.4831L18.3847 52.6618V52.496H16.98Z" fill="#15324F"/>
<path d="M20.1925 53.2213C20.1925 52.7712 19.865 52.4596 19.4142 52.4596C18.9641 52.4596 18.636 52.7712 18.636 53.2213C18.636 53.6754 18.9641 53.9869 19.4142 53.9869C19.5037 53.9869 19.5899 53.9737 19.6695 53.9505L19.0762 54.8149H19.275L20.0506 53.6853C20.1401 53.5594 20.1925 53.4036 20.1925 53.2213ZM18.815 53.2213C18.815 52.8772 19.047 52.6286 19.4142 52.6286C19.7822 52.6286 20.0175 52.8772 20.0175 53.2213C20.0175 53.5693 19.7822 53.8179 19.4142 53.8179C19.047 53.8179 18.815 53.5693 18.815 53.2213Z" fill="#15324F"/>
<path d="M21.2689 53.4599L21.8258 52.6618V52.496H20.4907V52.6618H21.6236L21.0369 53.493L21.1132 53.6091H21.1629C21.5076 53.6091 21.7595 53.8112 21.7595 54.146C21.7595 54.4801 21.5076 54.6823 21.1695 54.6823C20.8778 54.6823 20.663 54.5564 20.5769 54.3243L20.431 54.4105C20.5437 54.6956 20.8321 54.8514 21.1695 54.8514C21.5805 54.8514 21.9352 54.5928 21.9352 54.146C21.9352 53.7383 21.6369 53.4964 21.2689 53.4599Z" fill="#15324F"/>
<path d="M23.1336 54.8514C23.6905 54.8514 24.0014 54.3708 24.0014 53.6555C24.0014 52.9402 23.6905 52.4596 23.1336 52.4596C22.5774 52.4596 22.2659 52.9402 22.2659 53.6555C22.2659 54.3708 22.5774 54.8514 23.1336 54.8514ZM23.1336 54.6823C22.7027 54.6823 22.4449 54.3045 22.4449 53.6555C22.4449 53.0065 22.7027 52.6286 23.1336 52.6286C23.5645 52.6286 23.8224 53.0065 23.8224 53.6555C23.8224 54.3045 23.5645 54.6823 23.1336 54.6823Z" fill="#15324F"/>
<path d="M4.51949 7.6685C5.73593 7.6685 6.7999 7.06989 7.37 6.12856L6.05877 5.36886C5.77372 5.88195 5.19433 6.18557 4.51949 6.18557C3.34084 6.18557 2.58114 5.39737 2.58114 4.20943C2.58114 3.0215 3.34084 2.23263 4.51949 2.23263C5.19433 2.23263 5.76444 2.53691 6.05877 3.05L7.37 2.28964C6.79062 1.34897 5.72599 0.750366 4.51949 0.750366C2.51419 0.750366 1.06042 2.25186 1.06042 4.20943C1.06042 6.16701 2.51419 7.6685 4.51949 7.6685Z" fill="#15324F"/>
<path d="M9.93575 7.66851C11.3325 7.66851 12.4535 6.57537 12.4535 5.15939C12.4535 3.74342 11.3325 2.65094 9.93575 2.65094C8.539 2.65094 7.41736 3.74342 7.41736 5.15939C7.41736 6.57537 8.539 7.66851 9.93575 7.66851ZM9.93575 6.28104C9.31792 6.28104 8.84262 5.83423 8.84262 5.15939C8.84262 4.48521 9.31792 4.03841 9.93575 4.03841C10.5529 4.03841 11.0282 4.48521 11.0282 5.15939C11.0282 5.83423 10.5529 6.28104 9.93575 6.28104Z" fill="#15324F"/>
<path d="M15.57 2.65094C14.9429 2.65094 14.4682 2.87898 14.2117 3.23032V2.78418H12.7858V7.53526H14.2117V4.94129C14.2117 4.26645 14.5723 3.96218 15.0953 3.96218C15.5514 3.96218 15.922 4.23795 15.922 4.82727V7.53526H17.3473V4.61779C17.3473 3.33506 16.5299 2.65094 15.57 2.65094Z" fill="#15324F"/>
<path d="M20.6345 4.15244V2.7842H19.6561V1.45374L18.2308 1.88131V2.7842H17.4705V4.15244H18.2308V5.83425C18.2308 7.16471 18.7724 7.72553 20.6345 7.53527V6.2426C20.0074 6.28105 19.6561 6.2426 19.6561 5.83425V4.15244H20.6345Z" fill="#15324F"/>
<path d="M24.5118 2.78418V3.23032C24.1983 2.8697 23.7322 2.65094 23.0958 2.65094C21.8509 2.65094 20.8247 3.74342 20.8247 5.15939C20.8247 6.57537 21.8509 7.66851 23.0958 7.66851C23.7322 7.66851 24.1983 7.44975 24.5118 7.08846V7.53526H25.9371V2.78418H24.5118ZM23.3809 6.31882C22.7253 6.31882 22.25 5.87202 22.25 5.15939C22.25 4.44676 22.7253 3.99996 23.3809 3.99996C24.0365 3.99996 24.5118 4.44676 24.5118 5.15939C24.5118 5.87202 24.0365 6.31882 23.3809 6.31882Z" fill="#15324F"/>
<path d="M29.2909 4.15244V2.7842H28.3124V1.45374L26.8872 1.88131V2.7842H26.1268V4.15244H26.8872V5.83425C26.8872 7.16471 27.4288 7.72553 29.2909 7.53527V6.2426C28.6638 6.28105 28.3124 6.2426 28.3124 5.83425V4.15244H29.2909Z" fill="#15324F"/>
<path d="M31.9994 7.66851C33.3962 7.66851 34.5171 6.57537 34.5171 5.15939C34.5171 3.74342 33.3962 2.65094 31.9994 2.65094C30.6027 2.65094 29.481 3.74342 29.481 5.15939C29.481 6.57537 30.6027 7.66851 31.9994 7.66851ZM31.9994 6.28104C31.3816 6.28104 30.9063 5.83423 30.9063 5.15939C30.9063 4.48521 31.3816 4.03841 31.9994 4.03841C32.6166 4.03841 33.0919 4.48521 33.0919 5.15939C33.0919 5.83423 32.6166 6.28104 31.9994 6.28104Z" fill="#15324F"/>
</svg>
