<svg width="74" height="56" viewBox="0 0 74 56" fill="none" xmlns="http://www.w3.org/2000/svg">
<path d="M2.51067 10.956V12.95L1.13977 10.956H0.987305V13.2749H1.16298V11.2808L2.53056 13.2749H2.68634V10.956H2.51067Z" fill="#15324F"/>
<path d="M4.422 11.6189V12.4933C4.422 12.9401 4.16678 13.1522 3.84196 13.1522C3.53039 13.1522 3.35538 12.9533 3.35538 12.6491V11.6189H3.18634V12.6491C3.18634 13.0495 3.43493 13.3113 3.8287 13.3113C4.08392 13.3113 4.29605 13.2052 4.422 12.96V13.2748H4.58773V11.6189H4.422Z" fill="#15324F"/>
<path d="M5.94518 11.7807V11.6189H5.45131V11.1549L5.28294 11.2046V11.6189H4.91833V11.7807H5.28294V12.8573C5.28294 13.2351 5.51098 13.3412 5.94518 13.2749V13.1257C5.6071 13.1556 5.45131 13.1489 5.45131 12.8573V11.7807H5.94518Z" fill="#15324F"/>
<path d="M6.50832 11.9431V11.6189H6.34259V13.2749H6.50832V12.3541C6.50832 11.9298 6.77613 11.7541 7.06119 11.7541V11.5957C6.8358 11.5957 6.62101 11.6812 6.50832 11.9431Z" fill="#15324F"/>
<path d="M8.00499 11.3869L8.27015 10.9659H8.46903L8.1674 11.3869H8.00499ZM8.15414 13.3113C8.63475 13.3113 9.02189 12.9368 9.02189 12.4469C9.02189 11.9563 8.63475 11.5824 8.15414 11.5824C7.67088 11.5824 7.28308 11.9563 7.28308 12.4469C7.28308 12.9368 7.67088 13.3113 8.15414 13.3113ZM8.15414 13.1522C7.75971 13.1522 7.45212 12.8407 7.45212 12.4469C7.45212 12.0525 7.75971 11.7409 8.15414 11.7409C8.54858 11.7409 8.85285 12.0525 8.85285 12.4469C8.85285 12.8407 8.54858 13.1522 8.15414 13.1522Z" fill="#15324F"/>
<path d="M9.41931 13.2749H9.58504V10.8566H9.41931V13.2749Z" fill="#15324F"/>
<path d="M10.8533 13.3113C11.3339 13.3113 11.7211 12.9368 11.7211 12.4469C11.7211 11.9563 11.3339 11.5825 10.8533 11.5825C10.37 11.5825 9.98224 11.9563 9.98224 12.4469C9.98224 12.9368 10.37 13.3113 10.8533 13.3113ZM10.8533 13.1522C10.4589 13.1522 10.1513 12.8407 10.1513 12.4469C10.1513 12.0525 10.4589 11.7409 10.8533 11.7409C11.2477 11.7409 11.552 12.0525 11.552 12.4469C11.552 12.8407 11.2477 13.1522 10.8533 13.1522Z" fill="#15324F"/>
<path d="M13.5888 11.6189V12.0027C13.4536 11.7475 13.1984 11.5825 12.8768 11.5825C12.4035 11.5825 12.019 11.9563 12.019 12.4469C12.019 12.9368 12.4035 13.3113 12.8768 13.3113C13.1984 13.3113 13.4536 13.1456 13.5888 12.8904V13.1953C13.5888 13.5732 13.3442 13.8151 12.9299 13.8151C12.5653 13.8151 12.3803 13.6693 12.2942 13.4936L12.1483 13.5765C12.2676 13.8185 12.5421 13.9736 12.9299 13.9736C13.3873 13.9736 13.7545 13.6925 13.7545 13.1953V11.6189H13.5888ZM12.8868 13.1522C12.4924 13.1522 12.1848 12.8407 12.1848 12.4469C12.1848 12.0525 12.4924 11.7409 12.8868 11.7409C13.2812 11.7409 13.5888 12.0525 13.5888 12.4469C13.5888 12.8407 13.2812 13.1522 12.8868 13.1522Z" fill="#15324F"/>
<path d="M15.023 13.3113C15.5036 13.3113 15.8907 12.9368 15.8907 12.4469C15.8907 11.9563 15.5036 11.5825 15.023 11.5825C14.5397 11.5825 14.1519 11.9563 14.1519 12.4469C14.1519 12.9368 14.5397 13.3113 15.023 13.3113ZM15.023 13.1522C14.6285 13.1522 14.321 12.8407 14.321 12.4469C14.321 12.0525 14.6285 11.7409 15.023 11.7409C15.4174 11.7409 15.7217 12.0525 15.7217 12.4469C15.7217 12.8407 15.4174 13.1522 15.023 13.1522Z" fill="#15324F"/>
<path d="M18.6693 13.2749H18.8715L18.2954 12.301C18.5897 12.2215 18.8052 11.9563 18.8052 11.6414C18.8052 11.2642 18.4976 10.956 18.1197 10.956H17.2056V13.2749H17.3812V12.3242H18.1131L18.6693 13.2749ZM17.3812 11.1217H18.1197C18.4015 11.1217 18.6295 11.3537 18.6295 11.6414C18.6295 11.9265 18.4015 12.1585 18.1197 12.1585H17.3812V11.1217Z" fill="#15324F"/>
<path d="M20.6597 11.6189V11.9928C20.5212 11.7442 20.266 11.5825 19.9478 11.5825C19.4778 11.5825 19.09 11.9563 19.09 12.4469C19.09 12.9368 19.4778 13.3113 19.9478 13.3113C20.266 13.3113 20.5212 13.1489 20.6597 12.9003V13.2749H20.8288V11.6189H20.6597ZM19.961 13.1522C19.5666 13.1522 19.259 12.8407 19.259 12.4469C19.259 12.0525 19.5666 11.7409 19.961 11.7409C20.3555 11.7409 20.6597 12.0525 20.6597 12.4469C20.6597 12.8407 20.3555 13.1522 19.961 13.1522Z" fill="#15324F"/>
<path d="M22.1204 11.0786V10.9195C21.6862 10.8864 21.4581 11.1217 21.4581 11.5294V11.6189H21.1731V11.7807H21.4581V13.2749H21.6272V11.7807H22.1204V11.6189H21.6272V11.5294C21.6272 11.2079 21.7823 11.0521 22.1204 11.0786Z" fill="#15324F"/>
<path d="M23.8325 11.6189V11.9928C23.694 11.7442 23.4388 11.5825 23.1206 11.5825C22.6506 11.5825 22.2628 11.9563 22.2628 12.4469C22.2628 12.9368 22.6506 13.3113 23.1206 13.3113C23.4388 13.3113 23.694 13.1489 23.8325 12.9003V13.2749H24.0016V11.6189H23.8325ZM23.1338 13.1522C22.7394 13.1522 22.4318 12.8407 22.4318 12.4469C22.4318 12.0525 22.7394 11.7409 23.1338 11.7409C23.5283 11.7409 23.8325 12.0525 23.8325 12.4469C23.8325 12.8407 23.5283 13.1522 23.1338 13.1522Z" fill="#15324F"/>
<path d="M25.2567 11.5825C24.7503 11.5825 24.3989 11.9597 24.3989 12.4469C24.3989 12.9467 24.7602 13.3113 25.27 13.3113C25.5981 13.3113 25.8567 13.1622 25.9919 12.9368L25.8467 12.8506C25.7506 13.0263 25.5451 13.1522 25.2733 13.1522C24.8954 13.1522 24.6111 12.907 24.5713 12.5331H26.0714C26.0714 12.5066 26.0748 12.48 26.0748 12.4535C26.0748 11.9994 25.7605 11.5825 25.2567 11.5825ZM25.2567 11.7409C25.5816 11.7409 25.8666 11.9663 25.9031 12.3707H24.5713C24.6044 12.0027 24.8789 11.7409 25.2567 11.7409Z" fill="#15324F"/>
<path d="M26.4623 13.2749H26.6281V10.8566H26.4623V13.2749Z" fill="#15324F"/>
<path d="M29.1286 13.3113C29.5621 13.3113 29.94 13.0859 30.1289 12.7445L29.9731 12.6557C29.8206 12.9467 29.4958 13.1423 29.1286 13.1423C28.5187 13.1423 28.0984 12.6855 28.0984 12.1154C28.0984 11.546 28.5187 11.0886 29.1286 11.0886C29.4925 11.0886 29.814 11.2808 29.9665 11.5659L30.1223 11.4764C29.93 11.1383 29.5555 10.9196 29.1286 10.9196C28.4226 10.9196 27.9227 11.4532 27.9227 12.1154C27.9227 12.7777 28.4226 13.3113 29.1286 13.3113Z" fill="#15324F"/>
<path d="M31.2678 13.3113C31.7484 13.3113 32.1355 12.9368 32.1355 12.4469C32.1355 11.9563 31.7484 11.5825 31.2678 11.5825C30.7845 11.5825 30.3967 11.9563 30.3967 12.4469C30.3967 12.9368 30.7845 13.3113 31.2678 13.3113ZM31.2678 13.1522C30.8734 13.1522 30.5658 12.8407 30.5658 12.4469C30.5658 12.0525 30.8734 11.7409 31.2678 11.7409C31.6622 11.7409 31.9665 12.0525 31.9665 12.4469C31.9665 12.8407 31.6622 13.1522 31.2678 13.1522Z" fill="#15324F"/>
<path d="M33.278 11.5825C32.7716 11.5825 32.4202 11.9597 32.4202 12.4469C32.4202 12.9467 32.7815 13.3113 33.2913 13.3113C33.6194 13.3113 33.878 13.1622 34.0132 12.9368L33.868 12.8506C33.7719 13.0263 33.5664 13.1522 33.2946 13.1522C32.9167 13.1522 32.6324 12.907 32.5926 12.5331H34.0927C34.0927 12.5066 34.0961 12.48 34.0961 12.4535C34.0961 11.9994 33.7818 11.5825 33.278 11.5825ZM33.278 11.7409C33.6029 11.7409 33.8879 11.9663 33.9244 12.3707H32.5926C32.6257 12.0027 32.9002 11.7409 33.278 11.7409Z" fill="#15324F"/>
<path d="M34.4836 13.2749H34.6494V10.8566H34.4836V13.2749Z" fill="#15324F"/>
<path d="M35.9177 11.5824C35.6625 11.5824 35.451 11.6878 35.325 11.9331V10.956H35.1593V13.2749H35.325V12.4005C35.325 11.953 35.5796 11.7409 35.9044 11.7409C36.216 11.7409 36.3917 11.9398 36.3917 12.2447V13.2749H36.56V12.2447C36.56 11.8436 36.3121 11.5824 35.9177 11.5824Z" fill="#15324F"/>
<path d="M37.7856 13.3113C38.2662 13.3113 38.6533 12.9368 38.6533 12.4469C38.6533 11.9563 38.2662 11.5825 37.7856 11.5825C37.3023 11.5825 36.9145 11.9563 36.9145 12.4469C36.9145 12.9368 37.3023 13.3113 37.7856 13.3113ZM37.7856 13.1522C37.3911 13.1522 37.0835 12.8407 37.0835 12.4469C37.0835 12.0525 37.3911 11.7409 37.7856 11.7409C38.18 11.7409 38.4843 12.0525 38.4843 12.4469C38.4843 12.8407 38.18 13.1522 37.7856 13.1522Z" fill="#15324F"/>
<path d="M2.06057 17.9269C2.49411 17.9269 2.87197 17.7015 3.0609 17.3601L2.90512 17.2713C2.75265 17.5623 2.42782 17.7579 2.06057 17.7579C1.45069 17.7579 1.03041 17.3011 1.03041 16.731C1.03041 16.1616 1.45069 15.7042 2.06057 15.7042C2.42451 15.7042 2.74602 15.8964 2.89849 16.1815L3.05427 16.092C2.86203 15.7539 2.48748 15.5352 2.06057 15.5352C1.35457 15.5352 0.854736 16.0688 0.854736 16.731C0.854736 17.3933 1.35457 17.9269 2.06057 17.9269Z" fill="#15324F"/>
<path d="M4.93819 17.8905H5.14038L4.56431 16.9166C4.85864 16.8371 5.07409 16.5719 5.07409 16.257C5.07409 15.8798 4.7665 15.5716 4.38864 15.5716H3.47449V17.8905H3.65016V16.9398H4.38201L4.93819 17.8905ZM3.65016 15.7373H4.38864C4.67038 15.7373 4.89842 15.9693 4.89842 16.257C4.89842 16.5421 4.67038 16.7741 4.38864 16.7741H3.65016V15.7373Z" fill="#15324F"/>
<path d="M7.60149 15.5716H7.37941L6.55144 16.9432L5.72346 15.5716H5.5047V17.8905H5.68037V15.8301L6.53818 17.2547H6.56801L7.42581 15.8301V17.8905H7.60149V15.5716Z" fill="#15324F"/>
<path d="M9.84985 15.5716H9.06165V17.8905H9.23732V17.0061H9.84985C10.2675 17.0061 10.5718 16.6979 10.5718 16.2902C10.5718 15.8798 10.2675 15.5716 9.84985 15.5716ZM9.84985 16.8404H9.23732V15.7373H9.84985C10.168 15.7373 10.3967 15.9693 10.3967 16.2902C10.3967 16.6084 10.168 16.8404 9.84985 16.8404Z" fill="#15324F"/>
<path d="M11.1814 17.7247V16.8039H12.2414V16.6382H11.1814V15.7373H12.3243V15.5716H11.0057V17.8905H12.3408V17.7247H11.1814Z" fill="#15324F"/>
<path d="M13.5094 17.8905H14.9671V17.7214H13.7613L14.4799 16.983C14.7152 16.7443 14.9141 16.4891 14.9141 16.2014C14.9141 15.7705 14.5793 15.5352 14.2247 15.5352C13.9231 15.5352 13.6619 15.681 13.5227 15.966L13.6718 16.0555C13.7812 15.8235 13.9728 15.7042 14.2247 15.7042C14.5064 15.7042 14.7351 15.8832 14.7351 16.2014C14.7351 16.4294 14.5628 16.6482 14.3606 16.857L13.5094 17.7314V17.8905Z" fill="#15324F"/>
<path d="M16.0761 16.5355L16.633 15.7373V15.5716H15.2979V15.7373H16.4308L15.8441 16.5686L15.9204 16.6846H15.9701C16.3148 16.6846 16.5667 16.8868 16.5667 17.2216C16.5667 17.5557 16.3148 17.7579 15.9767 17.7579C15.685 17.7579 15.4702 17.6319 15.3841 17.3999L15.2382 17.4861C15.3509 17.7711 15.6393 17.9269 15.9767 17.9269C16.3877 17.9269 16.7424 17.6684 16.7424 17.2216C16.7424 16.8139 16.4441 16.5719 16.0761 16.5355Z" fill="#15324F"/>
<path d="M18.5633 16.2968C18.5633 15.8467 18.2358 15.5352 17.785 15.5352C17.3349 15.5352 17.0068 15.8467 17.0068 16.2968C17.0068 16.7509 17.3349 17.0625 17.785 17.0625C17.8745 17.0625 17.9607 17.0492 18.0403 17.026L17.4469 17.8905H17.6458L18.4214 16.7609C18.5109 16.6349 18.5633 16.4791 18.5633 16.2968ZM17.1858 16.2968C17.1858 15.9528 17.4178 15.7042 17.785 15.7042C18.1529 15.7042 18.3883 15.9528 18.3883 16.2968C18.3883 16.6449 18.1529 16.8935 17.785 16.8935C17.4178 16.8935 17.1858 16.6449 17.1858 16.2968Z" fill="#15324F"/>
<path d="M20.4909 17.2382H20.1933V16.5089H20.0176V17.2382H18.9642L19.8419 15.5716H19.6497L18.7687 17.2382V17.4032H20.0176V17.8905H20.1933V17.4032H20.4909V17.2382Z" fill="#15324F"/>
<path d="M21.5374 16.5355L22.0943 15.7373V15.5716H20.7592V15.7373H21.8921L21.3054 16.5686L21.3817 16.6846H21.4314C21.7761 16.6846 22.028 16.8868 22.028 17.2216C22.028 17.5557 21.7761 17.7579 21.438 17.7579C21.1463 17.7579 20.9315 17.6319 20.8454 17.3999L20.6995 17.4861C20.8122 17.7711 21.1006 17.9269 21.438 17.9269C21.849 17.9269 22.2037 17.6684 22.2037 17.2216C22.2037 16.8139 21.9054 16.5719 21.5374 16.5355Z" fill="#15324F"/>
<path d="M2.05725 19.8558H1.0072V23.1683H2.05725V19.8558ZM1.80203 20.0778V20.1872H1.58327V20.3099H1.80203V20.4192H1.25182V20.3099H1.47058V20.1872H1.25513V20.0778H1.80203ZM1.58327 20.5054V20.7374H1.80203V20.8501H1.25182V20.5054H1.58327ZM1.47058 20.6181H1.3612V20.7374H1.47058V20.6181ZM1.80203 20.939V21.0483H1.58327V21.2804H1.25182V21.171H1.47058V21.0483H1.25182V20.939H1.80203ZM1.80203 21.1378V21.4693H1.25182V21.3566H1.69265V21.1378H1.80203ZM1.80203 21.5422V21.9168H1.25182V21.5422H1.3612V21.8074H1.69265V21.6516H1.58327V21.7278H1.47058V21.5422H1.80203ZM1.80203 22.115V22.4895H1.25182V22.115H1.80203ZM1.69265 22.2244H1.3612V22.3801H1.69265V22.2244ZM1.80203 22.5658V22.6751H1.69597L1.46395 22.8309H1.80203V22.9403H1.25182V22.8309L1.48383 22.6751H1.25182V22.5658H1.80203Z" fill="#15324F"/>
<path d="M3.49438 22.5061H3.66011V20.0878H3.49438V22.5061Z" fill="#15324F"/>
<path d="M5.26307 22.3403V21.4195H6.32307V21.2538H5.26307V20.3529H6.40593V20.1872H5.0874V22.5061H6.4225V22.3403H5.26307Z" fill="#15324F"/>
<path d="M6.9322 21.2837C6.9322 21.0848 7.11384 20.9721 7.32928 20.9721C7.51158 20.9721 7.68394 21.0516 7.75355 21.224L7.89276 21.1445C7.80326 20.9423 7.59776 20.8137 7.32928 20.8137C6.99186 20.8137 6.76647 21.0218 6.76647 21.2837C6.76647 21.8803 7.77012 21.6217 7.77012 22.0719C7.77012 22.2807 7.57456 22.3834 7.34254 22.3834C7.09461 22.3834 6.91563 22.2707 6.85597 22.0918L6.71344 22.1746C6.79299 22.3867 7.01175 22.5425 7.34254 22.5425C7.6972 22.5425 7.93585 22.3437 7.93585 22.0719C7.93585 21.466 6.9322 21.7278 6.9322 21.2837Z" fill="#15324F"/>
<path d="M9.21406 20.8137C8.89255 20.8137 8.63733 20.9787 8.50209 21.2339V20.8501H8.33636V23.1683H8.50209V22.1216C8.63733 22.3768 8.89255 22.5425 9.21406 22.5425C9.68804 22.5425 10.0719 22.168 10.0719 21.6781C10.0719 21.1875 9.68804 20.8137 9.21406 20.8137ZM9.20411 22.3834C8.80968 22.3834 8.50209 22.0719 8.50209 21.6781C8.50209 21.2837 8.80968 20.9721 9.20411 20.9721C9.59855 20.9721 9.90614 21.2837 9.90614 21.6781C9.90614 22.0719 9.59855 22.3834 9.20411 22.3834Z" fill="#15324F"/>
<path d="M11.2176 20.8137C10.7111 20.8137 10.3598 21.1909 10.3598 21.6781C10.3598 22.1779 10.7211 22.5425 11.2309 22.5425C11.559 22.5425 11.8175 22.3934 11.9528 22.168L11.8076 22.0818C11.7115 22.2575 11.506 22.3834 11.2342 22.3834C10.8563 22.3834 10.5719 22.1382 10.5322 21.7643H12.0323C12.0323 21.7378 12.0356 21.7112 12.0356 21.6847C12.0356 21.2306 11.7214 20.8137 11.2176 20.8137ZM11.2176 20.9721C11.5424 20.9721 11.8275 21.1975 11.8639 21.6019H10.5322C10.5653 21.2339 10.8397 20.9721 11.2176 20.9721Z" fill="#15324F"/>
<path d="M13.1816 22.5425C13.5064 22.5425 13.7849 22.3768 13.9168 22.1216L13.7782 22.0387C13.6688 22.2442 13.4501 22.3834 13.1816 22.3834C12.7806 22.3834 12.4796 22.0719 12.4796 21.6781C12.4796 21.2837 12.7806 20.9721 13.1816 20.9721C13.4468 20.9721 13.6722 21.108 13.7683 21.3168L13.9035 21.2373C13.7849 20.9787 13.5064 20.8137 13.1816 20.8137C12.6818 20.8137 12.3105 21.1875 12.3105 21.6781C12.3105 22.168 12.6818 22.5425 13.1816 22.5425Z" fill="#15324F"/>
<path d="M14.364 20.449C14.4369 20.449 14.4966 20.3894 14.4966 20.3165C14.4966 20.2469 14.4369 20.1872 14.364 20.1872C14.2911 20.1872 14.2314 20.2469 14.2314 20.3165C14.2314 20.3894 14.2911 20.449 14.364 20.449ZM14.2812 22.5061H14.4469V20.8501H14.2812V22.5061Z" fill="#15324F"/>
<path d="M16.4138 20.8501V21.224C16.2753 20.9754 16.0201 20.8137 15.7019 20.8137C15.2319 20.8137 14.8441 21.1875 14.8441 21.6781C14.8441 22.168 15.2319 22.5425 15.7019 22.5425C16.0201 22.5425 16.2753 22.3801 16.4138 22.1315V22.5061H16.5829V20.8501H16.4138ZM15.7151 22.3834C15.3207 22.3834 15.0131 22.0719 15.0131 21.6781C15.0131 21.2837 15.3207 20.9721 15.7151 20.9721C16.1096 20.9721 16.4138 21.2837 16.4138 21.6781C16.4138 22.0719 16.1096 22.3834 15.7151 22.3834Z" fill="#15324F"/>
<path d="M17.093 22.5061H17.2587V20.0878H17.093V22.5061Z" fill="#15324F"/>
<path d="M17.8515 20.449C17.9244 20.449 17.984 20.3894 17.984 20.3165C17.984 20.2469 17.9244 20.1872 17.8515 20.1872C17.7785 20.1872 17.7189 20.2469 17.7189 20.3165C17.7189 20.3894 17.7785 20.449 17.8515 20.449ZM17.7686 22.5061H17.9343V20.8501H17.7686V22.5061Z" fill="#15324F"/>
<path d="M18.5569 21.2837C18.5569 21.0848 18.7385 20.9721 18.954 20.9721C19.1363 20.9721 19.3086 21.0516 19.3782 21.224L19.5175 21.1445C19.428 20.9423 19.2225 20.8137 18.954 20.8137C18.6166 20.8137 18.3912 21.0218 18.3912 21.2837C18.3912 21.8803 19.3948 21.6217 19.3948 22.0719C19.3948 22.2807 19.1993 22.3834 18.9672 22.3834C18.7193 22.3834 18.5403 22.2707 18.4807 22.0918L18.3381 22.1746C18.4177 22.3867 18.6364 22.5425 18.9672 22.5425C19.3219 22.5425 19.5605 22.3437 19.5605 22.0719C19.5605 21.466 18.5569 21.7278 18.5569 21.2837Z" fill="#15324F"/>
<path d="M20.809 21.0118V20.8501H20.3151V20.386L20.1467 20.4358V20.8501H19.7821V21.0118H20.1467V22.0884C20.1467 22.4663 20.3747 22.5723 20.809 22.506V22.3569C20.4709 22.3867 20.3151 22.3801 20.3151 22.0884V21.0118H20.809Z" fill="#15324F"/>
<path d="M22.6634 20.8501V21.224C22.5249 20.9754 22.2696 20.8137 21.9514 20.8137C21.4814 20.8137 21.0936 21.1875 21.0936 21.6781C21.0936 22.168 21.4814 22.5425 21.9514 22.5425C22.2696 22.5425 22.5249 22.3801 22.6634 22.1315V22.5061H22.8324V20.8501H22.6634ZM21.9647 22.3834C21.5703 22.3834 21.2627 22.0719 21.2627 21.6781C21.2627 21.2837 21.5703 20.9721 21.9647 20.9721C22.3591 20.9721 22.6634 21.2837 22.6634 21.6781C22.6634 22.0719 22.3591 22.3834 21.9647 22.3834Z" fill="#15324F"/>
<path d="M24.9719 20.8137C24.4654 20.8137 24.1141 21.1909 24.1141 21.6781C24.1141 22.1779 24.4754 22.5425 24.9851 22.5425C25.3133 22.5425 25.5718 22.3934 25.707 22.168L25.5619 22.0818C25.4657 22.2575 25.2602 22.3834 24.9885 22.3834C24.6106 22.3834 24.3262 22.1382 24.2864 21.7643H25.7866C25.7866 21.7378 25.7899 21.7112 25.7899 21.6847C25.7899 21.2306 25.4757 20.8137 24.9719 20.8137ZM24.9719 20.9721C25.2967 20.9721 25.5818 21.1975 25.6182 21.6019H24.2864C24.3196 21.2339 24.594 20.9721 24.9719 20.9721Z" fill="#15324F"/>
<path d="M27.9461 20.8137C27.7241 20.8137 27.5126 20.9191 27.3933 21.1511C27.3071 20.9323 27.1182 20.8137 26.8762 20.8137C26.6641 20.8137 26.4659 20.9058 26.3432 21.1345V20.8501H26.1775V22.5061H26.3432V21.582C26.3432 21.1577 26.5845 20.9721 26.8563 20.9721C27.1115 20.9721 27.2806 21.1411 27.2806 21.456V22.5061H27.4463V21.582C27.4463 21.1577 27.6644 20.9721 27.9428 20.9721C28.2014 20.9721 28.3837 21.1411 28.3837 21.456V22.5061H28.5494V21.456C28.5494 21.0417 28.2975 20.8137 27.9461 20.8137Z" fill="#15324F"/>
<path d="M30.6451 20.8137C30.1386 20.8137 29.7873 21.1909 29.7873 21.6781C29.7873 22.1779 30.1486 22.5425 30.6584 22.5425C30.9865 22.5425 31.245 22.3934 31.3803 22.168L31.2351 22.0818C31.139 22.2575 30.9335 22.3834 30.6617 22.3834C30.2838 22.3834 29.9994 22.1382 29.9596 21.7643H31.4598C31.4598 21.7378 31.4631 21.7112 31.4631 21.6847C31.4631 21.2306 31.1489 20.8137 30.6451 20.8137ZM30.6451 20.9721C30.9699 20.9721 31.255 21.1975 31.2914 21.6019H29.9596C29.9928 21.2339 30.2672 20.9721 30.6451 20.9721Z" fill="#15324F"/>
<path d="M33.6194 20.8137C33.3973 20.8137 33.1858 20.9191 33.0665 21.1511C32.9803 20.9323 32.7914 20.8137 32.5494 20.8137C32.3373 20.8137 32.1391 20.9058 32.0164 21.1345V20.8501H31.8507V22.5061H32.0164V21.582C32.0164 21.1577 32.2577 20.9721 32.5295 20.9721C32.7847 20.9721 32.9538 21.1411 32.9538 21.456V22.5061H33.1195V21.582C33.1195 21.1577 33.3376 20.9721 33.616 20.9721C33.8746 20.9721 34.0569 21.1411 34.0569 21.456V22.5061H34.2226V21.456C34.2226 21.0417 33.9707 20.8137 33.6194 20.8137Z" fill="#15324F"/>
<path d="M36.1461 20.8501V21.224C36.0076 20.9754 35.7524 20.8137 35.4342 20.8137C34.9642 20.8137 34.5764 21.1875 34.5764 21.6781C34.5764 22.168 34.9642 22.5425 35.4342 22.5425C35.7524 22.5425 36.0076 22.3801 36.1461 22.1315V22.5061H36.3152V20.8501H36.1461ZM35.4474 22.3834C35.053 22.3834 34.7454 22.0719 34.7454 21.6781C34.7454 21.2837 35.053 20.9721 35.4474 20.9721C35.8419 20.9721 36.1461 21.2837 36.1461 21.6781C36.1461 22.0719 35.8419 22.3834 35.4474 22.3834Z" fill="#15324F"/>
<path d="M38.2955 20.8501V21.2339C38.1603 20.9787 37.9051 20.8137 37.5836 20.8137C37.1103 20.8137 36.7258 21.1875 36.7258 21.6781C36.7258 22.168 37.1103 22.5425 37.5836 22.5425C37.9051 22.5425 38.1603 22.3768 38.2955 22.1216V22.4265C38.2955 22.8044 38.0509 23.0463 37.6366 23.0463C37.272 23.0463 37.0871 22.9005 37.0009 22.7248L36.855 22.8077C36.9744 23.0497 37.2488 23.2048 37.6366 23.2048C38.094 23.2048 38.4613 22.9237 38.4613 22.4265V20.8501H38.2955ZM37.5935 22.3834C37.1991 22.3834 36.8915 22.0719 36.8915 21.6781C36.8915 21.2837 37.1991 20.9721 37.5935 20.9721C37.988 20.9721 38.2955 21.2837 38.2955 21.6781C38.2955 22.0719 37.988 22.3834 37.5935 22.3834Z" fill="#15324F"/>
<path d="M39.137 21.1743V20.8501H38.9713V22.5061H39.137V21.5853C39.137 21.161 39.4049 20.9853 39.6899 20.9853V20.8269C39.4645 20.8269 39.2497 20.9124 39.137 21.1743Z" fill="#15324F"/>
<path d="M40.7696 20.8137C40.2631 20.8137 39.9118 21.1909 39.9118 21.6781C39.9118 22.1779 40.2731 22.5425 40.7829 22.5425C41.111 22.5425 41.3695 22.3934 41.5048 22.168L41.3596 22.0818C41.2635 22.2575 41.058 22.3834 40.7862 22.3834C40.4083 22.3834 40.1239 22.1382 40.0842 21.7643H41.5843C41.5843 21.7378 41.5876 21.7112 41.5876 21.6847C41.5876 21.2306 41.2734 20.8137 40.7696 20.8137ZM40.7696 20.9721C41.0944 20.9721 41.3795 21.1975 41.4159 21.6019H40.0842C40.1173 21.2339 40.3918 20.9721 40.7696 20.9721Z" fill="#15324F"/>
<path d="M42.7335 22.5425C43.0583 22.5425 43.3367 22.3768 43.4687 22.1216L43.3301 22.0387C43.2207 22.2442 43.002 22.3834 42.7335 22.3834C42.3324 22.3834 42.0315 22.0719 42.0315 21.6781C42.0315 21.2837 42.3324 20.9721 42.7335 20.9721C42.9987 20.9721 43.224 21.108 43.3202 21.3168L43.4554 21.2373C43.3367 20.9787 43.0583 20.8137 42.7335 20.8137C42.2337 20.8137 41.8624 21.1875 41.8624 21.6781C41.8624 22.168 42.2337 22.5425 42.7335 22.5425Z" fill="#15324F"/>
<path d="M43.916 20.449C43.9889 20.449 44.0486 20.3894 44.0486 20.3165C44.0486 20.2469 43.9889 20.1872 43.916 20.1872C43.8431 20.1872 43.7834 20.2469 43.7834 20.3165C43.7834 20.3894 43.8431 20.449 43.916 20.449ZM43.8332 22.5061H43.9989V20.8501H43.8332V22.5061Z" fill="#15324F"/>
<path d="M46.2774 20.8137C46.0554 20.8137 45.8439 20.9191 45.7246 21.1511C45.6384 20.9323 45.4495 20.8137 45.2075 20.8137C44.9954 20.8137 44.7972 20.9058 44.6745 21.1345V20.8501H44.5088V22.5061H44.6745V21.582C44.6745 21.1577 44.9158 20.9721 45.1876 20.9721C45.4428 20.9721 45.6119 21.1411 45.6119 21.456V22.5061H45.7776V21.582C45.7776 21.1577 45.9957 20.9721 46.2741 20.9721C46.5327 20.9721 46.715 21.1411 46.715 21.456V22.5061H46.8807V21.456C46.8807 21.0417 46.6288 20.8137 46.2774 20.8137Z" fill="#15324F"/>
<path d="M48.0922 20.8137C47.5857 20.8137 47.2344 21.1909 47.2344 21.6781C47.2344 22.1779 47.5957 22.5425 48.1054 22.5425C48.4336 22.5425 48.6921 22.3934 48.8273 22.168L48.6822 22.0818C48.586 22.2575 48.3805 22.3834 48.1088 22.3834C47.7309 22.3834 47.4465 22.1382 47.4067 21.7643H48.9069C48.9069 21.7378 48.9102 21.7112 48.9102 21.6847C48.9102 21.2306 48.596 20.8137 48.0922 20.8137ZM48.0922 20.9721C48.417 20.9721 48.7021 21.1975 48.7385 21.6019H47.4067C47.4399 21.2339 47.7143 20.9721 48.0922 20.9721Z" fill="#15324F"/>
<path d="M50.0561 20.8137C49.8009 20.8137 49.5894 20.9191 49.4635 21.1643V20.8501H49.2977V22.5061H49.4635V21.6317C49.4635 21.1842 49.718 20.9721 50.0428 20.9721C50.3544 20.9721 50.5301 21.171 50.5301 21.4759V22.5061H50.6985V21.4759C50.6985 21.0748 50.4505 20.8137 50.0561 20.8137Z" fill="#15324F"/>
<path d="M52.0135 21.0118V20.8501H51.5197V20.386L51.3513 20.4358V20.8501H50.9867V21.0118H51.3513V22.0884C51.3513 22.4663 51.5793 22.5723 52.0135 22.506V22.3569C51.6755 22.3867 51.5197 22.3801 51.5197 22.0884V21.0118H52.0135Z" fill="#15324F"/>
<path d="M53.1693 22.5425C53.6499 22.5425 54.037 22.168 54.037 21.6781C54.037 21.1875 53.6499 20.8137 53.1693 20.8137C52.686 20.8137 52.2982 21.1875 52.2982 21.6781C52.2982 22.168 52.686 22.5425 53.1693 22.5425ZM53.1693 22.3834C52.7749 22.3834 52.4673 22.0719 52.4673 21.6781C52.4673 21.2837 52.7749 20.9721 53.1693 20.9721C53.5637 20.9721 53.868 21.2837 53.868 21.6781C53.868 22.0719 53.5637 22.3834 53.1693 22.3834Z" fill="#15324F"/>
<path d="M56.0639 20.8137C55.5574 20.8137 55.2061 21.1909 55.2061 21.6781C55.2061 22.1779 55.5673 22.5425 56.0771 22.5425C56.4053 22.5425 56.6638 22.3934 56.799 22.168L56.6539 22.0818C56.5577 22.2575 56.3522 22.3834 56.0804 22.3834C55.7026 22.3834 55.4182 22.1382 55.3784 21.7643H56.8786C56.8786 21.7378 56.8819 21.7112 56.8819 21.6847C56.8819 21.2306 56.5677 20.8137 56.0639 20.8137ZM56.0639 20.9721C56.3887 20.9721 56.6737 21.1975 56.7102 21.6019H55.3784C55.4116 21.2339 55.686 20.9721 56.0639 20.9721Z" fill="#15324F"/>
<path d="M58.9121 20.8136C58.6568 20.8136 58.4454 20.919 58.3194 21.1643V20.1872H58.1537V22.5061H58.3194V21.6317C58.3194 21.1842 58.574 20.9721 58.8988 20.9721C59.2104 20.9721 59.386 21.171 59.386 21.4759V22.5061H59.5544V21.4759C59.5544 21.0748 59.3065 20.8136 58.9121 20.8136Z" fill="#15324F"/>
<path d="M60.1044 20.449C60.1774 20.449 60.237 20.3894 60.237 20.3165C60.237 20.2469 60.1774 20.1872 60.1044 20.1872C60.0315 20.1872 59.9719 20.2469 59.9719 20.3165C59.9719 20.3894 60.0315 20.449 60.1044 20.449ZM60.0216 22.5061H60.1873V20.8501H60.0216V22.5061Z" fill="#15324F"/>
<path d="M61.575 20.8137C61.2534 20.8137 60.9982 20.9787 60.863 21.2339V20.8501H60.6973V23.1683H60.863V22.1216C60.9982 22.3768 61.2534 22.5425 61.575 22.5425C62.0489 22.5425 62.4328 22.168 62.4328 21.6781C62.4328 21.1875 62.0489 20.8137 61.575 20.8137ZM61.565 22.3834C61.1706 22.3834 60.863 22.0719 60.863 21.6781C60.863 21.2837 61.1706 20.9721 61.565 20.9721C61.9594 20.9721 62.267 21.2837 62.267 21.6781C62.267 22.0719 61.9594 22.3834 61.565 22.3834Z" fill="#15324F"/>
<path d="M63.5785 20.8137C63.072 20.8137 62.7207 21.1909 62.7207 21.6781C62.7207 22.1779 63.082 22.5425 63.5918 22.5425C63.9199 22.5425 64.1784 22.3934 64.3137 22.168L64.1685 22.0818C64.0724 22.2575 63.8669 22.3834 63.5951 22.3834C63.2172 22.3834 62.9328 22.1382 62.8931 21.7643H64.3932C64.3932 21.7378 64.3965 21.7112 64.3965 21.6847C64.3965 21.2306 64.0823 20.8137 63.5785 20.8137ZM63.5785 20.9721C63.9033 20.9721 64.1884 21.1975 64.2248 21.6019H62.8931C62.9262 21.2339 63.2007 20.9721 63.5785 20.9721Z" fill="#15324F"/>
<path d="M64.9498 21.1743V20.8501H64.7841V22.5061H64.9498V21.5853C64.9498 21.161 65.2177 20.9853 65.5027 20.9853V20.8269C65.2773 20.8269 65.0625 20.9124 64.9498 21.1743Z" fill="#15324F"/>
<path d="M66.6852 21.0118V20.8501H66.1913V20.386L66.0229 20.4358V20.8501H65.6583V21.0118H66.0229V22.0884C66.0229 22.4663 66.251 22.5723 66.6852 22.506V22.3569C66.3471 22.3867 66.1913 22.3801 66.1913 22.0884V21.0118H66.6852Z" fill="#15324F"/>
<path d="M67.2482 21.1743V20.8501H67.0825V22.5061H67.2482V21.5853C67.2482 21.161 67.5161 20.9853 67.8011 20.9853V20.8269C67.5757 20.8269 67.3609 20.9124 67.2482 21.1743Z" fill="#15324F"/>
<path d="M68.8941 22.5425C69.3747 22.5425 69.7619 22.168 69.7619 21.6781C69.7619 21.1875 69.3747 20.8137 68.8941 20.8137C68.4109 20.8137 68.0231 21.1875 68.0231 21.6781C68.0231 22.168 68.4109 22.5425 68.8941 22.5425ZM68.8941 22.3834C68.4997 22.3834 68.1921 22.0719 68.1921 21.6781C68.1921 21.2837 68.4997 20.9721 68.8941 20.9721C69.2886 20.9721 69.5928 21.2837 69.5928 21.6781C69.5928 22.0719 69.2886 22.3834 68.8941 22.3834Z" fill="#15324F"/>
<path d="M70.9409 20.3099V20.1508C70.5067 20.1177 70.2786 20.353 70.2786 20.7607V20.8502H69.9936V21.0119H70.2786V22.5061H70.4477V21.0119H70.9409V20.8502H70.4477V20.7607C70.4477 20.4392 70.6028 20.2834 70.9409 20.3099Z" fill="#15324F"/>
<path d="M71.2788 20.449C71.3517 20.449 71.4114 20.3894 71.4114 20.3165C71.4114 20.2469 71.3517 20.1872 71.2788 20.1872C71.2059 20.1872 71.1462 20.2469 71.1462 20.3165C71.1462 20.3894 71.2059 20.449 71.2788 20.449ZM71.196 22.5061H71.3617V20.8501H71.196V22.5061Z" fill="#15324F"/>
<path d="M73.3286 20.8501V21.224C73.1901 20.9754 72.9349 20.8137 72.6167 20.8137C72.1467 20.8137 71.7589 21.1875 71.7589 21.6781C71.7589 22.168 72.1467 22.5425 72.6167 22.5425C72.9349 22.5425 73.1901 22.3801 73.3286 22.1315V22.5061H73.4977V20.8501H73.3286ZM72.6299 22.3834C72.2355 22.3834 71.9279 22.0719 71.9279 21.6781C71.9279 21.2837 72.2355 20.9721 72.6299 20.9721C73.0243 20.9721 73.3286 21.2837 73.3286 21.6781C73.3286 22.0719 73.0243 22.3834 72.6299 22.3834Z" fill="#15324F"/>
<path d="M2.05725 24.4713H1.0072V27.7838H2.05725V24.4713ZM1.80203 24.6933V24.8027H1.58327V24.9253H1.80203V25.0347H1.25182V24.9253H1.47058V24.8027H1.25513V24.6933H1.80203ZM1.58327 25.1209V25.3529H1.80203V25.4656H1.25182V25.1209H1.58327ZM1.47058 25.2336H1.3612V25.3529H1.47058V25.2336ZM1.80203 25.5544V25.6638H1.58327V25.8958H1.25182V25.7865H1.47058V25.6638H1.25182V25.5544H1.80203ZM1.80203 25.7533V26.0848H1.25182V25.9721H1.69265V25.7533H1.80203ZM1.80203 26.1577V26.5322H1.25182V26.1577H1.3612V26.4229H1.69265V26.2671H1.58327V26.3433H1.47058V26.1577H1.80203ZM1.80203 26.7305V27.105H1.25182V26.7305H1.80203ZM1.69265 26.8398H1.3612V26.9956H1.69265V26.8398ZM1.80203 27.1812V27.2906H1.69597L1.46395 27.4464H1.80203V27.5558H1.25182V27.4464L1.48383 27.2906H1.25182V27.1812H1.80203Z" fill="#15324F"/>
<path d="M3.49438 27.1216H3.66011V24.7033H3.49438V27.1216Z" fill="#15324F"/>
<path d="M5.95847 24.8027H5.0874V27.1216H5.95847C6.59751 27.1216 7.05161 26.6012 7.05161 25.9622C7.05161 25.3231 6.59751 24.8027 5.95847 24.8027ZM5.95847 26.9559H5.26307V24.9685H5.95847C6.5047 24.9685 6.87925 25.4126 6.87925 25.9622C6.87925 26.5124 6.5047 26.9559 5.95847 26.9559Z" fill="#15324F"/>
<path d="M7.54487 25.0646C7.61779 25.0646 7.67746 25.0049 7.67746 24.932C7.67746 24.8624 7.61779 24.8027 7.54487 24.8027C7.47195 24.8027 7.41229 24.8624 7.41229 24.932C7.41229 25.0049 7.47195 25.0646 7.54487 25.0646ZM7.46201 27.1216H7.62774V25.4656H7.46201V27.1216Z" fill="#15324F"/>
<path d="M8.30336 25.7898V25.4656H8.13763V27.1216H8.30336V26.2008C8.30336 25.7766 8.57118 25.6009 8.85623 25.6009V25.4424C8.63084 25.4424 8.41606 25.528 8.30336 25.7898Z" fill="#15324F"/>
<path d="M9.29021 27.1547C9.37307 27.1547 9.43936 27.0884 9.43936 27.0055C9.43936 26.9227 9.37307 26.8564 9.29021 26.8564C9.20403 26.8564 9.14105 26.9227 9.14105 27.0055C9.14105 27.0884 9.20403 27.1547 9.29021 27.1547Z" fill="#15324F"/>
<path d="M12.9104 24.8027H12.6884L11.8604 26.1743L11.0324 24.8027H10.8137V27.1216H10.9893V25.0613L11.8471 26.4859H11.877L12.7348 25.0613V27.1216H12.9104V24.8027Z" fill="#15324F"/>
<path d="M14.5033 24.8127H14.3044L14.0392 25.2336H14.2016L14.5033 24.8127ZM14.1983 25.4292C13.6919 25.4292 13.3405 25.8064 13.3405 26.2936C13.3405 26.7935 13.7018 27.1581 14.2116 27.1581C14.5397 27.1581 14.7983 27.0089 14.9335 26.7835L14.7883 26.6973C14.6922 26.873 14.4867 26.999 14.2149 26.999C13.837 26.999 13.5526 26.7537 13.5129 26.3798H15.013C15.013 26.3533 15.0164 26.3268 15.0164 26.3003C15.0164 25.8462 14.7021 25.4292 14.1983 25.4292ZM14.1983 25.5876C14.5231 25.5876 14.8082 25.813 14.8447 26.2174H13.5129C13.546 25.8495 13.8205 25.5876 14.1983 25.5876Z" fill="#15324F"/>
<path d="M16.8643 24.8027V25.8495C16.7291 25.5942 16.4739 25.4292 16.1524 25.4292C15.679 25.4292 15.2946 25.8031 15.2946 26.2936C15.2946 26.7835 15.679 27.1581 16.1524 27.1581C16.4739 27.1581 16.7291 26.9923 16.8643 26.7371V27.1216H17.0301V24.8027H16.8643ZM16.1623 26.999C15.7679 26.999 15.4603 26.6874 15.4603 26.2936C15.4603 25.8992 15.7679 25.5876 16.1623 25.5876C16.5567 25.5876 16.8643 25.8992 16.8643 26.2936C16.8643 26.6874 16.5567 26.999 16.1623 26.999Z" fill="#15324F"/>
<path d="M17.6229 25.0646C17.6959 25.0646 17.7555 25.0049 17.7555 24.932C17.7555 24.8624 17.6959 24.8027 17.6229 24.8027C17.55 24.8027 17.4904 24.8624 17.4904 24.932C17.4904 25.0049 17.55 25.0646 17.6229 25.0646ZM17.5401 27.1216H17.7058V25.4656H17.5401V27.1216Z" fill="#15324F"/>
<path d="M18.9741 27.158C19.2989 27.158 19.5773 26.9923 19.7093 26.7371L19.5707 26.6542C19.4613 26.8597 19.2426 26.9989 18.9741 26.9989C18.573 26.9989 18.2721 26.6873 18.2721 26.2936C18.2721 25.8991 18.573 25.5876 18.9741 25.5876C19.2393 25.5876 19.4646 25.7235 19.5608 25.9323L19.696 25.8527C19.5773 25.5942 19.2989 25.4291 18.9741 25.4291C18.4743 25.4291 18.103 25.803 18.103 26.2936C18.103 26.7835 18.4743 27.158 18.9741 27.158Z" fill="#15324F"/>
<path d="M20.8321 27.158C21.3127 27.158 21.6998 26.7835 21.6998 26.2936C21.6998 25.803 21.3127 25.4291 20.8321 25.4291C20.3488 25.4291 19.961 25.803 19.961 26.2936C19.961 26.7835 20.3488 27.158 20.8321 27.158ZM20.8321 26.9989C20.4376 26.9989 20.13 26.6873 20.13 26.2936C20.13 25.8991 20.4376 25.5876 20.8321 25.5876C21.2265 25.5876 21.5308 25.8991 21.5308 26.2936C21.5308 26.6873 21.2265 26.9989 20.8321 26.9989Z" fill="#15324F"/>
<path d="M24.0861 25.0944C23.3967 25.0944 22.8803 25.6307 22.8803 26.2936C22.8803 26.989 23.4232 27.4928 24.1458 27.4928C24.3805 27.4928 24.5661 27.4597 24.7219 27.4033L24.7119 27.3172C24.5528 27.3801 24.3679 27.41 24.1458 27.41C23.4663 27.41 22.9665 26.9393 22.9665 26.2936C22.9665 25.6572 23.4663 25.1773 24.0861 25.1773C24.6887 25.1773 25.1561 25.6307 25.1561 26.2273C25.1561 26.6443 24.997 26.8266 24.8047 26.8266C24.6423 26.8266 24.586 26.6874 24.586 26.5256V25.7865H24.4269V25.9622C24.3414 25.8395 24.2022 25.7633 24.0364 25.7633C23.7282 25.7633 23.4995 25.9953 23.4995 26.2936C23.4995 26.5913 23.7282 26.8233 24.0364 26.8233C24.2088 26.8233 24.348 26.7404 24.4335 26.6145C24.4633 26.81 24.5959 26.9194 24.7815 26.9194C25.0036 26.9194 25.2456 26.7338 25.2456 26.2273C25.2456 25.6804 24.8246 25.0944 24.0861 25.0944ZM24.0431 26.6708C23.8309 26.6708 23.6586 26.519 23.6586 26.2936C23.6586 26.0682 23.8309 25.9158 24.0431 25.9158C24.2552 25.9158 24.4269 26.0682 24.4269 26.2936C24.4269 26.519 24.2552 26.6708 24.0431 26.6708Z" fill="#15324F"/>
<path d="M25.7353 25.0646C25.8082 25.0646 25.8679 25.0049 25.8679 24.932C25.8679 24.8624 25.8082 24.8027 25.7353 24.8027C25.6624 24.8027 25.6027 24.8624 25.6027 24.932C25.6027 25.0049 25.6624 25.0646 25.7353 25.0646ZM25.6524 27.1216H25.8182V25.4656H25.6524V27.1216Z" fill="#15324F"/>
<path d="M27.0864 25.4291C26.8312 25.4291 26.6197 25.5345 26.4937 25.7798V25.4656H26.328V27.1215H26.4937V26.2472C26.4937 25.7997 26.7483 25.5876 27.0731 25.5876C27.3847 25.5876 27.5604 25.7864 27.5604 26.0914V27.1215H27.7287V26.0914C27.7287 25.6903 27.4808 25.4291 27.0864 25.4291Z" fill="#15324F"/>
<path d="M28.3087 25.8991C28.3087 25.7003 28.4903 25.5876 28.7057 25.5876C28.888 25.5876 29.0604 25.6671 29.13 25.8395L29.2692 25.7599C29.1797 25.5577 28.9742 25.4291 28.7057 25.4291C28.3683 25.4291 28.1429 25.6373 28.1429 25.8991C28.1429 26.4958 29.1466 26.2372 29.1466 26.6873C29.1466 26.8962 28.951 26.9989 28.719 26.9989C28.4711 26.9989 28.2921 26.8862 28.2324 26.7072L28.0899 26.7901C28.1695 27.0022 28.3882 27.158 28.719 27.158C29.0737 27.158 29.3123 26.9591 29.3123 26.6873C29.3123 26.0814 28.3087 26.3433 28.3087 25.8991Z" fill="#15324F"/>
<path d="M30.5607 25.6274V25.4656H30.0668V25.0016L29.8984 25.0513V25.4656H29.5338V25.6274H29.8984V26.7039C29.8984 27.0818 30.1265 27.1879 30.5607 27.1216V26.9724C30.2226 27.0023 30.0668 26.9956 30.0668 26.7039V25.6274H30.5607Z" fill="#15324F"/>
<path d="M31.0409 25.0646C31.1138 25.0646 31.1735 25.0049 31.1735 24.932C31.1735 24.8624 31.1138 24.8027 31.0409 24.8027C30.968 24.8027 30.9083 24.8624 30.9083 24.932C30.9083 25.0049 30.968 25.0646 31.0409 25.0646ZM30.958 27.1216H31.1238V25.4656H30.958V27.1216Z" fill="#15324F"/>
<path d="M32.4816 25.6274V25.4656H31.9877V25.0016L31.8193 25.0513V25.4656H31.4547V25.6274H31.8193V26.7039C31.8193 27.0818 32.0474 27.1879 32.4816 27.1216V26.9724C32.1435 27.0023 31.9877 26.9956 31.9877 26.7039V25.6274H32.4816Z" fill="#15324F"/>
<path d="M34.0715 25.4656V26.34C34.0715 26.7868 33.8163 26.9989 33.4915 26.9989C33.1799 26.9989 33.0049 26.8001 33.0049 26.4958V25.4656H32.8359V26.4958C32.8359 26.8962 33.0845 27.158 33.4782 27.158C33.7335 27.158 33.9456 27.052 34.0715 26.8067V27.1216H34.2373V25.4656H34.0715Z" fill="#15324F"/>
<path d="M35.5948 25.6274V25.4656H35.1009V25.0016L34.9325 25.0513V25.4656H34.5679V25.6274H34.9325V26.7039C34.9325 27.0818 35.1606 27.1879 35.5948 27.1216V26.9724C35.2567 27.0023 35.1009 26.9956 35.1009 26.7039V25.6274H35.5948Z" fill="#15324F"/>
<path d="M36.7505 27.158C37.2311 27.158 37.6183 26.7835 37.6183 26.2936C37.6183 25.803 37.2311 25.4291 36.7505 25.4291C36.2673 25.4291 35.8795 25.803 35.8795 26.2936C35.8795 26.7835 36.2673 27.158 36.7505 27.158ZM36.7505 26.9989C36.3561 26.9989 36.0485 26.6873 36.0485 26.2936C36.0485 25.8991 36.3561 25.5876 36.7505 25.5876C37.145 25.5876 37.4492 25.8991 37.4492 26.2936C37.4492 26.6873 37.145 26.9989 36.7505 26.9989Z" fill="#15324F"/>
<path d="M38.7741 27.158C39.0989 27.158 39.3773 26.9923 39.5092 26.7371L39.3707 26.6542C39.2613 26.8597 39.0426 26.9989 38.7741 26.9989C38.373 26.9989 38.0721 26.6873 38.0721 26.2936C38.0721 25.8991 38.373 25.5876 38.7741 25.5876C39.0392 25.5876 39.2646 25.7235 39.3608 25.9323L39.496 25.8527C39.3773 25.5942 39.0989 25.4291 38.7741 25.4291C38.2742 25.4291 37.903 25.803 37.903 26.2936C37.903 26.7835 38.2742 27.158 38.7741 27.158Z" fill="#15324F"/>
<path d="M40.6321 27.158C41.1127 27.158 41.4998 26.7835 41.4998 26.2936C41.4998 25.803 41.1127 25.4291 40.6321 25.4291C40.1488 25.4291 39.761 25.803 39.761 26.2936C39.761 26.7835 40.1488 27.158 40.6321 27.158ZM40.6321 26.9989C40.2376 26.9989 39.93 26.6873 39.93 26.2936C39.93 25.8991 40.2376 25.5876 40.6321 25.5876C41.0265 25.5876 41.3308 25.8991 41.3308 26.2936C41.3308 26.6873 41.0265 26.9989 40.6321 26.9989Z" fill="#15324F"/>
<path d="M42.6424 25.4291C42.1359 25.4291 41.7845 25.8063 41.7845 26.2936C41.7845 26.7934 42.1458 27.158 42.6556 27.158C42.9838 27.158 43.2423 27.0089 43.3775 26.7835L43.2323 26.6973C43.1362 26.873 42.9307 26.9989 42.6589 26.9989C42.2811 26.9989 41.9967 26.7536 41.9569 26.3798H43.4571C43.4571 26.3532 43.4604 26.3267 43.4604 26.3002C43.4604 25.8461 43.1462 25.4291 42.6424 25.4291ZM42.6424 25.5876C42.9672 25.5876 43.2522 25.813 43.2887 26.2173H41.9569C41.99 25.8494 42.2645 25.5876 42.6424 25.5876Z" fill="#15324F"/>
<path d="M43.848 27.1216H44.0137V24.7033H43.848V27.1216Z" fill="#15324F"/>
<path d="M45.2819 25.4292C45.0267 25.4292 44.8152 25.5346 44.6893 25.7799V24.8027H44.5236V27.1216H44.6893V26.2472C44.6893 25.7998 44.9438 25.5876 45.2687 25.5876C45.5802 25.5876 45.7559 25.7865 45.7559 26.0914V27.1216H45.9243V26.0914C45.9243 25.6904 45.6764 25.4292 45.2819 25.4292Z" fill="#15324F"/>
<path d="M47.1499 27.158C47.6305 27.158 48.0176 26.7835 48.0176 26.2936C48.0176 25.803 47.6305 25.4291 47.1499 25.4291C46.6666 25.4291 46.2788 25.803 46.2788 26.2936C46.2788 26.7835 46.6666 27.158 47.1499 27.158ZM47.1499 26.9989C46.7554 26.9989 46.4479 26.6873 46.4479 26.2936C46.4479 25.8991 46.7554 25.5876 47.1499 25.5876C47.5443 25.5876 47.8486 25.8991 47.8486 26.2936C47.8486 26.6873 47.5443 26.9989 47.1499 26.9989Z" fill="#15324F"/>
<path d="M49.2927 25.4291C48.9712 25.4291 48.716 25.5942 48.5808 25.8494V25.4656H48.415V27.7838H48.5808V26.7371C48.716 26.9923 48.9712 27.158 49.2927 27.158C49.7667 27.158 50.1505 26.7835 50.1505 26.2936C50.1505 25.803 49.7667 25.4291 49.2927 25.4291ZM49.2828 26.9989C48.8884 26.9989 48.5808 26.6873 48.5808 26.2936C48.5808 25.8991 48.8884 25.5876 49.2828 25.5876C49.6772 25.5876 49.9848 25.8991 49.9848 26.2936C49.9848 26.6873 49.6772 26.9989 49.2828 26.9989Z" fill="#15324F"/>
<path d="M51.2963 25.4291C50.7899 25.4291 50.4385 25.8063 50.4385 26.2936C50.4385 26.7934 50.7998 27.158 51.3096 27.158C51.6377 27.158 51.8963 27.0089 52.0315 26.7835L51.8863 26.6973C51.7902 26.873 51.5847 26.9989 51.3129 26.9989C50.9351 26.9989 50.6507 26.7536 50.6109 26.3798H52.1111C52.1111 26.3532 52.1144 26.3267 52.1144 26.3002C52.1144 25.8461 51.8002 25.4291 51.2963 25.4291ZM51.2963 25.5876C51.6212 25.5876 51.9062 25.813 51.9427 26.2173H50.6109C50.644 25.8494 50.9185 25.5876 51.2963 25.5876Z" fill="#15324F"/>
<path d="M2.31646 30.5917L3.20475 30.5466V30.5996L2.20509 31.0424C1.63034 30.9244 1.20939 30.8648 0.942905 30.8648C0.935613 30.8648 0.928321 30.8648 0.921692 30.8648C0.97605 30.7627 1.00389 30.6513 1.00389 30.5307C1.00389 30.4087 0.97605 30.2967 0.921692 30.1939C0.928321 30.1939 0.935613 30.1939 0.942905 30.1939C1.20939 30.1939 1.63034 30.1343 2.20509 30.0136L3.20475 30.4591V30.5121L2.31646 30.467C2.30916 30.4478 2.29657 30.4299 2.27933 30.414C2.26475 30.4001 2.24818 30.3888 2.22895 30.3795C2.21105 30.3709 2.1905 30.3663 2.16796 30.3663C2.14476 30.3663 2.12421 30.3709 2.10698 30.3795C2.08709 30.3888 2.06985 30.4001 2.05394 30.414C2.03803 30.4299 2.02544 30.4478 2.01682 30.467C2.00953 30.4869 2.00621 30.5068 2.00621 30.528C2.00621 30.5512 2.00953 30.5724 2.01682 30.5917C2.02544 30.6096 2.03803 30.6261 2.05394 30.642C2.06985 30.658 2.08709 30.6706 2.10698 30.6792C2.12421 30.6865 2.14476 30.6898 2.16796 30.6898C2.1905 30.6898 2.21105 30.6865 2.22895 30.6792C2.24818 30.6706 2.26475 30.658 2.27933 30.642C2.29657 30.6261 2.30916 30.6096 2.31646 30.5917Z" fill="#15324F"/>
<path d="M4.6134 31.7371H4.77913V29.3188H4.6134V31.7371Z" fill="#15324F"/>
<path d="M7.27975 31.7736C7.71329 31.7736 8.09115 31.5482 8.28008 31.2068L8.12429 31.118C7.97183 31.409 7.647 31.6046 7.27975 31.6046C6.66987 31.6046 6.24958 31.1478 6.24958 30.5777C6.24958 30.0083 6.66987 29.5509 7.27975 29.5509C7.64369 29.5509 7.9652 29.7431 8.11767 30.0282L8.27345 29.9387C8.08121 29.6006 7.70666 29.3818 7.27975 29.3818C6.57375 29.3818 6.07391 29.9155 6.07391 30.5777C6.07391 31.24 6.57375 31.7736 7.27975 31.7736Z" fill="#15324F"/>
<path d="M9.41892 31.7736C9.89953 31.7736 10.2867 31.3991 10.2867 30.9092C10.2867 30.4186 9.89953 30.0447 9.41892 30.0447C8.93565 30.0447 8.54785 30.4186 8.54785 30.9092C8.54785 31.3991 8.93565 31.7736 9.41892 31.7736ZM9.41892 31.6145C9.02448 31.6145 8.71689 31.3029 8.71689 30.9092C8.71689 30.5147 9.02448 30.2032 9.41892 30.2032C9.81335 30.2032 10.1176 30.5147 10.1176 30.9092C10.1176 31.3029 9.81335 31.6145 9.41892 31.6145Z" fill="#15324F"/>
<path d="M10.6841 31.7371H10.8498V29.3188H10.6841V31.7371Z" fill="#15324F"/>
<path d="M12.5523 30.0812V30.9556C12.5523 31.4024 12.2971 31.6145 11.9723 31.6145C11.6607 31.6145 11.4857 31.4157 11.4857 31.1114V30.0812H11.3167V31.1114C11.3167 31.5118 11.5652 31.7736 11.959 31.7736C12.2142 31.7736 12.4264 31.6676 12.5523 31.4223V31.7372H12.718V30.0812H12.5523Z" fill="#15324F"/>
<path d="M13.986 30.0447C13.7307 30.0447 13.5193 30.1501 13.3933 30.3954V30.0812H13.2276V31.7371H13.3933V30.8628C13.3933 30.4153 13.6479 30.2032 13.9727 30.2032C14.2843 30.2032 14.46 30.402 14.46 30.707V31.7371H14.6283V30.707C14.6283 30.3059 14.3804 30.0447 13.986 30.0447Z" fill="#15324F"/>
<path d="M15.1784 29.6802C15.2513 29.6802 15.3109 29.6205 15.3109 29.5476C15.3109 29.478 15.2513 29.4183 15.1784 29.4183C15.1054 29.4183 15.0458 29.478 15.0458 29.5476C15.0458 29.6205 15.1054 29.6802 15.1784 29.6802ZM15.0955 31.7372H15.2612V30.0812H15.0955V31.7372Z" fill="#15324F"/>
<path d="M15.8839 30.5147C15.8839 30.3159 16.0655 30.2032 16.2809 30.2032C16.4632 30.2032 16.6356 30.2827 16.7052 30.4551L16.8444 30.3755C16.7549 30.1733 16.5494 30.0447 16.2809 30.0447C15.9435 30.0447 15.7181 30.2529 15.7181 30.5147C15.7181 31.1114 16.7218 30.8528 16.7218 31.3029C16.7218 31.5118 16.5262 31.6145 16.2942 31.6145C16.0463 31.6145 15.8673 31.5018 15.8076 31.3228L15.6651 31.4057C15.7446 31.6178 15.9634 31.7736 16.2942 31.7736C16.6489 31.7736 16.8875 31.5747 16.8875 31.3029C16.8875 30.697 15.8839 30.9589 15.8839 30.5147Z" fill="#15324F"/>
<path d="M18.1359 30.243V30.0812H17.642V29.6172L17.4736 29.6669V30.0812H17.109V30.243H17.4736V31.3195C17.4736 31.6974 17.7017 31.8035 18.1359 31.7372V31.588C17.7978 31.6179 17.642 31.6112 17.642 31.3195V30.243H18.1359Z" fill="#15324F"/>
<path d="M19.9903 30.0812V30.4551C19.8518 30.2065 19.5965 30.0447 19.2783 30.0447C18.8083 30.0447 18.4205 30.4186 18.4205 30.9092C18.4205 31.3991 18.8083 31.7736 19.2783 31.7736C19.5965 31.7736 19.8518 31.6112 19.9903 31.3626V31.7371H20.1593V30.0812H19.9903ZM19.2916 31.6145C18.8972 31.6145 18.5896 31.3029 18.5896 30.9092C18.5896 30.5147 18.8972 30.2032 19.2916 30.2032C19.686 30.2032 19.9903 30.5147 19.9903 30.9092C19.9903 31.3029 19.686 31.6145 19.2916 31.6145Z" fill="#15324F"/>
<path d="M22.6586 29.71C21.9692 29.71 21.4528 30.2463 21.4528 30.9092C21.4528 31.6046 21.9957 32.1084 22.7183 32.1084C22.9529 32.1084 23.1385 32.0753 23.2943 32.0189L23.2844 31.9328C23.1253 31.9957 22.9403 32.0256 22.7183 32.0256C22.0388 32.0256 21.5389 31.5549 21.5389 30.9092C21.5389 30.2728 22.0388 29.7929 22.6586 29.7929C23.2612 29.7929 23.7285 30.2463 23.7285 30.8429C23.7285 31.2599 23.5694 31.4422 23.3772 31.4422C23.2148 31.4422 23.1584 31.303 23.1584 31.1412V30.4021H22.9993V30.5778C22.9138 30.4551 22.7746 30.3789 22.6089 30.3789C22.3006 30.3789 22.0719 30.6109 22.0719 30.9092C22.0719 31.2069 22.3006 31.4389 22.6089 31.4389C22.7812 31.4389 22.9204 31.356 23.006 31.2301C23.0358 31.4256 23.1684 31.535 23.354 31.535C23.5761 31.535 23.818 31.3494 23.818 30.8429C23.818 30.296 23.3971 29.71 22.6586 29.71ZM22.6155 31.2864C22.4034 31.2864 22.231 31.1346 22.231 30.9092C22.231 30.6838 22.4034 30.5314 22.6155 30.5314C22.8276 30.5314 22.9993 30.6838 22.9993 30.9092C22.9993 31.1346 22.8276 31.2864 22.6155 31.2864Z" fill="#15324F"/>
<path d="M25.0064 29.541V29.3819C24.5722 29.3487 24.3442 29.5841 24.3442 29.9918V30.0812H24.0591V30.243H24.3442V31.7372H24.5132V30.243H25.0064V30.0812H24.5132V29.9918C24.5132 29.6702 24.6684 29.5145 25.0064 29.541Z" fill="#15324F"/>
<path d="M26.0199 31.7736C26.5005 31.7736 26.8876 31.3991 26.8876 30.9092C26.8876 30.4186 26.5005 30.0447 26.0199 30.0447C25.5366 30.0447 25.1488 30.4186 25.1488 30.9092C25.1488 31.3991 25.5366 31.7736 26.0199 31.7736ZM26.0199 31.6145C25.6254 31.6145 25.3178 31.3029 25.3178 30.9092C25.3178 30.5147 25.6254 30.2032 26.0199 30.2032C26.4143 30.2032 26.7186 30.5147 26.7186 30.9092C26.7186 31.3029 26.4143 31.6145 26.0199 31.6145Z" fill="#15324F"/>
<path d="M27.285 31.7371H27.4508V29.3188H27.285V31.7371Z" fill="#15324F"/>
<path d="M28.7191 30.0448C28.4638 30.0448 28.2524 30.1502 28.1264 30.3955V29.4183H27.9607V31.7372H28.1264V30.8628C28.1264 30.4154 28.381 30.2032 28.7058 30.2032C29.0174 30.2032 29.193 30.4021 29.193 30.707V31.7372H29.3614V30.707C29.3614 30.306 29.1135 30.0448 28.7191 30.0448Z" fill="#15324F"/>
<path d="M31.2857 30.0812V30.4551C31.1471 30.2065 30.8919 30.0447 30.5737 30.0447C30.1037 30.0447 29.7159 30.4186 29.7159 30.9092C29.7159 31.3991 30.1037 31.7736 30.5737 31.7736C30.8919 31.7736 31.1471 31.6112 31.2857 31.3626V31.7371H31.4547V30.0812H31.2857ZM30.5869 31.6145C30.1925 31.6145 29.8849 31.3029 29.8849 30.9092C29.8849 30.5147 30.1925 30.2032 30.5869 30.2032C30.9814 30.2032 31.2857 30.5147 31.2857 30.9092C31.2857 31.3029 30.9814 31.6145 30.5869 31.6145Z" fill="#15324F"/>
<path d="M32.8424 30.0447C32.5209 30.0447 32.2657 30.2098 32.1304 30.465V30.0812H31.9647V32.3994H32.1304V31.3527C32.2657 31.6079 32.5209 31.7736 32.8424 31.7736C33.3164 31.7736 33.7002 31.3991 33.7002 30.9092C33.7002 30.4186 33.3164 30.0447 32.8424 30.0447ZM32.8325 31.6145C32.438 31.6145 32.1304 31.3029 32.1304 30.9092C32.1304 30.5147 32.438 30.2032 32.8325 30.2032C33.2269 30.2032 33.5345 30.5147 33.5345 30.9092C33.5345 31.3029 33.2269 31.6145 32.8325 31.6145Z" fill="#15324F"/>
<path d="M34.846 30.0447C34.3396 30.0447 33.9882 30.4219 33.9882 30.9092C33.9882 31.409 34.3495 31.7736 34.8593 31.7736C35.1874 31.7736 35.446 31.6245 35.5812 31.3991L35.436 31.3129C35.3399 31.4886 35.1344 31.6145 34.8626 31.6145C34.4847 31.6145 34.2004 31.3692 34.1606 30.9954H35.6607C35.6607 30.9688 35.6641 30.9423 35.6641 30.9158C35.6641 30.4617 35.3498 30.0447 34.846 30.0447ZM34.846 30.2032C35.1709 30.2032 35.4559 30.4286 35.4924 30.8329H34.1606C34.1937 30.465 34.4682 30.2032 34.846 30.2032Z" fill="#15324F"/>
<path d="M2.45101 40.9683H2.6532L2.07713 39.9945C2.37146 39.9149 2.58691 39.6497 2.58691 39.3349C2.58691 38.9577 2.27932 38.6494 1.90146 38.6494H0.987305V40.9683H1.16298V40.0177H1.89483L2.45101 40.9683ZM1.16298 38.8151H1.90146C2.18319 38.8151 2.41124 39.0472 2.41124 39.3349C2.41124 39.6199 2.18319 39.8519 1.90146 39.8519H1.16298V38.8151Z" fill="#15324F"/>
<path d="M3.06715 38.9113C3.14007 38.9113 3.19973 38.8516 3.19973 38.7787C3.19973 38.7091 3.14007 38.6494 3.06715 38.6494C2.99423 38.6494 2.93457 38.7091 2.93457 38.7787C2.93457 38.8516 2.99423 38.9113 3.06715 38.9113ZM2.98429 40.9683H3.15002V39.3123H2.98429V40.9683Z" fill="#15324F"/>
<path d="M4.41831 41.0047C4.89892 41.0047 5.28605 40.6302 5.28605 40.1403C5.28605 39.6498 4.89892 39.2759 4.41831 39.2759C3.93504 39.2759 3.54724 39.6498 3.54724 40.1403C3.54724 40.6302 3.93504 41.0047 4.41831 41.0047ZM4.41831 40.8457C4.02387 40.8457 3.71628 40.5341 3.71628 40.1403C3.71628 39.7459 4.02387 39.4343 4.41831 39.4343C4.81274 39.4343 5.11701 39.7459 5.11701 40.1403C5.11701 40.5341 4.81274 40.8457 4.41831 40.8457Z" fill="#15324F"/>
<path d="M7.45218 39.2759C7.2301 39.2759 7.01863 39.3813 6.89931 39.6133C6.81313 39.3945 6.6242 39.2759 6.38224 39.2759C6.17011 39.2759 5.9719 39.368 5.84926 39.5967V39.3123H5.68353V40.9683H5.84926V40.0442C5.84926 39.6199 6.09056 39.4343 6.36235 39.4343C6.61757 39.4343 6.78662 39.6034 6.78662 39.9182V40.9683H6.95234V40.0442C6.95234 39.6199 7.17044 39.4343 7.44886 39.4343C7.7074 39.4343 7.8897 39.6034 7.8897 39.9182V40.9683H8.05543V39.9182C8.05543 39.5039 7.80352 39.2759 7.45218 39.2759Z" fill="#15324F"/>
<path d="M9.97883 39.3123V39.6862C9.84028 39.4376 9.58506 39.2759 9.26686 39.2759C8.79686 39.2759 8.40906 39.6498 8.40906 40.1403C8.40906 40.6302 8.79686 41.0047 9.26686 41.0047C9.58506 41.0047 9.84028 40.8423 9.97883 40.5937V40.9683H10.1479V39.3123H9.97883ZM9.28012 40.8457C8.88569 40.8457 8.5781 40.5341 8.5781 40.1403C8.5781 39.7459 8.88569 39.4343 9.28012 39.4343C9.67455 39.4343 9.97883 39.7459 9.97883 40.1403C9.97883 40.5341 9.67455 40.8457 9.28012 40.8457Z" fill="#15324F"/>
<path d="M10.8237 39.6365V39.3123H10.658V40.9683H10.8237V40.0475C10.8237 39.6232 11.0915 39.4476 11.3766 39.4476V39.2891C11.1512 39.2891 10.9364 39.3746 10.8237 39.6365Z" fill="#15324F"/>
<path d="M14.0525 38.6494H12.4164V38.8151H13.145V40.9683H13.324V38.8151H14.0525V38.6494Z" fill="#15324F"/>
<path d="M14.5496 39.6365V39.3123H14.3839V40.9683H14.5496V40.0475C14.5496 39.6232 14.8174 39.4476 15.1024 39.4476V39.2891C14.8771 39.2891 14.6623 39.3746 14.5496 39.6365Z" fill="#15324F"/>
<path d="M16.8941 39.3123V39.6862C16.7555 39.4376 16.5003 39.2759 16.1821 39.2759C15.7121 39.2759 15.3243 39.6498 15.3243 40.1403C15.3243 40.6302 15.7121 41.0047 16.1821 41.0047C16.5003 41.0047 16.7555 40.8423 16.8941 40.5937V40.9683H17.0631V39.3123H16.8941ZM16.1953 40.8457C15.8009 40.8457 15.4933 40.5341 15.4933 40.1403C15.4933 39.7459 15.8009 39.4343 16.1953 39.4343C16.5898 39.4343 16.8941 39.7459 16.8941 40.1403C16.8941 40.5341 16.5898 40.8457 16.1953 40.8457Z" fill="#15324F"/>
<path d="M19.0336 38.6494V39.6961C18.8983 39.4409 18.6431 39.2759 18.3216 39.2759C17.8483 39.2759 17.4638 39.6497 17.4638 40.1403C17.4638 40.6302 17.8483 41.0047 18.3216 41.0047C18.6431 41.0047 18.8983 40.839 19.0336 40.5838V40.9683H19.1993V38.6494H19.0336ZM18.3316 40.8456C17.9371 40.8456 17.6295 40.5341 17.6295 40.1403C17.6295 39.7459 17.9371 39.4343 18.3316 39.4343C18.726 39.4343 19.0336 39.7459 19.0336 40.1403C19.0336 40.5341 18.726 40.8456 18.3316 40.8456Z" fill="#15324F"/>
<path d="M20.4545 39.2759C19.948 39.2759 19.5967 39.6531 19.5967 40.1403C19.5967 40.6401 19.958 41.0047 20.4677 41.0047C20.7959 41.0047 21.0544 40.8556 21.1897 40.6302L21.0445 40.544C20.9484 40.7197 20.7429 40.8457 20.4711 40.8457C20.0932 40.8457 19.8088 40.6004 19.769 40.2265H21.2692C21.2692 40.2 21.2725 40.1735 21.2725 40.1469C21.2725 39.6928 20.9583 39.2759 20.4545 39.2759ZM20.4545 39.4343C20.7793 39.4343 21.0644 39.6597 21.1008 40.0641H19.769C19.8022 39.6962 20.0766 39.4343 20.4545 39.4343Z" fill="#15324F"/>
<path d="M23.6507 41.0048C24.0843 41.0048 24.4621 40.7794 24.6511 40.438L24.4953 40.3491C24.3428 40.6402 24.018 40.8357 23.6507 40.8357C23.0408 40.8357 22.6206 40.379 22.6206 39.8089C22.6206 39.2394 23.0408 38.782 23.6507 38.782C24.0147 38.782 24.3362 38.9743 24.4886 39.2593L24.6444 39.1698C24.4522 38.8317 24.0776 38.613 23.6507 38.613C22.9447 38.613 22.4449 39.1466 22.4449 39.8089C22.4449 40.4711 22.9447 41.0048 23.6507 41.0048Z" fill="#15324F"/>
<path d="M25.7766 39.2759C25.2702 39.2759 24.9188 39.6531 24.9188 40.1403C24.9188 40.6401 25.2801 41.0047 25.7899 41.0047C26.118 41.0047 26.3766 40.8556 26.5118 40.6302L26.3666 40.544C26.2705 40.7197 26.065 40.8457 25.7932 40.8457C25.4153 40.8457 25.131 40.6004 25.0912 40.2265H26.5913C26.5913 40.2 26.5947 40.1735 26.5947 40.1469C26.5947 39.6928 26.2804 39.2759 25.7766 39.2759ZM25.7766 39.4343C26.1015 39.4343 26.3865 39.6597 26.423 40.0641H25.0912C25.1243 39.6962 25.3988 39.4343 25.7766 39.4343Z" fill="#15324F"/>
<path d="M27.7406 39.2759C27.4854 39.2759 27.2739 39.3813 27.148 39.6266V39.3123H26.9822V40.9683H27.148V40.0939C27.148 39.6464 27.4025 39.4343 27.7273 39.4343C28.0389 39.4343 28.2146 39.6332 28.2146 39.9381V40.9683H28.383V39.9381C28.383 39.5371 28.135 39.2759 27.7406 39.2759Z" fill="#15324F"/>
<path d="M29.698 39.4741V39.3123H29.2041V38.8483L29.0357 38.898V39.3123H28.6711V39.4741H29.0357V40.5506C29.0357 40.9285 29.2638 41.0345 29.698 40.9683V40.8191C29.3599 40.8489 29.2041 40.8423 29.2041 40.5506V39.4741H29.698Z" fill="#15324F"/>
<path d="M30.8405 39.2759C30.3341 39.2759 29.9827 39.6531 29.9827 40.1403C29.9827 40.6401 30.344 41.0047 30.8538 41.0047C31.1819 41.0047 31.4405 40.8556 31.5757 40.6302L31.4305 40.544C31.3344 40.7197 31.1289 40.8457 30.8571 40.8457C30.4792 40.8457 30.1949 40.6004 30.1551 40.2265H31.6552C31.6552 40.2 31.6586 40.1735 31.6586 40.1469C31.6586 39.6928 31.3443 39.2759 30.8405 39.2759ZM30.8405 39.4343C31.1654 39.4343 31.4504 39.6597 31.4869 40.0641H30.1551C30.1882 39.6962 30.4627 39.4343 30.8405 39.4343Z" fill="#15324F"/>
<path d="M32.2119 39.6365V39.3123H32.0461V40.9683H32.2119V40.0475C32.2119 39.6232 32.4797 39.4476 32.7647 39.4476V39.2891C32.5393 39.2891 32.3246 39.3746 32.2119 39.6365Z" fill="#15324F"/>
<path d="M33.381 40.7429H33.1755L33.0496 41.4323H33.202L33.381 40.7429Z" fill="#15324F"/>
<path d="M34.6094 40.9683H36.0672V40.7993H34.8613L35.5799 40.0608C35.8153 39.8221 36.0141 39.5669 36.0141 39.2792C36.0141 38.8483 35.6794 38.613 35.3247 38.613C35.0231 38.613 34.7619 38.7588 34.6227 39.0439L34.7718 39.1334C34.8812 38.9013 35.0728 38.782 35.3247 38.782C35.6065 38.782 35.8352 38.961 35.8352 39.2792C35.8352 39.5072 35.6628 39.726 35.4606 39.9348L34.6094 40.8092V40.9683Z" fill="#15324F"/>
<path d="M37.0933 39.5934H36.6564L36.7095 38.8151H37.7794V38.6494H36.5537L36.4741 39.7624H37.0933C37.438 39.7624 37.6899 39.9646 37.6899 40.2994C37.6899 40.6335 37.438 40.8357 37.0933 40.8357C36.8083 40.8357 36.5868 40.6998 36.5106 40.4512L36.3615 40.5374C36.4675 40.8423 36.7618 41.0047 37.0933 41.0047C37.5109 41.0047 37.8649 40.7462 37.8649 40.2994C37.8649 39.8519 37.5109 39.5934 37.0933 39.5934Z" fill="#15324F"/>
<path d="M38.6662 38.6494L38.0603 38.8582L38.1034 39.0107L38.6397 38.8417V40.9683H38.8154V38.6494H38.6662Z" fill="#15324F"/>
<path d="M39.6405 40.7429H39.435L39.309 41.4323H39.4615L39.6405 40.7429Z" fill="#15324F"/>
<path d="M42.4387 38.6494H40.8026V38.8151H41.5312V40.9683H41.7101V38.8151H42.4387V38.6494Z" fill="#15324F"/>
<path d="M43.5284 41.0047C44.009 41.0047 44.3962 40.6302 44.3962 40.1403C44.3962 39.6498 44.009 39.2759 43.5284 39.2759C43.0452 39.2759 42.6573 39.6498 42.6573 40.1403C42.6573 40.6302 43.0452 41.0047 43.5284 41.0047ZM43.5284 40.8457C43.134 40.8457 42.8264 40.5341 42.8264 40.1403C42.8264 39.7459 43.134 39.4343 43.5284 39.4343C43.9228 39.4343 44.2271 39.7459 44.2271 40.1403C44.2271 40.5341 43.9228 40.8457 43.5284 40.8457Z" fill="#15324F"/>
<path d="M44.9594 39.6365V39.3123H44.7936V40.9683H44.9594V40.0475C44.9594 39.6232 45.2272 39.4476 45.5122 39.4476V39.2891C45.2868 39.2891 45.0721 39.3746 44.9594 39.6365Z" fill="#15324F"/>
<path d="M46.0125 39.6365V39.3123H45.8467V40.9683H46.0125V40.0475C46.0125 39.6232 46.2803 39.4476 46.5653 39.4476V39.2891C46.3399 39.2891 46.1252 39.3746 46.0125 39.6365Z" fill="#15324F"/>
<path d="M47.645 39.2759C47.1386 39.2759 46.7872 39.6531 46.7872 40.1403C46.7872 40.6401 47.1485 41.0047 47.6583 41.0047C47.9864 41.0047 48.245 40.8556 48.3802 40.6302L48.235 40.544C48.1389 40.7197 47.9334 40.8457 47.6616 40.8457C47.2838 40.8457 46.9994 40.6004 46.9596 40.2265H48.4598C48.4598 40.2 48.4631 40.1735 48.4631 40.1469C48.4631 39.6928 48.1488 39.2759 47.645 39.2759ZM47.645 39.4343C47.9699 39.4343 48.2549 39.6597 48.2914 40.0641H46.9596C46.9927 39.6962 47.2672 39.4343 47.645 39.4343Z" fill="#15324F"/>
<path d="M51.3279 40.9683H51.5135L50.6159 38.6494H50.4303L49.5294 40.9683H49.715L49.9404 40.3789H51.1032L51.3279 40.9683ZM50.0067 40.2132L50.5231 38.8649L51.0402 40.2132H50.0067Z" fill="#15324F"/>
<path d="M52.0998 40.7429H51.8943L51.7684 41.4323H51.9208L52.0998 40.7429Z" fill="#15324F"/>
<path d="M54.1828 41.0048C54.6435 41.0048 54.9444 40.7529 54.9444 40.369C54.9444 39.968 54.5871 39.8387 54.1761 39.7028C53.8447 39.5934 53.61 39.5072 53.61 39.2295C53.61 38.9709 53.8115 38.782 54.133 38.782C54.4645 38.782 54.6435 38.9743 54.7297 39.1831L54.8782 39.1002C54.7661 38.8317 54.5142 38.613 54.133 38.613C53.7386 38.613 53.431 38.8549 53.431 39.2361C53.431 39.6398 53.7784 39.7492 54.1662 39.8752C54.5208 39.9879 54.7661 40.0939 54.7661 40.3723C54.7661 40.6368 54.5706 40.8357 54.1828 40.8357C53.8016 40.8357 53.5669 40.6468 53.4874 40.369L53.3349 40.4579C53.441 40.786 53.7486 41.0048 54.1828 41.0048Z" fill="#15324F"/>
<path d="M55.2292 40.9683H56.687V40.7993H55.4812L56.1997 40.0608C56.4351 39.8221 56.634 39.5669 56.634 39.2792C56.634 38.8483 56.2992 38.613 55.9445 38.613C55.6429 38.613 55.3817 38.7588 55.2425 39.0439L55.3917 39.1334C55.501 38.9013 55.6926 38.782 55.9445 38.782C56.2263 38.782 56.455 38.961 56.455 39.2792C56.455 39.5072 56.2826 39.726 56.0804 39.9348L55.2292 40.8092V40.9683Z" fill="#15324F"/>
<path d="M58.0976 39.7691C58.2965 39.6697 58.4357 39.484 58.4357 39.2394C58.4357 38.8284 58.1075 38.613 57.7429 38.613C57.379 38.613 57.0508 38.8284 57.0508 39.2394C57.0508 39.484 57.1901 39.6697 57.3883 39.7691C57.1403 39.8685 56.9746 40.0773 56.9746 40.3491C56.9746 40.7694 57.3094 41.0048 57.7429 41.0048C58.1771 41.0048 58.5112 40.7694 58.5112 40.3491C58.5112 40.0773 58.3462 39.8685 58.0976 39.7691ZM57.2265 39.2394C57.2265 38.9411 57.4512 38.782 57.7429 38.782C58.0346 38.782 58.26 38.9411 58.26 39.2394C58.26 39.5238 58.0346 39.6929 57.7429 39.6929C57.4512 39.6929 57.2265 39.5238 57.2265 39.2394ZM57.7429 40.8357C57.3816 40.8357 57.1536 40.6567 57.1536 40.3491C57.1536 40.0442 57.3816 39.8652 57.7429 39.8652C58.1042 39.8652 58.3329 40.0442 58.3329 40.3491C58.3329 40.6567 58.1042 40.8357 57.7429 40.8357Z" fill="#15324F"/>
<path d="M59.3159 38.6494L58.71 38.8582L58.7531 39.0107L59.2893 38.8417V40.9683H59.465V38.6494H59.3159Z" fill="#15324F"/>
<path d="M60.7966 41.0048C61.3534 41.0048 61.6643 40.5241 61.6643 39.8089C61.6643 39.0936 61.3534 38.613 60.7966 38.613C60.2404 38.613 59.9288 39.0936 59.9288 39.8089C59.9288 40.5241 60.2404 41.0048 60.7966 41.0048ZM60.7966 40.8357C60.3657 40.8357 60.1078 40.4579 60.1078 39.8089C60.1078 39.1599 60.3657 38.782 60.7966 38.782C61.2275 38.782 61.4853 39.1599 61.4853 39.8089C61.4853 40.4579 61.2275 40.8357 60.7966 40.8357Z" fill="#15324F"/>
<path d="M62.3766 40.7429H62.1711L62.0452 41.4323H62.1976L62.3766 40.7429Z" fill="#15324F"/>
<path d="M1.7755 43.265H0.987305V45.5838H1.16298V44.6995H1.7755C2.19314 44.6995 2.49741 44.3912 2.49741 43.9835C2.49741 43.5732 2.19314 43.265 1.7755 43.265ZM1.7755 44.5338H1.16298V43.4307H1.7755C2.0937 43.4307 2.32241 43.6627 2.32241 43.9835C2.32241 44.3017 2.0937 44.5338 1.7755 44.5338Z" fill="#15324F"/>
<path d="M2.98109 43.5268C3.05401 43.5268 3.11367 43.4671 3.11367 43.3942C3.11367 43.3246 3.05401 43.265 2.98109 43.265C2.90817 43.265 2.84851 43.3246 2.84851 43.3942C2.84851 43.4671 2.90817 43.5268 2.98109 43.5268ZM2.89823 45.5838H3.06396V43.9279H2.89823V45.5838Z" fill="#15324F"/>
<path d="M4.33222 43.8914C4.077 43.8914 3.86553 43.9968 3.73958 44.242V43.9278H3.57385V45.5838H3.73958V44.7094C3.73958 44.2619 3.99414 44.0498 4.31896 44.0498C4.63053 44.0498 4.8062 44.2487 4.8062 44.5536V45.5838H4.97458V44.5536C4.97458 44.1525 4.72665 43.8914 4.33222 43.8914Z" fill="#15324F"/>
<path d="M6.89881 43.9278V44.3017C6.76026 44.0531 6.50504 43.8914 6.18685 43.8914C5.71684 43.8914 5.32904 44.2652 5.32904 44.7558C5.32904 45.2457 5.71684 45.6202 6.18685 45.6202C6.50504 45.6202 6.76026 45.4578 6.89881 45.2092V45.5838H7.06785V43.9278H6.89881ZM6.2001 45.4611C5.80567 45.4611 5.49808 45.1496 5.49808 44.7558C5.49808 44.3614 5.80567 44.0498 6.2001 44.0498C6.59454 44.0498 6.89881 44.3614 6.89881 44.7558C6.89881 45.1496 6.59454 45.4611 6.2001 45.4611Z" fill="#15324F"/>
<path d="M7.85965 45.3584H7.65415L7.5282 46.0478H7.68067L7.85965 45.3584Z" fill="#15324F"/>
<path d="M10.6976 45.5838H10.8998L10.3237 44.61C10.618 44.5304 10.8335 44.2653 10.8335 43.9504C10.8335 43.5732 10.5259 43.265 10.148 43.265H9.23389V45.5838H9.40956V44.6332H10.1414L10.6976 45.5838ZM9.40956 43.4307H10.148C10.4298 43.4307 10.6578 43.6627 10.6578 43.9504C10.6578 44.2355 10.4298 44.4675 10.148 44.4675H9.40956V43.4307Z" fill="#15324F"/>
<path d="M11.976 43.8914C11.4696 43.8914 11.1182 44.2686 11.1182 44.7558C11.1182 45.2556 11.4795 45.6202 11.9893 45.6202C12.3174 45.6202 12.576 45.4711 12.7112 45.2457L12.566 45.1595C12.4699 45.3352 12.2644 45.4611 11.9926 45.4611C11.6147 45.4611 11.3304 45.2159 11.2906 44.842H12.7907C12.7907 44.8155 12.7941 44.7889 12.7941 44.7624C12.7941 44.3083 12.4798 43.8914 11.976 43.8914ZM11.976 44.0498C12.3009 44.0498 12.5859 44.2752 12.6224 44.6796H11.2906C11.3237 44.3116 11.5982 44.0498 11.976 44.0498Z" fill="#15324F"/>
<path d="M13.94 45.6202C14.2649 45.6202 14.5433 45.4545 14.6752 45.1993L14.5367 45.1164C14.4273 45.3219 14.2085 45.4611 13.94 45.4611C13.539 45.4611 13.238 45.1496 13.238 44.7558C13.238 44.3614 13.539 44.0498 13.94 44.0498C14.2052 44.0498 14.4306 44.1857 14.5267 44.3945L14.6619 44.315C14.5433 44.0564 14.2649 43.8914 13.94 43.8914C13.4402 43.8914 13.069 44.2652 13.069 44.7558C13.069 45.2457 13.4402 45.6202 13.94 45.6202Z" fill="#15324F"/>
<path d="M15.1225 43.5268C15.1954 43.5268 15.255 43.4671 15.255 43.3942C15.255 43.3246 15.1954 43.265 15.1225 43.265C15.0495 43.265 14.9899 43.3246 14.9899 43.3942C14.9899 43.4671 15.0495 43.5268 15.1225 43.5268ZM15.0396 45.5838H15.2053V43.9279H15.0396V45.5838Z" fill="#15324F"/>
<path d="M16.4967 43.3876V43.2285C16.0625 43.1953 15.8345 43.4307 15.8345 43.8384V43.9279H15.5494V44.0896H15.8345V45.5838H16.0035V44.0896H16.4967V43.9279H16.0035V43.8384C16.0035 43.5169 16.1587 43.3611 16.4967 43.3876Z" fill="#15324F"/>
<path d="M17.4969 43.8914C16.9904 43.8914 16.6391 44.2686 16.6391 44.7558C16.6391 45.2556 17.0004 45.6202 17.5102 45.6202C17.8383 45.6202 18.0968 45.4711 18.2321 45.2457L18.0869 45.1595C17.9908 45.3352 17.7853 45.4611 17.5135 45.4611C17.1356 45.4611 16.8512 45.2159 16.8115 44.842H18.3116C18.3116 44.8155 18.3149 44.7889 18.3149 44.7624C18.3149 44.3083 18.0007 43.8914 17.4969 43.8914ZM17.4969 44.0498C17.8217 44.0498 18.1068 44.2752 18.1432 44.6796H16.8115C16.8446 44.3116 17.119 44.0498 17.4969 44.0498Z" fill="#15324F"/>
<path d="M18.7357 44.6398H19.9282V44.4807H18.7357V44.6398Z" fill="#15324F"/>
<path d="M21.2892 43.265H20.501V45.5838H20.6766V44.6995H21.2892C21.7068 44.6995 22.0111 44.3912 22.0111 43.9835C22.0111 43.5732 21.7068 43.265 21.2892 43.265ZM21.2892 44.5338H20.6766V43.4307H21.2892C21.6074 43.4307 21.8361 43.6627 21.8361 43.9835C21.8361 44.3017 21.6074 44.5338 21.2892 44.5338Z" fill="#15324F"/>
<path d="M22.6207 45.4181V44.4973H23.6807V44.3316H22.6207V43.4307H23.7635V43.265H22.445V45.5838H23.7801V45.4181H22.6207Z" fill="#15324F"/>
<path d="M1.78879 48.3114V48.5235C1.78879 48.7549 1.63963 48.9272 1.39435 49.1659C1.16631 49.388 1.09008 49.6624 1.09008 49.9541C1.09008 50.0602 1.12985 50.1099 1.24255 50.1099H3.46794C3.58063 50.1099 3.62041 50.0602 3.62041 49.9541C3.62041 49.6624 3.54417 49.388 3.31613 49.1659C3.07085 48.9272 2.9217 48.7549 2.9217 48.5235V48.3114H3.27636L3.14046 48.6621C3.11726 48.7151 3.11726 48.7715 3.18355 48.7847L3.78613 48.8875C3.8458 48.8941 3.87894 48.861 3.87894 48.7947C3.87894 48.6488 3.85905 48.3313 3.69996 48.2087C3.4222 47.9932 3.0576 47.8772 2.35491 47.8772C1.65289 47.8772 1.28829 47.9932 1.01053 48.2087C0.85143 48.3313 0.831543 48.6488 0.831543 48.7947C0.831543 48.861 0.864688 48.8941 0.92435 48.8875L1.52694 48.7847C1.59323 48.7715 1.59323 48.7151 1.57002 48.6621L1.43413 48.3114H1.78879ZM2.63665 48.3114V48.6289H2.07384V48.3114H2.63665ZM1.79873 49.3714C1.79873 49.0631 2.04732 48.8146 2.35491 48.8146C2.66316 48.8146 2.91176 49.0631 2.91176 49.3714C2.91176 49.679 2.66316 49.9276 2.35491 49.9276C2.04732 49.9276 1.79873 49.679 1.79873 49.3714Z" fill="#15324F"/>
<path d="M6.16057 49.0002C6.35944 48.9007 6.49865 48.7151 6.49865 48.4705C6.49865 48.0595 6.17051 47.8441 5.80591 47.8441C5.44197 47.8441 5.11383 48.0595 5.11383 48.4705C5.11383 48.7151 5.25304 48.9007 5.45125 49.0002C5.20333 49.0996 5.0376 49.3084 5.0376 49.5802C5.0376 50.0005 5.37237 50.2358 5.80591 50.2358C6.24012 50.2358 6.57422 50.0005 6.57422 49.5802C6.57422 49.3084 6.40916 49.0996 6.16057 49.0002ZM5.2895 48.4705C5.2895 48.1722 5.51423 48.0131 5.80591 48.0131C6.09759 48.0131 6.32298 48.1722 6.32298 48.4705C6.32298 48.7549 6.09759 48.9239 5.80591 48.9239C5.51423 48.9239 5.2895 48.7549 5.2895 48.4705ZM5.80591 50.0668C5.44462 50.0668 5.21658 49.8878 5.21658 49.5802C5.21658 49.2753 5.44462 49.0963 5.80591 49.0963C6.1672 49.0963 6.3959 49.2753 6.3959 49.5802C6.3959 49.8878 6.1672 50.0668 5.80591 50.0668Z" fill="#15324F"/>
<path d="M7.37885 47.8806L6.77295 48.0894L6.81604 48.2418L7.35233 48.0728V50.1994H7.528V47.8806H7.37885Z" fill="#15324F"/>
<path d="M9.66427 48.8444L10.2211 48.0463V47.8806H8.88602V48.0463H10.0189L9.43225 48.8776L9.50849 48.9936H9.55821C9.90292 48.9936 10.1548 49.1958 10.1548 49.5305C10.1548 49.8646 9.90292 50.0668 9.56484 50.0668C9.27316 50.0668 9.05837 49.9409 8.9722 49.7089L8.82635 49.795C8.93905 50.0801 9.22742 50.2359 9.56484 50.2359C9.97584 50.2359 10.3305 49.9773 10.3305 49.5305C10.3305 49.1228 10.0322 48.8809 9.66427 48.8444Z" fill="#15324F"/>
<path d="M11.4494 48.8444L12.0063 48.0463V47.8806H10.6712V48.0463H11.8041L11.2174 48.8776L11.2936 48.9936H11.3434C11.6881 48.9936 11.94 49.1958 11.94 49.5305C11.94 49.8646 11.6881 50.0668 11.35 50.0668C11.0583 50.0668 10.8435 49.9409 10.7574 49.7089L10.6115 49.795C10.7242 50.0801 11.0126 50.2359 11.35 50.2359C11.761 50.2359 12.1157 49.9773 12.1157 49.5305C12.1157 49.1228 11.8173 48.8809 11.4494 48.8444Z" fill="#15324F"/>
<path d="M12.9329 47.8806L12.327 48.0894L12.3701 48.2418L12.9064 48.0728V50.1994H13.0821V47.8806H12.9329Z" fill="#15324F"/>
<path d="M15.1853 49.5471H14.8876V48.8179H14.7119V49.5471H13.6586L14.5363 47.8806H14.344L13.463 49.5471V49.7122H14.7119V50.1994H14.8876V49.7122H15.1853V49.5471Z" fill="#15324F"/>
<path d="M15.5563 49.2554H16.7488V49.0963H15.5563V49.2554Z" fill="#15324F"/>
<path d="M18.0766 50.2358C18.6334 50.2358 18.9443 49.7552 18.9443 49.0399C18.9443 48.3247 18.6334 47.8441 18.0766 47.8441C17.5204 47.8441 17.2088 48.3247 17.2088 49.0399C17.2088 49.7552 17.5204 50.2358 18.0766 50.2358ZM18.0766 50.0668C17.6457 50.0668 17.3878 49.6889 17.3878 49.0399C17.3878 48.391 17.6457 48.0131 18.0766 48.0131C18.5074 48.0131 18.7653 48.391 18.7653 49.0399C18.7653 49.6889 18.5074 50.0668 18.0766 50.0668Z" fill="#15324F"/>
<path d="M20.0073 48.7085C19.9178 48.7085 19.8349 48.7218 19.7554 48.745L20.3487 47.8806H20.1498L19.3715 49.0102C19.282 49.1361 19.229 49.2919 19.229 49.4742C19.229 49.9243 19.5571 50.2359 20.0073 50.2359C20.458 50.2359 20.7855 49.9243 20.7855 49.4742C20.7855 49.0201 20.458 48.7085 20.0073 48.7085ZM20.0073 50.0668C19.64 50.0668 19.408 49.8182 19.408 49.4742C19.408 49.1262 19.64 48.8776 20.0073 48.8776C20.3752 48.8776 20.6105 49.1262 20.6105 49.4742C20.6105 49.8182 20.3752 50.0668 20.0073 50.0668Z" fill="#15324F"/>
<path d="M21.0406 50.1994H22.4984V50.0303H21.2926L22.0111 49.2919C22.2465 49.0532 22.4454 48.798 22.4454 48.5103C22.4454 48.0794 22.1106 47.8441 21.7559 47.8441C21.4543 47.8441 21.1931 47.9899 21.0539 48.2749L21.2031 48.3644C21.3124 48.1324 21.504 48.0131 21.7559 48.0131C22.0377 48.0131 22.2664 48.1921 22.2664 48.5103C22.2664 48.7383 22.094 48.9571 21.8918 49.1659L21.0406 50.0403V50.1994Z" fill="#15324F"/>
<path d="M24.3094 48.6057C24.3094 48.1556 23.9819 47.8441 23.5311 47.8441C23.081 47.8441 22.7529 48.1556 22.7529 48.6057C22.7529 49.0598 23.081 49.3714 23.5311 49.3714C23.6206 49.3714 23.7068 49.3581 23.7863 49.3349L23.193 50.1994H23.3919L24.1675 49.0698C24.257 48.9438 24.3094 48.788 24.3094 48.6057ZM22.9319 48.6057C22.9319 48.2617 23.1639 48.0131 23.5311 48.0131C23.899 48.0131 24.1344 48.2617 24.1344 48.6057C24.1344 48.9538 23.899 49.2024 23.5311 49.2024C23.1639 49.2024 22.9319 48.9538 22.9319 48.6057Z" fill="#15324F"/>
<path d="M2.05725 52.1646H1.0072V55.4772H2.05725V52.1646ZM1.80203 52.3867V52.4961H1.58327V52.6187H1.80203V52.7281H1.25182V52.6187H1.47058V52.4961H1.25513V52.3867H1.80203ZM1.58327 52.8143V53.0463H1.80203V53.159H1.25182V52.8143H1.58327ZM1.47058 52.927H1.3612V53.0463H1.47058V52.927ZM1.80203 53.2478V53.3572H1.58327V53.5892H1.25182V53.4798H1.47058V53.3572H1.25182V53.2478H1.80203ZM1.80203 53.4467V53.7781H1.25182V53.6654H1.69265V53.4467H1.80203ZM1.80203 53.8511V54.2256H1.25182V53.8511H1.3612V54.1162H1.69265V53.9604H1.58327V54.0367H1.47058V53.8511H1.80203ZM1.80203 54.4238V54.7984H1.25182V54.4238H1.80203ZM1.69265 54.5332H1.3612V54.689H1.69265V54.5332ZM1.80203 54.8746V54.984H1.69597L1.46395 55.1398H1.80203V55.2491H1.25182V55.1398L1.48383 54.984H1.25182V54.8746H1.80203Z" fill="#15324F"/>
<path d="M4.50462 53.6157C4.7035 53.5163 4.84271 53.3307 4.84271 53.086C4.84271 52.675 4.51457 52.4596 4.14997 52.4596C3.78603 52.4596 3.45789 52.675 3.45789 53.086C3.45789 53.3307 3.5971 53.5163 3.79531 53.6157C3.54738 53.7151 3.38165 53.924 3.38165 54.1958C3.38165 54.616 3.71642 54.8514 4.14997 54.8514C4.58417 54.8514 4.91828 54.616 4.91828 54.1958C4.91828 53.924 4.75321 53.7151 4.50462 53.6157ZM3.63356 53.086C3.63356 52.7877 3.85829 52.6286 4.14997 52.6286C4.44165 52.6286 4.66704 52.7877 4.66704 53.086C4.66704 53.3704 4.44165 53.5395 4.14997 53.5395C3.85829 53.5395 3.63356 53.3704 3.63356 53.086ZM4.14997 54.6823C3.78868 54.6823 3.56064 54.5033 3.56064 54.1958C3.56064 53.8908 3.78868 53.7118 4.14997 53.7118C4.51125 53.7118 4.73996 53.8908 4.73996 54.1958C4.73996 54.5033 4.51125 54.6823 4.14997 54.6823Z" fill="#15324F"/>
<path d="M5.7229 52.496L5.117 52.7048L5.16009 52.8573L5.69639 52.6883V54.8149H5.87206V52.496H5.7229Z" fill="#15324F"/>
<path d="M8.71038 53.2213C8.71038 52.7712 8.38291 52.4596 7.93213 52.4596C7.48201 52.4596 7.15387 52.7712 7.15387 53.2213C7.15387 53.6754 7.48201 53.9869 7.93213 53.9869C8.02162 53.9869 8.1078 53.9737 8.18735 53.9505L7.59404 54.8149H7.79292L8.56852 53.6853C8.65801 53.5594 8.71038 53.4036 8.71038 53.2213ZM7.33286 53.2213C7.33286 52.8772 7.56487 52.6286 7.93213 52.6286C8.30004 52.6286 8.53537 52.8772 8.53537 53.2213C8.53537 53.5693 8.30004 53.8179 7.93213 53.8179C7.56487 53.8179 7.33286 53.5693 7.33286 53.2213Z" fill="#15324F"/>
<path d="M10.4889 53.2213C10.4889 52.7712 10.1614 52.4596 9.71063 52.4596C9.26051 52.4596 8.93237 52.7712 8.93237 53.2213C8.93237 53.6754 9.26051 53.9869 9.71063 53.9869C9.80012 53.9869 9.8863 53.9737 9.96585 53.9505L9.37255 54.8149H9.57142L10.347 53.6853C10.4365 53.5594 10.4889 53.4036 10.4889 53.2213ZM9.11136 53.2213C9.11136 52.8772 9.34338 52.6286 9.71063 52.6286C10.0785 52.6286 10.3139 52.8772 10.3139 53.2213C10.3139 53.5693 10.0785 53.8179 9.71063 53.8179C9.34338 53.8179 9.11136 53.5693 9.11136 53.2213Z" fill="#15324F"/>
<path d="M12.2674 53.2213C12.2674 52.7712 11.9399 52.4596 11.4891 52.4596C11.039 52.4596 10.7109 52.7712 10.7109 53.2213C10.7109 53.6754 11.039 53.9869 11.4891 53.9869C11.5786 53.9869 11.6648 53.9737 11.7444 53.9505L11.151 54.8149H11.3499L12.1255 53.6853C12.215 53.5594 12.2674 53.4036 12.2674 53.2213ZM10.8899 53.2213C10.8899 52.8772 11.1219 52.6286 11.4891 52.6286C11.857 52.6286 12.0924 52.8772 12.0924 53.2213C12.0924 53.5693 11.857 53.8179 11.4891 53.8179C11.1219 53.8179 10.8899 53.5693 10.8899 53.2213Z" fill="#15324F"/>
<path d="M12.5225 54.8149H13.9802V54.6459H12.7744L13.493 53.9074C13.7283 53.6687 13.9272 53.4135 13.9272 53.1258C13.9272 52.6949 13.5924 52.4596 13.2377 52.4596C12.9361 52.4596 12.6749 52.6054 12.5357 52.8905L12.6849 52.98C12.7943 52.748 12.9858 52.6286 13.2377 52.6286C13.5195 52.6286 13.7482 52.8076 13.7482 53.1258C13.7482 53.3539 13.5758 53.5726 13.3736 53.7814L12.5225 54.6558V54.8149Z" fill="#15324F"/>
<path d="M15.7912 53.2213C15.7912 52.7712 15.4637 52.4596 15.0129 52.4596C14.5628 52.4596 14.2347 52.7712 14.2347 53.2213C14.2347 53.6754 14.5628 53.9869 15.0129 53.9869C15.1024 53.9869 15.1886 53.9737 15.2682 53.9505L14.6749 54.8149H14.8737L15.6493 53.6853C15.7388 53.5594 15.7912 53.4036 15.7912 53.2213ZM14.4137 53.2213C14.4137 52.8772 14.6457 52.6286 15.0129 52.6286C15.3809 52.6286 15.6162 52.8772 15.6162 53.2213C15.6162 53.5693 15.3809 53.8179 15.0129 53.8179C14.6457 53.8179 14.4137 53.5693 14.4137 53.2213Z" fill="#15324F"/>
<path d="M15.98 52.496V52.6618H17.2024L16.3015 54.8149H16.4831L17.3847 52.6618V52.496H15.98Z" fill="#15324F"/>
<path d="M19.1925 53.2213C19.1925 52.7712 18.865 52.4596 18.4142 52.4596C17.9641 52.4596 17.636 52.7712 17.636 53.2213C17.636 53.6754 17.9641 53.9869 18.4142 53.9869C18.5037 53.9869 18.5899 53.9737 18.6695 53.9505L18.0762 54.8149H18.275L19.0506 53.6853C19.1401 53.5594 19.1925 53.4036 19.1925 53.2213ZM17.815 53.2213C17.815 52.8772 18.047 52.6286 18.4142 52.6286C18.7822 52.6286 19.0175 52.8772 19.0175 53.2213C19.0175 53.5693 18.7822 53.8179 18.4142 53.8179C18.047 53.8179 17.815 53.5693 17.815 53.2213Z" fill="#15324F"/>
<path d="M20.2689 53.4599L20.8258 52.6618V52.496H19.4907V52.6618H20.6236L20.0369 53.493L20.1132 53.6091H20.1629C20.5076 53.6091 20.7595 53.8112 20.7595 54.146C20.7595 54.4801 20.5076 54.6823 20.1695 54.6823C19.8778 54.6823 19.663 54.5564 19.5769 54.3243L19.431 54.4105C19.5437 54.6956 19.8321 54.8514 20.1695 54.8514C20.5805 54.8514 20.9352 54.5928 20.9352 54.146C20.9352 53.7383 20.6369 53.4964 20.2689 53.4599Z" fill="#15324F"/>
<path d="M22.1336 54.8514C22.6905 54.8514 23.0014 54.3708 23.0014 53.6555C23.0014 52.9402 22.6905 52.4596 22.1336 52.4596C21.5774 52.4596 21.2659 52.9402 21.2659 53.6555C21.2659 54.3708 21.5774 54.8514 22.1336 54.8514ZM22.1336 54.6823C21.7027 54.6823 21.4449 54.3045 21.4449 53.6555C21.4449 53.0065 21.7027 52.6286 22.1336 52.6286C22.5645 52.6286 22.8224 53.0065 22.8224 53.6555C22.8224 54.3045 22.5645 54.6823 22.1336 54.6823Z" fill="#15324F"/>
<path d="M3.51949 7.6685C4.73593 7.6685 5.7999 7.06989 6.37 6.12856L5.05877 5.36886C4.77372 5.88195 4.19433 6.18557 3.51949 6.18557C2.34084 6.18557 1.58114 5.39737 1.58114 4.20943C1.58114 3.0215 2.34084 2.23263 3.51949 2.23263C4.19433 2.23263 4.76444 2.53691 5.05877 3.05L6.37 2.28964C5.79062 1.34897 4.72599 0.750366 3.51949 0.750366C1.51419 0.750366 0.0604248 2.25186 0.0604248 4.20943C0.0604248 6.16701 1.51419 7.6685 3.51949 7.6685Z" fill="#15324F"/>
<path d="M8.93575 7.66851C10.3325 7.66851 11.4535 6.57537 11.4535 5.15939C11.4535 3.74342 10.3325 2.65094 8.93575 2.65094C7.539 2.65094 6.41736 3.74342 6.41736 5.15939C6.41736 6.57537 7.539 7.66851 8.93575 7.66851ZM8.93575 6.28104C8.31792 6.28104 7.84262 5.83423 7.84262 5.15939C7.84262 4.48521 8.31792 4.03841 8.93575 4.03841C9.55292 4.03841 10.0282 4.48521 10.0282 5.15939C10.0282 5.83423 9.55292 6.28104 8.93575 6.28104Z" fill="#15324F"/>
<path d="M14.57 2.65094C13.9429 2.65094 13.4682 2.87898 13.2117 3.23032V2.78418H11.7858V7.53526H13.2117V4.94129C13.2117 4.26645 13.5723 3.96218 14.0953 3.96218C14.5514 3.96218 14.922 4.23795 14.922 4.82727V7.53526H16.3473V4.61779C16.3473 3.33506 15.5299 2.65094 14.57 2.65094Z" fill="#15324F"/>
<path d="M19.6345 4.15244V2.7842H18.6561V1.45374L17.2308 1.88131V2.7842H16.4705V4.15244H17.2308V5.83425C17.2308 7.16471 17.7724 7.72553 19.6345 7.53527V6.2426C19.0074 6.28105 18.6561 6.2426 18.6561 5.83425V4.15244H19.6345Z" fill="#15324F"/>
<path d="M23.5118 2.78418V3.23032C23.1983 2.8697 22.7322 2.65094 22.0958 2.65094C20.8509 2.65094 19.8247 3.74342 19.8247 5.15939C19.8247 6.57537 20.8509 7.66851 22.0958 7.66851C22.7322 7.66851 23.1983 7.44975 23.5118 7.08846V7.53526H24.9371V2.78418H23.5118ZM22.3809 6.31882C21.7253 6.31882 21.25 5.87202 21.25 5.15939C21.25 4.44676 21.7253 3.99996 22.3809 3.99996C23.0365 3.99996 23.5118 4.44676 23.5118 5.15939C23.5118 5.87202 23.0365 6.31882 22.3809 6.31882Z" fill="#15324F"/>
<path d="M28.2909 4.15244V2.7842H27.3124V1.45374L25.8872 1.88131V2.7842H25.1268V4.15244H25.8872V5.83425C25.8872 7.16471 26.4288 7.72553 28.2909 7.53527V6.2426C27.6638 6.28105 27.3124 6.2426 27.3124 5.83425V4.15244H28.2909Z" fill="#15324F"/>
<path d="M30.9994 7.66851C32.3962 7.66851 33.5171 6.57537 33.5171 5.15939C33.5171 3.74342 32.3962 2.65094 30.9994 2.65094C29.6027 2.65094 28.481 3.74342 28.481 5.15939C28.481 6.57537 29.6027 7.66851 30.9994 7.66851ZM30.9994 6.28104C30.3816 6.28104 29.9063 5.83423 29.9063 5.15939C29.9063 4.48521 30.3816 4.03841 30.9994 4.03841C31.6166 4.03841 32.0919 4.48521 32.0919 5.15939C32.0919 5.83423 31.6166 6.28104 30.9994 6.28104Z" fill="#15324F"/>
</svg>
