<svg width="61" height="27" viewBox="0 0 61 27" fill="none" xmlns="http://www.w3.org/2000/svg">
<mask id="mask0_34_4" style="mask-type:luminance" maskUnits="userSpaceOnUse" x="37" y="9" width="12" height="9">
<path d="M37.5383 9.98309H48.5691V17.238H37.5383V9.98309Z" fill="white"/>
</mask>
<g mask="url(#mask0_34_4)">
<path d="M40.404 17.232C40.288 17.232 40.176 17.1856 40.0931 17.1041L37.6768 14.7043C37.5051 14.534 37.5051 14.2582 37.6768 14.0878C37.8479 13.9175 38.1263 13.9175 38.298 14.0878L40.3729 16.1482L45.3387 10.1919C45.4932 10.005 45.7703 9.97978 45.9566 10.1342C46.1442 10.2874 46.1707 10.5625 46.0149 10.7474L40.7421 17.0736C40.6639 17.169 40.5479 17.2261 40.4246 17.2314C40.418 17.232 40.4107 17.232 40.404 17.232ZM42.8416 17.2314C42.9649 17.2261 43.0802 17.169 43.1591 17.0736L48.4319 10.7474C48.587 10.5625 48.5605 10.2874 48.3735 10.1342C48.1873 9.97978 47.9102 10.0063 47.7557 10.1919L42.7898 16.1482L42.6917 16.0507C42.5207 15.8803 42.2423 15.8803 42.0706 16.0507C41.8989 16.2211 41.8989 16.4975 42.0706 16.6679L42.5101 17.1041C42.5923 17.1856 42.705 17.232 42.821 17.232C42.8276 17.232 42.8343 17.232 42.8416 17.2314Z" fill="#38B6FF"/>
</g>
<path d="M5.26345 2.49455V0.860474H0.754333V8.28706H2.45205V5.56051H5.21042V3.92643H2.45205V2.49455H5.26345Z" fill="#15324F"/>
<path d="M9.85752 2.98245V3.48095C9.5075 3.0779 8.98712 2.83395 8.27648 2.83395C6.88702 2.83395 5.74084 4.05371 5.74084 5.63475C5.74084 7.21579 6.88702 8.43555 8.27648 8.43555C8.98712 8.43555 9.5075 8.19159 9.85752 7.78855V8.28705H11.4485V2.98245H9.85752ZM8.59467 6.92875C7.86282 6.92875 7.33249 6.43024 7.33249 5.63475C7.33249 4.83926 7.86282 4.34009 8.59467 4.34009C9.32719 4.34009 9.85752 4.83926 9.85752 5.63475C9.85752 6.43024 9.32719 6.92875 8.59467 6.92875Z" fill="#15324F"/>
<path d="M14.9285 6.86511C14.2391 6.86511 13.73 6.3666 13.73 5.63475C13.73 4.9029 14.2391 4.40373 14.9285 4.40373C15.3952 4.40373 15.7777 4.62713 15.958 4.99836L17.3475 4.19159C16.8914 3.37489 15.9792 2.83395 14.9497 2.83395C13.3375 2.83395 12.1383 4.05371 12.1383 5.63475C12.1383 7.02421 13.0617 8.13856 14.3876 8.38251V9.11437C14.727 9.14618 14.9497 9.19922 14.9497 9.3265C14.9497 9.46438 14.6315 9.52868 13.9421 9.47499V10.5787C15.7246 10.6848 16.3292 10.2605 16.3292 9.59232C16.3292 9.08255 15.9474 8.8492 15.661 8.77496V8.35069C16.3929 8.15977 16.9974 7.70369 17.3475 7.0673L15.958 6.27114C15.7883 6.64237 15.3952 6.86511 14.9285 6.86511Z" fill="#15324F"/>
<path d="M21.6764 2.98245V3.48095C21.3263 3.0779 20.806 2.83395 20.0953 2.83395C18.7059 2.83395 17.5597 4.05371 17.5597 5.63475C17.5597 7.21579 18.7059 8.43555 20.0953 8.43555C20.806 8.43555 21.3263 8.19159 21.6764 7.78855V8.28705H23.2673V2.98245H21.6764ZM20.4135 6.92875C19.6817 6.92875 19.1513 6.43024 19.1513 5.63475C19.1513 4.83926 19.6817 4.34009 20.4135 4.34009C21.146 4.34009 21.6764 4.83926 21.6764 5.63475C21.6764 6.43024 21.146 6.92875 20.4135 6.92875Z" fill="#15324F"/>
<path d="M29.8352 2.83395C29.1239 2.83395 28.6041 3.0779 28.2541 3.48095V2.98245H26.6625V10.409H28.2541V7.78855C28.6041 8.19159 29.1239 8.43555 29.8352 8.43555C31.2246 8.43555 32.3708 7.21579 32.3708 5.63475C32.3708 4.05371 31.2246 2.83395 29.8352 2.83395ZM29.5163 6.92875C28.7845 6.92875 28.2541 6.43024 28.2541 5.63475C28.2541 4.83926 28.7845 4.34009 29.5163 4.34009C30.2488 4.34009 30.7791 4.83926 30.7791 5.63475C30.7791 6.43024 30.2488 6.92875 29.5163 6.92875Z" fill="#15324F"/>
<path d="M36.9114 2.98245V3.48095C36.5614 3.0779 36.041 2.83395 35.3304 2.83395C33.9409 2.83395 32.7947 4.05371 32.7947 5.63475C32.7947 7.21579 33.9409 8.43555 35.3304 8.43555C36.041 8.43555 36.5614 8.19159 36.9114 7.78855V8.28705H38.5024V2.98245H36.9114ZM35.6486 6.92875C34.9167 6.92875 34.3864 6.43024 34.3864 5.63475C34.3864 4.83926 34.9167 4.34009 35.6486 4.34009C36.3811 4.34009 36.9114 4.83926 36.9114 5.63475C36.9114 6.43024 36.3811 6.92875 35.6486 6.92875Z" fill="#15324F"/>
<path d="M41.049 3.92645V2.98247H39.4574V8.28708H41.049V5.88933C41.049 4.83928 41.9824 4.57412 42.6407 4.68018V2.8764C41.9718 2.8764 41.2612 3.21581 41.049 3.92645Z" fill="#15324F"/>
<path d="M46.2791 4.50981V2.98247H45.1866V1.49689L43.595 1.97418V2.98247H42.7465V4.50981H43.595V6.38784C43.595 7.87342 44.2002 8.49921 46.2791 8.28708V6.84392C45.5791 6.88635 45.1866 6.84392 45.1866 6.38784V4.50981H46.2791Z" fill="#15324F"/>
<path d="M48.4969 6.27114H52.2629C52.3053 6.06962 52.3265 5.85749 52.3265 5.63475C52.3265 4.0325 51.181 2.83395 49.6318 2.83395C47.9559 2.83395 46.8098 4.05371 46.8098 5.63475C46.8098 7.21579 47.9347 8.43555 49.7484 8.43555C50.7567 8.43555 51.5416 8.06432 52.0613 7.34307L50.7885 6.61055C50.5764 6.8439 50.2045 7.0136 49.7696 7.0136C49.1863 7.0136 48.6984 6.82268 48.4969 6.27114ZM48.465 5.08321C48.6135 4.54161 49.0166 4.24463 49.6212 4.24463C50.0985 4.24463 50.5764 4.46736 50.7461 5.08321H48.465Z" fill="#15324F"/>
<path d="M4.55277 9.24191V11.8624C4.20275 11.4593 3.68237 11.2154 2.97173 11.2154C1.58227 11.2154 0.436096 12.4352 0.436096 14.0162C0.436096 15.5972 1.58227 16.817 2.97173 16.817C3.68237 16.817 4.20275 16.573 4.55277 16.17V16.6685H6.14375V9.24191H4.55277ZM3.28992 15.3102C2.55807 15.3102 2.02774 14.8117 2.02774 14.0162C2.02774 13.2207 2.55807 12.7215 3.28992 12.7215C4.02244 12.7215 4.55277 13.2207 4.55277 14.0162C4.55277 14.8117 4.02244 15.3102 3.28992 15.3102Z" fill="#15324F"/>
<path d="M9.64496 16.817C11.2048 16.817 12.4564 15.5972 12.4564 14.0162C12.4564 12.4351 11.2048 11.2154 9.64496 11.2154C8.08579 11.2154 6.83356 12.4351 6.83356 14.0162C6.83356 15.5972 8.08579 16.817 9.64496 16.817ZM9.64496 15.2678C8.95553 15.2678 8.4252 14.7693 8.4252 14.0162C8.4252 13.2631 8.95553 12.764 9.64496 12.764C10.335 12.764 10.8654 13.2631 10.8654 14.0162C10.8654 14.7693 10.335 15.2678 9.64496 15.2678Z" fill="#15324F"/>
<path d="M18.6946 12.8912V11.3639H17.6022V9.8783L16.0105 10.3556V11.3639H15.162V12.8912H16.0105V14.7692C16.0105 16.2548 16.6157 16.8806 18.6946 16.6685V15.2253C17.9946 15.2678 17.6022 15.2253 17.6022 14.7692V12.8912H18.6946Z" fill="#15324F"/>
<path d="M20.2867 10.8972C20.8064 10.8972 21.2413 10.4617 21.2413 9.94196C21.2413 9.42223 20.8064 8.98737 20.2867 8.98737C19.7663 8.98737 19.3314 9.42223 19.3314 9.94196C19.3314 10.4617 19.7663 10.8972 20.2867 10.8972ZM19.4905 16.6685H21.0822V11.3639H19.4905V16.6685Z" fill="#15324F"/>
<path d="M27.9785 11.2154C27.2247 11.2154 26.7368 11.4912 26.4399 11.9154C26.1429 11.47 25.6762 11.2154 25.0497 11.2154C24.3391 11.2154 23.8724 11.4912 23.6285 11.8518V11.3639H22.0368V16.6685H23.6285V13.6768C23.6285 13.051 23.9254 12.6791 24.4558 12.6791C24.9649 12.6791 25.2201 13.0192 25.2201 13.5495V16.6685H26.8111V13.6768C26.8111 13.051 27.1081 12.6791 27.6384 12.6791C28.1482 12.6791 28.4027 13.0192 28.4027 13.5495V16.6685H29.9937V13.4116C29.9937 12.0851 29.1982 11.2154 27.9785 11.2154Z" fill="#15324F"/>
<path d="M32.2964 14.6526H36.0624C36.1048 14.4511 36.126 14.2389 36.126 14.0162C36.126 12.4139 34.9805 11.2154 33.4313 11.2154C31.7554 11.2154 30.6093 12.4351 30.6093 14.0162C30.6093 15.5972 31.7342 16.817 33.5479 16.817C34.5562 16.817 35.3411 16.4458 35.8608 15.7245L34.588 14.992C34.3759 15.2253 34.004 15.395 33.5691 15.395C32.9858 15.395 32.4979 15.2041 32.2964 14.6526ZM32.2645 13.4646C32.413 12.923 32.8161 12.6261 33.4207 12.6261C33.898 12.6261 34.3759 12.8488 34.5456 13.4646H32.2645Z" fill="#15324F"/>
<path d="M2.0443 18.9135V19.1018C1.91239 18.9493 1.71616 18.8578 1.44835 18.8578C0.924649 18.8578 0.492432 19.3179 0.492432 19.9138C0.492432 20.5098 0.924649 20.9692 1.44835 20.9692C1.71616 20.9692 1.91239 20.8777 2.0443 20.7252V21.7136H2.64424V18.9135H2.0443ZM1.56833 20.4017C1.29256 20.4017 1.09237 20.2135 1.09237 19.9138C1.09237 19.6135 1.29256 19.4253 1.56833 19.4253C1.84411 19.4253 2.0443 19.6135 2.0443 19.9138C2.0443 20.2135 1.84411 20.4017 1.56833 20.4017Z" fill="#6244BD"/>
<path d="M4.37558 18.9135V20.0053C4.37558 20.2897 4.22311 20.4176 4.00369 20.4176C3.81144 20.4176 3.65566 20.3016 3.65566 20.0537V18.9135H3.05573V20.1419C3.05573 20.6815 3.39978 20.9692 3.80349 20.9692C4.06733 20.9692 4.26753 20.8737 4.37558 20.7252V20.9135H4.97551V18.9135H4.37558Z" fill="#6244BD"/>
<path d="M5.95031 20.1538H7.37026C7.38617 20.0776 7.39412 19.9974 7.39412 19.9138C7.39412 19.3099 6.96257 18.8578 6.37855 18.8578C5.74679 18.8578 5.31458 19.3179 5.31458 19.9138C5.31458 20.5098 5.73884 20.9692 6.4223 20.9692C6.80281 20.9692 7.09847 20.8293 7.29469 20.5575L6.81474 20.2817C6.73453 20.3693 6.59465 20.4336 6.43025 20.4336C6.21083 20.4336 6.02654 20.3613 5.95031 20.1538ZM5.93837 19.7057C5.99472 19.5015 6.14653 19.3895 6.37457 19.3895C6.55422 19.3895 6.73453 19.4737 6.79817 19.7057H5.93837Z" fill="#6244BD"/>
<path d="M10.9734 18.8578C10.689 18.8578 10.5054 18.9619 10.3933 19.1217C10.2813 18.9539 10.105 18.8578 9.86896 18.8578C9.60115 18.8578 9.42548 18.9619 9.33333 19.0978V18.9135H8.7334V20.9135H9.33333V19.7859C9.33333 19.5499 9.44536 19.4094 9.64556 19.4094C9.83714 19.4094 9.93327 19.5373 9.93327 19.7375V20.9135H10.5332V19.7859C10.5332 19.5499 10.6452 19.4094 10.8454 19.4094C11.037 19.4094 11.1331 19.5373 11.1331 19.7375V20.9135H11.7331V19.6858C11.7331 19.1853 11.4334 18.8578 10.9734 18.8578Z" fill="#6244BD"/>
<path d="M13.5958 18.9135V19.1018C13.4638 18.9493 13.2676 18.8578 12.9998 18.8578C12.4761 18.8578 12.0439 19.3179 12.0439 19.9138C12.0439 20.5098 12.4761 20.9692 12.9998 20.9692C13.2676 20.9692 13.4638 20.8777 13.5958 20.7252V20.9135H14.1957V18.9135H13.5958ZM13.1198 20.4017C12.844 20.4017 12.6438 20.2135 12.6438 19.9138C12.6438 19.6135 12.844 19.4253 13.1198 19.4253C13.3956 19.4253 13.5958 19.6135 13.5958 19.9138C13.5958 20.2135 13.3956 20.4017 13.1198 20.4017Z" fill="#6244BD"/>
<path d="M14.9347 18.7378C15.1309 18.7378 15.2946 18.5734 15.2946 18.3779C15.2946 18.1817 15.1309 18.0179 14.9347 18.0179C14.7391 18.0179 14.5747 18.1817 14.5747 18.3779C14.5747 18.5734 14.7391 18.7378 14.9347 18.7378ZM14.635 20.9135H15.235V18.9135H14.635V20.9135Z" fill="#6244BD"/>
<path d="M16.2427 19.4975C16.2427 19.4253 16.3064 19.3855 16.4104 19.3855C16.5424 19.3855 16.6226 19.4578 16.6782 19.5618L17.1907 19.2854C17.0223 19.0017 16.7346 18.8578 16.4104 18.8578C15.9948 18.8578 15.6262 19.0779 15.6262 19.5134C15.6262 20.2055 16.6106 20.0895 16.6106 20.3096C16.6106 20.3898 16.5384 20.4336 16.3945 20.4336C16.2182 20.4336 16.1062 20.3494 16.0545 20.1976L15.5347 20.4932C15.6905 20.8174 15.9948 20.9692 16.3945 20.9692C16.8267 20.9692 17.2265 20.7736 17.2265 20.3136C17.2265 19.5738 16.2427 19.7256 16.2427 19.4975Z" fill="#6244BD"/>
<path d="M19.5054 20.9692C19.8972 20.9692 20.2373 20.7657 20.4096 20.4534L19.8853 20.1538C19.8216 20.2937 19.6731 20.3772 19.4975 20.3772C19.2376 20.3772 19.0454 20.1896 19.0454 19.9138C19.0454 19.6374 19.2376 19.4498 19.4975 19.4498C19.6731 19.4498 19.8177 19.5333 19.8853 19.6739L20.4096 19.3696C20.2373 19.0613 19.8932 18.8578 19.5054 18.8578C18.8975 18.8578 18.4454 19.3179 18.4454 19.9138C18.4454 20.5098 18.8975 20.9692 19.5054 20.9692Z" fill="#6244BD"/>
<path d="M21.2686 19.2695V18.9135H20.6686V20.9135H21.2686V20.0093C21.2686 19.6135 21.6206 19.5134 21.8685 19.5539V18.8737C21.6166 18.8737 21.3488 19.0017 21.2686 19.2695Z" fill="#6244BD"/>
<path d="M22.6837 20.1538H24.1037C24.1196 20.0776 24.1275 19.9974 24.1275 19.9138C24.1275 19.3099 23.696 18.8578 23.1119 18.8578C22.4802 18.8578 22.048 19.3179 22.048 19.9138C22.048 20.5098 22.4722 20.9692 23.1557 20.9692C23.5362 20.9692 23.8319 20.8293 24.0281 20.5575L23.5481 20.2817C23.4679 20.3693 23.3281 20.4336 23.1637 20.4336C22.9442 20.4336 22.7599 20.3613 22.6837 20.1538ZM22.6718 19.7057C22.7281 19.5015 22.8799 19.3895 23.108 19.3895C23.2876 19.3895 23.4679 19.4737 23.5316 19.7057H22.6718Z" fill="#6244BD"/>
<path d="M25.0353 19.4975C25.0353 19.4253 25.0989 19.3855 25.203 19.3855C25.3349 19.3855 25.4151 19.4578 25.4708 19.5618L25.9832 19.2854C25.8148 19.0017 25.5271 18.8578 25.203 18.8578C24.7873 18.8578 24.4188 19.0779 24.4188 19.5134C24.4188 20.2055 25.4032 20.0895 25.4032 20.3096C25.4032 20.3898 25.3309 20.4336 25.1871 20.4336C25.0107 20.4336 24.8987 20.3494 24.847 20.1976L24.3273 20.4932C24.4831 20.8174 24.7873 20.9692 25.1871 20.9692C25.6193 20.9692 26.019 20.7736 26.019 20.3136C26.019 19.5738 25.0353 19.7256 25.0353 19.4975Z" fill="#6244BD"/>
<path d="M27.2983 20.9692C27.6901 20.9692 28.0301 20.7657 28.2025 20.4534L27.6781 20.1538C27.6145 20.2937 27.466 20.3772 27.2903 20.3772C27.0305 20.3772 26.8382 20.1896 26.8382 19.9138C26.8382 19.6374 27.0305 19.4498 27.2903 19.4498C27.466 19.4498 27.6105 19.5333 27.6781 19.6739L28.2025 19.3696C28.0301 19.0613 27.6861 18.8578 27.2983 18.8578C26.6904 18.8578 26.2383 19.3179 26.2383 19.9138C26.2383 20.5098 26.6904 20.9692 27.2983 20.9692Z" fill="#6244BD"/>
<path d="M28.9972 20.1538H30.4172C30.4331 20.0776 30.4411 19.9974 30.4411 19.9138C30.4411 19.3099 30.0095 18.8578 29.4255 18.8578C28.7937 18.8578 28.3615 19.3179 28.3615 19.9138C28.3615 20.5098 28.7858 20.9692 29.4692 20.9692C29.8497 20.9692 30.1454 20.8293 30.3416 20.5575L29.8617 20.2817C29.7815 20.3693 29.6416 20.4336 29.4772 20.4336C29.2578 20.4336 29.0735 20.3613 28.9972 20.1538ZM28.9853 19.7057C29.0417 19.5015 29.1935 19.3895 29.4215 19.3895C29.6012 19.3895 29.7815 19.4737 29.8451 19.7057H28.9853Z" fill="#6244BD"/>
<path d="M32.3158 20.1538H33.7358C33.7517 20.0776 33.7597 19.9974 33.7597 19.9138C33.7597 19.3099 33.3281 18.8578 32.7441 18.8578C32.1123 18.8578 31.6801 19.3179 31.6801 19.9138C31.6801 20.5098 32.1044 20.9692 32.7878 20.9692C33.1683 20.9692 33.464 20.8293 33.6602 20.5575L33.1803 20.2817C33.1001 20.3693 32.9602 20.4336 32.7958 20.4336C32.5764 20.4336 32.3921 20.3613 32.3158 20.1538ZM32.3039 19.7057C32.3603 19.5015 32.5121 19.3895 32.7401 19.3895C32.9198 19.3895 33.1001 19.4737 33.1637 19.7057H32.3039Z" fill="#6244BD"/>
<path d="M36.3393 18.8578C36.0549 18.8578 35.8713 18.9619 35.7592 19.1217C35.6472 18.9539 35.4709 18.8578 35.2349 18.8578C34.9671 18.8578 34.7914 18.9619 34.6992 19.0978V18.9135H34.0993V20.9135H34.6992V19.7859C34.6992 19.5499 34.8113 19.4094 35.0115 19.4094C35.203 19.4094 35.2992 19.5373 35.2992 19.7375V20.9135H35.8991V19.7859C35.8991 19.5499 36.0111 19.4094 36.2113 19.4094C36.4029 19.4094 36.499 19.5373 36.499 19.7375V20.9135H37.099V19.6858C37.099 19.1853 36.7993 18.8578 36.3393 18.8578Z" fill="#6244BD"/>
<path d="M39.7055 18.8578C39.4377 18.8578 39.2415 18.9493 39.1096 19.1018V18.1134H38.5096V20.9135H39.1096V20.7252C39.2415 20.8777 39.4377 20.9692 39.7055 20.9692C40.2292 20.9692 40.6614 20.5098 40.6614 19.9138C40.6614 19.3179 40.2292 18.8578 39.7055 18.8578ZM39.5855 20.4017C39.3098 20.4017 39.1096 20.2135 39.1096 19.9138C39.1096 19.6135 39.3098 19.4253 39.5855 19.4253C39.8613 19.4253 40.0615 19.6135 40.0615 19.9138C40.0615 20.2135 39.8613 20.4017 39.5855 20.4017Z" fill="#6244BD"/>
<path d="M42.2926 18.9135V20.0053C42.2926 20.2897 42.1402 20.4176 41.9207 20.4176C41.7285 20.4176 41.5727 20.3016 41.5727 20.0537V18.9135H40.9728V20.1419C40.9728 20.6815 41.3168 20.9692 41.7205 20.9692C41.9844 20.9692 42.1846 20.8737 42.2926 20.7252V20.9135H42.8926V18.9135H42.2926Z" fill="#6244BD"/>
<path d="M43.8998 19.4975C43.8998 19.4253 43.9635 19.3855 44.0675 19.3855C44.1995 19.3855 44.2797 19.4578 44.3354 19.5618L44.8478 19.2854C44.6794 19.0017 44.3917 18.8578 44.0675 18.8578C43.6519 18.8578 43.2833 19.0779 43.2833 19.5134C43.2833 20.2055 44.2677 20.0895 44.2677 20.3096C44.2677 20.3898 44.1955 20.4336 44.0516 20.4336C43.8753 20.4336 43.7633 20.3494 43.7116 20.1976L43.1918 20.4932C43.3476 20.8174 43.6519 20.9692 44.0516 20.9692C44.4838 20.9692 44.8836 20.7736 44.8836 20.3136C44.8836 19.5738 43.8998 19.7256 43.8998 19.4975Z" fill="#6244BD"/>
<path d="M46.1628 20.9692C46.5546 20.9692 46.8947 20.7657 47.067 20.4534L46.5427 20.1538C46.479 20.2937 46.3306 20.3772 46.1549 20.3772C45.895 20.3772 45.7028 20.1896 45.7028 19.9138C45.7028 19.6374 45.895 19.4498 46.1549 19.4498C46.3306 19.4498 46.4751 19.5333 46.5427 19.6739L47.067 19.3696C46.8947 19.0613 46.5506 18.8578 46.1628 18.8578C45.5549 18.8578 45.1028 19.3179 45.1028 19.9138C45.1028 20.5098 45.5549 20.9692 46.1628 20.9692Z" fill="#6244BD"/>
<path d="M48.7779 18.9135V19.1018C48.646 18.9493 48.4497 18.8578 48.1819 18.8578C47.6582 18.8578 47.226 19.3179 47.226 19.9138C47.226 20.5098 47.6582 20.9692 48.1819 20.9692C48.4497 20.9692 48.646 20.8777 48.7779 20.7252V20.9135H49.3778V18.9135H48.7779ZM48.3019 20.4017C48.0261 20.4017 47.8259 20.2135 47.8259 19.9138C47.8259 19.6135 48.0261 19.4253 48.3019 19.4253C48.5777 19.4253 48.7779 19.6135 48.7779 19.9138C48.7779 20.2135 48.5777 20.4017 48.3019 20.4017Z" fill="#6244BD"/>
<path d="M52.2685 18.1134V19.1018C52.1366 18.9493 51.9403 18.8578 51.6725 18.8578C51.1488 18.8578 50.7166 19.3179 50.7166 19.9138C50.7166 20.5098 51.1488 20.9692 51.6725 20.9692C51.9403 20.9692 52.1366 20.8777 52.2685 20.7252V20.9135H52.8684V18.1134H52.2685ZM51.7925 20.4017C51.5167 20.4017 51.3165 20.2135 51.3165 19.9138C51.3165 19.6135 51.5167 19.4253 51.7925 19.4253C52.0683 19.4253 52.2685 19.6135 52.2685 19.9138C52.2685 20.2135 52.0683 20.4017 51.7925 20.4017Z" fill="#6244BD"/>
<path d="M54.7596 18.9135V19.1018C54.6277 18.9493 54.4314 18.8578 54.1636 18.8578C53.6399 18.8578 53.2077 19.3179 53.2077 19.9138C53.2077 20.5098 53.6399 20.9692 54.1636 20.9692C54.4314 20.9692 54.6277 20.8777 54.7596 20.7252V20.9135H55.3595V18.9135H54.7596ZM54.2836 20.4017C54.0078 20.4017 53.8076 20.2135 53.8076 19.9138C53.8076 19.6135 54.0078 19.4253 54.2836 19.4253C54.5594 19.4253 54.7596 19.6135 54.7596 19.9138C54.7596 20.2135 54.5594 20.4017 54.2836 20.4017Z" fill="#6244BD"/>
<path d="M1.76326 23.7542C1.76326 23.6276 1.87662 23.5566 2.06024 23.5566C2.29292 23.5566 2.43412 23.6839 2.5329 23.8675L3.43711 23.3803C3.14012 22.8791 2.63167 22.6246 2.06024 22.6246C1.32574 22.6246 0.676085 23.013 0.676085 23.7827C0.676085 25.0044 2.41291 24.7996 2.41291 25.188C2.41291 25.3292 2.28563 25.4068 2.03174 25.4068C1.72083 25.4068 1.52328 25.2583 1.4318 24.9898L0.513672 25.5129C0.78878 26.0843 1.32574 26.3528 2.03174 26.3528C2.79408 26.3528 3.50008 26.0067 3.50008 25.1947C3.50008 23.8887 1.76326 24.1572 1.76326 23.7542Z" fill="#6244BD"/>
<path d="M6.34472 22.7233V24.6511C6.34472 25.1522 6.07624 25.3783 5.68844 25.3783C5.34903 25.3783 5.07392 25.1734 5.07392 24.7359V22.7233H4.01459V24.891C4.01459 25.8443 4.62181 26.3528 5.3351 26.3528C5.80113 26.3528 6.15446 26.1831 6.34472 25.9219V26.254H7.40405V22.7233H6.34472Z" fill="#6244BD"/>
<path d="M10.7423 22.7233V23.0555C10.5096 22.787 10.1635 22.6246 9.69022 22.6246C8.76546 22.6246 8.00311 23.4366 8.00311 24.4887C8.00311 25.5407 8.76546 26.3528 9.69022 26.3528C10.1635 26.3528 10.5096 26.1904 10.7423 25.9219V26.254H11.8016V22.7233H10.7423ZM9.90235 25.3505C9.41511 25.3505 9.06178 25.0183 9.06178 24.4887C9.06178 23.959 9.41511 23.6276 9.90235 23.6276C10.3896 23.6276 10.7423 23.959 10.7423 24.4887C10.7423 25.0183 10.3896 25.3505 9.90235 25.3505Z" fill="#6244BD"/>
<path d="M18.295 22.6246C17.7939 22.6246 17.469 22.8082 17.2715 23.0906C17.0739 22.7943 16.763 22.6246 16.3467 22.6246C15.8734 22.6246 15.5625 22.8082 15.4001 23.0482V22.7233H14.3414V26.254H15.4001V24.2626C15.4001 23.8463 15.5983 23.5991 15.951 23.5991C16.2904 23.5991 16.4594 23.8251 16.4594 24.1784V26.254H17.5188V24.2626C17.5188 23.8463 17.7163 23.5991 18.0696 23.5991C18.4084 23.5991 18.5781 23.8251 18.5781 24.1784V26.254H19.6368V24.0863C19.6368 23.204 19.1071 22.6246 18.295 22.6246Z" fill="#6244BD"/>
<path d="M21.3082 24.9123H23.8147C23.8432 24.7784 23.8571 24.6372 23.8571 24.4887C23.8571 23.4227 23.0948 22.6246 22.0639 22.6246C20.9483 22.6246 20.1859 23.4366 20.1859 24.4887C20.1859 25.5407 20.9343 26.3528 22.1415 26.3528C22.8124 26.3528 23.3347 26.1055 23.6808 25.6256L22.8336 25.1383C22.6924 25.2934 22.4451 25.4068 22.1554 25.4068C21.767 25.4068 21.4421 25.2795 21.3082 24.9123ZM21.287 24.1214C21.3858 23.7615 21.6543 23.5639 22.0566 23.5639C22.3742 23.5639 22.6924 23.7124 22.8051 24.1214H21.287Z" fill="#6244BD"/>
<path d="M24.4562 26.254H25.5149V21.0999H24.4562V26.254Z" fill="#6244BD"/>
<path d="M28.3604 22.6246C27.8944 22.6246 27.541 22.7943 27.3501 23.0555V21.3113H26.2914V26.254H27.3501V24.3263C27.3501 23.8251 27.6186 23.599 28.0071 23.599C28.3458 23.599 28.6216 23.8039 28.6216 24.2414V26.254H29.6802V24.0863C29.6802 23.133 29.073 22.6246 28.3604 22.6246Z" fill="#6244BD"/>
<path d="M32.1009 26.3528C33.139 26.3528 33.9723 25.5407 33.9723 24.4887C33.9723 23.4366 33.139 22.6246 32.1009 22.6246C31.0628 22.6246 30.2302 23.4366 30.2302 24.4887C30.2302 25.5407 31.0628 26.3528 32.1009 26.3528ZM32.1009 25.322C31.6422 25.322 31.2888 24.9898 31.2888 24.4887C31.2888 23.9875 31.6422 23.6554 32.1009 23.6554C32.5596 23.6554 32.913 23.9875 32.913 24.4887C32.913 24.9898 32.5596 25.322 32.1009 25.322Z" fill="#6244BD"/>
<path d="M35.6297 23.3518V22.7233H34.571V26.254H35.6297V24.6584C35.6297 23.959 36.2515 23.7827 36.689 23.8536V22.6531C36.2442 22.6531 35.7715 22.8791 35.6297 23.3518Z" fill="#6244BD"/>
<path d="M41.1999 22.7233L40.4654 24.962L39.7309 22.7233H38.5588L39.8648 26.254H41.0653L42.3719 22.7233H41.1999Z" fill="#6244BD"/>
<path d="M43.7048 24.9123H46.2113C46.2398 24.7784 46.2537 24.6372 46.2537 24.4887C46.2537 23.4227 45.4914 22.6246 44.4605 22.6246C43.3449 22.6246 42.5825 23.4366 42.5825 24.4887C42.5825 25.5407 43.3309 26.3528 44.5381 26.3528C45.209 26.3528 45.7313 26.1055 46.0774 25.6256L45.2302 25.1383C45.089 25.2934 44.8417 25.4068 44.552 25.4068C44.1636 25.4068 43.8387 25.2795 43.7048 24.9123ZM43.6836 24.1214C43.7824 23.7615 44.0509 23.5639 44.4533 23.5639C44.7708 23.5639 45.089 23.7124 45.2017 24.1214H43.6836Z" fill="#6244BD"/>
<path d="M47.9114 23.3518V22.7233H46.8527V26.254H47.9114V24.6584C47.9114 23.959 48.5332 23.7827 48.9707 23.8536V22.6531C48.5259 22.6531 48.0533 22.8791 47.9114 23.3518Z" fill="#6244BD"/>
<path d="M50.4667 23.7542C50.4667 23.6276 50.58 23.5566 50.7637 23.5566C50.9964 23.5566 51.1376 23.6839 51.2363 23.8675L52.1405 23.3803C51.8436 22.8791 51.3351 22.6246 50.7637 22.6246C50.0292 22.6246 49.3795 23.013 49.3795 23.7827C49.3795 25.0044 51.1163 24.7996 51.1163 25.188C51.1163 25.3292 50.9891 25.4068 50.7352 25.4068C50.4243 25.4068 50.2267 25.2583 50.1352 24.9898L49.2171 25.5129C49.4922 26.0843 50.0292 26.3528 50.7352 26.3528C51.4975 26.3528 52.2035 26.0067 52.2035 25.1947C52.2035 23.8887 50.4667 24.1572 50.4667 23.7542Z" fill="#6244BD"/>
<path d="M54.4482 22.1798C55.0905 22.5755 55.8317 22.4482 55.8317 21.2411H54.9845C54.9845 21.5235 54.9208 21.5586 54.6809 21.4101C54.0385 21.015 53.2974 21.1423 53.2974 22.3495H54.1446C54.1446 22.0671 54.2082 22.0319 54.4482 22.1798ZM55.3305 22.7234V23.0555C55.0978 22.787 54.7518 22.6246 54.2785 22.6246C53.3537 22.6246 52.5914 23.4366 52.5914 24.4887C52.5914 25.5407 53.3537 26.3528 54.2785 26.3528C54.7518 26.3528 55.0978 26.1904 55.3305 25.9219V26.254H56.3898V22.7234H55.3305ZM54.4906 25.3505C54.0034 25.3505 53.65 25.0183 53.65 24.4887C53.65 23.959 54.0034 23.6276 54.4906 23.6276C54.9778 23.6276 55.3305 23.959 55.3305 24.4887C55.3305 25.0183 54.9778 25.3505 54.4906 25.3505Z" fill="#6244BD"/>
<path d="M58.8596 26.3528C59.8977 26.3528 60.731 25.5407 60.731 24.4887C60.731 23.4366 59.8977 22.6246 58.8596 22.6246C57.8214 22.6246 56.9888 23.4366 56.9888 24.4887C56.9888 25.5407 57.8214 26.3528 58.8596 26.3528ZM58.8596 25.322C58.4008 25.322 58.0475 24.9898 58.0475 24.4887C58.0475 23.9875 58.4008 23.6554 58.8596 23.6554C59.3183 23.6554 59.6716 23.9875 59.6716 24.4887C59.6716 24.9898 59.3183 25.322 58.8596 25.322Z" fill="#6244BD"/>
</svg>
