<svg width="64" height="26" viewBox="0 0 64 26" fill="none" xmlns="http://www.w3.org/2000/svg">
<path d="M1.32809 2.41807C1.32809 2.30538 1.42818 2.24306 1.5906 2.24306C1.7961 2.24306 1.92139 2.35576 2.00889 2.51817L2.80836 2.08728C2.54585 1.64379 2.0964 1.41907 1.5906 1.41907C0.940946 1.41907 0.366203 1.76245 0.366203 2.44326C0.366203 3.52381 1.90283 3.34217 1.90283 3.68556C1.90283 3.81085 1.79013 3.87979 1.56541 3.87979C1.2903 3.87979 1.11595 3.74853 1.03442 3.51121L0.222351 3.97326C0.466302 4.47906 0.940946 4.71638 1.56541 4.71638C2.23959 4.71638 2.86405 4.41012 2.86405 3.69219C2.86405 2.53673 1.32809 2.77406 1.32809 2.41807Z" fill="#6244BD"/>
<path d="M4.53766 1.0253C5.10644 1.37531 5.76205 1.26262 5.76205 0.194672H5.0123C5.0123 0.444589 4.95595 0.475746 4.74382 0.344489C4.17571 -0.00486439 3.52009 0.107167 3.52009 1.17512H4.26918C4.26918 0.925199 4.32553 0.894042 4.53766 1.0253ZM5.31857 1.50657V1.79958C5.1124 1.56226 4.80614 1.41907 4.38784 1.41907C3.56981 1.41907 2.89563 2.137 2.89563 3.06772C2.89563 3.99845 3.56981 4.71638 4.38784 4.71638C4.80614 4.71638 5.1124 4.57253 5.31857 4.33521V4.62888H6.25526V1.50657H5.31857ZM4.57544 3.82941C4.14455 3.82941 3.83232 3.53574 3.83232 3.06772C3.83232 2.59905 4.14455 2.30538 4.57544 2.30538C5.00634 2.30538 5.31857 2.59905 5.31857 3.06772C5.31857 3.53574 5.00634 3.82941 4.57544 3.82941Z" fill="#6244BD"/>
<path d="M8.1285 4.71638C9.04663 4.71638 9.78379 3.99845 9.78379 3.06773C9.78379 2.137 9.04663 1.41907 8.1285 1.41907C7.21037 1.41907 6.47388 2.137 6.47388 3.06773C6.47388 3.99845 7.21037 4.71638 8.1285 4.71638ZM8.1285 3.80422C7.7228 3.80422 7.41057 3.51121 7.41057 3.06773C7.41057 2.62424 7.7228 2.33057 8.1285 2.33057C8.5342 2.33057 8.8471 2.62424 8.8471 3.06773C8.8471 3.51121 8.5342 3.80422 8.1285 3.80422Z" fill="#6244BD"/>
<path d="M14.7482 1.41907C14.3048 1.41907 14.0177 1.58148 13.8427 1.83073C13.6677 1.56889 13.3926 1.41907 13.0247 1.41907C12.6057 1.41907 12.3313 1.58148 12.1874 1.79361V1.50657H11.2507V4.62888H12.1874V2.86753C12.1874 2.49961 12.3624 2.28085 12.6747 2.28085C12.9743 2.28085 13.1241 2.48039 13.1241 2.79262V4.62888H14.0608V2.86753C14.0608 2.49961 14.2358 2.28085 14.548 2.28085C14.8483 2.28085 14.9982 2.48039 14.9982 2.79262V4.62888H15.9349V2.71174C15.9349 1.93083 15.4662 1.41907 14.7482 1.41907Z" fill="#6244BD"/>
<path d="M18.5324 1.50657V1.79958C18.3263 1.56226 18.02 1.41907 17.6017 1.41907C16.7837 1.41907 16.1095 2.137 16.1095 3.06773C16.1095 3.99845 16.7837 4.71638 17.6017 4.71638C18.02 4.71638 18.3263 4.57253 18.5324 4.33521V4.62888H19.4691V1.50657H18.5324ZM17.7893 3.82941C17.3584 3.82941 17.0462 3.53574 17.0462 3.06773C17.0462 2.59905 17.3584 2.30538 17.7893 2.30538C18.2202 2.30538 18.5324 2.59905 18.5324 3.06773C18.5324 3.53574 18.2202 3.82941 17.7893 3.82941Z" fill="#6244BD"/>
<path d="M20.3123 1.23146C20.6179 1.23146 20.8744 0.975575 20.8744 0.66931C20.8744 0.363709 20.6179 0.107162 20.3123 0.107162C20.006 0.107162 19.7501 0.363709 19.7501 0.66931C19.7501 0.975575 20.006 1.23146 20.3123 1.23146ZM19.8436 4.62887H20.7803V1.50657H19.8436V4.62887Z" fill="#6244BD"/>
<path d="M22.0419 2.41807C22.0419 2.30538 22.142 2.24306 22.3044 2.24306C22.5099 2.24306 22.6352 2.35576 22.7227 2.51817L23.5222 2.08728C23.2597 1.64379 22.8102 1.41907 22.3044 1.41907C21.6548 1.41907 21.08 1.76245 21.08 2.44326C21.08 3.52381 22.6166 3.34217 22.6166 3.68556C22.6166 3.81085 22.5039 3.87979 22.2792 3.87979C22.0041 3.87979 21.8298 3.74853 21.7482 3.51121L20.9362 3.97326C21.1801 4.47906 21.6548 4.71638 22.2792 4.71638C22.9534 4.71638 23.5779 4.41012 23.5779 3.69219C23.5779 2.53673 22.0419 2.77406 22.0419 2.41807Z" fill="#6244BD"/>
<path d="M27.2813 0.256989V1.79958C27.0751 1.56226 26.7688 1.41907 26.3505 1.41907C25.5325 1.41907 24.8583 2.137 24.8583 3.06773C24.8583 3.99845 25.5325 4.71639 26.3505 4.71639C26.7688 4.71639 27.0751 4.57253 27.2813 4.33521V4.62888H28.218V0.256989H27.2813ZM26.5382 3.82941C26.1073 3.82941 25.795 3.53574 25.795 3.06773C25.795 2.59905 26.1073 2.30538 26.5382 2.30538C26.969 2.30538 27.2813 2.59905 27.2813 3.06773C27.2813 3.53574 26.969 3.82941 26.5382 3.82941Z" fill="#6244BD"/>
<path d="M29.4296 3.44227H31.6464C31.6716 3.32361 31.6835 3.19898 31.6835 3.06773C31.6835 2.1244 31.0093 1.41907 30.0978 1.41907C29.1108 1.41907 28.4366 2.137 28.4366 3.06773C28.4366 3.99845 29.0982 4.71638 30.1661 4.71638C30.7594 4.71638 31.2215 4.49762 31.5277 4.07336L30.778 3.64247C30.6534 3.77969 30.4346 3.87979 30.1787 3.87979C29.8353 3.87979 29.5483 3.7671 29.4296 3.44227ZM29.4104 2.7429C29.4979 2.42404 29.7352 2.24969 30.0912 2.24969C30.3723 2.24969 30.6534 2.38095 30.7535 2.7429H29.4104Z" fill="#6244BD"/>
<path d="M0.512046 19.9596H9.47658V17.0593H5.05099L7.23528 14.8558C8.44112 13.6507 9.28832 12.2943 9.28832 10.7126C9.28832 8.05702 7.17893 6.51244 4.82494 6.51244C2.99796 6.51244 1.22799 7.43521 0.380127 9.39411L2.92239 10.8817C3.28036 10.053 3.93996 9.45045 4.86273 9.45045C5.74771 9.45045 6.27473 10.0159 6.27473 10.8446C6.27473 11.6162 5.70993 12.3885 4.93763 13.1793L0.512046 17.7746V19.9596Z" fill="#6244BD"/>
<path d="M15.126 20.2234C18.5347 20.2234 20.4936 17.4359 20.4936 13.3683C20.4936 9.29997 18.5347 6.51244 15.126 6.51244C11.7173 6.51244 9.75842 9.29997 9.75842 13.3683C9.75842 17.4359 11.7173 20.2234 15.126 20.2234ZM15.126 17.2854C13.5443 17.2854 12.772 15.9105 12.772 13.3683C12.772 10.8253 13.5443 9.45045 15.126 9.45045C16.7084 9.45045 17.48 10.8253 17.48 13.3683C17.48 15.9105 16.7084 17.2854 15.126 17.2854Z" fill="#6244BD"/>
<path d="M22.7526 20.2234C23.7324 20.2234 24.5418 19.4133 24.5418 18.4342C24.5418 17.4544 23.7324 16.645 22.7526 16.645C21.7735 16.645 20.9634 17.4544 20.9634 18.4342C20.9634 19.4133 21.7735 20.2234 22.7526 20.2234Z" fill="#6244BD"/>
<path d="M30.3799 20.2234C33.7886 20.2234 35.7475 17.4359 35.7475 13.3683C35.7475 9.29997 33.7886 6.51244 30.3799 6.51244C26.9712 6.51244 25.0123 9.29997 25.0123 13.3683C25.0123 17.4359 26.9712 20.2234 30.3799 20.2234ZM30.3799 17.2854C28.7982 17.2854 28.0259 15.9105 28.0259 13.3683C28.0259 10.8253 28.7982 9.45045 30.3799 9.45045C31.9623 9.45045 32.7339 10.8253 32.7339 13.3683C32.7339 15.9105 31.9623 17.2854 30.3799 17.2854Z" fill="#6244BD"/>
<path d="M41.3025 20.2234C44.7112 20.2234 46.6701 17.4359 46.6701 13.3683C46.6701 9.29997 44.7112 6.51244 41.3025 6.51244C37.8938 6.51244 35.9349 9.29997 35.9349 13.3683C35.9349 17.4359 37.8938 20.2234 41.3025 20.2234ZM41.3025 17.2854C39.7208 17.2854 38.9485 15.9105 38.9485 13.3683C38.9485 10.8253 39.7208 9.45045 41.3025 9.45045C42.8849 9.45045 43.6565 10.8253 43.6565 13.3683C43.6565 15.9105 42.8849 17.2854 41.3025 17.2854Z" fill="#6244BD"/>
<path d="M52.2251 20.2234C55.6338 20.2234 57.5927 17.4359 57.5927 13.3683C57.5927 9.29997 55.6338 6.51244 52.2251 6.51244C48.8164 6.51244 46.8575 9.29997 46.8575 13.3683C46.8575 17.4359 48.8164 20.2234 52.2251 20.2234ZM52.2251 17.2854C50.6434 17.2854 49.8711 15.9105 49.8711 13.3683C49.8711 10.8253 50.6434 9.45045 52.2251 9.45045C53.8075 9.45045 54.5791 10.8253 54.5791 13.3683C54.5791 15.9105 53.8075 17.2854 52.2251 17.2854Z" fill="#6244BD"/>
<path d="M52.4759 10.9755H60.9307C61.3198 10.9755 61.6924 11.1293 61.9675 11.4044C62.2426 11.6788 62.3971 12.052 62.3971 12.4405V15.3706C62.3971 15.759 62.2426 16.1316 61.9675 16.4067C61.6924 16.6811 61.3198 16.8356 60.9307 16.8356H52.4759C51.6665 16.8356 51.0096 16.18 51.0096 15.3706V12.4405C51.0096 11.6311 51.6665 10.9755 52.4759 10.9755Z" fill="#E8E6E6"/>
<path d="M54.1982 13.282L53.485 14.9738L52.775 13.282H52.5708L53.3716 15.17H53.6016L54.3984 13.282H54.1982Z" fill="#2C445D"/>
<path d="M54.6477 12.8246C54.7305 12.8246 54.7988 12.757 54.7988 12.6741C54.7988 12.5946 54.7305 12.5263 54.6477 12.5263C54.5648 12.5263 54.4965 12.5946 54.4965 12.6741C54.4965 12.757 54.5648 12.8246 54.6477 12.8246ZM54.5535 15.17H54.7418V13.282H54.5535V15.17Z" fill="#2C445D"/>
<path d="M56.8003 12.5263V13.7195C56.6452 13.4292 56.3548 13.2403 55.9882 13.2403C55.448 13.2403 55.0104 13.6672 55.0104 14.226C55.0104 14.7848 55.448 15.2118 55.9882 15.2118C56.3548 15.2118 56.6452 15.0228 56.8003 14.7318V15.17H56.9892V12.5263H56.8003ZM55.9995 15.0301C55.55 15.0301 55.1987 14.6755 55.1987 14.226C55.1987 13.7766 55.55 13.4212 55.9995 13.4212C56.449 13.4212 56.8003 13.7766 56.8003 14.226C56.8003 14.6755 56.449 15.0301 55.9995 15.0301Z" fill="#2C445D"/>
<path d="M59.0431 13.282V13.7083C58.8847 13.4252 58.5936 13.2403 58.231 13.2403C57.6947 13.2403 57.2532 13.6672 57.2532 14.226C57.2532 14.7848 57.6947 15.2118 58.231 15.2118C58.5936 15.2118 58.8847 15.0268 59.0431 14.7431V15.17H59.236V13.282H59.0431ZM58.2463 15.0301C57.7968 15.0301 57.4455 14.6755 57.4455 14.226C57.4455 13.7766 57.7968 13.4212 58.2463 13.4212C58.6957 13.4212 59.0431 13.7766 59.0431 14.226C59.0431 14.6755 58.6957 15.0301 58.2463 15.0301Z" fill="#2C445D"/>
<path d="M59.7566 13.7766C59.7566 13.5498 59.9647 13.4212 60.21 13.4212C60.4175 13.4212 60.6137 13.5121 60.6933 13.7083L60.8517 13.6181C60.7503 13.3874 60.5156 13.2403 60.21 13.2403C59.8249 13.2403 59.5676 13.4782 59.5676 13.7766C59.5676 14.456 60.7125 14.1617 60.7125 14.6755C60.7125 14.9135 60.4891 15.0301 60.2253 15.0301C59.9415 15.0301 59.738 14.9022 59.6697 14.698L59.5073 14.7921C59.5981 15.0341 59.8474 15.2118 60.2253 15.2118C60.629 15.2118 60.9008 14.985 60.9008 14.6755C60.9008 13.9841 59.7566 14.2824 59.7566 13.7766Z" fill="#2C445D"/>
<path d="M2.15803 22.5906V22.2877H1.23593V21.4213L0.92038 21.5141V22.2877H0.240234V22.5906H0.92038V24.6019C0.92038 25.3072 1.34729 25.5055 2.15803 25.3815V25.1031C1.52694 25.1588 1.23593 25.1462 1.23593 24.6019V22.5906H2.15803Z" fill="#2C445D"/>
<path d="M2.90029 22.8943V22.2877H2.59137V25.3815H2.90029V23.6612C2.90029 22.8691 3.40145 22.5416 3.93376 22.5416V22.2446C3.51281 22.2446 3.11109 22.405 2.90029 22.8943Z" fill="#2C445D"/>
<path d="M6.97207 22.2877V22.9871C6.71221 22.523 6.23558 22.2194 5.64161 22.2194C4.76259 22.2194 4.0387 22.9188 4.0387 23.8349C4.0387 24.7504 4.76259 25.4498 5.64161 25.4498C6.23558 25.4498 6.71221 25.1462 6.97207 24.6821V25.3815H7.28762V22.2877H6.97207ZM5.66614 25.1528C4.92965 25.1528 4.35424 24.5707 4.35424 23.8349C4.35424 23.0984 4.92965 22.5164 5.66614 22.5164C6.40263 22.5164 6.97207 23.0984 6.97207 23.8349C6.97207 24.5707 6.40263 25.1528 5.66614 25.1528Z" fill="#2C445D"/>
<path d="M9.34749 22.2194C8.87085 22.2194 8.4751 22.4176 8.23976 22.8757V22.2877H7.93085V25.3815H8.23976V23.7481C8.23976 22.9128 8.7164 22.5164 9.32296 22.5164C9.90433 22.5164 10.2325 22.8876 10.2325 23.4571V25.3815H10.548V23.4571C10.548 22.7086 10.084 22.2194 9.34749 22.2194Z" fill="#2C445D"/>
<path d="M11.3211 23.0984C11.3211 22.7272 11.6612 22.5164 12.0636 22.5164C12.4037 22.5164 12.7258 22.6649 12.8558 22.9871L13.1156 22.8386C12.9486 22.4607 12.5648 22.2194 12.0636 22.2194C11.4325 22.2194 11.0116 22.6092 11.0116 23.0984C11.0116 24.2121 12.8869 23.7295 12.8869 24.5707C12.8869 24.9605 12.5217 25.1528 12.0881 25.1528C11.6241 25.1528 11.29 24.942 11.1786 24.6079L10.9128 24.763C11.0613 25.1588 11.4696 25.4498 12.0881 25.4498C12.7504 25.4498 13.1958 25.0785 13.1958 24.5707C13.1958 23.4385 11.3211 23.9277 11.3211 23.0984Z" fill="#2C445D"/>
<path d="M15.0951 21.2794V20.9824C14.285 20.9201 13.8581 21.3596 13.8581 22.1206V22.2877H13.3257V22.5906H13.8581V25.3815H14.1736V22.5906H15.0951V22.2877H14.1736V22.1206C14.1736 21.5207 14.464 21.2297 15.0951 21.2794Z" fill="#2C445D"/>
<path d="M16.6791 25.4498C17.5767 25.4498 18.3006 24.7504 18.3006 23.8349C18.3006 22.9188 17.5767 22.2194 16.6791 22.2194C15.7756 22.2194 15.0517 22.9188 15.0517 23.8349C15.0517 24.7504 15.7756 25.4498 16.6791 25.4498ZM16.6791 25.1528C15.9426 25.1528 15.3672 24.5707 15.3672 23.8349C15.3672 23.0984 15.9426 22.5164 16.6791 22.5164C17.4156 22.5164 17.9851 23.0984 17.9851 23.8349C17.9851 24.5707 17.4156 25.1528 16.6791 25.1528Z" fill="#2C445D"/>
<path d="M19.0424 22.8943V22.2877H18.7335V25.3815H19.0424V23.6612C19.0424 22.8691 19.5436 22.5416 20.0759 22.5416V22.2446C19.655 22.2446 19.2532 22.405 19.0424 22.8943Z" fill="#2C445D"/>
<path d="M23.6956 22.2194C23.2813 22.2194 22.8849 22.4176 22.6621 22.8505C22.5017 22.4421 22.149 22.2194 21.6969 22.2194C21.3012 22.2194 20.9299 22.3931 20.7006 22.82V22.2877H20.3917V25.3815H20.7006V23.6553C20.7006 22.8631 21.1527 22.5164 21.6598 22.5164C22.1364 22.5164 22.452 22.8319 22.452 23.4199V25.3815H22.7616V23.6553C22.7616 22.8631 23.1699 22.5164 23.6896 22.5164C24.1722 22.5164 24.5123 22.8319 24.5123 23.4199V25.3815H24.8219V23.4199C24.8219 22.6463 24.3512 22.2194 23.6956 22.2194Z" fill="#2C445D"/>
<path d="M28.1073 22.2877V22.9871C27.8474 22.523 27.3708 22.2194 26.7768 22.2194C25.8978 22.2194 25.1739 22.9188 25.1739 23.8349C25.1739 24.7504 25.8978 25.4498 26.7768 25.4498C27.3708 25.4498 27.8474 25.1462 28.1073 24.6821V25.3815H28.4228V22.2877H28.1073ZM26.8013 25.1528C26.0648 25.1528 25.4894 24.5707 25.4894 23.8349C25.4894 23.0984 26.0648 22.5164 26.8013 22.5164C27.5378 22.5164 28.1073 23.0984 28.1073 23.8349C28.1073 24.5707 27.5378 25.1528 26.8013 25.1528Z" fill="#2C445D"/>
<path d="M31.7946 21.05V23.0056C31.5407 22.529 31.0647 22.2194 30.4641 22.2194C29.5791 22.2194 28.8619 22.9188 28.8619 23.8349C28.8619 24.7504 29.5791 25.4498 30.4641 25.4498C31.0647 25.4498 31.5407 25.1402 31.7946 24.6636V25.3815H32.1042V21.05H31.7946ZM30.4827 25.1528C29.7462 25.1528 29.1708 24.5707 29.1708 23.8349C29.1708 23.0984 29.7462 22.5164 30.4827 22.5164C31.2192 22.5164 31.7946 23.0984 31.7946 23.8349C31.7946 24.5707 31.2192 25.1528 30.4827 25.1528Z" fill="#2C445D"/>
<path d="M35.4699 22.2877V22.9871C35.2101 22.523 34.7334 22.2194 34.1395 22.2194C33.2605 22.2194 32.5366 22.9188 32.5366 23.8349C32.5366 24.7504 33.2605 25.4498 34.1395 25.4498C34.7334 25.4498 35.2101 25.1462 35.4699 24.6821V25.3815H35.7855V22.2877H35.4699ZM34.164 25.1528C33.4275 25.1528 32.8521 24.5707 32.8521 23.8349C32.8521 23.0984 33.4275 22.5164 34.164 22.5164C34.9005 22.5164 35.4699 23.0984 35.4699 23.8349C35.4699 24.5707 34.9005 25.1528 34.164 25.1528Z" fill="#2C445D"/>
<path d="M36.6389 23.0984C36.6389 22.7272 36.979 22.5164 37.3813 22.5164C37.7214 22.5164 38.0436 22.6649 38.1735 22.9871L38.4334 22.8386C38.2663 22.4607 37.8825 22.2194 37.3813 22.2194C36.7503 22.2194 36.3293 22.6092 36.3293 23.0984C36.3293 24.2121 38.2047 23.7295 38.2047 24.5707C38.2047 24.9605 37.8394 25.1528 37.4059 25.1528C36.9418 25.1528 36.6077 24.942 36.4964 24.6079L36.2305 24.763C36.379 25.1588 36.7874 25.4498 37.4059 25.4498C38.0681 25.4498 38.5136 25.0785 38.5136 24.5707C38.5136 23.4385 36.6389 23.9277 36.6389 23.0984Z" fill="#2C445D"/>
<mask id="mask0_32_2" style="mask-type:luminance" maskUnits="userSpaceOnUse" x="60" y="11" width="4" height="3">
<path d="M60.8439 11.3242H63.2622V13.7425H60.8439V11.3242Z" fill="white"/>
</mask>
<g mask="url(#mask0_32_2)">
<path d="M62.3765 11.3242L62.5741 11.6298L62.938 11.6477L62.9566 12.0116L63.2622 12.2091L63.0964 12.5333L63.2622 12.8568L62.9566 13.0544L62.9387 13.4183L62.5747 13.4362L62.3772 13.7425L62.0537 13.5761L61.7295 13.7425L61.532 13.4369L61.168 13.419L61.1501 13.055L60.8439 12.8575L61.0103 12.5333L60.8439 12.2098L61.1495 12.0123L61.168 11.6483L61.5313 11.6304L61.7289 11.3242L62.053 11.4899L62.3765 11.3242Z" fill="#42A5F5"/>
</g>
<path d="M61.9032 12.951L61.5294 12.5771L61.6513 12.4551L61.9052 12.709L62.4561 12.1747L62.5761 12.2986L61.9032 12.951Z" fill="white"/>
</svg>
