<svg width="100" height="21" viewBox="0 0 100 21" fill="none" xmlns="http://www.w3.org/2000/svg">
<path d="M3.63192 7.3239C4.89211 7.3239 5.99453 6.70341 6.58518 5.72893L5.22688 4.9414C4.93189 5.47305 4.33129 5.78793 3.63192 5.78793C2.4115 5.78793 1.62396 4.97123 1.62396 3.74087C1.62396 2.51051 2.4115 1.69314 3.63192 1.69314C4.33129 1.69314 4.92194 2.00802 5.22688 2.53967L6.58518 1.75214C5.98459 0.777658 4.88217 0.157837 3.63192 0.157837C1.55502 0.157837 0.0488892 1.71302 0.0488892 3.74087C0.0488892 5.76871 1.55502 7.3239 3.63192 7.3239Z" fill="#15324F"/>
<path d="M9.73453 7.3238C11.1817 7.3238 12.3431 6.19155 12.3431 4.72519C12.3431 3.25817 11.1817 2.12659 9.73453 2.12659C8.28806 2.12659 7.12598 3.25817 7.12598 4.72519C7.12598 6.19155 8.28806 7.3238 9.73453 7.3238ZM9.73453 5.88661C9.09482 5.88661 8.60294 5.4239 8.60294 4.72519C8.60294 4.02582 9.09482 3.56378 9.73453 3.56378C10.3749 3.56378 10.8668 4.02582 10.8668 4.72519C10.8668 5.4239 10.3749 5.88661 9.73453 5.88661Z" fill="#15324F"/>
<path d="M13.18 7.18595H14.6563V0H13.18V7.18595Z" fill="#15324F"/>
<path d="M18.9185 2.26453V4.9513C18.9185 5.65067 18.5446 5.96555 18.003 5.96555C17.5304 5.96555 17.1465 5.67984 17.1465 5.0693V2.26453H15.6702V5.28607C15.6702 6.61521 16.5168 7.32386 17.5111 7.32386C18.1608 7.32386 18.6527 7.08786 18.9185 6.72326V7.18597H20.3948V2.26453H18.9185Z" fill="#15324F"/>
<path d="M24.3614 2.12659C23.7117 2.12659 23.2199 2.36258 22.954 2.72652V2.26447H21.4777V7.18592H22.954V4.49848C22.954 3.79977 23.3279 3.48489 23.8695 3.48489C24.3422 3.48489 24.726 3.76994 24.726 4.38048V7.18592H26.2023V4.16371C26.2023 2.83524 25.3557 2.12659 24.3614 2.12659Z" fill="#15324F"/>
<path d="M27.954 1.83092C28.4366 1.83092 28.8403 1.42721 28.8403 0.945271C28.8403 0.462672 28.4366 0.05896 27.954 0.05896C27.4721 0.05896 27.0684 0.462672 27.0684 0.945271C27.0684 1.42721 27.4721 1.83092 27.954 1.83092ZM27.2162 7.18591H28.6925V2.26446H27.2162V7.18591Z" fill="#15324F"/>
<path d="M31.1728 3.701C31.1728 3.524 31.3306 3.42589 31.5864 3.42589C31.9113 3.42589 32.1082 3.60289 32.246 3.85877L33.5056 3.17929C33.0926 2.48058 32.3839 2.12659 31.5864 2.12659C30.5629 2.12659 29.6574 2.66752 29.6574 3.74077C29.6574 5.44379 32.0783 5.15808 32.0783 5.69967C32.0783 5.89656 31.9013 6.00461 31.5473 6.00461C31.1138 6.00461 30.838 5.79778 30.7101 5.4239L29.4307 6.15244C29.8145 6.94992 30.5629 7.3238 31.5473 7.3238C32.61 7.3238 33.5944 6.8412 33.5944 5.70962C33.5944 3.8886 31.1728 4.26248 31.1728 3.701Z" fill="#15324F"/>
<path d="M37.2656 3.68184V2.26454H36.252V0.886353L34.7757 1.32918V2.26454H33.9882V3.68184H34.7757V5.42397C34.7757 6.80216 35.3365 7.38287 37.2656 7.18599V5.84757C36.6159 5.88668 36.252 5.84757 36.252 5.42397V3.68184H37.2656Z" fill="#15324F"/>
<path d="M41.7741 2.26447V2.72652C41.4493 2.35264 40.9667 2.12659 40.3071 2.12659C39.0177 2.12659 37.9544 3.25817 37.9544 4.72519C37.9544 6.19155 39.0177 7.3238 40.3071 7.3238C40.9667 7.3238 41.4493 7.09709 41.7741 6.72321V7.18592H43.2504V2.26447H41.7741ZM40.6027 5.92573C39.9233 5.92573 39.4314 5.46301 39.4314 4.72519C39.4314 3.98671 39.9233 3.524 40.6027 3.524C41.2816 3.524 41.7741 3.98671 41.7741 4.72519C41.7741 5.46301 41.2816 5.92573 40.6027 5.92573Z" fill="#15324F"/>
<path d="M50.3671 0.295654V2.72655C50.0423 2.35266 49.5597 2.12661 48.9001 2.12661C47.6107 2.12661 46.5474 3.2582 46.5474 4.72522C46.5474 6.19158 47.6107 7.32383 48.9001 7.32383C49.5597 7.32383 50.0423 7.09711 50.3671 6.72323V7.18594H51.8434V0.295654H50.3671ZM49.1958 5.92575C48.5163 5.92575 48.0244 5.46304 48.0244 4.72522C48.0244 3.98674 48.5163 3.52403 49.1958 3.52403C49.8746 3.52403 50.3671 3.98674 50.3671 4.72522C50.3671 5.46304 49.8746 5.92575 49.1958 5.92575Z" fill="#15324F"/>
<path d="M56.4993 2.26447V2.72652C56.1745 2.35264 55.6919 2.12659 55.0323 2.12659C53.7429 2.12659 52.6796 3.25817 52.6796 4.72519C52.6796 6.19155 53.7429 7.3238 55.0323 7.3238C55.6919 7.3238 56.1745 7.09709 56.4993 6.72321V7.18592H57.9756V2.26447H56.4993ZM55.328 5.92573C54.6485 5.92573 54.1566 5.46301 54.1566 4.72519C54.1566 3.98671 54.6485 3.524 55.328 3.524C56.0068 3.524 56.4993 3.98671 56.4993 4.72519C56.4993 5.46301 56.0068 5.92573 55.328 5.92573Z" fill="#15324F"/>
<path d="M4.52817 9.98538V8.46997H0.344543V15.3603H1.91962V12.8306H4.47912V11.3145H1.91962V9.98538H4.52817Z" fill="#15324F"/>
<path d="M7.77585 15.4982C9.22298 15.4982 10.3844 14.366 10.3844 12.8996C10.3844 11.4326 9.22298 10.301 7.77585 10.301C6.32938 10.301 5.1673 11.4326 5.1673 12.8996C5.1673 14.366 6.32938 15.4982 7.77585 15.4982ZM7.77585 14.0611C7.13614 14.0611 6.64426 13.5983 6.64426 12.8996C6.64426 12.2003 7.13614 11.7382 7.77585 11.7382C8.41622 11.7382 8.9081 12.2003 8.9081 12.8996C8.9081 13.5983 8.41622 14.0611 7.77585 14.0611Z" fill="#15324F"/>
<path d="M11.2213 15.3603H12.6976V8.17432H11.2213V15.3603Z" fill="#15324F"/>
<path d="M16.6641 10.3009C16.0145 10.3009 15.5226 10.5369 15.2568 10.9009V8.46997H13.7805V15.3603H15.2568V12.6728C15.2568 11.9741 15.6306 11.6592 16.1722 11.6592C16.6449 11.6592 17.0287 11.9443 17.0287 12.5548V15.3603H18.505V12.3381C18.505 11.0096 17.6585 10.3009 16.6641 10.3009Z" fill="#15324F"/>
<path d="M23.092 10.4389V10.901C22.7672 10.5271 22.2846 10.301 21.625 10.301C20.3356 10.301 19.2723 11.4326 19.2723 12.8996C19.2723 14.366 20.3356 15.4982 21.625 15.4982C22.2846 15.4982 22.7672 15.2715 23.092 14.8976V15.3604H24.5683V10.4389H23.092ZM21.9207 14.1002C21.2412 14.1002 20.7493 13.6375 20.7493 12.8996C20.7493 12.1612 21.2412 11.6984 21.9207 11.6984C22.5995 11.6984 23.092 12.1612 23.092 12.8996C23.092 13.6375 22.5995 14.1002 21.9207 14.1002Z" fill="#15324F"/>
<path d="M31.685 8.46997V10.9009C31.3602 10.527 30.8776 10.3009 30.218 10.3009C28.9286 10.3009 27.8653 11.4325 27.8653 12.8995C27.8653 14.3659 28.9286 15.4981 30.218 15.4981C30.8776 15.4981 31.3602 15.2714 31.685 14.8975V15.3603H33.1613V8.46997H31.685ZM30.5136 14.1001C29.8341 14.1001 29.3423 13.6374 29.3423 12.8995C29.3423 12.1611 29.8341 11.6983 30.5136 11.6983C31.1924 11.6983 31.685 12.1611 31.685 12.8995C31.685 13.6374 31.1924 14.1001 30.5136 14.1001Z" fill="#15324F"/>
<path d="M35.5626 13.4903H39.0575C39.0966 13.3033 39.1165 13.1065 39.1165 12.8996C39.1165 11.4134 38.0532 10.301 36.616 10.301C35.0608 10.301 33.9975 11.4326 33.9975 12.8996C33.9975 14.366 35.0409 15.4982 36.7247 15.4982C37.6594 15.4982 38.388 15.1535 38.8706 14.484L37.6892 13.8052C37.4924 14.0219 37.1476 14.1791 36.7439 14.1791C36.203 14.1791 35.7502 14.0021 35.5626 13.4903ZM35.5335 12.3879C35.6713 11.8854 36.0452 11.6103 36.606 11.6103C37.0495 11.6103 37.4924 11.8164 37.6495 12.3879H35.5335Z" fill="#15324F"/>
<path d="M45.0714 8.46997H42.4629V15.3603H44.038V13.1945H45.0714C46.4297 13.1945 47.4831 12.1412 47.4831 10.8319C47.4831 9.52334 46.4297 8.46997 45.0714 8.46997ZM45.0714 11.7182H44.038V9.94627H45.0714C45.554 9.94627 45.908 10.3301 45.908 10.8319C45.908 11.3344 45.554 11.7182 45.0714 11.7182Z" fill="#15324F"/>
<path d="M49.5397 13.4903H53.0346C53.0737 13.3033 53.0936 13.1065 53.0936 12.8996C53.0936 11.4134 52.0303 10.301 50.5931 10.301C49.0379 10.301 47.9746 11.4326 47.9746 12.8996C47.9746 14.366 49.018 15.4982 50.7018 15.4982C51.6365 15.4982 52.3651 15.1535 52.8477 14.484L51.6664 13.8052C51.4695 14.0219 51.1248 14.1791 50.721 14.1791C50.1801 14.1791 49.7273 14.0021 49.5397 13.4903ZM49.5106 12.3879C49.6485 11.8854 50.0223 11.6103 50.5832 11.6103C51.0266 11.6103 51.4695 11.8164 51.6266 12.3879H49.5106Z" fill="#15324F"/>
<path d="M55.4065 11.3146V10.4389H53.9302V15.3603H55.4065V13.1356C55.4065 12.1611 56.2729 11.9152 56.8828 12.0133V10.3401C56.263 10.3401 55.6034 10.655 55.4065 11.3146Z" fill="#15324F"/>
<path d="M60.4558 10.301C59.8062 10.301 59.3143 10.537 59.0484 10.901V10.4389H57.5721V15.3604H59.0484V12.6729C59.0484 11.9742 59.4223 11.6593 59.9639 11.6593C60.4366 11.6593 60.8204 11.9444 60.8204 12.5549V15.3604H62.2967V12.3381C62.2967 11.0097 61.4502 10.301 60.4558 10.301Z" fill="#15324F"/>
<path d="M66.8837 10.4389V10.901C66.5589 10.5271 66.0763 10.301 65.4167 10.301C64.1273 10.301 63.064 11.4326 63.064 12.8996C63.064 14.366 64.1273 15.4982 65.4167 15.4982C66.0763 15.4982 66.5589 15.2715 66.8837 14.8976V15.3604H68.36V10.4389H66.8837ZM65.7124 14.1002C65.0329 14.1002 64.541 13.6375 64.541 12.8996C64.541 12.1612 65.0329 11.6984 65.7124 11.6984C66.3912 11.6984 66.8837 12.1612 66.8837 12.8996C66.8837 13.6375 66.3912 14.1002 65.7124 14.1002Z" fill="#15324F"/>
<path d="M74.9549 10.301C74.2562 10.301 73.8034 10.5569 73.5277 10.9507C73.2519 10.537 72.819 10.301 72.2383 10.301C71.5787 10.301 71.1458 10.5569 70.9191 10.8917V10.4389H69.4428V15.3604H70.9191V12.5848C70.9191 12.004 71.1949 11.6593 71.6868 11.6593C72.1594 11.6593 72.3954 11.9742 72.3954 12.4661V15.3604H73.8724V12.5848C73.8724 12.004 74.1475 11.6593 74.64 11.6593C75.1127 11.6593 75.3487 11.9742 75.3487 12.4661V15.3604H76.825V12.3381C76.825 11.1078 76.0872 10.301 74.9549 10.301Z" fill="#15324F"/>
<path d="M80.7822 10.3009C80.1227 10.3009 79.6401 10.527 79.3152 10.9009V8.46997H77.8389V15.3603H79.3152V14.8975C79.6401 15.2714 80.1227 15.4981 80.7822 15.4981C82.0716 15.4981 83.1343 14.3659 83.1343 12.8995C83.1343 11.4325 82.0716 10.3009 80.7822 10.3009ZM80.4866 14.1001C79.8071 14.1001 79.3152 13.6374 79.3152 12.8995C79.3152 12.1611 79.8071 11.6983 80.4866 11.6983C81.1661 11.6983 81.658 12.1611 81.658 12.8995C81.658 13.6374 81.1661 14.1001 80.4866 14.1001Z" fill="#15324F"/>
<path d="M87.1504 10.4388V13.1256C87.1504 13.825 86.7765 14.1399 86.2349 14.1399C85.7623 14.1399 85.3785 13.8542 85.3785 13.2436V10.4388H83.9022V13.4604C83.9022 14.7895 84.7487 15.4982 85.7431 15.4982C86.3927 15.4982 86.8846 15.2622 87.1504 14.8976V15.3603H88.6267V10.4388H87.1504Z" fill="#15324F"/>
<path d="M92.0716 15.4982C93.0368 15.4982 93.8734 14.9964 94.2964 14.2281L93.007 13.4903C92.8499 13.8343 92.4853 14.0412 92.0524 14.0412C91.4127 14.0412 90.94 13.5785 90.94 12.8996C90.94 12.2202 91.4127 11.7574 92.0524 11.7574C92.4853 11.7574 92.8399 11.9643 93.007 12.309L94.2964 11.5606C93.8734 10.8028 93.0269 10.301 92.0716 10.301C90.5754 10.301 89.4631 11.4326 89.4631 12.8996C89.4631 14.366 90.5754 15.4982 92.0716 15.4982Z" fill="#15324F"/>
<path d="M97.2982 15.4982C98.7453 15.4982 99.9067 14.366 99.9067 12.8996C99.9067 11.4326 98.7453 10.301 97.2982 10.301C95.8517 10.301 94.6896 11.4326 94.6896 12.8996C94.6896 14.366 95.8517 15.4982 97.2982 15.4982ZM97.2982 14.0611C96.6585 14.0611 96.1666 13.5983 96.1666 12.8996C96.1666 12.2003 96.6585 11.7382 97.2982 11.7382C97.9386 11.7382 98.4304 12.2003 98.4304 12.8996C98.4304 13.5983 97.9386 14.0611 97.2982 14.0611Z" fill="#15324F"/>
<path d="M1.47895 20.6877C2.03049 20.6877 2.50249 20.4067 2.72788 19.9738L2.49122 19.8332C2.30626 20.1819 1.93503 20.4179 1.47895 20.4179C0.798807 20.4179 0.28704 19.8896 0.28704 19.2201C0.28704 18.5505 0.798807 18.0222 1.47895 18.0222C1.92907 18.0222 2.31157 18.2529 2.47464 18.6069L2.70534 18.4716C2.50249 18.0334 2.03049 17.7517 1.47895 17.7517C0.629765 17.7517 0 18.3874 0 19.2201C0 20.0527 0.629765 20.6877 1.47895 20.6877Z" fill="#15324F"/>
<path d="M5.82125 17.814V18.4491C5.5846 18.0275 5.15171 17.7517 4.61144 17.7517C3.8133 17.7517 3.15503 18.3874 3.15503 19.2201C3.15503 20.0527 3.8133 20.6877 4.61144 20.6877C5.15171 20.6877 5.5846 20.4126 5.82125 19.9904V20.6261H6.10763V17.814H5.82125ZM4.63398 20.4179C3.96511 20.4179 3.44207 19.8896 3.44207 19.2201C3.44207 18.5505 3.96511 18.0222 4.63398 18.0222C5.30352 18.0222 5.82125 18.5505 5.82125 19.2201C5.82125 19.8896 5.30352 20.4179 4.63398 20.4179Z" fill="#15324F"/>
<path d="M9.45407 16.6891V18.4663C9.22337 18.0335 8.79049 17.7517 8.24492 17.7517C7.44081 17.7517 6.78784 18.3875 6.78784 19.2201C6.78784 20.0527 7.44081 20.6878 8.24492 20.6878C8.79049 20.6878 9.22337 20.4067 9.45407 19.9738V20.6261H9.73514V16.6891H9.45407ZM8.26149 20.418C7.59261 20.418 7.06958 19.8896 7.06958 19.2201C7.06958 18.5505 7.59261 18.0222 8.26149 18.0222C8.93103 18.0222 9.45407 18.5505 9.45407 19.2201C9.45407 19.8896 8.93103 20.418 8.26149 20.418Z" fill="#15324F"/>
<path d="M11.8664 17.7517C11.0059 17.7517 10.41 18.3934 10.41 19.2201C10.41 20.0692 11.0232 20.6877 11.8889 20.6877C12.4458 20.6877 12.8846 20.4352 13.1153 20.0527L12.868 19.9062C12.705 20.2045 12.3556 20.4179 11.8949 20.4179C11.2539 20.4179 10.7699 20.0016 10.7023 19.3659H13.2505C13.2505 19.3215 13.2558 19.2764 13.2558 19.2313C13.2558 18.4604 12.7215 17.7517 11.8664 17.7517ZM11.8664 18.0222C12.4179 18.0222 12.9012 18.4047 12.9635 19.0908H10.7023C10.7587 18.4663 11.2254 18.0222 11.8664 18.0222Z" fill="#15324F"/>
<path d="M14.1952 18.3649V17.8141H13.9135V20.6261H14.1952V19.0623C14.1952 18.3424 14.6506 18.0448 15.1339 18.0448V17.7743C14.752 17.7743 14.3861 17.9208 14.1952 18.3649Z" fill="#15324F"/>
<path d="M16.9899 17.7517C16.557 17.7517 16.197 17.932 15.9836 18.3483V17.814H15.7018V20.6261H15.9836V19.1412C15.9836 18.3821 16.4165 18.0222 16.9673 18.0222C17.4963 18.0222 17.7947 18.3596 17.7947 18.8767V20.6261H18.081V18.8767C18.081 18.1965 17.6594 17.7517 16.9899 17.7517Z" fill="#15324F"/>
<path d="M20.1618 20.6877C20.9779 20.6877 21.6355 20.0527 21.6355 19.2201C21.6355 18.3874 20.9779 17.7517 20.1618 17.7517C19.3411 17.7517 18.6829 18.3874 18.6829 19.2201C18.6829 20.0527 19.3411 20.6877 20.1618 20.6877ZM20.1618 20.4179C19.4929 20.4179 18.9699 19.8896 18.9699 19.2201C18.9699 18.5505 19.4929 18.0222 20.1618 18.0222C20.8314 18.0222 21.3491 18.5505 21.3491 19.2201C21.3491 19.8896 20.8314 20.4179 20.1618 20.4179Z" fill="#15324F"/>
<path d="M24.0032 18.5505C24.0032 18.2131 24.3122 18.0222 24.6781 18.0222C24.9877 18.0222 25.28 18.1567 25.398 18.4491L25.634 18.3145C25.4822 17.9711 25.1335 17.7517 24.6781 17.7517C24.1047 17.7517 23.7222 18.1064 23.7222 18.5505C23.7222 19.5628 25.4259 19.1246 25.4259 19.8896C25.4259 20.2436 25.0944 20.4179 24.7006 20.4179C24.279 20.4179 23.9747 20.227 23.874 19.9227L23.632 20.0639C23.7666 20.4239 24.1378 20.6877 24.7006 20.6877C25.3026 20.6877 25.7076 20.3503 25.7076 19.8896C25.7076 18.8601 24.0032 19.3042 24.0032 18.5505Z" fill="#15324F"/>
<path d="M28.8628 17.814V18.4491C28.6261 18.0275 28.1932 17.7517 27.6529 17.7517C26.8548 17.7517 26.1965 18.3874 26.1965 19.2201C26.1965 20.0527 26.8548 20.6877 27.6529 20.6877C28.1932 20.6877 28.6261 20.4126 28.8628 19.9904V20.6261H29.1491V17.814H28.8628ZM27.6755 20.4179C27.0066 20.4179 26.4836 19.8896 26.4836 19.2201C26.4836 18.5505 27.0066 18.0222 27.6755 18.0222C28.345 18.0222 28.8628 18.5505 28.8628 19.2201C28.8628 19.8896 28.345 20.4179 27.6755 20.4179Z" fill="#15324F"/>
<path d="M31.6742 16.7057H31.3368L30.8867 17.4203H31.1624L31.6742 16.7057ZM32.0401 17.8141V19.299C32.0401 20.058 31.6066 20.418 31.0557 20.418C30.5267 20.418 30.2291 20.0806 30.2291 19.5628V17.8141H29.942V19.5628C29.942 20.2436 30.3636 20.6878 31.0332 20.6878C31.466 20.6878 31.826 20.5081 32.0401 20.0918V20.6261H32.3212V17.8141H32.0401Z" fill="#15324F"/>
<path d="M35.6675 16.6891V18.4663C35.4368 18.0335 35.0039 17.7517 34.4584 17.7517C33.6542 17.7517 33.0013 18.3875 33.0013 19.2201C33.0013 20.0527 33.6542 20.6878 34.4584 20.6878C35.0039 20.6878 35.4368 20.4067 35.6675 19.9738V20.6261H35.9486V16.6891H35.6675ZM34.4749 20.418C33.8061 20.418 33.283 19.8896 33.283 19.2201C33.283 18.5505 33.8061 18.0222 34.4749 18.0222C35.1445 18.0222 35.6675 18.5505 35.6675 19.2201C35.6675 19.8896 35.1445 20.418 34.4749 20.418Z" fill="#15324F"/>
<path d="M38.0798 17.7517C37.2194 17.7517 36.6234 18.3934 36.6234 19.2201C36.6234 20.0692 37.2366 20.6877 38.1024 20.6877C38.6592 20.6877 39.0981 20.4352 39.3287 20.0527L39.0815 19.9062C38.9184 20.2045 38.5691 20.4179 38.1083 20.4179C37.4673 20.4179 36.9834 20.0016 36.9158 19.3659H39.464C39.464 19.3215 39.4693 19.2764 39.4693 19.2313C39.4693 18.4604 38.935 17.7517 38.0798 17.7517ZM38.0798 18.0222C38.6314 18.0222 39.1146 18.4047 39.1769 19.0908H36.9158C36.9721 18.4663 37.4388 18.0222 38.0798 18.0222Z" fill="#15324F"/>
<path d="M42.894 17.7517C42.0335 17.7517 41.4376 18.3934 41.4376 19.2201C41.4376 20.0692 42.0508 20.6877 42.9165 20.6877C43.4734 20.6877 43.9122 20.4352 44.1429 20.0527L43.8956 19.9062C43.7326 20.2045 43.3832 20.4179 42.9225 20.4179C42.2814 20.4179 41.7975 20.0016 41.7299 19.3659H44.2781C44.2781 19.3215 44.2834 19.2764 44.2834 19.2313C44.2834 18.4604 43.7491 17.7517 42.894 17.7517ZM42.894 18.0222C43.4455 18.0222 43.9288 18.4047 43.9911 19.0908H41.7299C41.7863 18.4663 42.2529 18.0222 42.894 18.0222Z" fill="#15324F"/>
<path d="M47.9335 17.7517C47.3879 17.7517 46.9544 18.0335 46.7244 18.4663V16.6891H46.4426V20.6261H46.7244V19.9738C46.9544 20.4067 47.3879 20.6878 47.9335 20.6878C48.7376 20.6878 49.3899 20.0527 49.3899 19.2201C49.3899 18.3875 48.7376 17.7517 47.9335 17.7517ZM47.9163 20.418C47.2474 20.418 46.7244 19.8896 46.7244 19.2201C46.7244 18.5505 47.2474 18.0222 47.9163 18.0222C48.5858 18.0222 49.1089 18.5505 49.1089 19.2201C49.1089 19.8896 48.5858 20.418 47.9163 20.418Z" fill="#15324F"/>
<path d="M51.3356 17.7517C50.4751 17.7517 49.8792 18.3934 49.8792 19.2201C49.8792 20.0692 50.4923 20.6877 51.3581 20.6877C51.9149 20.6877 52.3538 20.4352 52.5845 20.0527L52.3372 19.9062C52.1741 20.2045 51.8248 20.4179 51.3641 20.4179C50.723 20.4179 50.2391 20.0016 50.1715 19.3659H52.7197C52.7197 19.3215 52.725 19.2764 52.725 19.2313C52.725 18.4604 52.1907 17.7517 51.3356 17.7517ZM51.3356 18.0222C51.8871 18.0222 52.3704 18.4047 52.4327 19.0908H50.1715C50.2278 18.4663 50.6945 18.0222 51.3356 18.0222Z" fill="#15324F"/>
<path d="M56.3863 17.7517C56.0098 17.7517 55.6498 17.932 55.447 18.3258C55.3012 17.9546 54.9803 17.7517 54.57 17.7517C54.21 17.7517 53.8719 17.9095 53.6644 18.2973V17.814H53.3827V20.6261H53.6644V19.057C53.6644 18.3371 54.0748 18.0222 54.5362 18.0222C54.969 18.0222 55.2561 18.3086 55.2561 18.8429V20.6261H55.5371V19.057C55.5371 18.3371 55.9084 18.0222 56.381 18.0222C56.8192 18.0222 57.1288 18.3086 57.1288 18.8429V20.6261H57.4099V18.8429C57.4099 18.1402 56.9823 17.7517 56.3863 17.7517Z" fill="#15324F"/>
<path d="M60.9695 17.7517C60.1091 17.7517 59.5131 18.3934 59.5131 19.2201C59.5131 20.0692 60.1263 20.6877 60.9921 20.6877C61.5489 20.6877 61.9878 20.4352 62.2185 20.0527L61.9712 19.9062C61.8081 20.2045 61.4588 20.4179 60.998 20.4179C60.357 20.4179 59.8731 20.0016 59.8055 19.3659H62.3537C62.3537 19.3215 62.359 19.2764 62.359 19.2313C62.359 18.4604 61.8247 17.7517 60.9695 17.7517ZM60.9695 18.0222C61.5211 18.0222 62.0043 18.4047 62.0667 19.0908H59.8055C59.8618 18.4663 60.3285 18.0222 60.9695 18.0222Z" fill="#15324F"/>
<path d="M63.2081 18.5505C63.2081 18.2131 63.5171 18.0222 63.883 18.0222C64.1926 18.0222 64.4849 18.1567 64.6029 18.4491L64.8389 18.3145C64.6871 17.9711 64.3384 17.7517 63.883 17.7517C63.3096 17.7517 62.9271 18.1064 62.9271 18.5505C62.9271 19.5628 64.6307 19.1246 64.6307 19.8896C64.6307 20.2436 64.2993 20.4179 63.9055 20.4179C63.4839 20.4179 63.1796 20.227 63.0789 19.9227L62.8369 20.0639C62.9715 20.4239 63.3427 20.6877 63.9055 20.6877C64.5074 20.6877 64.9125 20.3503 64.9125 19.8896C64.9125 18.8601 63.2081 19.3042 63.2081 18.5505Z" fill="#15324F"/>
<path d="M67.0322 18.0891V17.814H66.1942V17.0265L65.9072 17.1107V17.814H65.2887V18.0891H65.9072V19.9174C65.9072 20.5585 66.2957 20.7388 67.0322 20.6261V20.3729C66.4587 20.4239 66.1942 20.4126 66.1942 19.9174V18.0891H67.0322Z" fill="#15324F"/>
<path d="M70.1823 17.814V18.4491C69.9456 18.0275 69.5127 17.7517 68.9725 17.7517C68.1743 17.7517 67.5161 18.3874 67.5161 19.2201C67.5161 20.0527 68.1743 20.6877 68.9725 20.6877C69.5127 20.6877 69.9456 20.4126 70.1823 19.9904V20.6261H70.4687V17.814H70.1823ZM68.995 20.4179C68.3261 20.4179 67.8031 19.8896 67.8031 19.2201C67.8031 18.5505 68.3261 18.0222 68.995 18.0222C69.6645 18.0222 70.1823 18.5505 70.1823 19.2201C70.1823 19.8896 69.6645 20.4179 68.995 20.4179Z" fill="#15324F"/>
<path d="M71.6162 18.3649V17.8141H71.3345V20.6261H71.6162V19.0623C71.6162 18.3424 72.0716 18.0448 72.5549 18.0448V17.7743C72.1731 17.7743 71.8071 17.9208 71.6162 18.3649Z" fill="#15324F"/>
</svg>
