<svg width="24" height="15" viewBox="0 0 24 15" fill="none" xmlns="http://www.w3.org/2000/svg">
<mask id="mask0_36_3" style="mask-type:luminance" maskUnits="userSpaceOnUse" x="13" y="11" width="11" height="4">
<path d="M13.769 11.9384H23.8777V14.7451H13.769V11.9384Z" fill="white"/>
</mask>
<g mask="url(#mask0_36_3)">
<path d="M13.9334 12.0239C13.9281 12.0312 13.9274 12.0391 13.9307 12.0471C13.9102 12.0709 13.8631 12.053 13.8558 12.0968C13.7869 12.1657 13.8127 12.2367 13.8538 12.3069C13.9679 12.5038 14.1117 12.6768 14.2662 12.8419C14.8184 13.4306 15.466 13.8747 16.1979 14.2068C17.4753 14.7862 18.7938 14.8664 20.1455 14.5834C20.772 14.4521 21.3646 14.2121 21.946 13.9437C22.2874 13.7859 22.6188 13.6082 22.9543 13.4385C22.9635 13.4266 22.9728 13.4153 22.9821 13.4034C22.9987 13.4027 23.0172 13.3974 23.0312 13.4034C23.0418 13.4087 23.0345 13.4239 23.0225 13.4299C22.9576 13.5645 22.8668 13.6805 22.77 13.7912C22.7037 13.8674 22.6447 13.9457 22.6102 14.0418C22.4664 14.2042 22.4611 14.3779 22.589 14.529C22.9894 14.3719 23.2327 14.0491 23.4548 13.7004C23.537 13.5711 23.6278 13.4471 23.7166 13.3225C23.9301 13.0229 23.8823 13.054 23.7643 12.7783C23.7385 12.7166 23.698 12.6623 23.653 12.6119C23.6364 12.594 23.6198 12.5781 23.5933 12.5781C23.5595 12.5098 23.4965 12.5091 23.4342 12.5111C23.2512 12.5184 23.0676 12.5277 22.8847 12.5356C22.8462 12.5144 22.8058 12.5211 22.766 12.529C22.7282 12.5065 22.6878 12.5138 22.648 12.5191C22.6241 12.4985 22.5936 12.5058 22.5665 12.5018C22.1939 12.4488 21.832 12.3533 21.4879 12.1956C21.4621 12.1843 21.4349 12.1744 21.409 12.1638C21.3772 12.1505 21.3421 12.1359 21.3169 12.1657C21.2983 12.1883 21.3036 12.2294 21.3202 12.2479C21.3931 12.3315 21.4044 12.4475 21.468 12.5343C21.4959 12.5728 21.5376 12.5966 21.5801 12.6205C21.9075 12.8021 22.2575 12.9208 22.6208 13.003C22.6533 13.0103 22.6871 13.0123 22.7169 13.0262C22.7514 13.0421 22.7421 13.0719 22.7249 13.0985C22.6871 13.0938 22.6599 13.1097 22.6427 13.1429C22.6076 13.1455 22.5738 13.1508 22.5559 13.1879C22.5472 13.184 22.5419 13.1866 22.5393 13.1959C22.5055 13.1972 22.475 13.2039 22.4564 13.2377C22.4339 13.2436 22.41 13.2469 22.3895 13.2569C22.1574 13.3649 21.9274 13.477 21.6947 13.5824C21.4833 13.6785 21.2691 13.7673 21.0564 13.8588C20.9974 13.876 20.9377 13.8913 20.88 13.9112C20.3139 14.0975 19.7338 14.2121 19.1392 14.2387C18.9264 14.2479 18.7143 14.2506 18.5015 14.2559C18.4611 14.2327 18.42 14.242 18.3782 14.2506C18.3397 14.2274 18.3006 14.2353 18.2602 14.2433C18.2257 14.2188 18.1879 14.2287 18.1508 14.2327C18.1296 14.2141 18.1057 14.2155 18.0812 14.2241C18.0726 14.2181 18.0646 14.2181 18.056 14.2234C18.0315 14.2035 18.0017 14.2108 17.9751 14.2062C17.8406 14.1823 17.7034 14.1836 17.5714 14.1432C17.5602 14.1545 17.5211 14.1604 17.5688 14.1803C17.6006 14.1942 17.6019 14.2042 17.5933 14.2121C17.586 14.2188 17.5708 14.2247 17.5595 14.2307C17.1379 14.1432 16.7322 14.0047 16.3351 13.8396C16.2993 13.821 16.2635 13.8018 16.2284 13.7832C16.0162 13.6705 15.8041 13.5585 15.5926 13.4465C15.5887 13.4372 15.5827 13.4312 15.5747 13.4273C15.5694 13.4253 15.5641 13.4239 15.5575 13.4239C15.5509 13.4094 15.539 13.4021 15.523 13.4027C15.5171 13.3875 15.5051 13.3802 15.4892 13.3809C15.4833 13.3656 15.4713 13.3583 15.4548 13.359C15.4488 13.3437 15.4375 13.3358 15.421 13.3371C15.415 13.3205 15.4037 13.3132 15.3871 13.3146C15.3818 13.2987 15.3706 13.2907 15.354 13.292L15.3533 13.2914C15.3434 13.2834 15.3321 13.2761 15.3209 13.2688L15.3195 13.2682C15.3142 13.2523 15.3043 13.245 15.2877 13.2456L15.2864 13.245C15.2811 13.229 15.2705 13.2218 15.2539 13.2224L15.2526 13.2218C15.2479 13.2052 15.2367 13.1979 15.2201 13.1986L15.2194 13.1979C15.2148 13.182 15.2035 13.174 15.1869 13.1747C15.1816 13.1588 15.1704 13.1502 15.1538 13.1508C15.0577 13.0713 14.9616 12.9917 14.8648 12.9128C14.8018 12.887 14.7587 12.8353 14.7103 12.7915C14.7123 12.7836 14.7156 12.7776 14.7196 12.7723C14.7262 12.7637 14.7342 12.7577 14.7454 12.7544C14.7123 12.7173 14.6818 12.6775 14.6341 12.6576C14.6188 12.653 14.6049 12.647 14.5943 12.6344C14.6076 12.6424 14.6202 12.6503 14.6341 12.6576C14.6255 12.6437 14.6162 12.6311 14.5983 12.6338C14.5943 12.6092 14.5784 12.594 14.5559 12.5847C14.5532 12.5688 14.5452 12.5588 14.528 12.5582C14.5214 12.5429 14.5121 12.531 14.4949 12.529C14.4922 12.5211 14.4882 12.5144 14.4796 12.5111C14.4538 12.4694 14.4206 12.4342 14.3795 12.4084C14.359 12.3792 14.3397 12.35 14.3073 12.3341C14.3013 12.3109 14.2827 12.299 14.2662 12.2851C14.1873 12.1717 14.0892 12.0736 14.0295 11.939C13.9964 11.9788 13.9413 11.9715 13.9334 12.0239ZM22.5439 13.2244C22.5439 13.2244 22.5439 13.2244 22.5433 13.2244H22.5439C22.5433 13.2244 22.5433 13.2244 22.5433 13.2244C22.5433 13.2237 22.5433 13.2231 22.5433 13.2231C22.5439 13.2231 22.5439 13.2237 22.5439 13.2244ZM15.181 13.2682C15.1836 13.2708 15.1856 13.2728 15.1876 13.2755C15.1869 13.2748 15.1863 13.2741 15.1856 13.2741C15.1836 13.2721 15.181 13.2708 15.179 13.2688C15.179 13.2688 15.1803 13.2688 15.181 13.2682ZM15.5907 13.4465C15.5907 13.4465 15.59 13.4465 15.59 13.4471C15.5893 13.4478 15.5887 13.4491 15.588 13.4498L15.5854 13.4524L15.59 13.4465C15.59 13.4465 15.5893 13.4465 15.5893 13.4458C15.5893 13.4465 15.59 13.4465 15.5907 13.4465ZM15.1671 13.2735C15.171 13.2721 15.175 13.2708 15.1783 13.2695C15.1803 13.2708 15.1823 13.2721 15.185 13.2741C15.1797 13.2715 15.1737 13.2708 15.1671 13.2735ZM15.1995 13.2854C15.2022 13.2867 15.2048 13.2887 15.2068 13.2907C15.2068 13.2914 15.2075 13.2914 15.2075 13.2914C15.2048 13.2894 15.2022 13.2867 15.1995 13.2854ZM14.005 12.2758C14.005 12.2758 14.0043 12.2751 14.0037 12.2751C14.0037 12.2745 14.003 12.2745 14.003 12.2738C14.0037 12.2745 14.0043 12.2751 14.005 12.2758ZM14.0401 12.3262C14.0401 12.3268 14.0401 12.3275 14.0408 12.3282C14.0408 12.3268 14.0401 12.3262 14.0401 12.3262ZM14.5698 12.6318C14.5671 12.6331 14.5645 12.6344 14.5618 12.6364C14.5612 12.6351 14.5612 12.6331 14.5605 12.6311C14.5638 12.6311 14.5665 12.6311 14.5698 12.6318ZM14.5022 12.5469C14.4982 12.5436 14.4949 12.539 14.4929 12.5337C14.4929 12.5337 14.4929 12.5337 14.4935 12.5337C14.4955 12.539 14.4982 12.5436 14.5022 12.5469Z" fill="#6244BD"/>
</g>
<path d="M15.3188 13.2681C15.3295 13.2761 15.3407 13.2834 15.3513 13.2907C15.346 13.2748 15.3348 13.2675 15.3188 13.2681Z" fill="#6244BD"/>
<path d="M2.53021 2.13983C2.53021 1.53658 2.04429 1.05133 1.44171 1.05133C0.838461 1.05133 0.35321 1.53658 0.35321 2.13983C0.35321 2.74308 0.838461 3.22833 1.44171 3.22833C1.68301 3.22833 1.90575 3.1501 2.08407 3.02017L2.3373 3.26744L2.44535 3.168L2.19809 2.92405C2.40359 2.72452 2.53021 2.44742 2.53021 2.13983ZM1.44171 3.07453C0.925965 3.07453 0.512972 2.65822 0.512972 2.13983C0.512972 1.62143 0.925965 1.20513 1.44171 1.20513C1.95745 1.20513 2.37045 1.62143 2.37045 2.13983C2.37045 2.40499 2.26173 2.64364 2.08672 2.81533L1.6134 2.34798L1.50469 2.44742L1.97204 2.9088C1.82156 3.01421 1.64058 3.07453 1.44171 3.07453Z" fill="#15324F"/>
<path d="M3.85366 1.68771V2.48387C3.85366 2.8909 3.62098 3.0838 3.32598 3.0838C3.04226 3.0838 2.88249 2.90283 2.88249 2.62507V1.68771H2.7287V2.62507C2.7287 2.99033 2.95475 3.22832 3.31405 3.22832C3.54607 3.22832 3.73897 3.13153 3.85366 2.90879V3.19517H4.00414V1.68771H3.85366Z" fill="#15324F"/>
<path d="M4.9963 1.65457C4.53492 1.65457 4.21539 1.99796 4.21539 2.44145C4.21539 2.89687 4.54353 3.22832 5.00823 3.22832C5.30654 3.22832 5.54188 3.09242 5.66518 2.88758L5.5326 2.80936C5.44509 2.96912 5.25815 3.08381 5.01089 3.08381C4.6675 3.08381 4.4083 2.86041 4.37184 2.51967H5.7381C5.7381 2.4958 5.74075 2.47128 5.74075 2.44741C5.74075 2.03442 5.45437 1.65457 4.9963 1.65457ZM4.9963 1.79909C5.2913 1.79909 5.55116 2.00393 5.5843 2.37184H4.37184C4.40233 2.03707 4.65225 1.79909 4.9963 1.79909Z" fill="#15324F"/>
<path d="M7.36903 1.83554V1.68772H6.91958V1.26544L6.76578 1.31052V1.68772H6.43433V1.83554H6.76578V2.81533C6.76578 3.15871 6.97394 3.2555 7.36903 3.19517V3.05928C7.06144 3.08646 6.91958 3.08049 6.91958 2.81533V1.83554H7.36903Z" fill="#15324F"/>
<path d="M8.90665 1.68772V2.02845C8.78004 1.8024 8.54735 1.65457 8.25833 1.65457C7.83009 1.65457 7.47742 1.99531 7.47742 2.44145C7.47742 2.88758 7.83009 3.22832 8.25833 3.22832C8.54735 3.22832 8.78004 3.08049 8.90665 2.85444V3.19517H9.06045V1.68772H8.90665ZM8.27026 3.08381C7.91162 3.08381 7.63121 2.80008 7.63121 2.44145C7.63121 2.08281 7.91162 1.79909 8.27026 1.79909C8.62889 1.79909 8.90665 2.08281 8.90665 2.44145C8.90665 2.80008 8.62889 3.08381 8.27026 3.08381Z" fill="#15324F"/>
<path d="M9.37341 3.19517H9.52456V0.994308H9.37341V3.19517Z" fill="#15324F"/>
<path d="M11.1707 1.65457C10.7093 1.65457 10.3898 1.99796 10.3898 2.44145C10.3898 2.89687 10.7179 3.22832 11.1826 3.22832C11.4809 3.22832 11.7163 3.09242 11.8396 2.88758L11.707 2.80936C11.6195 2.96912 11.4325 3.08381 11.1853 3.08381C10.8419 3.08381 10.5827 2.86041 10.5462 2.51967H11.9125C11.9125 2.4958 11.9151 2.47128 11.9151 2.44741C11.9151 2.03442 11.6287 1.65457 11.1707 1.65457ZM11.1707 1.79909C11.4657 1.79909 11.7255 2.00393 11.7587 2.37184H10.5462C10.5767 2.03707 10.8266 1.79909 11.1707 1.79909Z" fill="#15324F"/>
<path d="M12.2196 2.08281C12.2196 1.90184 12.3854 1.79909 12.5816 1.79909C12.7473 1.79909 12.9037 1.87134 12.9674 2.02845L13.094 1.9562C13.0125 1.77191 12.8255 1.65457 12.5816 1.65457C12.274 1.65457 12.0685 1.84416 12.0685 2.08281C12.0685 2.62507 12.9826 2.3904 12.9826 2.80008C12.9826 2.99034 12.8043 3.08381 12.5935 3.08381C12.3675 3.08381 12.2044 2.98105 12.15 2.81798L12.0208 2.89355C12.093 3.08646 12.2919 3.22832 12.5935 3.22832C12.9163 3.22832 13.1331 3.04735 13.1331 2.80008C13.1331 2.24854 12.2196 2.48652 12.2196 2.08281Z" fill="#15324F"/>
<path d="M14.0377 3.22832C14.3334 3.22832 14.5866 3.07784 14.7073 2.84516L14.5806 2.77025C14.4805 2.95719 14.2817 3.08381 14.0377 3.08381C13.6725 3.08381 13.3987 2.80008 13.3987 2.44145C13.3987 2.08281 13.6725 1.79909 14.0377 1.79909C14.279 1.79909 14.4839 1.92305 14.5714 2.11264L14.6947 2.04039C14.5866 1.80505 14.3334 1.65457 14.0377 1.65457C13.5823 1.65457 13.2449 1.99531 13.2449 2.44145C13.2449 2.88758 13.5823 3.22832 14.0377 3.22832Z" fill="#15324F"/>
<path d="M15.9734 1.68771V2.48387C15.9734 2.8909 15.7407 3.0838 15.4457 3.0838C15.162 3.0838 15.0022 2.90283 15.0022 2.62507V1.68771H14.8484V2.62507C14.8484 2.99033 15.0745 3.22832 15.4338 3.22832C15.6658 3.22832 15.8587 3.13153 15.9734 2.90879V3.19517H16.1239V1.68771H15.9734Z" fill="#15324F"/>
<path d="M17.2095 1.83554V1.68772H16.76V1.26544L16.6062 1.31052V1.68772H16.2748V1.83554H16.6062V2.81533C16.6062 3.15871 16.8144 3.2555 17.2095 3.19517V3.05928C16.9019 3.08646 16.76 3.08049 16.76 2.81533V1.83554H17.2095Z" fill="#15324F"/>
<path d="M18.7472 1.68772V2.02845C18.6206 1.8024 18.3879 1.65457 18.0988 1.65457C17.6706 1.65457 17.3179 1.99531 17.3179 2.44145C17.3179 2.88758 17.6706 3.22832 18.0988 3.22832C18.3879 3.22832 18.6206 3.08049 18.7472 2.85444V3.19517H18.901V1.68772H18.7472ZM18.1108 3.08381C17.7521 3.08381 17.4717 2.80008 17.4717 2.44145C17.4717 2.08281 17.7521 1.79909 18.1108 1.79909C18.4694 1.79909 18.7472 2.08281 18.7472 2.44145C18.7472 2.80008 18.4694 3.08381 18.1108 3.08381Z" fill="#15324F"/>
<path d="M19.3651 1.98337V1.68772H19.2139V3.19517H19.3651V2.35726C19.3651 1.97078 19.609 1.81102 19.8682 1.81102V1.6665C19.6634 1.6665 19.4672 1.74473 19.3651 1.98337Z" fill="#15324F"/>
<path d="M21.3668 3.22832C21.8037 3.22832 22.157 2.88758 22.157 2.44145C22.157 1.99531 21.8037 1.65457 21.3668 1.65457C20.9266 1.65457 20.574 1.99531 20.574 2.44145C20.574 2.88758 20.9266 3.22832 21.3668 3.22832ZM21.3668 3.08381C21.0082 3.08381 20.7278 2.80008 20.7278 2.44145C20.7278 2.08281 21.0082 1.79909 21.3668 1.79909C21.7254 1.79909 22.0032 2.08281 22.0032 2.44145C22.0032 2.80008 21.7254 3.08381 21.3668 3.08381Z" fill="#15324F"/>
<path d="M3.97464 3.75732V4.70993C3.85134 4.47791 3.61866 4.32743 3.32632 4.32743C2.89543 4.32743 2.54541 4.66816 2.54541 5.1143C2.54541 5.56044 2.89543 5.90118 3.32632 5.90118C3.61866 5.90118 3.85134 5.7507 3.97464 5.51801V5.86803H4.12579V3.75732H3.97464ZM3.3356 5.75666C2.97696 5.75666 2.69655 5.47294 2.69655 5.1143C2.69655 4.75567 2.97696 4.47194 3.3356 4.47194C3.69423 4.47194 3.97464 4.75567 3.97464 5.1143C3.97464 5.47294 3.69423 5.75666 3.3356 5.75666Z" fill="#15324F"/>
<path d="M5.11752 4.32742C4.65613 4.32742 4.33661 4.67081 4.33661 5.1143C4.33661 5.56972 4.66475 5.90117 5.12945 5.90117C5.42776 5.90117 5.66309 5.76528 5.78639 5.56044L5.65381 5.48221C5.56631 5.64197 5.37937 5.75666 5.1321 5.75666C4.78871 5.75666 4.52952 5.53326 4.49306 5.19252H5.85931C5.85931 5.16866 5.86197 5.14413 5.86197 5.12026C5.86197 4.70727 5.57559 4.32742 5.11752 4.32742ZM5.11752 4.47194C5.41251 4.47194 5.67237 4.67678 5.70552 5.04469H4.49306C4.52355 4.70992 4.77347 4.47194 5.11752 4.47194Z" fill="#15324F"/>
<path d="M6.86319 4.32742C6.57018 4.32742 6.33817 4.4779 6.21486 4.70992V4.36057H6.06372V6.47127H6.21486V5.51801C6.33817 5.75069 6.57018 5.90117 6.86319 5.90117C7.29408 5.90117 7.6441 5.56044 7.6441 5.1143C7.6441 4.66816 7.29408 4.32742 6.86319 4.32742ZM6.85391 5.75666C6.49528 5.75666 6.21486 5.47293 6.21486 5.1143C6.21486 4.75566 6.49528 4.47194 6.85391 4.47194C7.21254 4.47194 7.49295 4.75566 7.49295 5.1143C7.49295 5.47293 7.21254 5.75666 6.85391 5.75666Z" fill="#15324F"/>
<path d="M8.54833 5.90117C8.98519 5.90117 9.33852 5.56044 9.33852 5.1143C9.33852 4.66816 8.98519 4.32742 8.54833 4.32742C8.10816 4.32742 7.75549 4.66816 7.75549 5.1143C7.75549 5.56044 8.10816 5.90117 8.54833 5.90117ZM8.54833 5.75666C8.1897 5.75666 7.90929 5.47293 7.90929 5.1143C7.90929 4.75566 8.1897 4.47194 8.54833 4.47194C8.90697 4.47194 9.18473 4.75566 9.18473 5.1143C9.18473 5.47293 8.90697 5.75666 8.54833 5.75666Z" fill="#15324F"/>
<path d="M9.62449 3.99531C9.69079 3.99531 9.74514 3.94161 9.74514 3.87466C9.74514 3.81168 9.69079 3.75732 9.62449 3.75732C9.5582 3.75732 9.50385 3.81168 9.50385 3.87466C9.50385 3.94161 9.5582 3.99531 9.62449 3.99531ZM9.54892 5.86803H9.70007V4.36057H9.54892V5.86803Z" fill="#15324F"/>
<path d="M11.6235 4.32742C11.4213 4.32742 11.2284 4.42355 11.1203 4.63501C11.0414 4.43548 10.8697 4.32742 10.6496 4.32742C10.4567 4.32742 10.2758 4.41161 10.1644 4.61977V4.36057H10.0132V5.86803H10.1644V5.02679C10.1644 4.64098 10.3845 4.47194 10.6317 4.47194C10.8638 4.47194 11.0176 4.62573 11.0176 4.91211V5.86803H11.168V5.02679C11.168 4.64098 11.3676 4.47194 11.6208 4.47194C11.8555 4.47194 12.0219 4.62573 12.0219 4.91211V5.86803H12.1723V4.91211C12.1723 4.53558 11.943 4.32742 11.6235 4.32742Z" fill="#15324F"/>
<path d="M13.125 4.32742C12.6636 4.32742 12.3441 4.67081 12.3441 5.1143C12.3441 5.56972 12.6723 5.90117 13.137 5.90117C13.4353 5.90117 13.6706 5.76528 13.7939 5.56044L13.6613 5.48221C13.5738 5.64197 13.3869 5.75666 13.1396 5.75666C12.7962 5.75666 12.537 5.53326 12.5006 5.19252H13.8668C13.8668 5.16866 13.8695 5.14413 13.8695 5.12026C13.8695 4.70727 13.5831 4.32742 13.125 4.32742ZM13.125 4.47194C13.42 4.47194 13.6799 4.67678 13.713 5.04469H12.5006C12.5311 4.70992 12.781 4.47194 13.125 4.47194Z" fill="#15324F"/>
<path d="M14.762 4.32742C14.53 4.32742 14.3365 4.42355 14.2224 4.64695V4.36057H14.0713V5.86803H14.2224V5.07187C14.2224 4.66484 14.4545 4.47194 14.7501 4.47194C15.0332 4.47194 15.1929 4.65291 15.1929 4.93001V5.86803H15.3467V4.93001C15.3467 4.56541 15.1207 4.32742 14.762 4.32742Z" fill="#15324F"/>
<path d="M16.3932 4.5084V4.36057H15.9437V3.93829L15.79 3.98337V4.36057H15.4585V4.5084H15.79V5.48818C15.79 5.83157 15.9981 5.92835 16.3932 5.86803V5.73213C16.0856 5.75931 15.9437 5.75334 15.9437 5.48818V4.5084H16.3932Z" fill="#15324F"/>
<path d="M17.2945 5.90117C17.7314 5.90117 18.0847 5.56044 18.0847 5.1143C18.0847 4.66816 17.7314 4.32742 17.2945 4.32742C16.8544 4.32742 16.5017 4.66816 16.5017 5.1143C16.5017 5.56044 16.8544 5.90117 17.2945 5.90117ZM17.2945 5.75666C16.9359 5.75666 16.6555 5.47293 16.6555 5.1143C16.6555 4.75566 16.9359 4.47194 17.2945 4.47194C17.6532 4.47194 17.9309 4.75566 17.9309 5.1143C17.9309 5.47293 17.6532 5.75666 17.2945 5.75666Z" fill="#15324F"/>
<path d="M20.2791 3.75732V4.70993C20.1558 4.47791 19.9231 4.32743 19.6308 4.32743C19.1999 4.32743 18.8499 4.66816 18.8499 5.1143C18.8499 5.56044 19.1999 5.90118 19.6308 5.90118C19.9231 5.90118 20.1558 5.7507 20.2791 5.51801V5.86803H20.4302V3.75732H20.2791ZM19.64 5.75666C19.2814 5.75666 19.001 5.47294 19.001 5.1143C19.001 4.75567 19.2814 4.47194 19.64 4.47194C19.9987 4.47194 20.2791 4.75567 20.2791 5.1143C20.2791 5.47294 19.9987 5.75666 19.64 5.75666Z" fill="#15324F"/>
<path d="M21.422 4.32742C20.9606 4.32742 20.6411 4.67081 20.6411 5.1143C20.6411 5.56972 20.9692 5.90117 21.4339 5.90117C21.7322 5.90117 21.9675 5.76528 22.0908 5.56044L21.9583 5.48221C21.8708 5.64197 21.6838 5.75666 21.4365 5.75666C21.0932 5.75666 20.834 5.53326 20.7975 5.19252H22.1638C22.1638 5.16866 22.1664 5.14413 22.1664 5.12026C22.1664 4.70727 21.88 4.32742 21.422 4.32742ZM21.422 4.47194C21.717 4.47194 21.9768 4.67678 22.01 5.04469H20.7975C20.828 4.70992 21.0779 4.47194 21.422 4.47194Z" fill="#15324F"/>
<path d="M5.64791 7.03342V7.82957C5.64791 8.2366 5.41523 8.42951 5.12023 8.42951C4.83651 8.42951 4.67674 8.24853 4.67674 7.97077V7.03342H4.52295V7.97077C4.52295 8.33604 4.749 8.57402 5.1083 8.57402C5.34032 8.57402 5.53322 8.47724 5.64791 8.2545V8.54087H5.79839V7.03342H5.64791Z" fill="#15324F"/>
<path d="M7.72184 7.00027C7.51965 7.00027 7.32675 7.0964 7.21869 7.30786C7.13981 7.10833 6.96811 7.00027 6.74803 7.00027C6.55512 7.00027 6.37415 7.08446 6.26278 7.29262V7.03342H6.11163V8.54088H6.26278V7.69965C6.26278 7.31383 6.48286 7.14479 6.73013 7.14479C6.96215 7.14479 7.11594 7.29858 7.11594 7.58496V8.54088H7.26642V7.69965C7.26642 7.31383 7.46596 7.14479 7.71919 7.14479C7.95386 7.14479 8.12025 7.29858 8.12025 7.58496V8.54088H8.27073V7.58496C8.27073 7.20843 8.04136 7.00027 7.72184 7.00027Z" fill="#15324F"/>
<path d="M9.87186 7.03342V7.37416C9.74525 7.1481 9.51256 7.00027 9.22354 7.00027C8.7953 7.00027 8.44263 7.34101 8.44263 7.78715C8.44263 8.23329 8.7953 8.57402 9.22354 8.57402C9.51256 8.57402 9.74525 8.42619 9.87186 8.20014V8.54088H10.0257V7.03342H9.87186ZM9.23547 8.42951C8.87683 8.42951 8.59642 8.14578 8.59642 7.78715C8.59642 7.42851 8.87683 7.14479 9.23547 7.14479C9.5941 7.14479 9.87186 7.42851 9.87186 7.78715C9.87186 8.14578 9.5941 8.42951 9.23547 8.42951Z" fill="#15324F"/>
<path d="M11.7922 7.00027C11.4992 7.00027 11.2672 7.15076 11.1439 7.38277V7.03342H10.9927V9.14413H11.1439V8.19086C11.2672 8.42354 11.4992 8.57402 11.7922 8.57402C12.2231 8.57402 12.5731 8.23329 12.5731 7.78715C12.5731 7.34101 12.2231 7.00027 11.7922 7.00027ZM11.7829 8.42951C11.4243 8.42951 11.1439 8.14578 11.1439 7.78715C11.1439 7.42851 11.4243 7.14479 11.7829 7.14479C12.1416 7.14479 12.422 7.42851 12.422 7.78715C12.422 8.14578 12.1416 8.42951 11.7829 8.42951Z" fill="#15324F"/>
<path d="M14.1137 7.03342V7.37416C13.9871 7.1481 13.7544 7.00027 13.4654 7.00027C13.0372 7.00027 12.6845 7.34101 12.6845 7.78715C12.6845 8.23329 13.0372 8.57402 13.4654 8.57402C13.7544 8.57402 13.9871 8.42619 14.1137 8.20014V8.54088H14.2675V7.03342H14.1137ZM13.4773 8.42951C13.1187 8.42951 12.8383 8.14578 12.8383 7.78715C12.8383 7.42851 13.1187 7.14479 13.4773 7.14479C13.836 7.14479 14.1137 7.42851 14.1137 7.78715C14.1137 8.14578 13.836 8.42951 13.4773 8.42951Z" fill="#15324F"/>
<path d="M15.2712 8.57402C15.5668 8.57402 15.8201 8.42354 15.9407 8.19086L15.8141 8.11595C15.714 8.30289 15.5151 8.42951 15.2712 8.42951C14.9059 8.42951 14.6321 8.14578 14.6321 7.78715C14.6321 7.42851 14.9059 7.14479 15.2712 7.14479C15.5125 7.14479 15.7173 7.26875 15.8048 7.45835L15.9281 7.38609C15.8201 7.15076 15.5668 7.00027 15.2712 7.00027C14.8158 7.00027 14.4783 7.34101 14.4783 7.78715C14.4783 8.23329 14.8158 8.57402 15.2712 8.57402Z" fill="#15324F"/>
<path d="M16.1966 6.66816C16.2629 6.66816 16.3173 6.61446 16.3173 6.54751C16.3173 6.48453 16.2629 6.43018 16.1966 6.43018C16.1303 6.43018 16.076 6.48453 16.076 6.54751C16.076 6.61446 16.1303 6.66816 16.1966 6.66816ZM16.1211 8.54088H16.2722V7.03342H16.1211V8.54088Z" fill="#15324F"/>
<path d="M17.2641 7.00027C16.8027 7.00027 16.4832 7.34366 16.4832 7.78715C16.4832 8.24257 16.8114 8.57402 17.2761 8.57402C17.5744 8.57402 17.8097 8.43813 17.933 8.23329L17.8004 8.15506C17.7129 8.31483 17.526 8.42951 17.2787 8.42951C16.9353 8.42951 16.6761 8.20611 16.6397 7.86537H18.0059C18.0059 7.84151 18.0086 7.81698 18.0086 7.79312C18.0086 7.38012 17.7222 7.00027 17.2641 7.00027ZM17.2641 7.14479C17.5591 7.14479 17.819 7.34963 17.8521 7.71754H16.6397C16.6702 7.38277 16.9201 7.14479 17.2641 7.14479Z" fill="#15324F"/>
<path d="M18.9011 7.00027C18.6691 7.00027 18.4755 7.0964 18.3615 7.3198V7.03342H18.2103V8.54088H18.3615V7.74472C18.3615 7.3377 18.5935 7.14479 18.8891 7.14479C19.1722 7.14479 19.332 7.32576 19.332 7.60286V8.54088H19.4858V7.60286C19.4858 7.23826 19.2597 7.00027 18.9011 7.00027Z" fill="#15324F"/>
<path d="M20.5323 7.18125V7.03342H20.0828V6.61115L19.9291 6.65622V7.03342H19.5976V7.18125H19.9291V8.16103C19.9291 8.50442 20.1372 8.6012 20.5323 8.54088V8.40498C20.2247 8.43216 20.0828 8.42619 20.0828 8.16103V7.18125H20.5323Z" fill="#15324F"/>
<path d="M21.4217 7.00027C20.9603 7.00027 20.6407 7.34366 20.6407 7.78715C20.6407 8.24257 20.9689 8.57402 21.4336 8.57402C21.7319 8.57402 21.9672 8.43813 22.0905 8.23329L21.9579 8.15506C21.8704 8.31483 21.6835 8.42951 21.4362 8.42951C21.0929 8.42951 20.8337 8.20611 20.7972 7.86537H22.1635C22.1635 7.84151 22.1661 7.81698 22.1661 7.79312C22.1661 7.38012 21.8797 7.00027 21.4217 7.00027ZM21.4217 7.14479C21.7167 7.14479 21.9765 7.34963 22.0097 7.71754H20.7972C20.8277 7.38277 21.0776 7.14479 21.4217 7.14479Z" fill="#15324F"/>
<path d="M14.7417 9.67313C14.5395 9.67313 14.3466 9.76925 14.2385 9.98072C14.1596 9.78118 13.9879 9.67313 13.7679 9.67313C13.575 9.67313 13.394 9.75732 13.2826 9.96547V9.70627H13.1315V11.2137H13.2826V10.3725C13.2826 9.98668 13.5027 9.81764 13.75 9.81764C13.982 9.81764 14.1358 9.97144 14.1358 10.2578V11.2137H14.2863V10.3725C14.2863 9.98668 14.4858 9.81764 14.739 9.81764C14.9737 9.81764 15.1401 9.97144 15.1401 10.2578V11.2137H15.2906V10.2578C15.2906 9.88128 15.0612 9.67313 14.7417 9.67313Z" fill="#15324F"/>
<path d="M15.6401 9.34101C15.7063 9.34101 15.7607 9.28732 15.7607 9.22036C15.7607 9.15739 15.7063 9.10303 15.6401 9.10303C15.5738 9.10303 15.5194 9.15739 15.5194 9.22036C15.5194 9.28732 15.5738 9.34101 15.6401 9.34101ZM15.5645 11.2137H15.7156V9.70628H15.5645V11.2137Z" fill="#15324F"/>
<path d="M16.7194 9.67313C16.4874 9.67313 16.2939 9.76925 16.1798 9.99265V9.70627H16.0287V11.2137H16.1798V10.4176C16.1798 10.0105 16.4118 9.81764 16.7075 9.81764C16.9906 9.81764 17.1503 9.99862 17.1503 10.2757V11.2137H17.3041V10.2757C17.3041 9.91111 17.0781 9.67313 16.7194 9.67313Z" fill="#15324F"/>
<path d="M18.2691 9.67313C18.0371 9.67313 17.8435 9.76925 17.7295 9.99265V9.10303H17.5784V11.2137H17.7295V10.4176C17.7295 10.0106 17.9615 9.81764 18.2572 9.81764C18.5403 9.81764 18.7 9.99862 18.7 10.2757V11.2137H18.8538V10.2757C18.8538 9.91111 18.6278 9.67313 18.2691 9.67313Z" fill="#15324F"/>
<path d="M20.4552 9.70627V10.047C20.3286 9.82096 20.0959 9.67313 19.8068 9.67313C19.3786 9.67313 19.0259 10.0139 19.0259 10.46C19.0259 10.9061 19.3786 11.2469 19.8068 11.2469C20.0959 11.2469 20.3286 11.099 20.4552 10.873V11.2137H20.609V9.70627H20.4552ZM19.8188 11.1024C19.4601 11.1024 19.1797 10.8186 19.1797 10.46C19.1797 10.1014 19.4601 9.81764 19.8188 9.81764C20.1774 9.81764 20.4552 10.1014 20.4552 10.46C20.4552 10.8186 20.1774 11.1024 19.8188 11.1024Z" fill="#15324F"/>
<path d="M21.3534 10.6708H21.5132C21.5132 10.2094 22.0979 10.0682 22.0979 9.61281C22.0979 9.25683 21.8148 9.06989 21.4767 9.06989C21.1996 9.06989 20.9431 9.20247 20.8496 9.46763L20.9855 9.5432C21.0518 9.3324 21.2414 9.22368 21.4767 9.22368C21.7512 9.22368 21.9355 9.35958 21.9355 9.61281C21.9355 10.0139 21.3534 10.1405 21.3534 10.6708ZM21.4343 11.2436C21.5099 11.2436 21.5702 11.1839 21.5702 11.1083C21.5702 11.0328 21.5099 10.9724 21.4343 10.9724C21.3561 10.9724 21.2991 11.0328 21.2991 11.1083C21.2991 11.1839 21.3561 11.2436 21.4343 11.2436Z" fill="#15324F"/>
</svg>
