<svg width="63" height="26" viewBox="0 0 63 26" fill="none" xmlns="http://www.w3.org/2000/svg">
<path d="M1.10573 2.31091C1.10573 2.19822 1.20583 2.1359 1.36825 2.1359C1.57375 2.1359 1.69904 2.2486 1.78654 2.41101L2.58601 1.98012C2.3235 1.53663 1.87405 1.3119 1.36825 1.3119C0.718595 1.3119 0.143851 1.65529 0.143851 2.3361C0.143851 3.41664 1.68048 3.23501 1.68048 3.57839C1.68048 3.70369 1.56778 3.77263 1.34306 3.77263C1.06795 3.77263 0.893603 3.64137 0.812065 3.40405L0 3.8661C0.243951 4.3719 0.718595 4.60922 1.34306 4.60922C2.01724 4.60922 2.6417 4.30296 2.6417 3.58502C2.6417 2.42957 1.10573 2.66689 1.10573 2.31091Z" fill="#6244BD"/>
<path d="M4.31531 0.918136C4.88408 1.26815 5.5397 1.15546 5.5397 0.0875091H4.78995C4.78995 0.337426 4.7336 0.368583 4.52147 0.237327C3.95336 -0.112027 3.29774 4.87079e-06 3.29774 1.06795H4.04683C4.04683 0.818036 4.10318 0.786879 4.31531 0.918136ZM5.09622 1.39941V1.69241C4.89005 1.45509 4.58379 1.3119 4.16549 1.3119C3.34746 1.3119 2.67328 2.02984 2.67328 2.96056C2.67328 3.89129 3.34746 4.60922 4.16549 4.60922C4.58379 4.60922 4.89005 4.46537 5.09622 4.22805V4.52172H6.03291V1.39941H5.09622ZM4.35309 3.72225C3.9222 3.72225 3.60997 3.42858 3.60997 2.96056C3.60997 2.49188 3.9222 2.19822 4.35309 2.19822C4.78399 2.19822 5.09622 2.49188 5.09622 2.96056C5.09622 3.42858 4.78399 3.72225 4.35309 3.72225Z" fill="#6244BD"/>
<path d="M7.90615 4.60922C8.82428 4.60922 9.56144 3.89129 9.56144 2.96056C9.56144 2.02984 8.82428 1.3119 7.90615 1.3119C6.98802 1.3119 6.25153 2.02984 6.25153 2.96056C6.25153 3.89129 6.98802 4.60922 7.90615 4.60922ZM7.90615 3.69706C7.50045 3.69706 7.18822 3.40405 7.18822 2.96056C7.18822 2.51708 7.50045 2.22341 7.90615 2.22341C8.31185 2.22341 8.62474 2.51708 8.62474 2.96056C8.62474 3.40405 8.31185 3.69706 7.90615 3.69706Z" fill="#6244BD"/>
<path d="M14.5259 1.3119C14.0824 1.3119 13.7954 1.47432 13.6204 1.72357C13.4454 1.46172 13.1702 1.3119 12.8023 1.3119C12.3834 1.3119 12.1089 1.47432 11.9651 1.68645V1.39941H11.0284V4.52172H11.9651V2.76036C11.9651 2.39245 12.1401 2.17369 12.4523 2.17369C12.7519 2.17369 12.9018 2.37322 12.9018 2.68546V4.52172H13.8385V2.76036C13.8385 2.39245 14.0135 2.17369 14.3257 2.17369C14.626 2.17369 14.7758 2.37322 14.7758 2.68546V4.52172H15.7125V2.60458C15.7125 1.82367 15.2438 1.3119 14.5259 1.3119Z" fill="#6244BD"/>
<path d="M18.3101 1.39941V1.69242C18.1039 1.45509 17.7977 1.3119 17.3794 1.3119C16.5613 1.3119 15.8871 2.02984 15.8871 2.96056C15.8871 3.89129 16.5613 4.60922 17.3794 4.60922C17.7977 4.60922 18.1039 4.46537 18.3101 4.22805V4.52172H19.2468V1.39941H18.3101ZM17.567 3.72225C17.1361 3.72225 16.8238 3.42858 16.8238 2.96056C16.8238 2.49189 17.1361 2.19822 17.567 2.19822C17.9979 2.19822 18.3101 2.49189 18.3101 2.96056C18.3101 3.42858 17.9979 3.72225 17.567 3.72225Z" fill="#6244BD"/>
<path d="M20.0899 1.1243C20.3955 1.1243 20.6521 0.868412 20.6521 0.562148C20.6521 0.256546 20.3955 0 20.0899 0C19.7837 0 19.5278 0.256546 19.5278 0.562148C19.5278 0.868412 19.7837 1.1243 20.0899 1.1243ZM19.6212 4.52171H20.5579V1.3994H19.6212V4.52171Z" fill="#6244BD"/>
<path d="M21.8195 2.31091C21.8195 2.19822 21.9196 2.1359 22.0821 2.1359C22.2876 2.1359 22.4128 2.2486 22.5003 2.41101L23.2998 1.98012C23.0373 1.53663 22.5879 1.3119 22.0821 1.3119C21.4324 1.3119 20.8577 1.65529 20.8577 2.3361C20.8577 3.41664 22.3943 3.23501 22.3943 3.57839C22.3943 3.70369 22.2816 3.77263 22.0569 3.77263C21.7818 3.77263 21.6074 3.64137 21.5259 3.40405L20.7138 3.8661C20.9578 4.3719 21.4324 4.60922 22.0569 4.60922C22.731 4.60922 23.3555 4.30296 23.3555 3.58502C23.3555 2.42957 21.8195 2.66689 21.8195 2.31091Z" fill="#6244BD"/>
<path d="M27.0589 0.149826V1.69242C26.8528 1.4551 26.5465 1.31191 26.1282 1.31191C25.3102 1.31191 24.636 2.02984 24.636 2.96057C24.636 3.89129 25.3102 4.60922 26.1282 4.60922C26.5465 4.60922 26.8528 4.46537 27.0589 4.22805V4.52172H27.9956V0.149826H27.0589ZM26.3158 3.72225C25.8849 3.72225 25.5727 3.42858 25.5727 2.96057C25.5727 2.49189 25.8849 2.19822 26.3158 2.19822C26.7467 2.19822 27.0589 2.49189 27.0589 2.96057C27.0589 3.42858 26.7467 3.72225 26.3158 3.72225Z" fill="#6244BD"/>
<path d="M29.2073 3.33511H31.424C31.4492 3.21645 31.4612 3.09182 31.4612 2.96056C31.4612 2.01724 30.787 1.3119 29.8755 1.3119C28.8884 1.3119 28.2142 2.02984 28.2142 2.96056C28.2142 3.89129 28.8758 4.60922 29.9438 4.60922C30.5371 4.60922 30.9991 4.39046 31.3054 3.9662L30.5556 3.53531C30.431 3.67253 30.2122 3.77263 29.9564 3.77263C29.613 3.77263 29.3259 3.65993 29.2073 3.33511ZM29.188 2.63574C29.2756 2.31688 29.5129 2.14253 29.8689 2.14253C30.1499 2.14253 30.431 2.27379 30.5311 2.63574H29.188Z" fill="#6244BD"/>
<path d="M0.289695 19.8524H9.25423V16.9522H4.82864L7.01293 14.7487C8.21876 13.5435 9.06596 12.1872 9.06596 10.6055C9.06596 7.94985 6.95658 6.40527 4.60259 6.40527C2.77561 6.40527 1.00564 7.32804 0.157776 9.28694L2.70004 10.7745C3.05801 9.94588 3.7176 9.34329 4.64038 9.34329C5.52536 9.34329 6.05237 9.90875 6.05237 10.7374C6.05237 11.509 5.48757 12.2813 4.71528 13.0722L0.289695 17.6675V19.8524Z" fill="#6244BD"/>
<path d="M14.9037 20.1162C18.3123 20.1162 20.2712 17.3287 20.2712 13.2611C20.2712 9.19281 18.3123 6.40527 14.9037 6.40527C11.495 6.40527 9.53607 9.19281 9.53607 13.2611C9.53607 17.3287 11.495 20.1162 14.9037 20.1162ZM14.9037 17.1782C13.322 17.1782 12.5497 15.8034 12.5497 13.2611C12.5497 10.7182 13.322 9.34329 14.9037 9.34329C16.486 9.34329 17.2577 10.7182 17.2577 13.2611C17.2577 15.8034 16.486 17.1782 14.9037 17.1782Z" fill="#6244BD"/>
<path d="M22.5303 20.1162C23.5101 20.1162 24.3195 19.3062 24.3195 18.3271C24.3195 17.3473 23.5101 16.5379 22.5303 16.5379C21.5512 16.5379 20.7411 17.3473 20.7411 18.3271C20.7411 19.3062 21.5512 20.1162 22.5303 20.1162Z" fill="#6244BD"/>
<path d="M30.1576 20.1162C33.5662 20.1162 35.5251 17.3287 35.5251 13.2611C35.5251 9.19281 33.5662 6.40527 30.1576 6.40527C26.7489 6.40527 24.79 9.19281 24.79 13.2611C24.79 17.3287 26.7489 20.1162 30.1576 20.1162ZM30.1576 17.1782C28.5759 17.1782 27.8036 15.8034 27.8036 13.2611C27.8036 10.7182 28.5759 9.34329 30.1576 9.34329C31.7399 9.34329 32.5116 10.7182 32.5116 13.2611C32.5116 15.8034 31.7399 17.1782 30.1576 17.1782Z" fill="#6244BD"/>
<path d="M41.0802 20.1162C44.4889 20.1162 46.4478 17.3287 46.4478 13.2611C46.4478 9.19281 44.4889 6.40527 41.0802 6.40527C37.6715 6.40527 35.7126 9.19281 35.7126 13.2611C35.7126 17.3287 37.6715 20.1162 41.0802 20.1162ZM41.0802 17.1782C39.4985 17.1782 38.7262 15.8034 38.7262 13.2611C38.7262 10.7182 39.4985 9.34329 41.0802 9.34329C42.6625 9.34329 43.4342 10.7182 43.4342 13.2611C43.4342 15.8034 42.6625 17.1782 41.0802 17.1782Z" fill="#6244BD"/>
<path d="M52.0028 20.1162C55.4115 20.1162 57.3704 17.3287 57.3704 13.2611C57.3704 9.19281 55.4115 6.40527 52.0028 6.40527C48.5941 6.40527 46.6352 9.19281 46.6352 13.2611C46.6352 17.3287 48.5941 20.1162 52.0028 20.1162ZM52.0028 17.1782C50.4211 17.1782 49.6488 15.8034 49.6488 13.2611C49.6488 10.7182 50.4211 9.34329 52.0028 9.34329C53.5851 9.34329 54.3568 10.7182 54.3568 13.2611C54.3568 15.8034 53.5851 17.1782 52.0028 17.1782Z" fill="#6244BD"/>
<path d="M54.4253 12.7175C54.5082 12.7175 54.5765 12.6498 54.5765 12.567C54.5765 12.4874 54.5082 12.4191 54.4253 12.4191C54.3424 12.4191 54.2742 12.4874 54.2742 12.567C54.2742 12.6498 54.3424 12.7175 54.4253 12.7175ZM54.3312 15.0628H54.5194V13.1749H54.3312V15.0628Z" fill="#2C445D"/>
<path d="M1.93568 22.4835V22.1805H1.01357V21.3141L0.698029 21.4069V22.1805H0.0178833V22.4835H0.698029V24.4947C0.698029 25.2001 1.12494 25.3983 1.93568 25.2743V24.9959C1.30459 25.0516 1.01357 25.039 1.01357 24.4947V22.4835H1.93568Z" fill="#2C445D"/>
<path d="M2.67793 22.7871V22.1805H2.36902V25.2743H2.67793V23.5541C2.67793 22.7619 3.17909 22.4344 3.71141 22.4344V22.1374C3.29046 22.1374 2.88874 22.2979 2.67793 22.7871Z" fill="#2C445D"/>
<path d="M6.74972 22.1805V22.8799C6.48986 22.4159 6.01323 22.1122 5.41926 22.1122C4.54024 22.1122 3.81635 22.8116 3.81635 23.7278C3.81635 24.6432 4.54024 25.3426 5.41926 25.3426C6.01323 25.3426 6.48986 25.039 6.74972 24.575V25.2743H7.06527V22.1805H6.74972ZM5.44379 25.0456C4.7073 25.0456 4.13189 24.4636 4.13189 23.7278C4.13189 22.9913 4.7073 22.4092 5.44379 22.4092C6.18028 22.4092 6.74972 22.9913 6.74972 23.7278C6.74972 24.4636 6.18028 25.0456 5.44379 25.0456Z" fill="#2C445D"/>
<path d="M9.12514 22.1122C8.6485 22.1122 8.25275 22.3105 8.01741 22.7685V22.1805H7.7085V25.2743H8.01741V23.6409C8.01741 22.8056 8.49404 22.4092 9.10061 22.4092C9.68198 22.4092 10.0101 22.7805 10.0101 23.3499V25.2743H10.3257V23.3499C10.3257 22.6015 9.86163 22.1122 9.12514 22.1122Z" fill="#2C445D"/>
<path d="M11.0988 22.9913C11.0988 22.62 11.4389 22.4092 11.8412 22.4092C12.1813 22.4092 12.5035 22.5577 12.6334 22.8799L12.8933 22.7314C12.7262 22.3535 12.3424 22.1122 11.8412 22.1122C11.2102 22.1122 10.7892 22.502 10.7892 22.9913C10.7892 24.105 12.6646 23.6224 12.6646 24.4636C12.6646 24.8534 12.2993 25.0456 11.8658 25.0456C11.4017 25.0456 11.0676 24.8348 10.9563 24.5007L10.6904 24.6558C10.8389 25.0516 11.2473 25.3426 11.8658 25.3426C12.528 25.3426 12.9735 24.9714 12.9735 24.4636C12.9735 23.3313 11.0988 23.8206 11.0988 22.9913Z" fill="#2C445D"/>
<path d="M14.8727 21.1722V20.8753C14.0626 20.8129 13.6357 21.2525 13.6357 22.0135V22.1805H13.1034V22.4835H13.6357V25.2743H13.9513V22.4835H14.8727V22.1805H13.9513V22.0135C13.9513 21.4135 14.2416 21.1225 14.8727 21.1722Z" fill="#2C445D"/>
<path d="M16.4568 25.3426C17.3544 25.3426 18.0783 24.6432 18.0783 23.7278C18.0783 22.8116 17.3544 22.1122 16.4568 22.1122C15.5532 22.1122 14.8293 22.8116 14.8293 23.7278C14.8293 24.6432 15.5532 25.3426 16.4568 25.3426ZM16.4568 25.0456C15.7203 25.0456 15.1449 24.4636 15.1449 23.7278C15.1449 22.9913 15.7203 22.4092 16.4568 22.4092C17.1933 22.4092 17.7627 22.9913 17.7627 23.7278C17.7627 24.4636 17.1933 25.0456 16.4568 25.0456Z" fill="#2C445D"/>
<path d="M18.8201 22.7871V22.1805H18.5112V25.2743H18.8201V23.5541C18.8201 22.7619 19.3212 22.4344 19.8536 22.4344V22.1374C19.4326 22.1374 19.0309 22.2979 18.8201 22.7871Z" fill="#2C445D"/>
<path d="M23.4733 22.1122C23.0589 22.1122 22.6625 22.3105 22.4398 22.7433C22.2794 22.335 21.9267 22.1122 21.4746 22.1122C21.0788 22.1122 20.7076 22.2859 20.4782 22.7128V22.1805H20.1693V25.2743H20.4782V23.5481C20.4782 22.7559 20.9303 22.4092 21.4375 22.4092C21.9141 22.4092 22.2296 22.7248 22.2296 23.3128V25.2743H22.5392V23.5481C22.5392 22.7559 22.9476 22.4092 23.4673 22.4092C23.9499 22.4092 24.29 22.7248 24.29 23.3128V25.2743H24.5995V23.3128C24.5995 22.5392 24.1289 22.1122 23.4733 22.1122Z" fill="#2C445D"/>
<path d="M27.8849 22.1805V22.8799C27.6251 22.4159 27.1484 22.1122 26.5545 22.1122C25.6754 22.1122 24.9515 22.8116 24.9515 23.7278C24.9515 24.6432 25.6754 25.3426 26.5545 25.3426C27.1484 25.3426 27.6251 25.039 27.8849 24.575V25.2743H28.2005V22.1805H27.8849ZM26.579 25.0456C25.8425 25.0456 25.2671 24.4636 25.2671 23.7278C25.2671 22.9913 25.8425 22.4092 26.579 22.4092C27.3155 22.4092 27.8849 22.9913 27.8849 23.7278C27.8849 24.4636 27.3155 25.0456 26.579 25.0456Z" fill="#2C445D"/>
<path d="M31.5722 20.9429V22.8985C31.3183 22.4218 30.8424 22.1122 30.2418 22.1122C29.3568 22.1122 28.6395 22.8116 28.6395 23.7278C28.6395 24.6432 29.3568 25.3426 30.2418 25.3426C30.8424 25.3426 31.3183 25.033 31.5722 24.5564V25.2743H31.8818V20.9429H31.5722ZM30.2603 25.0456C29.5238 25.0456 28.9484 24.4636 28.9484 23.7278C28.9484 22.9913 29.5238 22.4092 30.2603 22.4092C30.9968 22.4092 31.5722 22.9913 31.5722 23.7278C31.5722 24.4636 30.9968 25.0456 30.2603 25.0456Z" fill="#2C445D"/>
<path d="M35.2476 22.1805V22.8799C34.9877 22.4159 34.5111 22.1122 33.9171 22.1122C33.0381 22.1122 32.3142 22.8116 32.3142 23.7278C32.3142 24.6432 33.0381 25.3426 33.9171 25.3426C34.5111 25.3426 34.9877 25.039 35.2476 24.575V25.2743H35.5631V22.1805H35.2476ZM33.9417 25.0456C33.2052 25.0456 32.6298 24.4636 32.6298 23.7278C32.6298 22.9913 33.2052 22.4092 33.9417 22.4092C34.6781 22.4092 35.2476 22.9913 35.2476 23.7278C35.2476 24.4636 34.6781 25.0456 33.9417 25.0456Z" fill="#2C445D"/>
<path d="M36.4165 22.9913C36.4165 22.62 36.7566 22.4092 37.159 22.4092C37.4991 22.4092 37.8212 22.5577 37.9512 22.8799L38.211 22.7314C38.044 22.3535 37.6602 22.1122 37.159 22.1122C36.5279 22.1122 36.107 22.502 36.107 22.9913C36.107 24.105 37.9823 23.6224 37.9823 24.4636C37.9823 24.8534 37.6171 25.0456 37.1835 25.0456C36.7195 25.0456 36.3854 24.8348 36.274 24.5007L36.0082 24.6558C36.1567 25.0516 36.565 25.3426 37.1835 25.3426C37.8458 25.3426 38.2912 24.9714 38.2912 24.4636C38.2912 23.3313 36.4165 23.8206 36.4165 22.9913Z" fill="#2C445D"/>
<path d="M61.6809 12.8438L61.307 12.4699L61.429 12.3479L61.6829 12.6018L62.2338 12.0675L62.3537 12.1915L61.6809 12.8438Z" fill="white"/>
</svg>
