<svg width="64" height="34" viewBox="0 0 64 34" fill="none" xmlns="http://www.w3.org/2000/svg">
<mask id="mask0_37_4" style="mask-type:luminance" maskUnits="userSpaceOnUse" x="0" y="27" width="28" height="7">
<path d="M0.0288086 27.8714H27.2665V33.3444H0.0288086V27.8714Z" fill="white"/>
</mask>
<g mask="url(#mask0_37_4)">
<path d="M27.0272 30.6159C27.0272 31.9602 25.9387 33.054 24.6016 33.054H2.69437C1.35728 33.054 0.268782 31.9602 0.268782 30.6159V30.6006C0.268782 29.2562 1.35728 28.1624 2.69437 28.1624H24.6016C25.9387 28.1624 27.0272 29.2562 27.0272 30.6006V30.6159ZM24.6016 27.9218H2.69437C1.22271 27.9218 0.0288086 29.121 0.0288086 30.6006V30.6159C0.0288086 32.0955 1.22271 33.2947 2.69437 33.2947H24.6016C26.0732 33.2947 27.2665 32.0955 27.2665 30.6159V30.6006C27.2665 29.121 26.0732 27.9218 24.6016 27.9218Z" fill="#6244BD"/>
</g>
<path d="M2.69438 32.8134C1.48788 32.8134 0.506775 31.8277 0.506775 30.6159V30.6006C0.506775 29.3881 1.48788 28.4031 2.69438 28.4031H24.6016C25.8081 28.4031 26.7892 29.3881 26.7892 30.6006V30.6159C26.7892 31.8277 25.8081 32.8134 24.6016 32.8134H2.69438Z" fill="#6244BD"/>
<path d="M4.20315 30.6019L2.95158 29.3444C2.83027 29.4677 2.83027 29.6652 2.95158 29.7872L3.76365 30.6026L2.95158 31.4186C2.83027 31.5406 2.83027 31.7382 2.95158 31.8608L4.20315 30.6026H4.20183L4.20315 30.6019Z" fill="white"/>
<path d="M3.45609 30.6019L2.20518 29.3444C2.08387 29.4677 2.08387 29.6652 2.20518 29.7872L3.01658 30.6026L2.20518 31.4186C2.08387 31.5406 2.08387 31.7382 2.20518 31.8608L3.45609 30.6026V30.6019Z" fill="white"/>
<path d="M5.85251 31.1712H6.17601L5.7365 29.8772H5.3593L4.91913 31.1712H5.24263L5.30759 30.9677H5.7882L5.85251 31.1712ZM5.39642 30.6906L5.54757 30.2153L5.69937 30.6906H5.39642Z" fill="white"/>
<path d="M7.56793 30.4499H6.91894V30.7091H7.26498C7.21858 30.8331 7.10589 30.9086 6.93353 30.9086C6.68229 30.9086 6.52716 30.7476 6.52716 30.5275C6.52716 30.3001 6.68958 30.1397 6.90767 30.1397C7.05418 30.1397 7.17019 30.206 7.22388 30.2908L7.47579 30.147C7.36641 29.9733 7.15759 29.8513 6.90966 29.8513C6.52915 29.8513 6.23151 30.1509 6.23151 30.5261C6.23151 30.8974 6.52319 31.197 6.93021 31.197C7.29283 31.197 7.56793 30.9564 7.56793 30.5613V30.4499Z" fill="white"/>
<path d="M8.02984 30.8868V30.6574H8.49189V30.3763H8.02984V30.1616H8.53829V29.8772H7.73352V31.1712H8.54691V30.8868H8.02984Z" fill="white"/>
<path d="M9.43426 29.8772V30.5799L8.93509 29.8772H8.71301V31.1712H9.00933V30.4685L9.5085 31.1712H9.72992V29.8772H9.43426Z" fill="white"/>
<path d="M10.469 29.8772H9.95123V31.1712H10.469C10.8263 31.1712 11.0974 30.8901 11.0974 30.5242C11.0974 30.1582 10.8263 29.8772 10.469 29.8772ZM10.469 30.8868H10.2476V30.1616H10.469C10.6725 30.1616 10.813 30.3021 10.813 30.5242C10.813 30.7462 10.6725 30.8868 10.469 30.8868Z" fill="white"/>
<path d="M12.086 31.1712H12.4095L11.97 29.8772H11.5928L11.1526 31.1712H11.4761L11.5411 30.9677H12.0217L12.086 31.1712ZM11.6299 30.6906L11.7811 30.2153L11.9329 30.6906H11.6299Z" fill="white"/>
<path d="M13.2009 31.1712H13.5184L13.2433 30.6959C13.3858 30.6236 13.482 30.4798 13.482 30.3207C13.482 30.0747 13.2838 29.8772 13.0378 29.8772H12.5201V31.1712H12.8164V30.7462H12.9569L13.2009 31.1712ZM12.8164 30.1543H13.0378C13.1194 30.1543 13.1856 30.2265 13.1856 30.3207C13.1856 30.4148 13.1194 30.487 13.0378 30.487H12.8164V30.1543Z" fill="white"/>
<path d="M14.7365 31.197C14.9732 31.197 15.18 31.0803 15.2914 30.8974L15.0361 30.7495C14.9805 30.8496 14.8678 30.9086 14.7365 30.9086C14.5071 30.9086 14.3593 30.7548 14.3593 30.5242C14.3593 30.2928 14.5071 30.1397 14.7365 30.1397C14.8678 30.1397 14.9785 30.1987 15.0361 30.2988L15.2914 30.1509C15.178 29.9673 14.9712 29.8513 14.7365 29.8513C14.3461 29.8513 14.0637 30.143 14.0637 30.5242C14.0637 30.9047 14.3461 31.197 14.7365 31.197Z" fill="white"/>
<path d="M16.0652 31.197C16.4365 31.197 16.7381 30.9047 16.7381 30.5242C16.7381 30.143 16.4365 29.8513 16.0652 29.8513C15.6934 29.8513 15.3924 30.143 15.3924 30.5242C15.3924 30.9047 15.6934 31.197 16.0652 31.197ZM16.0652 30.9086C15.8544 30.9086 15.6881 30.7548 15.6881 30.5242C15.6881 30.2928 15.8544 30.1397 16.0652 30.1397C16.2761 30.1397 16.4424 30.2928 16.4424 30.5242C16.4424 30.7548 16.2761 30.9086 16.0652 30.9086Z" fill="white"/>
<path d="M17.625 29.8772V30.5799L17.1258 29.8772H16.9037V31.1712H17.2001V30.4685L17.6992 31.1712H17.9207V29.8772H17.625Z" fill="white"/>
<path d="M18.5954 31.197C18.8764 31.197 19.076 31.0492 19.076 30.7993C19.076 30.5261 18.8559 30.4572 18.6597 30.3982C18.4581 30.3372 18.427 30.2968 18.427 30.2378C18.427 30.1854 18.4734 30.1397 18.5655 30.1397C18.6835 30.1397 18.7452 30.1967 18.7889 30.2895L19.0389 30.143C18.9447 29.9527 18.7783 29.8513 18.5655 29.8513C18.3421 29.8513 18.1313 29.9952 18.1313 30.2451C18.1313 30.4923 18.3196 30.5851 18.5118 30.6388C18.7061 30.6925 18.7803 30.7237 18.7803 30.8032C18.7803 30.853 18.7452 30.9086 18.6047 30.9086C18.4581 30.9086 18.3786 30.8364 18.3329 30.729L18.0776 30.8775C18.1492 31.0677 18.3236 31.197 18.5954 31.197Z" fill="white"/>
<path d="M19.7129 31.197C19.998 31.197 20.2121 31.0306 20.2121 30.7535V29.8772H19.9164V30.7277C19.9164 30.8251 19.87 30.9087 19.7129 30.9087C19.5558 30.9087 19.5101 30.8251 19.5101 30.7277V29.8772H19.2137V30.7535C19.2137 31.0306 19.4285 31.197 19.7129 31.197Z" fill="white"/>
<path d="M20.7206 30.8868V29.8772H20.4243V31.1712H21.1827V30.8868H20.7206Z" fill="white"/>
<path d="M22.1805 29.8772H21.2192V30.1616H21.552V31.1712H21.8477V30.1616H22.1805V29.8772Z" fill="white"/>
<path d="M23.132 31.1712H23.4555L23.016 29.8772H22.6388L22.1986 31.1712H22.5221L22.5871 30.9677H23.0677L23.132 31.1712ZM22.6759 30.6906L22.827 30.2153L22.9789 30.6906H22.6759Z" fill="white"/>
<path d="M1.25948 3.2729C1.25948 3.16021 1.35958 3.09789 1.52199 3.09789C1.7275 3.09789 1.85279 3.21059 1.94029 3.373L2.73976 2.94211C2.47725 2.49862 2.02779 2.2739 1.52199 2.2739C0.872342 2.2739 0.297599 2.61728 0.297599 3.29809C0.297599 4.37864 1.83422 4.197 1.83422 4.54039C1.83422 4.66568 1.72153 4.73462 1.4968 4.73462C1.2217 4.73462 1.04735 4.60336 0.965813 4.36604L0.153748 4.82809C0.397699 5.33389 0.872342 5.57121 1.4968 5.57121C2.17098 5.57121 2.79544 5.26495 2.79544 4.54701C2.79544 3.39156 1.25948 3.62888 1.25948 3.2729Z" fill="#6244BD"/>
<path d="M4.46906 1.88013C5.03783 2.23014 5.69345 2.11745 5.69345 1.0495H4.9437C4.9437 1.29942 4.88735 1.33057 4.67522 1.19932C4.10711 0.849963 3.45149 0.961995 3.45149 2.02994H4.20058C4.20058 1.78003 4.25692 1.74887 4.46906 1.88013ZM5.24996 2.3614V2.65441C5.0438 2.41708 4.73753 2.27389 4.31924 2.27389C3.50121 2.27389 2.82703 2.99183 2.82703 3.92255C2.82703 4.85328 3.50121 5.57121 4.31924 5.57121C4.73753 5.57121 5.0438 5.42736 5.24996 5.19004V5.48371H6.18666V2.3614H5.24996ZM4.50684 4.68424C4.07595 4.68424 3.76372 4.39057 3.76372 3.92255C3.76372 3.45388 4.07595 3.16021 4.50684 3.16021C4.93773 3.16021 5.24996 3.45388 5.24996 3.92255C5.24996 4.39057 4.93773 4.68424 4.50684 4.68424Z" fill="#6244BD"/>
<path d="M8.0599 5.57121C8.97803 5.57121 9.71518 4.85328 9.71518 3.92255C9.71518 2.99183 8.97803 2.2739 8.0599 2.2739C7.14177 2.2739 6.40527 2.99183 6.40527 3.92255C6.40527 4.85328 7.14177 5.57121 8.0599 5.57121ZM8.0599 4.65905C7.6542 4.65905 7.34197 4.36604 7.34197 3.92255C7.34197 3.47907 7.6542 3.1854 8.0599 3.1854C8.4656 3.1854 8.77849 3.47907 8.77849 3.92255C8.77849 4.36604 8.4656 4.65905 8.0599 4.65905Z" fill="#6244BD"/>
<path d="M14.6796 2.2739C14.2362 2.2739 13.9491 2.43631 13.7741 2.68556C13.5991 2.42371 13.324 2.2739 12.9561 2.2739C12.5371 2.2739 12.2627 2.43631 12.1188 2.64844V2.3614H11.1821V5.48371H12.1188V3.72235C12.1188 3.35444 12.2938 3.13568 12.6061 3.13568C12.9057 3.13568 13.0555 3.33521 13.0555 3.64745V5.48371H13.9922V3.72235C13.9922 3.35444 14.1672 3.13568 14.4794 3.13568C14.7797 3.13568 14.9296 3.33521 14.9296 3.64745V5.48371H15.8663V3.56657C15.8663 2.78566 15.3976 2.2739 14.6796 2.2739Z" fill="#6244BD"/>
<path d="M18.4638 2.3614V2.65441C18.2577 2.41708 17.9514 2.2739 17.5331 2.2739C16.7151 2.2739 16.0409 2.99183 16.0409 3.92255C16.0409 4.85328 16.7151 5.57121 17.5331 5.57121C17.9514 5.57121 18.2577 5.42736 18.4638 5.19004V5.48371H19.4005V2.3614H18.4638ZM17.7207 4.68424C17.2898 4.68424 16.9776 4.39057 16.9776 3.92255C16.9776 3.45388 17.2898 3.16021 17.7207 3.16021C18.1516 3.16021 18.4638 3.45388 18.4638 3.92255C18.4638 4.39057 18.1516 4.68424 17.7207 4.68424Z" fill="#6244BD"/>
<path d="M20.2437 2.08629C20.5493 2.08629 20.8058 1.8304 20.8058 1.52414C20.8058 1.21854 20.5493 0.96199 20.2437 0.96199C19.9374 0.96199 19.6815 1.21854 19.6815 1.52414C19.6815 1.8304 19.9374 2.08629 20.2437 2.08629ZM19.775 5.4837H20.7117V2.36139H19.775V5.4837Z" fill="#6244BD"/>
<path d="M21.9733 3.2729C21.9733 3.16021 22.0734 3.09789 22.2358 3.09789C22.4413 3.09789 22.5666 3.21059 22.6541 3.373L23.4536 2.94211C23.1911 2.49862 22.7416 2.2739 22.2358 2.2739C21.5861 2.2739 21.0114 2.61728 21.0114 3.29809C21.0114 4.37864 22.548 4.197 22.548 4.54039C22.548 4.66568 22.4353 4.73462 22.2106 4.73462C21.9355 4.73462 21.7612 4.60336 21.6796 4.36604L20.8676 4.82809C21.1115 5.33389 21.5861 5.57121 22.2106 5.57121C22.8848 5.57121 23.5093 5.26495 23.5093 4.54701C23.5093 3.39156 21.9733 3.62888 21.9733 3.2729Z" fill="#6244BD"/>
<path d="M27.2127 1.11182V2.65441C27.0065 2.41709 26.7002 2.2739 26.2819 2.2739C25.4639 2.2739 24.7897 2.99183 24.7897 3.92256C24.7897 4.85328 25.4639 5.57121 26.2819 5.57121C26.7002 5.57121 27.0065 5.42736 27.2127 5.19004V5.48371H28.1494V1.11182H27.2127ZM26.4695 4.68424C26.0387 4.68424 25.7264 4.39057 25.7264 3.92256C25.7264 3.45388 26.0387 3.16021 26.4695 3.16021C26.9004 3.16021 27.2127 3.45388 27.2127 3.92256C27.2127 4.39057 26.9004 4.68424 26.4695 4.68424Z" fill="#6244BD"/>
<path d="M29.361 4.2971H31.5778C31.603 4.17844 31.6149 4.05381 31.6149 3.92255C31.6149 2.97923 30.9407 2.2739 30.0292 2.2739C29.0422 2.2739 28.368 2.99183 28.368 3.92255C28.368 4.85328 29.0296 5.57121 30.0975 5.57121C30.6908 5.57121 31.1529 5.35245 31.4591 4.92819L30.7094 4.4973C30.5848 4.63452 30.366 4.73462 30.1101 4.73462C29.7667 4.73462 29.4797 4.62192 29.361 4.2971ZM29.3418 3.59773C29.4293 3.27887 29.6666 3.10452 30.0226 3.10452C30.3037 3.10452 30.5848 3.23578 30.6849 3.59773H29.3418Z" fill="#6244BD"/>
<path d="M0.443443 20.8144H9.40798V17.9142H4.98239L7.16668 15.7107C8.37251 14.5055 9.21971 13.1492 9.21971 11.5675C9.21971 8.91184 7.11033 7.36726 4.75634 7.36726C2.92936 7.36726 1.15939 8.29003 0.311523 10.2489L2.85378 11.7365C3.21176 10.9079 3.87135 10.3053 4.79412 10.3053C5.67911 10.3053 6.20612 10.8707 6.20612 11.6994C6.20612 12.471 5.64132 13.2433 4.86903 14.0342L0.443443 18.6294V20.8144Z" fill="#6244BD"/>
<path d="M15.0574 21.0782C18.4661 21.0782 20.425 18.2907 20.425 14.2231C20.425 10.1548 18.4661 7.36726 15.0574 7.36726C11.6487 7.36726 9.68982 10.1548 9.68982 14.2231C9.68982 18.2907 11.6487 21.0782 15.0574 21.0782ZM15.0574 18.1402C13.4757 18.1402 12.7034 16.7653 12.7034 14.2231C12.7034 11.6802 13.4757 10.3053 15.0574 10.3053C16.6398 10.3053 17.4114 11.6802 17.4114 14.2231C17.4114 16.7653 16.6398 18.1402 15.0574 18.1402Z" fill="#6244BD"/>
<path d="M22.684 21.0782C23.6638 21.0782 24.4732 20.2682 24.4732 19.289C24.4732 18.3093 23.6638 17.4998 22.684 17.4998C21.7049 17.4998 20.8948 18.3093 20.8948 19.289C20.8948 20.2682 21.7049 21.0782 22.684 21.0782Z" fill="#6244BD"/>
<path d="M30.3113 21.0782C33.72 21.0782 35.6789 18.2907 35.6789 14.2231C35.6789 10.1548 33.72 7.36726 30.3113 7.36726C26.9026 7.36726 24.9437 10.1548 24.9437 14.2231C24.9437 18.2907 26.9026 21.0782 30.3113 21.0782ZM30.3113 18.1402C28.7296 18.1402 27.9573 16.7653 27.9573 14.2231C27.9573 11.6802 28.7296 10.3053 30.3113 10.3053C31.8937 10.3053 32.6653 11.6802 32.6653 14.2231C32.6653 16.7653 31.8937 18.1402 30.3113 18.1402Z" fill="#6244BD"/>
<path d="M41.2339 21.0782C44.6426 21.0782 46.6015 18.2907 46.6015 14.2231C46.6015 10.1548 44.6426 7.36726 41.2339 7.36726C37.8252 7.36726 35.8663 10.1548 35.8663 14.2231C35.8663 18.2907 37.8252 21.0782 41.2339 21.0782ZM41.2339 18.1402C39.6522 18.1402 38.8799 16.7653 38.8799 14.2231C38.8799 11.6802 39.6522 10.3053 41.2339 10.3053C42.8163 10.3053 43.5879 11.6802 43.5879 14.2231C43.5879 16.7653 42.8163 18.1402 41.2339 18.1402Z" fill="#6244BD"/>
<path d="M52.1565 21.0782C55.5652 21.0782 57.5241 18.2907 57.5241 14.2231C57.5241 10.1548 55.5652 7.36726 52.1565 7.36726C48.7478 7.36726 46.7889 10.1548 46.7889 14.2231C46.7889 18.2907 48.7478 21.0782 52.1565 21.0782ZM52.1565 18.1402C50.5748 18.1402 49.8025 16.7653 49.8025 14.2231C49.8025 11.6802 50.5748 10.3053 52.1565 10.3053C53.7389 10.3053 54.5105 11.6802 54.5105 14.2231C54.5105 16.7653 53.7389 18.1402 52.1565 18.1402Z" fill="#6244BD"/>
<path d="M52.4073 11.8303H60.8621C61.2512 11.8303 61.6238 11.9841 61.8989 12.2592C62.174 12.5337 62.3285 12.9069 62.3285 13.2953V16.2254C62.3285 16.6139 62.174 16.9864 61.8989 17.2615C61.6238 17.536 61.2512 17.6904 60.8621 17.6904H52.4073C51.5979 17.6904 50.941 17.0348 50.941 16.2254V13.2953C50.941 12.4859 51.5979 11.8303 52.4073 11.8303Z" fill="#E8E6E6"/>
<path d="M54.1296 14.1369L53.4164 15.8286L52.7064 14.1369H52.5022L53.303 16.0248H53.533L54.3298 14.1369H54.1296Z" fill="#2C445D"/>
<path d="M54.5791 13.6794C54.6619 13.6794 54.7302 13.6118 54.7302 13.529C54.7302 13.4494 54.6619 13.3811 54.5791 13.3811C54.4962 13.3811 54.4279 13.4494 54.4279 13.529C54.4279 13.6118 54.4962 13.6794 54.5791 13.6794ZM54.4849 16.0248H54.6732V14.1369H54.4849V16.0248Z" fill="#2C445D"/>
<path d="M56.7317 13.3811V14.5744C56.5766 14.284 56.2862 14.0951 55.9196 14.0951C55.3794 14.0951 54.9418 14.522 54.9418 15.0808C54.9418 15.6397 55.3794 16.0666 55.9196 16.0666C56.2862 16.0666 56.5766 15.8777 56.7317 15.5866V16.0248H56.9206V13.3811H56.7317ZM55.9309 15.8849C55.4814 15.8849 55.1301 15.5303 55.1301 15.0808C55.1301 14.6314 55.4814 14.2761 55.9309 14.2761C56.3803 14.2761 56.7317 14.6314 56.7317 15.0808C56.7317 15.5303 56.3803 15.8849 55.9309 15.8849Z" fill="#2C445D"/>
<path d="M58.9745 14.1369V14.5631C58.8161 14.28 58.525 14.0951 58.1624 14.0951C57.6261 14.0951 57.1846 14.522 57.1846 15.0808C57.1846 15.6397 57.6261 16.0666 58.1624 16.0666C58.525 16.0666 58.8161 15.8816 58.9745 15.5979V16.0248H59.1674V14.1369H58.9745ZM58.1777 15.885C57.7282 15.885 57.3769 15.5303 57.3769 15.0808C57.3769 14.6314 57.7282 14.2761 58.1777 14.2761C58.6271 14.2761 58.9745 14.6314 58.9745 15.0808C58.9745 15.5303 58.6271 15.885 58.1777 15.885Z" fill="#2C445D"/>
<path d="M59.688 14.6314C59.688 14.4047 59.8961 14.2761 60.1414 14.2761C60.3489 14.2761 60.5451 14.3669 60.6247 14.5631L60.7831 14.473C60.6817 14.2423 60.447 14.0951 60.1414 14.0951C59.7563 14.0951 59.499 14.3331 59.499 14.6314C59.499 15.3109 60.6439 15.0165 60.6439 15.5303C60.6439 15.7683 60.4205 15.885 60.1567 15.885C59.8729 15.885 59.6694 15.757 59.6011 15.5528L59.4387 15.647C59.5295 15.8889 59.7788 16.0666 60.1567 16.0666C60.5604 16.0666 60.8322 15.8399 60.8322 15.5303C60.8322 14.8389 59.688 15.1372 59.688 14.6314Z" fill="#2C445D"/>
<path d="M2.08943 23.4455V23.1425H1.16732V22.2761L0.851777 22.3689V23.1425H0.171631V23.4455H0.851777V25.4567C0.851777 26.1621 1.27869 26.3603 2.08943 26.2363V25.9579C1.45834 26.0136 1.16732 26.001 1.16732 25.4567V23.4455H2.08943Z" fill="#2C445D"/>
<path d="M2.83168 23.7491V23.1425H2.52277V26.2363H2.83168V24.5161C2.83168 23.7239 3.33284 23.3964 3.86516 23.3964V23.0994C3.44421 23.0994 3.04249 23.2599 2.83168 23.7491Z" fill="#2C445D"/>
<path d="M6.90347 23.1425V23.8419C6.64361 23.3778 6.16698 23.0742 5.57301 23.0742C4.69399 23.0742 3.97009 23.7736 3.97009 24.6897C3.97009 25.6052 4.69399 26.3046 5.57301 26.3046C6.16698 26.3046 6.64361 26.001 6.90347 25.5369V26.2363H7.21902V23.1425H6.90347ZM5.59754 26.0076C4.86104 26.0076 4.28564 25.4256 4.28564 24.6897C4.28564 23.9533 4.86104 23.3712 5.59754 23.3712C6.33403 23.3712 6.90347 23.9533 6.90347 24.6897C6.90347 25.4256 6.33403 26.0076 5.59754 26.0076Z" fill="#2C445D"/>
<path d="M9.27888 23.0742C8.80225 23.0742 8.40649 23.2724 8.17116 23.7305V23.1425H7.86224V26.2363H8.17116V24.6029C8.17116 23.7676 8.64779 23.3712 9.25436 23.3712C9.83573 23.3712 10.1639 23.7424 10.1639 24.3119V26.2363H10.4794V24.3119C10.4794 23.5635 10.0154 23.0742 9.27888 23.0742Z" fill="#2C445D"/>
<path d="M11.2525 23.9533C11.2525 23.582 11.5926 23.3712 11.995 23.3712C12.3351 23.3712 12.6572 23.5197 12.7872 23.8419L13.047 23.6934C12.88 23.3155 12.4961 23.0742 11.995 23.0742C11.3639 23.0742 10.943 23.464 10.943 23.9533C10.943 25.0669 12.8183 24.5843 12.8183 25.4256C12.8183 25.8154 12.4531 26.0076 12.0195 26.0076C11.5555 26.0076 11.2214 25.7968 11.11 25.4627L10.8442 25.6178C10.9927 26.0136 11.401 26.3046 12.0195 26.3046C12.6818 26.3046 13.1272 25.9334 13.1272 25.4256C13.1272 24.2933 11.2525 24.7826 11.2525 23.9533Z" fill="#2C445D"/>
<path d="M15.0264 22.1342V21.8373C14.2164 21.7749 13.7895 22.2144 13.7895 22.9755V23.1425H13.2571V23.4455H13.7895V26.2363H14.105V23.4455H15.0264V23.1425H14.105V22.9755C14.105 22.3755 14.3954 22.0845 15.0264 22.1342Z" fill="#2C445D"/>
<path d="M16.6105 26.3046C17.5081 26.3046 18.232 25.6052 18.232 24.6897C18.232 23.7736 17.5081 23.0742 16.6105 23.0742C15.707 23.0742 14.9831 23.7736 14.9831 24.6897C14.9831 25.6052 15.707 26.3046 16.6105 26.3046ZM16.6105 26.0076C15.874 26.0076 15.2986 25.4256 15.2986 24.6897C15.2986 23.9533 15.874 23.3712 16.6105 23.3712C17.347 23.3712 17.9165 23.9533 17.9165 24.6897C17.9165 25.4256 17.347 26.0076 16.6105 26.0076Z" fill="#2C445D"/>
<path d="M18.9738 23.7491V23.1425H18.6649V26.2363H18.9738V24.5161C18.9738 23.7239 19.475 23.3964 20.0073 23.3964V23.0994C19.5864 23.0994 19.1846 23.2599 18.9738 23.7491Z" fill="#2C445D"/>
<path d="M23.627 23.0742C23.2127 23.0742 22.8163 23.2724 22.5935 23.7053C22.4331 23.297 22.0804 23.0742 21.6283 23.0742C21.2326 23.0742 20.8613 23.2479 20.632 23.6748V23.1425H20.3231V26.2363H20.632V24.5101C20.632 23.7179 21.0841 23.3712 21.5912 23.3712C22.0678 23.3712 22.3834 23.6868 22.3834 24.2748V26.2363H22.693V24.5101C22.693 23.7179 23.1013 23.3712 23.621 23.3712C24.1036 23.3712 24.4437 23.6868 24.4437 24.2748V26.2363H24.7533V24.2748C24.7533 23.5011 24.2826 23.0742 23.627 23.0742Z" fill="#2C445D"/>
<path d="M28.0387 23.1425V23.8419C27.7788 23.3778 27.3022 23.0742 26.7082 23.0742C25.8292 23.0742 25.1053 23.7736 25.1053 24.6897C25.1053 25.6052 25.8292 26.3046 26.7082 26.3046C27.3022 26.3046 27.7788 26.001 28.0387 25.5369V26.2363H28.3542V23.1425H28.0387ZM26.7327 26.0076C25.9962 26.0076 25.4208 25.4256 25.4208 24.6897C25.4208 23.9533 25.9962 23.3712 26.7327 23.3712C27.4692 23.3712 28.0387 23.9533 28.0387 24.6897C28.0387 25.4256 27.4692 26.0076 26.7327 26.0076Z" fill="#2C445D"/>
<path d="M31.726 21.9049V23.8604C31.4721 23.3838 30.9961 23.0742 30.3955 23.0742C29.5105 23.0742 28.7933 23.7736 28.7933 24.6897C28.7933 25.6052 29.5105 26.3046 30.3955 26.3046C30.9961 26.3046 31.4721 25.995 31.726 25.5184V26.2363H32.0356V21.9049H31.726ZM30.4141 26.0076C29.6776 26.0076 29.1022 25.4256 29.1022 24.6897C29.1022 23.9533 29.6776 23.3712 30.4141 23.3712C31.1506 23.3712 31.726 23.9533 31.726 24.6897C31.726 25.4256 31.1506 26.0076 30.4141 26.0076Z" fill="#2C445D"/>
<path d="M35.4013 23.1425V23.8419C35.1415 23.3778 34.6648 23.0742 34.0709 23.0742C33.1919 23.0742 32.468 23.7736 32.468 24.6897C32.468 25.6052 33.1919 26.3046 34.0709 26.3046C34.6648 26.3046 35.1415 26.001 35.4013 25.5369V26.2363H35.7169V23.1425H35.4013ZM34.0954 26.0076C33.3589 26.0076 32.7835 25.4256 32.7835 24.6897C32.7835 23.9533 33.3589 23.3712 34.0954 23.3712C34.8319 23.3712 35.4013 23.9533 35.4013 24.6897C35.4013 25.4256 34.8319 26.0076 34.0954 26.0076Z" fill="#2C445D"/>
<path d="M36.5703 23.9533C36.5703 23.582 36.9104 23.3712 37.3127 23.3712C37.6528 23.3712 37.975 23.5197 38.1049 23.8419L38.3648 23.6934C38.1977 23.3155 37.8139 23.0742 37.3127 23.0742C36.6816 23.0742 36.2607 23.464 36.2607 23.9533C36.2607 25.0669 38.1361 24.5843 38.1361 25.4256C38.1361 25.8154 37.7708 26.0076 37.3373 26.0076C36.8732 26.0076 36.5391 25.7968 36.4278 25.4627L36.1619 25.6178C36.3104 26.0136 36.7188 26.3046 37.3373 26.3046C37.9995 26.3046 38.445 25.9334 38.445 25.4256C38.445 24.2933 36.5703 24.7826 36.5703 23.9533Z" fill="#2C445D"/>
<mask id="mask1_37_4" style="mask-type:luminance" maskUnits="userSpaceOnUse" x="60" y="12" width="4" height="3">
<path d="M60.7753 12.179H63.1936V14.5973H60.7753V12.179Z" fill="white"/>
</mask>
<g mask="url(#mask1_37_4)">
<path d="M62.3079 12.179L62.5055 12.4846L62.8694 12.5025L62.888 12.8664L63.1936 13.064L63.0278 13.3881L63.1936 13.7116L62.888 13.9092L62.8701 14.2731L62.5061 14.291L62.3086 14.5973L61.9851 14.4309L61.6609 14.5973L61.4634 14.2917L61.0994 14.2738L61.0815 13.9098L60.7753 13.7123L60.9417 13.3881L60.7753 13.0646L61.0809 12.8671L61.0994 12.5031L61.4627 12.4853L61.6603 12.179L61.9844 12.3447L62.3079 12.179Z" fill="#42A5F5"/>
</g>
<path d="M61.8346 13.8058L61.4608 13.4319L61.5827 13.3099L61.8366 13.5638L62.3875 13.0295L62.5075 13.1535L61.8346 13.8058Z" fill="white"/>
</svg>
